<svg width="20" height="20" viewBox="0 0 19 18" fill="none" xmlns="http://www.w3.org/2000/svg">
<path d="M0.818115 4.44507C0.818115 1.99013 2.80824 0 5.26319 0H14.1533C16.6083 0 18.5984 1.99013 18.5984 4.44507V13.3352C18.5984 15.7902 16.6083 17.7803 14.1533 17.7803H5.26319C2.80824 17.7803 0.818115 15.7902 0.818115 13.3352V4.44507Z" fill="#000F20"/>
<path d="M14.3892 5.9502C14.2523 6.38955 14.1281 6.79707 14.0008 7.20458C13.8734 7.61528 13.7397 8.02279 13.6187 8.43349C13.5901 8.53537 13.5359 8.55766 13.4404 8.55766C12.3166 8.55766 11.1959 8.55766 10.072 8.55766C8.68713 8.55766 7.29903 8.55766 5.91412 8.55766C5.7804 8.55766 5.78041 8.5513 5.81861 8.42395C5.9587 7.97504 6.0956 7.52614 6.23886 7.07723C6.35029 6.72703 6.46809 6.38 6.57634 6.02979C6.60181 5.94383 6.66549 5.95338 6.72598 5.95338C7.34044 5.95338 7.95807 5.95338 8.57253 5.95338C8.79221 5.95338 8.79857 5.95338 8.86861 5.74326C9.01188 5.29435 9.15196 4.84545 9.28568 4.39654C9.31433 4.29467 9.37483 4.24373 9.47353 4.22144C9.85239 4.13867 10.2344 4.05589 10.6133 3.96993C11.0877 3.86487 11.5588 3.75981 12.0332 3.65474C12.1765 3.62291 12.3197 3.59425 12.4598 3.56241C12.5553 3.54013 12.5713 3.57833 12.5426 3.66111C12.4312 4.01132 12.3229 4.36153 12.2115 4.71174C12.1001 5.0715 11.9887 5.42807 11.874 5.78782C11.8326 5.91517 11.839 5.93428 11.9759 5.93746C12.6891 5.94383 13.399 5.94701 14.1122 5.9502C14.1981 5.9502 14.2873 5.9502 14.3955 5.9502H14.3892Z" fill="#E8C41D"/>
<path d="M10.9031 8.86651C10.8617 9.00977 10.8267 9.13074 10.7917 9.25172C10.6643 9.66242 10.5274 10.0667 10.4128 10.4806C10.3046 10.8627 10.2186 11.2479 10.1263 11.63C10.0849 11.8051 10.069 11.9929 10.1549 12.1521C10.225 12.2794 10.3332 12.4036 10.4542 12.4864C10.642 12.6137 10.8649 12.6647 11.0941 12.6774C11.5016 12.6997 11.906 12.6774 12.3008 12.5691C12.3199 12.5628 12.3422 12.5628 12.3931 12.5564C12.3549 12.6869 12.323 12.8047 12.288 12.9194C12.1639 13.3237 12.0365 13.7312 11.9123 14.1355C11.8901 14.2088 11.8678 14.2884 11.8296 14.3552C11.8073 14.3934 11.7595 14.4284 11.7181 14.4348C11.3584 14.5112 11.0018 14.6099 10.6389 14.6449C10.1549 14.6895 9.66146 14.7213 9.17753 14.6895C8.55989 14.6513 7.97091 14.473 7.49017 14.0655C6.97122 13.6261 6.77384 13.0658 6.92029 12.4004C6.99988 12.0375 7.05719 11.6714 7.1527 11.3116C7.27686 10.8531 7.44242 10.4074 7.56022 9.94896C7.6239 9.70381 7.78307 9.58283 7.98364 9.4714C8.40071 9.24217 8.84644 9.08935 9.31445 9.01294C9.70605 8.94927 10.1008 8.91106 10.4956 8.86967C10.6229 8.85694 10.7503 8.86967 10.9031 8.86967V8.86651Z" fill="#E8C41D"/>
</svg>
