<svg width="15" height="15" viewBox="0 0 13 12" fill="none" xmlns="http://www.w3.org/2000/svg">
<path d="M6.50206 11.2392C4.59683 11.2392 2.69119 11.2388 0.785961 11.24C0.609166 11.24 0.440274 11.2237 0.293846 11.111C-0.00524934 10.8812 -0.0834552 10.5135 0.112475 10.1806C1.05427 8.58146 2.00189 6.98524 2.94452 5.38651C3.79522 3.94354 4.64259 2.49807 5.49121 1.05385C5.62141 0.831915 5.74662 0.607054 5.88224 0.388055C6.20587 -0.135365 6.80906 -0.128247 7.12313 0.40313C8.24131 2.29289 9.35907 4.18264 10.4735 6.07449C11.2747 7.43413 12.0617 8.80214 12.8733 10.1551C13.1866 10.6777 12.786 11.2538 12.2385 11.248C10.3267 11.227 8.41394 11.24 6.50164 11.24V11.2392H6.50206ZM7.16972 3.99295C7.17388 3.90083 7.1926 3.72664 7.18719 3.55328C7.17721 3.23546 6.95673 2.97794 6.65722 2.91387C6.20047 2.81589 5.79488 3.13622 5.81609 3.60981C5.85187 4.4096 5.91011 5.20855 5.96294 6.00749C6.00329 6.61927 6.05029 7.2302 6.09314 7.84156C6.10313 7.98686 6.14181 8.11457 6.27243 8.19832C6.56903 8.38843 6.88726 8.19413 6.91347 7.80597C6.99708 6.56232 7.08028 5.31867 7.1693 3.99295H7.16972ZM7.06323 9.42229C7.06198 9.10698 6.80448 8.85448 6.48916 8.85951C6.18299 8.86411 5.94214 9.11159 5.93839 9.42522C5.93465 9.74848 6.18008 9.99721 6.50123 9.99596C6.81862 9.9947 7.06447 9.74388 7.06323 9.42229Z" fill="#FF0000"/>
<path d="M7.16972 3.99295C7.0807 5.31825 6.99754 6.56195 6.91393 7.80601C6.88772 8.19418 6.56949 8.38805 6.27289 8.19837C6.14227 8.11462 6.104 7.98691 6.0936 7.8416C6.05075 7.23025 6.00375 6.6189 5.9634 6.00754C5.91057 5.20859 5.85191 4.40964 5.81655 3.60986C5.79534 3.13627 6.20093 2.81635 6.65768 2.91392C6.95719 2.97798 7.17767 3.23593 7.18765 3.55333C7.19306 3.72668 7.17434 3.90088 7.17018 3.993L7.16972 3.99295Z" fill="white"/>
<path d="M7.06327 9.42192C7.06452 9.7435 6.81867 9.99433 6.50127 9.99558C6.18013 9.99684 5.93469 9.74811 5.93844 9.42485C5.94218 9.11121 6.18304 8.86374 6.4892 8.85913C6.80452 8.85453 7.06202 9.10703 7.06327 9.42192Z" fill="white"/>
</svg>
