<svg width="25" height="25" viewBox="0 0 16 13" fill="none" xmlns="http://www.w3.org/2000/svg">
<g clip-path="url(#clip0_6096_29556)">
<path d="M0.775391 11.2317H5.29708V11.7334H0.775391V11.2317Z" fill="white"/>
<path d="M10.3838 11.2317H14.9054V11.7334H10.3838V11.2317Z" fill="white"/>
<path d="M12.7527 4.80469V6.36855L2.72953 6.36913C2.72333 6.36855 2.71633 6.36729 2.70932 6.36603V4.80469H1.99194V6.36855C1.99194 7.00525 2.70932 7.00525 2.70932 7.00525H6.29624V7.64158H5.9376C5.73934 7.64158 5.57887 7.78399 5.57887 7.96004C5.57887 8.136 5.73934 8.27846 5.9376 8.27846L7.37234 8.27896V9.55279H8.08971V8.27896L9.5245 8.27846C9.72276 8.27846 9.88318 8.136 9.88318 7.96004C9.88318 7.78399 9.72276 7.64158 9.5245 7.64158H9.16581V7.00525H12.7527C12.7527 7.00525 13.4701 7.00525 13.4701 6.36855V4.80469H12.7527ZM8.44844 7.64162H7.01365V7.00525H8.44844V7.64162Z" fill="white"/>
<path d="M13.4701 5.09487V0.636845C13.4701 0 12.7527 0 12.7527 0H2.70932C2.70932 0 1.99194 0 1.99194 0.636845V5.09487H13.4701ZM2.70932 0.636845H12.7527V4.45791H2.70932V0.636845Z" fill="#F50404"/>
<path d="M7.73135 5.47656C7.57301 5.47656 7.44409 5.59096 7.44409 5.73161C7.44409 5.87214 7.57301 5.98658 7.73135 5.98658C7.8896 5.98658 8.01856 5.87214 8.01856 5.73161C8.01856 5.59096 7.8896 5.47656 7.73135 5.47656Z" fill="#F50404"/>
<path d="M10.0282 10.3274C9.85882 10.1949 9.5847 10.1949 9.41534 10.3274L7.34387 11.9486L6.60279 11.3686C6.43344 11.2361 6.15846 11.2361 5.98996 11.3686C5.82146 11.5011 5.82065 11.7163 5.98996 11.8482L7.03786 12.6683C7.20721 12.8008 7.48134 12.8008 7.65069 12.6683L10.0282 10.807C10.1967 10.6745 10.1967 10.46 10.0282 10.3274Z" fill="#F50404"/>
</g>
<defs>
<clipPath id="clip0_6096_29556">
<rect width="14.6441" height="13" fill="white" transform="translate(0.423828)"/>
</clipPath>
</defs>
</svg>
