<svg width="25" height="25" viewBox="0 0 16 13" fill="none" xmlns="http://www.w3.org/2000/svg">
<g clip-path="url(#clip0_6096_29548)">
<path d="M1.13135 11.2317H5.65303V11.7334H1.13135V11.2317Z" fill="white"/>
<path d="M10.7397 11.2317H15.2614V11.7334H10.7397V11.2317Z" fill="white"/>
<path d="M13.1087 4.80469V6.36855L3.08548 6.36913C3.07929 6.36855 3.07228 6.36729 3.06528 6.36603V4.80469H2.3479V6.36855C2.3479 7.00525 3.06528 7.00525 3.06528 7.00525H6.65219V7.64158H6.29356C6.09529 7.64158 5.93482 7.78399 5.93482 7.96004C5.93482 8.136 6.09529 8.27846 6.29356 8.27846L7.7283 8.27896V9.55279H8.44567V8.27896L9.88045 8.27846C10.0787 8.27846 10.2391 8.136 10.2391 7.96004C10.2391 7.78399 10.0787 7.64158 9.88045 7.64158H9.52177V7.00525H13.1087C13.1087 7.00525 13.826 7.00525 13.826 6.36855V4.80469H13.1087ZM8.8044 7.64162H7.36961V7.00525H8.8044V7.64162Z" fill="white"/>
<path d="M13.826 5.09487V0.636845C13.826 0 13.1087 0 13.1087 0H3.06528C3.06528 0 2.3479 0 2.3479 0.636845V5.09487H13.826ZM3.06528 0.636845H13.1087V4.45791H3.06528V0.636845Z" fill="#72E005"/>
<path d="M8.08731 5.47656C7.92896 5.47656 7.80005 5.59096 7.80005 5.73161C7.80005 5.87214 7.92896 5.98658 8.08731 5.98658C8.24556 5.98658 8.37452 5.87214 8.37452 5.73161C8.37452 5.59096 8.24556 5.47656 8.08731 5.47656Z" fill="#72E005"/>
<path d="M10.3841 10.3274C10.2148 10.1949 9.94065 10.1949 9.7713 10.3274L7.69983 11.9486L6.95875 11.3686C6.78939 11.2361 6.51442 11.2361 6.34592 11.3686C6.17741 11.5011 6.17661 11.7163 6.34592 11.8482L7.39382 12.6683C7.56317 12.8008 7.83729 12.8008 8.00665 12.6683L10.3841 10.807C10.5526 10.6745 10.5526 10.46 10.3841 10.3274Z" fill="url(#paint0_linear_6096_29548)"/>
</g>
<defs>
<linearGradient id="paint0_linear_6096_29548" x1="6.50884" y1="9.63576" x2="9.69914" y2="13.7123" gradientUnits="userSpaceOnUse">
<stop stop-color="#70F64A"/>
<stop offset="1" stop-color="#19B931"/>
</linearGradient>
<clipPath id="clip0_6096_29548">
<rect width="14.6441" height="13" fill="white" transform="translate(0.779785)"/>
</clipPath>
</defs>
</svg>
