<svg width="20" height="20" viewBox="0 0 18 18" fill="none" xmlns="http://www.w3.org/2000/svg">
<path d="M0.15918 4.44507C0.15918 1.99013 2.14931 0 4.60425 0H13.4944C15.9493 0 17.9395 1.99013 17.9395 4.44507V13.3352C17.9395 15.7902 15.9493 17.7803 13.4944 17.7803H4.60425C2.14931 17.7803 0.15918 15.7902 0.15918 13.3352V4.44507Z" fill="#000F20"/>
<path d="M14.2869 9.44084L9.57221 14.1556C9.28289 14.4449 8.81381 14.4449 8.52449 14.1556L3.80978 9.44085C3.52046 9.15153 3.52046 8.68245 3.80978 8.39313C4.0991 8.10381 4.56818 8.10381 4.85749 8.39313L8.3075 11.8431L8.3075 3.85254L9.78919 3.85254L9.78919 11.8431L13.2392 8.39313C13.5285 8.10381 13.9976 8.10381 14.2869 8.39313C14.5762 8.68245 14.5762 9.15153 14.2869 9.44084Z" fill="#73E005" fill-opacity="0.2"/>
<path fill-rule="evenodd" clip-rule="evenodd" d="M14.4977 7.88715C14.9028 8.2922 14.9028 8.94891 14.4977 9.35395L9.78302 14.0687C9.37797 14.4737 8.72127 14.4737 8.31622 14.0687L3.60151 9.35395C3.19646 8.94891 3.19646 8.2922 3.60151 7.88715C4.00655 7.48211 4.66326 7.48211 5.06831 7.88715L8.01244 10.8313L8.01243 3.25977L10.0868 3.25977L10.0868 10.8313L13.0309 7.88715C13.436 7.48211 14.0927 7.48211 14.4977 7.88715Z" fill="#72E005"/>
</svg>
