<svg width="20" height="20" viewBox="0 0 12 12" fill="none" xmlns="http://www.w3.org/2000/svg">
<path fill-rule="evenodd" clip-rule="evenodd" d="M5.67085 11.2477L5.41939 10.0077L5.25014 9.96592C4.78672 9.85136 4.34757 9.664 3.94434 9.409L3.79386 9.31386L2.75407 10.0031L1.88645 9.13588L2.58643 8.07965L2.49647 7.93047C2.24955 7.52209 2.07091 7.07876 1.96541 6.61342L1.92593 6.43997L0.70459 6.19274V4.96662L1.9447 4.71518L1.98644 4.54594C2.10101 4.08286 2.28838 3.64342 2.54339 3.24021L2.63854 3.08974L1.94923 2.04968L2.81653 1.18211L3.87249 1.88206L4.02168 1.7921C4.43041 1.54519 4.87345 1.36656 5.33914 1.26107L5.5126 1.22159L5.75984 0.000647201L6.98603 0L7.23748 1.24068L7.40674 1.28243C7.86984 1.39698 8.30931 1.58402 8.71254 1.83934L8.86335 1.93448L9.90313 1.24521L10.7708 2.11246L10.0708 3.16869L10.1607 3.31787C10.4073 3.72626 10.5863 4.16959 10.6918 4.63493L10.7313 4.80838L11.9526 5.05593V6.28205L10.7125 6.53349L10.6708 6.70273C10.5598 7.15189 10.3798 7.57937 10.1365 7.97286L10.0209 8.15926L10.9339 9.06016L9.82514 10.218L8.89118 9.29671L8.70639 9.41288C8.27857 9.68244 7.81158 9.87563 7.31839 9.9876L7.14493 10.0268L6.89736 11.248H5.67117L5.67085 11.2477ZM6.33426 2.56324C5.08218 2.56324 3.96764 3.31237 3.49451 4.47151C3.18513 5.2297 3.18966 6.06297 3.50713 6.81793C3.8246 7.57289 4.41682 8.15893 5.17506 8.4683C5.54463 8.61909 5.93427 8.69546 6.33329 8.69546C6.73231 8.69546 7.1294 8.61747 7.5022 8.46376L7.88634 8.3052L6.8362 7.26903L6.67633 7.3221C6.47633 7.38844 6.26825 7.4221 6.05757 7.4221C5.92327 7.4221 5.78864 7.40818 5.65693 7.381C4.99125 7.24153 4.46569 6.74707 4.28543 6.0908C4.2 5.77724 4.1945 5.44425 4.27022 5.12777C4.27184 5.12065 4.27605 5.11644 4.28123 5.11483C4.28479 5.11385 4.28608 5.11353 4.28705 5.11353C4.28899 5.11353 4.29255 5.11385 4.29546 5.11709L5.37506 6.18271L6.54882 5.86008L6.85626 4.68217L5.77893 3.61882C5.77893 3.61882 5.77408 3.61429 5.77408 3.6075C5.77408 3.6007 5.77764 3.59714 5.77893 3.59585C5.7812 3.59358 5.78379 3.59229 5.7867 3.59132C5.94268 3.55184 6.1032 3.5321 6.26371 3.5321C6.42423 3.5321 6.59154 3.55281 6.75044 3.5939C7.409 3.76509 7.91029 4.28414 8.05851 4.94849C8.13326 5.28569 8.11773 5.63809 8.0132 5.96784L7.96239 6.12834L9.01706 7.17292L9.17273 6.7914C9.48211 6.0332 9.47757 5.19929 9.15978 4.44368C8.84199 3.68775 8.24976 3.10106 7.49152 2.79202C7.12098 2.6409 6.73167 2.56421 6.33426 2.56421V2.56324Z" fill="#E8C41D"/>
</svg>
