<svg width="22" height="22" viewBox="0 0 22 22" fill="none" xmlns="http://www.w3.org/2000/svg">
<rect width="22" height="22" rx="3" fill="#002247"/>
<path d="M11 3.00002C9.2537 2.99592 7.55513 3.56974 6.16911 4.63203V3.57145H5.02625V6.84404H8.29826V5.70117H6.65711C7.87801 4.68995 9.41469 4.13857 11 4.14288C12.818 4.14485 14.561 4.86793 15.8466 6.15347C17.1321 7.43902 17.8552 9.18202 17.8571 11.0001H19C18.9977 8.87901 18.1542 6.84549 16.6543 5.34568C15.1545 3.84588 13.121 3.00229 11 3.00002Z" fill="white"/>
<path d="M13.8052 16.2989H15.3429C14.122 17.3101 12.5853 17.8615 11 17.8572C9.182 17.8552 7.43899 17.1321 6.15345 15.8466C4.86791 14.561 4.14483 12.818 4.14286 11H3C3.00227 13.121 3.84586 15.1546 5.34566 16.6544C6.84546 18.1542 8.87899 18.9978 11 19C12.7919 19.0041 14.532 18.3997 15.9355 17.2857V18.4286H17.0783V15.156H13.8052V16.2989Z" fill="white"/>
</svg>
