<svg width="16" height="16" viewBox="0 0 16 16" fill="none" xmlns="http://www.w3.org/2000/svg">
<path d="M10.8889 1H5.11111C4.49848 1 4 1.49848 4 2.11111V13.6667C4 14.2793 4.49848 14.7778 5.11111 14.7778H10.8889C11.5015 14.7778 12 14.2793 12 13.6667V2.11111C12 1.49848 11.5015 1 10.8889 1ZM8.9298 1.44444C8.90495 1.51432 8.88889 1.58832 8.88889 1.66667C8.88889 1.78928 8.78917 1.88889 8.66667 1.88889H7.33333C7.21083 1.88889 7.11111 1.78928 7.11111 1.66667C7.11111 1.58832 7.09505 1.51432 7.0702 1.44444H8.9298ZM11.5556 13.6667C11.5556 14.0343 11.2565 14.3333 10.8889 14.3333H5.11111C4.74349 14.3333 4.44444 14.0343 4.44444 13.6667V2.11111C4.44444 1.74349 4.74349 1.44444 5.11111 1.44444H6.44444C6.56695 1.44444 6.66667 1.54405 6.66667 1.66667C6.66667 2.03429 6.96571 2.33333 7.33333 2.33333H8.66667C9.03429 2.33333 9.33333 2.03429 9.33333 1.66667C9.33333 1.54405 9.43305 1.44444 9.55556 1.44444H10.8889C11.2565 1.44444 11.5556 1.74349 11.5556 2.11111V13.6667ZM8.44444 6.33333C8.44444 5.59809 7.84635 5 7.11111 5C6.37587 5 5.77778 5.59809 5.77778 6.33333C5.77778 7.06858 6.37587 7.66667 7.11111 7.66667C7.84635 7.66667 8.44444 7.06858 8.44444 6.33333ZM7.11111 7.22222C6.62099 7.22222 6.22222 6.82357 6.22222 6.33333C6.22222 5.8431 6.62099 5.44444 7.11111 5.44444C7.60124 5.44444 8 5.8431 8 6.33333C8 6.82357 7.60124 7.22222 7.11111 7.22222ZM8.89334 9.88889C9.01606 9.88889 9.11556 9.7895 9.11556 9.66667C9.11556 9.65061 9.11382 9.63477 9.11057 9.61958C9.08539 8.53841 8.19813 7.66667 7.11111 7.66667C6.00836 7.66667 5.11111 8.5638 5.11111 9.66667C5.11111 9.7895 5.21061 9.88889 5.33333 9.88889H8.88889H8.89334ZM5.5714 9.44444C5.67958 8.69162 6.32878 8.11111 7.11111 8.11111C7.89345 8.11111 8.54264 8.69162 8.65082 9.44444H5.5714ZM10.8889 7.66667C10.8889 7.7895 10.7894 7.88889 10.6667 7.88889H10V8.55556C10 8.67839 9.9005 8.77778 9.77778 8.77778C9.65506 8.77778 9.55556 8.67839 9.55556 8.55556V7.88889H8.88889C8.76617 7.88889 8.66667 7.7895 8.66667 7.66667C8.66667 7.54384 8.76617 7.44445 8.88889 7.44445H9.55556V6.77778C9.55556 6.65495 9.65506 6.55556 9.77778 6.55556C9.9005 6.55556 10 6.65495 10 6.77778V7.44445H10.6667C10.7894 7.44445 10.8889 7.54384 10.8889 7.66667ZM8.66667 12.5556H7.33333C6.96571 12.5556 6.66667 12.8546 6.66667 13.2222C6.66667 13.5898 6.96571 13.8889 7.33333 13.8889H8.66667C9.03429 13.8889 9.33333 13.5898 9.33333 13.2222C9.33333 12.8546 9.03429 12.5556 8.66667 12.5556ZM8.66667 13.4444H7.33333C7.21083 13.4444 7.11111 13.3448 7.11111 13.2222C7.11111 13.0996 7.21083 13 7.33333 13H8.66667C8.78917 13 8.88889 13.0996 8.88889 13.2222C8.88889 13.3448 8.78917 13.4444 8.66667 13.4444Z" fill="white"/>
</svg>
