<svg width="30" height="30" viewBox="0 0 50 50" fill="none" xmlns="http://www.w3.org/2000/svg">
<path d="M0 12.4999C0 5.59642 5.59642 0 12.4999 0H37.4998C44.4034 0 49.9998 5.59642 49.9998 12.4999V37.4998C49.9998 44.4034 44.4034 49.9998 37.4998 49.9998H12.4999C5.59642 49.9998 0 44.4034 0 37.4998V12.4999Z" fill="#002139"/>
<path fill-rule="evenodd" clip-rule="evenodd" d="M40.321 22.1791C41.46 23.3182 41.46 25.1649 40.321 26.3039L27.0628 39.5621C25.9238 40.7011 24.0771 40.7011 22.9381 39.5621L9.67986 26.3039C8.54084 25.1649 8.54084 23.3182 9.67986 22.1791C10.8189 21.0401 12.6656 21.0401 13.8046 22.1791L22.0838 30.4583L22.0838 9.1665L27.9171 9.1665L27.9171 30.4583L36.1963 22.1791C37.3353 21.0401 39.182 21.0401 40.321 22.1791Z" fill="#73E005"/>
</svg>
