<svg width="9" height="8" viewBox="0 0 9 8" fill="none" xmlns="http://www.w3.org/2000/svg">
<path d="M4.5055 7.99371C3.18431 7.99371 1.86283 7.99342 0.541642 7.99431C0.419043 7.99431 0.301924 7.98269 0.200383 7.90258C-0.0070262 7.73908 -0.0612584 7.47759 0.0746106 7.24082C0.727705 6.10345 1.38484 4.96816 2.03851 3.83108C2.62843 2.80479 3.21604 1.77672 3.80452 0.749533C3.89481 0.591688 3.98164 0.431759 4.07568 0.275999C4.30011 -0.0962765 4.71839 -0.0912136 4.93618 0.28672C5.71159 1.63078 6.48671 2.97485 7.25952 4.3204C7.81511 5.28742 8.36089 6.2604 8.9237 7.22266C9.14091 7.59434 8.86312 8.00414 8.48349 7.99997C7.15769 7.98508 5.83131 7.99431 4.50521 7.99431V7.99371H4.5055ZM4.96849 2.83993C4.97138 2.77441 4.98436 2.65052 4.98061 2.52722C4.97369 2.30118 4.8208 2.11802 4.6131 2.07245C4.29636 2.00276 4.0151 2.23059 4.02981 2.56743C4.05462 3.13627 4.09501 3.70451 4.13164 4.27275C4.15963 4.70786 4.19222 5.14238 4.22194 5.5772C4.22886 5.68054 4.25569 5.77138 4.34626 5.83094C4.55194 5.96615 4.77262 5.82797 4.7908 5.55189C4.84878 4.66736 4.90647 3.78283 4.9682 2.83993H4.96849ZM4.89465 6.70147C4.89378 6.47721 4.71522 6.29763 4.49656 6.3012C4.28424 6.30448 4.11722 6.48049 4.11462 6.70356C4.11203 6.93347 4.28222 7.11038 4.50492 7.10949C4.72503 7.10859 4.89551 6.9302 4.89465 6.70147Z" fill="#416682"/>
<path d="M4.96849 2.83993C4.90676 3.78254 4.8491 4.66709 4.79112 5.55192C4.77294 5.828 4.55226 5.96589 4.34658 5.83098C4.256 5.77141 4.22947 5.68058 4.22225 5.57723C4.19254 5.14242 4.15994 4.7076 4.13196 4.27278C4.09533 3.70454 4.05465 3.1363 4.03013 2.56746C4.01542 2.23063 4.29668 2.00309 4.61342 2.07248C4.82112 2.11805 4.974 2.30151 4.98093 2.52726C4.98468 2.65055 4.9717 2.77445 4.96881 2.83997L4.96849 2.83993Z" fill="#DFF7FE"/>
<path d="M4.89467 6.70121C4.89554 6.92993 4.72506 7.10833 4.50495 7.10922C4.28225 7.11011 4.11206 6.93321 4.11465 6.70329C4.11725 6.48022 4.28427 6.30421 4.49659 6.30094C4.71525 6.29766 4.89381 6.47725 4.89467 6.70121Z" fill="#DFF7FE"/>
</svg>
