<svg width="13" height="11" viewBox="0 0 13 11" fill="none" xmlns="http://www.w3.org/2000/svg">
<path d="M6.72971 10.72C4.96334 10.72 3.19658 10.7196 1.43021 10.7208C1.2663 10.7208 1.10971 10.7052 0.973958 10.5981C0.696661 10.3795 0.624155 10.0299 0.805806 9.71338C1.67897 8.19276 2.55752 6.67493 3.43145 5.1547C4.22015 3.7826 5.00576 2.40811 5.79253 1.03481C5.91325 0.823777 6.02933 0.609958 6.15506 0.401713C6.45512 -0.0960026 7.01434 -0.0892337 7.30552 0.416048C8.3422 2.213 9.3785 4.00996 10.4117 5.8089C11.1545 7.10177 11.8842 8.4026 12.6367 9.6891C12.9271 10.186 12.5557 10.7339 12.0481 10.7283C10.2756 10.7084 8.50226 10.7208 6.72933 10.7208V10.72H6.72971ZM7.34871 3.82958C7.35257 3.74199 7.36993 3.57635 7.36491 3.4115C7.35566 3.10929 7.15125 2.86441 6.87357 2.80349C6.4501 2.71032 6.07407 3.01492 6.09374 3.46526C6.12691 4.22577 6.1809 4.98548 6.22988 5.74519C6.26729 6.32692 6.31087 6.90786 6.3506 7.48919C6.35985 7.62736 6.39572 7.7488 6.51682 7.82843C6.79181 8.0092 7.08684 7.82445 7.11114 7.45535C7.18866 6.27277 7.2658 5.0902 7.34833 3.82958H7.34871ZM7.24998 8.99229C7.24883 8.69247 7.0101 8.45237 6.71776 8.45715C6.4339 8.46153 6.2106 8.69685 6.20713 8.99508C6.20366 9.30247 6.4312 9.53898 6.72894 9.53779C7.02321 9.53659 7.25114 9.29809 7.24998 8.99229Z" fill="#A15905"/>
<path d="M7.34871 3.82958C7.26618 5.0898 7.18909 6.27242 7.11157 7.45539C7.08727 7.8245 6.79223 8.00885 6.51725 7.82848C6.39615 7.74884 6.36067 7.6274 6.35102 7.48923C6.3113 6.9079 6.26772 6.32657 6.23031 5.74524C6.18133 4.98552 6.12695 4.22581 6.09417 3.4653C6.0745 3.01497 6.45053 2.71076 6.87399 2.80354C7.15168 2.86446 7.35608 3.10973 7.36534 3.41155C7.37035 3.57639 7.353 3.74203 7.34914 3.82963L7.34871 3.82958Z" fill="#FEF3DF"/>
<path d="M7.25002 8.99194C7.25118 9.29774 7.02325 9.53624 6.72898 9.53743C6.43124 9.53863 6.2037 9.30212 6.20717 8.99473C6.21064 8.6965 6.43394 8.46117 6.7178 8.45679C7.01014 8.45241 7.24887 8.69251 7.25002 8.99194Z" fill="#FEF3DF"/>
</svg>
