<svg width="17" height="9" viewBox="0 0 17 9" fill="none" xmlns="http://www.w3.org/2000/svg">
  <path
    d="M9.26008 8.58978L16.007 1.99586C16.8032 1.21749 16.1561 -9.38543e-07 14.9477 -8.47872e-07L1.45385 1.646e-07C1.18341 -0.000198179 0.918628 0.0662729 0.691221 0.191454C0.463815 0.316635 0.283422 0.495219 0.171645 0.705821C0.0598689 0.916423 0.0214454 1.15011 0.0609791 1.37891C0.100511 1.60771 0.216325 1.82191 0.394549 1.99586L7.14147 8.58858C7.27351 8.7178 7.43635 8.82137 7.61906 8.89233C7.80177 8.96329 8.00011 9 8.20078 9C8.40144 9 8.59979 8.96329 8.78249 8.89233C8.9652 8.82137 9.12804 8.7178 9.26008 8.58858L9.26008 8.58978Z"
    fill="#0D294E" />
</svg>
