<svg width="17" height="16" viewBox="0 0 17 16" fill="none" xmlns="http://www.w3.org/2000/svg">
<path fill-rule="evenodd" clip-rule="evenodd" d="M10.7942 1.86767L14.2303 1.86767C14.4412 1.86767 14.6121 2.03782 14.6121 2.24771L14.6121 5.66811C14.6121 5.878 14.4412 6.04816 14.2303 6.04816C14.0194 6.04816 13.8485 5.878 13.8485 5.66811L13.8485 3.16522L9.6409 7.35362L9.10098 6.81616L13.3086 2.62776L10.7942 2.62776C10.5834 2.62776 10.4124 2.45761 10.4124 2.24772C10.4124 2.03782 10.5834 1.86767 10.7942 1.86767Z" fill="white"/>
<path fill-rule="evenodd" clip-rule="evenodd" d="M3.16172 13.6459C2.95087 13.6459 2.77994 13.4758 2.77994 13.2659L2.77993 9.8455C2.77993 9.6356 2.95086 9.46545 3.16172 9.46545C3.37257 9.46545 3.5435 9.6356 3.5435 9.84549L3.54351 12.3484L8.02108 7.89125L8.561 8.42871L4.08344 12.8858L6.59781 12.8858C6.80866 12.8858 6.9796 13.056 6.9796 13.2659C6.9796 13.4758 6.80867 13.6459 6.59781 13.6459L3.16172 13.6459Z" fill="white"/>
</svg>
