<svg width="16" height="16" viewBox="0 0 16 16" fill="none" xmlns="http://www.w3.org/2000/svg">
<path d="M9.59375 7.92969C9.5 7.92969 9.45312 8 9.45312 8.07031C9.45312 8.16406 9.5 8.21094 9.59375 8.21094H12.5703C12.6641 8.21094 12.7109 8.16406 12.7109 8.07031C12.7109 8 12.6641 7.92969 12.5703 7.92969H9.59375Z" fill="white"/>
<path d="M8.86719 2.72656H9.21875V2.60938C9.21875 2.44531 9.28906 2.28125 9.38281 2.1875C9.40625 2.1875 9.40625 2.16406 9.40625 2.16406C9.5 2.07031 9.66406 2 9.80469 2H10.0156C10.1797 2 10.3203 2.07031 10.4375 2.1875C10.5547 2.28125 10.6016 2.44531 10.6016 2.60938V2.72656H10.9531C11.0938 2.72656 11.2344 2.79688 11.3281 2.89062C11.4219 2.98438 11.4922 3.125 11.4922 3.26562V4.20312C11.4922 4.34375 11.4219 4.48438 11.3281 4.57812V4.60156C11.2344 4.69531 11.0938 4.74219 10.9531 4.74219H8.86719C8.72656 4.74219 8.58594 4.67188 8.49219 4.57812C8.39844 4.48438 8.35156 4.34375 8.35156 4.20312V3.26562C8.35156 3.125 8.39844 2.98438 8.49219 2.89062C8.58594 2.79688 8.72656 2.72656 8.86719 2.72656ZM9.35938 3.00781H8.86719C8.79688 3.00781 8.75 3.03125 8.70312 3.07812C8.65625 3.125 8.63281 3.19531 8.63281 3.26562V4.20312C8.63281 4.27344 8.65625 4.34375 8.70312 4.39062C8.75 4.4375 8.79688 4.46094 8.86719 4.46094H10.9531C11.0234 4.46094 11.0703 4.4375 11.1172 4.39062H11.1406C11.1875 4.34375 11.2109 4.27344 11.2109 4.20312V3.26562C11.2109 3.19531 11.1875 3.125 11.1406 3.07812C11.0938 3.03125 11.0234 3.00781 10.9531 3.00781H10.4609C10.3906 3.00781 10.3203 2.96094 10.3203 2.86719V2.60938C10.3203 2.51562 10.2969 2.44531 10.25 2.375C10.1797 2.32812 10.1094 2.28125 10.0156 2.28125H9.80469C9.73438 2.28125 9.66406 2.32812 9.59375 2.375C9.52344 2.44531 9.5 2.51562 9.5 2.60938V2.86719C9.5 2.96094 9.42969 3.00781 9.35938 3.00781Z" fill="white"/>
<path d="M11.9141 11.9375C11.9141 12.0078 11.9844 12.0781 12.0547 12.0781C12.1484 12.0781 12.1953 12.0078 12.1953 11.9375V11.1875C12.1953 11.1172 12.2422 11.0469 12.2656 11.0234C12.2656 11.0234 12.2656 11 12.2891 11C12.3125 10.9766 12.3828 10.9531 12.4297 10.9531H13.25C13.3203 10.9531 13.3906 10.8828 13.3906 10.8125C13.3906 10.7188 13.3203 10.6719 13.25 10.6719H12.4297C12.2891 10.6719 12.1719 10.7188 12.0781 10.8125C11.9844 10.9062 11.9141 11.0469 11.9141 11.1875V11.9375Z" fill="white"/>
<path d="M11.3516 4.08594C11.2578 4.08594 11.2109 4.15625 11.2109 4.22656C11.2109 4.29688 11.2578 4.36719 11.3516 4.36719H12.9688C13.0156 4.36719 13.0391 4.39062 13.0625 4.41406H13.0859C13.0859 4.4375 13.1094 4.46094 13.1094 4.50781V10.7422L12.0078 11.7969H6.85156C6.82812 11.7969 6.78125 11.7734 6.75781 11.75C6.73438 11.7266 6.71094 11.6797 6.71094 11.6562V10.7891C6.71094 10.7188 6.66406 10.6484 6.57031 10.6484C6.5 10.6484 6.42969 10.7188 6.42969 10.7891V11.6562C6.42969 11.75 6.47656 11.8672 6.54688 11.9375H6.57031C6.64062 12.0312 6.73438 12.0781 6.85156 12.0781H12.0547C12.1016 12.0781 12.125 12.0547 12.1719 12.0312L13.3438 10.9062C13.3672 10.8828 13.3906 10.8594 13.3906 10.8125V4.50781C13.3906 4.39062 13.3438 4.29688 13.2734 4.22656C13.2734 4.20312 13.2734 4.20312 13.2734 4.20312C13.2031 4.13281 13.0859 4.08594 12.9688 4.08594H11.3516ZM6.42969 5.89062C6.42969 5.96094 6.5 6.03125 6.57031 6.03125C6.66406 6.03125 6.71094 5.96094 6.71094 5.89062V4.50781C6.71094 4.46094 6.73438 4.4375 6.75781 4.41406C6.78125 4.39062 6.82812 4.36719 6.85156 4.36719H8.49219C8.5625 4.36719 8.63281 4.29688 8.63281 4.22656C8.63281 4.15625 8.5625 4.08594 8.49219 4.08594H6.85156C6.73438 4.08594 6.64062 4.13281 6.57031 4.20312C6.47656 4.27344 6.42969 4.39062 6.42969 4.50781V5.89062Z" fill="white"/>
<path d="M8.96094 6.47656C9.47656 6.99219 9.73438 7.67188 9.73438 8.32812C9.73438 9.00781 9.47656 9.6875 8.96094 10.2031C8.44531 10.7188 7.76562 10.9766 7.08594 10.9766C6.40625 10.9766 5.75 10.7188 5.23438 10.2031C4.71875 9.6875 4.4375 9.00781 4.4375 8.32812C4.4375 7.67188 4.71875 6.99219 5.23438 6.47656C5.75 5.96094 6.40625 5.70312 7.08594 5.70312C7.76562 5.70312 8.44531 5.96094 8.96094 6.47656ZM9.45312 8.32812C9.45312 7.74219 9.21875 7.13281 8.77344 6.66406C8.30469 6.19531 7.69531 5.98438 7.08594 5.98438C6.5 5.98438 5.89062 6.19531 5.42188 6.66406C4.95312 7.13281 4.71875 7.74219 4.71875 8.32812C4.71875 8.9375 4.95312 9.54688 5.42188 10.0156C5.89062 10.4609 6.5 10.6953 7.08594 10.6953C7.69531 10.6953 8.30469 10.4609 8.77344 10.0156C9.21875 9.54688 9.45312 8.9375 9.45312 8.32812Z" fill="white"/>
<path d="M5.42188 10.2031C5.46875 10.1562 5.46875 10.0625 5.42188 10.0156C5.375 9.94531 5.28125 9.94531 5.23438 10.0156L4.88281 10.3672C4.8125 10.4141 4.8125 10.5078 4.88281 10.5547C4.92969 10.6016 5.02344 10.6016 5.07031 10.5547L5.42188 10.2031Z" fill="white"/>
<path d="M8.53906 6.89844C8.9375 7.29688 9.125 7.8125 9.125 8.32812C9.125 8.86719 8.9375 9.38281 8.53906 9.78125C8.14062 10.1797 7.625 10.3906 7.08594 10.3906C6.57031 10.3906 6.05469 10.1797 5.65625 9.78125C5.25781 9.38281 5.04688 8.86719 5.04688 8.32812C5.04688 7.8125 5.25781 7.29688 5.65625 6.89844C6.05469 6.5 6.57031 6.28906 7.08594 6.28906C7.625 6.28906 8.14062 6.5 8.53906 6.89844ZM8.84375 8.32812C8.84375 7.88281 8.67969 7.4375 8.32812 7.08594C8 6.75781 7.55469 6.57031 7.08594 6.57031C6.64062 6.57031 6.19531 6.75781 5.84375 7.08594C5.51562 7.4375 5.32812 7.88281 5.32812 8.32812C5.32812 8.79688 5.51562 9.24219 5.84375 9.59375C6.19531 9.92188 6.64062 10.1094 7.08594 10.1094C7.55469 10.1094 8 9.92188 8.32812 9.59375C8.67969 9.24219 8.84375 8.79688 8.84375 8.32812Z" fill="white"/>
<path d="M4.71875 9.99219L5.42188 10.7188C5.49219 10.7656 5.49219 10.8594 5.42188 10.9062L3.10156 13.25C2.96094 13.3672 2.79688 13.4375 2.63281 13.4375C2.46875 13.4375 2.30469 13.3672 2.1875 13.25C2.07031 13.1328 2 12.9688 2 12.8047C2 12.6406 2.07031 12.4766 2.1875 12.3359L4.53125 9.99219C4.57812 9.94531 4.67188 9.94531 4.71875 9.99219ZM5.14062 10.8125L4.625 10.2969L2.375 12.5469C2.30469 12.6172 2.28125 12.7109 2.28125 12.8047C2.28125 12.875 2.30469 12.9688 2.375 13.0391C2.44531 13.1094 2.53906 13.1562 2.63281 13.1562C2.72656 13.1562 2.82031 13.1094 2.89062 13.0391L5.14062 10.8125Z" fill="white"/>
<path d="M7.64844 7.27344C7.85938 7.27344 8.07031 7.36719 8.21094 7.50781V7.53125C8.35156 7.67188 8.44531 7.85938 8.44531 8.07031C8.44531 8.30469 8.35156 8.49219 8.21094 8.63281C8.21094 8.63281 8.21094 8.63281 8.1875 8.63281C8.04688 8.77344 7.85938 8.86719 7.64844 8.86719C7.4375 8.86719 7.22656 8.77344 7.08594 8.63281C6.94531 8.49219 6.85156 8.28125 6.85156 8.07031C6.85156 7.85938 6.94531 7.64844 7.08594 7.50781C7.22656 7.36719 7.4375 7.27344 7.64844 7.27344ZM8 7.71875C7.90625 7.625 7.78906 7.55469 7.64844 7.55469C7.50781 7.55469 7.36719 7.625 7.29688 7.71875C7.20312 7.8125 7.13281 7.92969 7.13281 8.07031C7.13281 8.21094 7.20312 8.35156 7.27344 8.44531H7.29688C7.36719 8.53906 7.50781 8.58594 7.64844 8.58594C7.78906 8.58594 7.90625 8.53906 8 8.44531C8.09375 8.35156 8.16406 8.21094 8.16406 8.07031C8.16406 7.92969 8.09375 7.8125 8.02344 7.71875C8 7.71875 8 7.71875 8 7.71875Z" fill="white"/>
<path d="M8.79688 6.00781C8.72656 6.00781 8.65625 6.07812 8.65625 6.14844C8.65625 6.24219 8.72656 6.28906 8.79688 6.28906H12.5703C12.6641 6.28906 12.7109 6.24219 12.7109 6.14844C12.7109 6.07812 12.6641 6.00781 12.5703 6.00781H8.79688Z" fill="white"/>
<path d="M8.98438 9.85156C8.89062 9.85156 8.84375 9.92188 8.84375 9.99219C8.84375 10.0625 8.89062 10.1328 8.98438 10.1328H12.5703C12.6641 10.1328 12.7109 10.0625 12.7109 9.99219C12.7109 9.92188 12.6641 9.85156 12.5703 9.85156H8.98438Z" fill="white"/>
<path d="M11.3516 3.3125C11.2578 3.3125 11.2109 3.38281 11.2109 3.45312C11.2109 3.52344 11.2578 3.59375 11.3516 3.59375H13.4141C13.5078 3.59375 13.5781 3.61719 13.625 3.6875C13.6953 3.73438 13.7188 3.80469 13.7188 3.89844V12.2656C13.7188 12.3359 13.6953 12.4062 13.625 12.4766C13.5781 12.5234 13.5078 12.5469 13.4141 12.5469H6.40625C6.33594 12.5469 6.24219 12.5234 6.19531 12.4766C6.14844 12.4297 6.19531 12.4766 6.19531 12.4531C6.14844 12.4062 6.10156 12.3359 6.10156 12.2656V10.5781C6.10156 10.5078 6.05469 10.4375 5.96094 10.4375C5.89062 10.4375 5.82031 10.5078 5.82031 10.5781V12.2656C5.82031 12.4062 5.89062 12.5469 5.98438 12.6641H6.00781C6.10156 12.7812 6.24219 12.8281 6.40625 12.8281H13.4141C13.5781 12.8281 13.7188 12.7812 13.8359 12.6641C13.9297 12.5703 14 12.4297 14 12.2656V3.89844C14 3.73438 13.9297 3.59375 13.8359 3.47656C13.7188 3.38281 13.5781 3.3125 13.4141 3.3125H11.3516ZM5.82031 6.10156C5.82031 6.17188 5.89062 6.24219 5.96094 6.24219C6.05469 6.24219 6.10156 6.17188 6.10156 6.10156V3.89844C6.10156 3.80469 6.14844 3.73438 6.19531 3.6875V3.66406C6.26562 3.61719 6.33594 3.59375 6.40625 3.59375H8.49219C8.5625 3.59375 8.63281 3.52344 8.63281 3.45312C8.63281 3.38281 8.5625 3.3125 8.49219 3.3125H6.40625C6.24219 3.3125 6.10156 3.38281 6.00781 3.47656C5.89062 3.59375 5.82031 3.73438 5.82031 3.89844V6.10156Z" fill="white"/>
</svg>
