<svg width="17" height="17" viewBox="0 0 17 17" fill="none" xmlns="http://www.w3.org/2000/svg">
<path d="M0.173469 17C0.0777143 17 0 16.9223 0 16.8265V10.1653C0 10.0696 0.0777143 9.99184 0.173469 9.99184H1.1102V9.0551C1.1102 8.95935 1.18792 8.88163 1.28367 8.88163H1.66531V0.173469C1.66531 0.0777143 1.74302 0 1.83878 0H7.9449C8.04065 0 8.11837 0.0777143 8.11837 0.173469V1.1102H9.0551C9.15086 1.1102 9.22857 1.18792 9.22857 1.28367V8.88163H15.7163C15.8121 8.88163 15.8898 8.95935 15.8898 9.0551V9.99184H16.8265C16.9223 9.99184 17 10.0696 17 10.1653V16.8265C17 16.9223 16.9223 17 16.8265 17H0.173469ZM0.346939 16.6531H16.6531V10.3388H15.8898V15.7163C15.8898 15.8121 15.8121 15.8898 15.7163 15.8898H1.28367C1.18792 15.8898 1.1102 15.8121 1.1102 15.7163V10.3388H0.346939V16.6531ZM1.45714 15.5429H15.5429V9.22857H14.7796V10.7204C14.7796 10.8162 14.7019 10.8939 14.6061 10.8939H13.6694V11.8306C13.6694 11.9264 13.5917 12.0041 13.4959 12.0041H3.50408C3.40833 12.0041 3.33061 11.9264 3.33061 11.8306V10.8939H2.39388C2.29812 10.8939 2.22041 10.8162 2.22041 10.7204V9.22857H1.45714V15.5429ZM3.67755 11.6571H13.3224V10.8939H3.67755V11.6571ZM2.56735 10.5469H14.4327V9.22857H2.56735V10.5469ZM7.3898 2.22041C7.48555 2.22041 7.56327 2.29812 7.56327 2.39388C7.56327 2.60447 7.73431 2.77551 7.9449 2.77551C8.04065 2.77551 8.11837 2.85322 8.11837 2.94898V8.88163H8.88163V1.45714H3.12245V8.88163H3.88571V2.94898C3.88571 2.85322 3.96343 2.77551 4.05918 2.77551C4.26978 2.77551 4.44082 2.60447 4.44082 2.39388C4.44082 2.29812 4.51853 2.22041 4.61429 2.22041H7.3898ZM4.74647 2.63673C4.67361 2.84212 4.50743 3.00831 4.30204 3.08116L4.23265 3.1058V8.88198H7.77143V8.7779V3.1058L7.70204 3.08116C7.49665 3.00831 7.33047 2.84212 7.25761 2.63673L7.23298 2.56735H4.77041L4.74578 2.63673H4.74647ZM2.01224 8.88163H2.77551V1.28367C2.77551 1.18792 2.85322 1.1102 2.94898 1.1102H7.77143V0.346939H2.01224V8.88163Z" fill="#94A8B2"/>
<path d="M8.50002 14.7795C7.94526 14.7795 7.4939 14.3281 7.4939 13.7734C7.4939 13.2186 7.94526 12.7672 8.50002 12.7672C9.05477 12.7672 9.50614 13.2186 9.50614 13.7734C9.50614 14.3281 9.05477 14.7795 8.50002 14.7795ZM8.50002 13.1142C8.13643 13.1142 7.84084 13.4098 7.84084 13.7734C7.84084 14.137 8.13643 14.4325 8.50002 14.4325C8.86361 14.4325 9.1592 14.137 9.1592 13.7734C9.1592 13.4098 8.86361 13.1142 8.50002 13.1142Z" fill="#94A8B2"/>
<path d="M6.00201 4.78768C5.60025 4.78768 5.27344 4.46086 5.27344 4.05911C5.27344 3.65735 5.60025 3.33054 6.00201 3.33054C6.40376 3.33054 6.73058 3.65735 6.73058 4.05911C6.73058 4.46086 6.40376 4.78768 6.00201 4.78768ZM6.00201 3.67747C5.79142 3.67747 5.62038 3.84852 5.62038 4.05911C5.62038 4.2697 5.79142 4.44074 6.00201 4.44074C6.2126 4.44074 6.38364 4.2697 6.38364 4.05911C6.38364 3.84852 6.2126 3.67747 6.00201 3.67747Z" fill="#94A8B2"/>
<path d="M6.66112 8.39596V7.52861C6.66112 7.39469 6.55218 7.28575 6.41826 7.28575C6.28434 7.28575 6.1754 7.39469 6.1754 7.52861V7.80616C6.1754 8.13124 5.91069 8.39596 5.58561 8.39596C5.30667 8.39596 5.06347 8.19751 5.00796 7.92412L4.99096 7.84085H4.71826V7.49391H4.99581V6.93881H5.34275V7.80616C5.34275 7.94008 5.45169 8.04902 5.58561 8.04902C5.71953 8.04902 5.82847 7.94008 5.82847 7.80616V7.52861C5.82847 7.20353 6.09318 6.93881 6.41826 6.93881C6.6972 6.93881 6.9404 7.13726 6.99591 7.41065L7.01292 7.49391H7.28561V7.84085H7.00806V8.39596H6.66112Z" fill="#94A8B2"/>
<path d="M12.7672 7.56326V7.00816H11.9346V6.66122H13.2182C13.4288 6.66122 13.5999 6.49018 13.5999 6.27959C13.5999 6.069 13.4288 5.89796 13.2182 5.89796H12.6631C12.2614 5.89796 11.9346 5.57114 11.9346 5.16939C11.9346 4.76763 12.2614 4.44081 12.6631 4.44081H12.7672V3.88571H13.1142V4.44081H13.9468V4.78775H12.6631C12.4525 4.78775 12.2815 4.95879 12.2815 5.16939C12.2815 5.37998 12.4525 5.55102 12.6631 5.55102H13.2182C13.62 5.55102 13.9468 5.87783 13.9468 6.27959C13.9468 6.68134 13.62 7.00816 13.2182 7.00816H13.1142V7.56326H12.7672Z" fill="#94A8B2"/>
<path d="M12.9409 8.67353C11.3148 8.67353 9.99194 7.35065 9.99194 5.72455C9.99194 4.91549 10.3163 4.15986 10.9051 3.59643L10.9259 3.57665L10.9335 3.5489C11.1067 2.92198 11.4709 2.38284 11.9861 1.98976C12.5027 1.59598 13.1206 1.38782 13.7736 1.38782C15.3997 1.38782 16.7226 2.7107 16.7226 4.3368C16.7226 5.1351 16.3891 5.91155 15.8073 6.46769L15.7869 6.48747L15.7792 6.51488C15.4247 7.78572 14.2576 8.67353 12.9409 8.67353ZM12.9409 3.12251C11.506 3.12251 10.3389 4.28996 10.3389 5.72455C10.3389 7.15914 11.506 8.32659 12.9409 8.32659C14.3759 8.32659 15.543 7.15914 15.543 5.72455C15.543 4.28996 14.3759 3.12251 12.9409 3.12251ZM12.9409 2.77557C14.474 2.77557 15.7643 3.97355 15.8785 5.5032L15.9055 5.8661L16.0745 5.5438C16.2715 5.16806 16.3756 4.75069 16.3756 4.3368C16.3756 2.90221 15.2085 1.73476 13.7736 1.73476C12.9083 1.73476 12.1031 2.16184 11.6191 2.87688L11.4154 3.17802L11.7478 3.03023C12.128 2.86127 12.5298 2.77557 12.9413 2.77557H12.9409Z" fill="#94A8B2"/>
</svg>
