<svg width="16" height="16" viewBox="0 0 16 16" fill="none" xmlns="http://www.w3.org/2000/svg">
<path d="M9.99941 11.6H5.99941C5.66816 11.6 5.39941 11.8687 5.39941 12.2C5.39941 12.5312 5.66816 12.8 5.99941 12.8H9.99941C10.3307 12.8 10.5994 12.5312 10.5994 12.2C10.5994 11.8687 10.3307 11.6 9.99941 11.6ZM9.99941 12.4H5.99941C5.88891 12.4 5.79941 12.3105 5.79941 12.2C5.79941 12.0895 5.88891 12 5.99941 12H9.99941C10.1099 12 10.1994 12.0895 10.1994 12.2C10.1994 12.3105 10.1099 12.4 9.99941 12.4Z" fill="#94A8B2"/>
<path d="M13.96 10.08L12.974 8.76599C12.9908 8.71224 12.9995 8.65624 13 8.59999V8.19999C12.999 7.86899 12.731 7.60099 12.4 7.59999H10C9.90825 7.60024 9.81775 7.62224 9.736 7.66399C9.77775 7.58224 9.79975 7.49174 9.8 7.39999V6.99999C9.799 6.66899 9.531 6.40099 9.2 6.39999H9.194C10.0803 5.74049 10.264 4.48774 9.6045 3.60149C8.945 2.71524 7.69225 2.53149 6.806 3.19099C5.91975 3.85049 5.736 5.10324 6.3955 5.98949C6.51175 6.14549 6.65 6.28374 6.806 6.39999H6.8C6.469 6.40099 6.201 6.66899 6.2 6.99999V7.39999C6.20025 7.49174 6.22225 7.58224 6.264 7.66399C6.18225 7.62224 6.09175 7.60024 6 7.59999H3.6C3.269 7.60099 3.001 7.86899 3 8.19999V8.59999C3.0005 8.65624 3.00925 8.71224 3.026 8.76599L2.04 10.08C2.01375 10.1145 2 10.1567 2 10.2V13.4C2.001 13.731 2.269 13.999 2.6 14H13.4C13.731 13.999 13.999 13.731 14 13.4V10.2C14 10.1567 13.9862 10.1145 13.96 10.08ZM13 9.79999V9.46799L13.4 9.99999H12.964C12.9873 9.93574 12.9995 9.86824 13 9.79999ZM9.8 8.19999C9.8 8.08949 9.8895 7.99999 10 7.99999H10.2V8.39999H10.6V7.99999H11V8.39999H11.4V7.99999H11.8V8.39999H12.2V7.99999H12.4C12.5105 7.99999 12.6 8.08949 12.6 8.19999V8.59999C12.6 8.71049 12.5105 8.79999 12.4 8.79999H10C9.8895 8.79999 9.8 8.71049 9.8 8.59999V8.19999ZM9.8 9.39999C9.8 9.28949 9.8895 9.19999 10 9.19999H10.2V9.59999H10.6V9.19999H11V9.59999H11.4V9.19999H11.8V9.59999H12.2V9.19999H12.4C12.5105 9.19999 12.6 9.28949 12.6 9.39999V9.79999C12.6 9.91049 12.5105 9.99999 12.4 9.99999H10C9.8895 9.99999 9.8 9.91049 9.8 9.79999V9.39999ZM6.4 4.79999C6.4 3.91624 7.11625 3.19999 8 3.19999C8.88375 3.19999 9.6 3.91624 9.6 4.79999C9.6 5.68374 8.88375 6.39999 8 6.39999C7.11675 6.39874 6.40125 5.68324 6.4 4.79999ZM6.6 6.99999C6.6 6.88949 6.6895 6.79999 6.8 6.79999H7V7.19999H7.4V6.79999H7.8V7.19999H8.2V6.79999H8.6V7.19999H9V6.79999H9.2C9.3105 6.79999 9.4 6.88949 9.4 6.99999V7.39999C9.4 7.51049 9.3105 7.59999 9.2 7.59999H6.8C6.6895 7.59999 6.6 7.51049 6.6 7.39999V6.99999ZM6.6 8.19999C6.6 8.08949 6.6895 7.99999 6.8 7.99999H7V8.39999H7.4V7.99999H7.8V8.39999H8.2V7.99999H8.6V8.39999H9V7.99999H9.2C9.3105 7.99999 9.4 8.08949 9.4 8.19999V8.59999C9.4 8.71049 9.3105 8.79999 9.2 8.79999H6.8C6.6895 8.79999 6.6 8.71049 6.6 8.59999V8.19999ZM6.6 9.39999C6.6 9.28949 6.6895 9.19999 6.8 9.19999H7V9.59999H7.4V9.19999H7.8V9.59999H8.2V9.19999H8.6V9.59999H9V9.19999H9.2C9.3105 9.19999 9.4 9.28949 9.4 9.39999V9.79999C9.4 9.91049 9.3105 9.99999 9.2 9.99999H6.8C6.6895 9.99999 6.6 9.91049 6.6 9.79999V9.39999ZM3.4 8.19999C3.4 8.08949 3.4895 7.99999 3.6 7.99999H3.8V8.39999H4.2V7.99999H4.6V8.39999H5V7.99999H5.4V8.39999H5.8V7.99999H6C6.1105 7.99999 6.2 8.08949 6.2 8.19999V8.59999C6.2 8.71049 6.1105 8.79999 6 8.79999H3.6C3.4895 8.79999 3.4 8.71049 3.4 8.59999V8.19999ZM3.4 9.39999C3.4 9.28949 3.4895 9.19999 3.6 9.19999H3.8V9.59999H4.2V9.19999H4.6V9.59999H5V9.19999H5.4V9.59999H5.8V9.19999H6C6.1105 9.19999 6.2 9.28949 6.2 9.39999V9.79999C6.2 9.91049 6.1105 9.99999 6 9.99999H3.6C3.4895 9.99999 3.4 9.91049 3.4 9.79999V9.39999ZM3 9.46799V9.79999C3.0005 9.86824 3.01275 9.93574 3.036 9.99999H2.6L3 9.46799ZM13.6 13.4C13.6 13.5105 13.5105 13.6 13.4 13.6H2.6C2.4895 13.6 2.4 13.5105 2.4 13.4V10.4H13.6V13.4Z" fill="#94A8B2"/>
<path d="M4.24645 6.52825C4.3172 6.613 4.4432 6.6245 4.5282 6.55375C4.53745 6.546 4.54595 6.5375 4.5537 6.52825L5.5537 5.32825C5.62445 5.2435 5.6132 5.11725 5.52845 5.0465C5.49245 5.0165 5.44695 5 5.4002 5H5.0002V2H4.6002V5.2C4.6002 5.3105 4.6897 5.4 4.8002 5.4H4.9732L4.4002 6.0875L3.8272 5.4H4.0002C4.1107 5.4 4.2002 5.3105 4.2002 5.2V2H3.8002V5H3.4002C3.2897 5 3.2002 5.0895 3.2002 5.2C3.2002 5.247 3.2167 5.29225 3.2467 5.32825L4.2467 6.52825H4.24645Z" fill="#94A8B2"/>
<path d="M11.4462 6.52825C11.5169 6.613 11.6429 6.6245 11.7279 6.55375C11.7372 6.546 11.7457 6.5375 11.7534 6.52825L12.7534 5.32825C12.8242 5.2435 12.8129 5.11725 12.7282 5.0465C12.6922 5.0165 12.6467 5 12.5999 5H12.1999V2H11.7999V5.2C11.7999 5.3105 11.8894 5.4 11.9999 5.4H12.1729L11.5999 6.0875L11.0269 5.4H11.1999C11.3104 5.4 11.3999 5.3105 11.3999 5.2V2H10.9999V5H10.5999C10.4894 5 10.3999 5.0895 10.3999 5.2C10.3999 5.247 10.4164 5.29225 10.4464 5.32825L11.4464 6.52825H11.4462Z" fill="#94A8B2"/>
<path d="M8.64141 5.03349H7.82466V5.87699H7.39941V3.81274H8.74341V4.15724H7.82466V4.69024H8.64141V5.03324V5.03349Z" fill="#94A8B2"/>
</svg>
