<svg width="16" height="16" viewBox="0 0 16 16" fill="none" xmlns="http://www.w3.org/2000/svg">
<path d="M8.092 12.373C6.38972 12.373 4.68681 12.3793 2.98453 12.3674C2.68807 12.3655 2.56397 12.4463 2.59343 12.7547C2.61662 12.9929 2.59782 13.2348 2.59719 13.4748C2.59657 13.7199 2.52825 13.913 2.23555 13.9192C1.98923 13.9249 1.86012 13.7719 1.85887 13.4535C1.85511 12.6914 1.85761 11.9286 1.85761 11.1665C1.85761 10.5291 1.84947 9.89228 1.85949 9.25549C1.87266 8.45136 2.20421 7.81018 2.86106 7.33259C2.97513 7.24986 3.07353 7.10507 3.11615 6.96907C3.37375 6.15365 3.61505 5.33322 3.85698 4.51279C4.13025 3.58707 4.74573 3.04492 5.71282 3.02424C7.31983 2.99039 8.92873 2.9929 10.5364 3.02612C11.4565 3.04492 12.0882 3.59584 12.3521 4.48396C12.5959 5.30376 12.8316 6.12545 13.0904 6.94024C13.1393 7.09317 13.254 7.25174 13.3825 7.34889C14.0005 7.81394 14.3427 8.42817 14.354 9.19282C14.374 10.6131 14.3602 12.0339 14.359 13.4542C14.359 13.693 14.3013 13.8992 14.0118 13.918C13.7698 13.9336 13.6351 13.8077 13.6263 13.5682C13.6156 13.2868 13.6031 13.0029 13.6232 12.7227C13.6432 12.4407 13.5304 12.3667 13.2622 12.368C11.5386 12.3774 9.8156 12.373 8.092 12.373ZM8.10642 11.6322C9.82939 11.6322 11.553 11.6284 13.2759 11.6366C13.5285 11.6378 13.6288 11.567 13.6225 11.3006C13.6075 10.6218 13.6207 9.94305 13.6169 9.26427C13.6119 8.38053 12.908 7.66603 12.0249 7.66477C9.41384 7.65976 6.80276 7.65976 4.19167 7.66477C3.30857 7.66665 2.60283 8.38116 2.59782 9.26239C2.59406 9.92048 2.61349 10.5792 2.58967 11.2361C2.57776 11.5582 2.68431 11.6428 2.99832 11.6397C4.7006 11.6253 6.40288 11.6328 8.10517 11.6328L8.10642 11.6322ZM12.3226 6.90326C12.05 6.05086 11.8131 5.21978 11.5147 4.41126C11.3424 3.94432 10.9231 3.75943 10.4323 3.75943C8.88736 3.75817 7.3424 3.75504 5.79743 3.76068C5.16942 3.76319 4.78647 4.054 4.59343 4.65757C4.42859 5.1734 4.27378 5.69298 4.11646 6.21131C4.04877 6.43507 3.98609 6.6607 3.9159 6.90326H12.3226Z" fill="white"/>
<path d="M4.37838 10.0032C4.06437 9.99822 3.82808 9.75566 3.83059 9.44103C3.83309 9.12953 4.08129 8.88948 4.39404 8.89512C4.71119 8.90138 4.94183 9.13893 4.93933 9.45795C4.93682 9.77384 4.69552 10.0082 4.379 10.0032H4.37838Z" fill="white"/>
<path d="M12.3843 9.45793C12.3768 9.77883 12.143 10.0032 11.8214 9.9982C11.4949 9.99318 11.2774 9.76817 11.2818 9.43975C11.2862 9.12198 11.5237 8.89008 11.8402 8.89447C12.1524 8.89886 12.3912 9.14643 12.3843 9.45856V9.45793Z" fill="white"/>
</svg>
