<svg width="14" height="14" viewBox="0 0 14 14" fill="none" xmlns="http://www.w3.org/2000/svg">
<path d="M12.8333 0.933333H12.3667V0.7C12.3667 0.314067 12.0526 0 11.6667 0C11.2807 0 10.9667 0.314067 10.9667 0.7V0.933333H3.03333V0.7C3.03333 0.314067 2.71927 0 2.33333 0C1.9474 0 1.63333 0.314067 1.63333 0.7V0.933333H1.16667C0.523367 0.933333 0 1.4567 0 2.1V12.8333C0 13.4766 0.523367 14 1.16667 14H12.8333C13.4766 14 14 13.4766 14 12.8333V2.1C14 1.4567 13.4766 0.933333 12.8333 0.933333ZM11.6667 3.26667C12.0526 3.26667 12.3667 2.9526 12.3667 2.56667V2.18307C12.5141 2.35107 12.6 2.569 12.6 2.8C12.6 3.31473 12.1814 3.73333 11.6667 3.73333C11.1519 3.73333 10.7333 3.31473 10.7333 2.8C10.7333 2.569 10.8192 2.35107 10.9667 2.18307V2.56667C10.9667 2.9526 11.2807 3.26667 11.6667 3.26667ZM11.4333 0.7C11.4333 0.571433 11.5381 0.466667 11.6667 0.466667C11.7952 0.466667 11.9 0.571433 11.9 0.7V1.7248V2.56667C11.9 2.69523 11.7952 2.8 11.6667 2.8C11.5381 2.8 11.4333 2.69523 11.4333 2.56667V1.72503V0.7ZM2.33333 3.26667C2.71927 3.26667 3.03333 2.9526 3.03333 2.56667V2.18307C3.1808 2.35107 3.26667 2.569 3.26667 2.8C3.26667 3.31473 2.84807 3.73333 2.33333 3.73333C1.8186 3.73333 1.4 3.31473 1.4 2.8C1.4 2.569 1.48587 2.35107 1.63333 2.18307V2.56667C1.63333 2.9526 1.9474 3.26667 2.33333 3.26667ZM2.1 0.7C2.1 0.571433 2.20477 0.466667 2.33333 0.466667C2.4619 0.466667 2.56667 0.571433 2.56667 0.7V1.7248V2.56667C2.56667 2.69523 2.4619 2.8 2.33333 2.8C2.20477 2.8 2.1 2.69523 2.1 2.56667V1.72503V0.7ZM1.16667 1.4H1.63333V1.5897C1.20447 1.84007 0.933333 2.29833 0.933333 2.8C0.933333 3.5721 1.56123 4.2 2.33333 4.2C3.10543 4.2 3.73333 3.5721 3.73333 2.8C3.73333 2.29833 3.4622 1.84007 3.03333 1.5897V1.4H10.9667V1.5897C10.5378 1.84007 10.2667 2.29833 10.2667 2.8C10.2667 3.5721 10.8946 4.2 11.6667 4.2C12.4388 4.2 13.0667 3.5721 13.0667 2.8C13.0667 2.29833 12.7955 1.84007 12.3667 1.5897V1.4H12.8333C13.2193 1.4 13.5333 1.71407 13.5333 2.1V4.66667H0.466667V2.1C0.466667 1.71407 0.780733 1.4 1.16667 1.4ZM12.8333 13.5333H1.16667C0.780733 13.5333 0.466667 13.2193 0.466667 12.8333V5.13333H13.5333V12.8333C13.5333 13.2193 13.2193 13.5333 12.8333 13.5333Z" fill="#023773"/>
<path d="M10.145 10.0558C10.3638 10.0121 10.5226 9.81837 10.5226 9.59529V9.04111C10.5226 8.81804 10.3638 8.62431 10.1452 8.58063L9.69106 8.48976C9.63893 8.32092 9.5713 8.15725 9.48864 8.00133L9.7453 7.61623C9.86928 7.43049 9.84463 7.18111 9.68659 7.02354L9.29492 6.63187C9.13712 6.47383 8.88774 6.44894 8.70223 6.57316L8.31689 6.83005C8.16097 6.7474 7.99754 6.67977 7.82847 6.62764L7.73759 6.17373C7.69392 5.95488 7.50019 5.79614 7.27711 5.79614H6.72294C6.49986 5.79614 6.30613 5.95488 6.26246 6.1735L6.17158 6.62764C6.00275 6.67977 5.83908 6.7474 5.68316 6.83005L5.29805 6.5734C5.11231 6.44965 4.86293 6.47407 4.70537 6.6321L4.31369 7.02378C4.15566 7.18158 4.131 7.43072 4.25498 7.61646L4.51188 8.0018C4.42922 8.15772 4.36159 8.32116 4.30946 8.49023L3.85556 8.5811C3.6367 8.62478 3.47797 8.8185 3.47797 9.04158V9.59576C3.47797 9.81884 3.6367 10.0126 3.85532 10.0562L4.30946 10.1471C4.36159 10.3159 4.42922 10.4796 4.51188 10.6355L4.25522 11.0206C4.13123 11.2064 4.15589 11.4558 4.31392 11.6133L4.7056 12.005C4.86317 12.163 5.11255 12.1877 5.29829 12.0637L5.68363 11.8068C5.83955 11.8895 6.00298 11.9571 6.17205 12.0092L6.26293 12.4631C6.3066 12.682 6.50033 12.8407 6.72341 12.8407H7.27758C7.50066 12.8407 7.69439 12.682 7.73806 12.4634L7.82894 12.0092C7.99777 11.9571 8.16144 11.8895 8.31736 11.8068L8.70247 12.0635C8.88821 12.1875 9.13759 12.1628 9.29515 12.0048L9.68683 11.6131C9.84486 11.4553 9.86952 11.2062 9.74554 11.0204L9.48864 10.6351C9.5713 10.4791 9.63893 10.3157 9.69106 10.1466L10.145 10.0558ZM9.45741 9.71434C9.36841 9.73219 9.29773 9.79958 9.27566 9.88764C9.21954 10.1121 9.13078 10.3263 9.01196 10.524C8.96523 10.602 8.96758 10.6996 9.01783 10.7753L9.35479 11.2806L8.96288 11.6725L8.45755 11.3355C8.38217 11.2853 8.28425 11.2829 8.20629 11.3297C8.00857 11.4485 7.79442 11.5372 7.56993 11.5934C7.48187 11.6154 7.41425 11.6861 7.39663 11.7751L7.27758 12.3706H6.72341L6.60435 11.7751C6.58651 11.6861 6.51911 11.6154 6.43106 11.5934C6.20657 11.5372 5.99241 11.4485 5.7947 11.3297C5.75736 11.3071 5.71556 11.2961 5.67376 11.2961C5.62821 11.2961 5.58289 11.3092 5.54344 11.3355L5.03811 11.6725L4.64619 11.2806L4.98316 10.7753C5.03341 10.6996 5.03576 10.602 4.98903 10.524C4.87021 10.3263 4.78145 10.1121 4.72533 9.88764C4.70325 9.79958 4.63257 9.73195 4.54358 9.71434L3.94808 9.59529V9.04111L4.54358 8.92206C4.63257 8.90421 4.70325 8.83682 4.72533 8.74876C4.78145 8.52428 4.87021 8.31012 4.98903 8.1124C5.03576 8.03444 5.03341 7.93676 4.98316 7.86115L4.64619 7.35581L5.03811 6.9639L5.54344 7.30087C5.61929 7.35135 5.71697 7.35394 5.7947 7.30674C5.99241 7.18792 6.20657 7.09916 6.43106 7.04303C6.51911 7.02096 6.58674 6.95028 6.60435 6.86128L6.72341 6.26578H7.27758L7.39663 6.86128C7.41448 6.95028 7.48187 7.02096 7.56993 7.04303C7.79442 7.09916 8.00857 7.18792 8.20629 7.30674C8.28402 7.3537 8.38194 7.35112 8.45755 7.30087L8.96288 6.9639L9.35479 7.35581L9.01783 7.86115C8.96758 7.93676 8.96523 8.03444 9.01196 8.1124C9.13078 8.31012 9.21954 8.52428 9.27566 8.74876C9.29773 8.83682 9.36841 8.90445 9.45741 8.92206L10.0529 9.04111V9.59529L9.45741 9.71434Z" fill="#023773"/>
<path d="M6.99996 7.6687C6.09028 7.6687 5.35028 8.4087 5.35028 9.31838C5.35028 10.2281 6.09028 10.9681 6.99996 10.9681C7.90964 10.9681 8.64964 10.2281 8.64964 9.31838C8.64964 8.4087 7.90964 7.6687 6.99996 7.6687ZM6.99996 10.4967C6.35022 10.4967 5.82162 9.96812 5.82162 9.31838C5.82162 8.66864 6.35022 8.14004 6.99996 8.14004C7.6497 8.14004 8.17831 8.66864 8.17831 9.31838C8.17831 9.96812 7.6497 10.4967 6.99996 10.4967Z" fill="#023773"/>
</svg>
