<svg width="18" height="18" viewBox="0 0 18 18" fill="none" xmlns="http://www.w3.org/2000/svg">
<path d="M8.99944 5.34964C8.51988 5.34964 8.04502 5.4441 7.60197 5.62761C7.15892 5.81113 6.75636 6.08012 6.41726 6.41921C6.07816 6.75831 5.80918 7.16088 5.62566 7.60393C5.44214 8.04698 5.34769 8.52184 5.34769 9.00139C5.34769 9.48094 5.44214 9.9558 5.62566 10.3989C5.80918 10.8419 6.07816 11.2445 6.41726 11.5836C6.75636 11.9227 7.15892 12.1917 7.60197 12.3752C8.04502 12.5587 8.51988 12.6531 8.99944 12.6531C9.96794 12.6531 10.8968 12.2684 11.5816 11.5836C12.2665 10.8987 12.6512 9.96989 12.6512 9.00139C12.6512 8.03289 12.2665 7.10405 11.5816 6.41921C10.8968 5.73438 9.96794 5.34964 8.99944 5.34964ZM6.47269 9.00139C6.47269 8.33125 6.7389 7.68857 7.21276 7.21471C7.68661 6.74085 8.3293 6.47464 8.99944 6.47464C9.66957 6.47464 10.3123 6.74085 10.7861 7.21471C11.26 7.68857 11.5262 8.33125 11.5262 9.00139C11.5262 9.67153 11.26 10.3142 10.7861 10.7881C10.3123 11.2619 9.66957 11.5281 8.99944 11.5281C8.3293 11.5281 7.68661 11.2619 7.21276 10.7881C6.7389 10.3142 6.47269 9.67153 6.47269 9.00139Z" fill="#94A8B2"/>
<path d="M11.0199 1.51227C10.4271 -0.501484 7.57181 -0.501484 6.97894 1.51227L6.87319 1.87114C6.83178 2.01171 6.75945 2.14124 6.66148 2.25022C6.56352 2.3592 6.4424 2.44488 6.30702 2.50097C6.17164 2.55707 6.02542 2.58216 5.87909 2.5744C5.73275 2.56664 5.59 2.52623 5.46131 2.45614L5.13281 2.27614C3.28781 1.27264 1.27069 3.29089 2.27531 5.13477L2.45419 5.46327C2.52428 5.59196 2.56469 5.7347 2.57244 5.88104C2.5802 6.02738 2.55512 6.17359 2.49902 6.30897C2.44293 6.44436 2.35725 6.56547 2.24827 6.66343C2.13928 6.7614 2.00976 6.83374 1.86919 6.87514L1.51031 6.98089C-0.503438 7.57377 -0.503438 10.429 1.51031 11.0219L1.86919 11.1276C2.00976 11.169 2.13928 11.2414 2.24827 11.3393C2.35725 11.4373 2.44293 11.5584 2.49902 11.6938C2.55512 11.8292 2.5802 11.9754 2.57244 12.1217C2.56469 12.2681 2.52428 12.4108 2.45419 12.5395L2.27419 12.868C1.27069 14.713 3.28781 16.7313 5.13281 15.7255L5.46131 15.5466C5.59 15.4765 5.73275 15.4361 5.87909 15.4284C6.02542 15.4206 6.17164 15.4457 6.30702 15.5018C6.4424 15.5579 6.56352 15.6436 6.66148 15.7526C6.75945 15.8615 6.83178 15.9911 6.87319 16.1316L6.97894 16.4905C7.57181 18.5043 10.4271 18.5043 11.0199 16.4905L11.1257 16.1316C11.1671 15.9911 11.2394 15.8615 11.3374 15.7526C11.4354 15.6436 11.5565 15.5579 11.6919 15.5018C11.8272 15.4457 11.9735 15.4206 12.1198 15.4284C12.2661 15.4361 12.4089 15.4765 12.5376 15.5466L12.8661 15.7266C14.7111 16.7313 16.7293 14.7119 15.7236 12.868L15.5447 12.5395C15.4746 12.4108 15.4342 12.2681 15.4264 12.1217C15.4187 11.9754 15.4438 11.8292 15.4999 11.6938C15.5559 11.5584 15.6416 11.4373 15.7506 11.3393C15.8596 11.2414 15.9891 11.169 16.1297 11.1276L16.4886 11.0219C18.5023 10.429 18.5023 7.57377 16.4886 6.98089L16.1297 6.87514C15.9891 6.83374 15.8596 6.7614 15.7506 6.66343C15.6416 6.56547 15.5559 6.44436 15.4999 6.30897C15.4438 6.17359 15.4187 6.02738 15.4264 5.88104C15.4342 5.7347 15.4746 5.59196 15.5447 5.46327L15.7247 5.13477C16.7293 3.28977 14.7099 1.27264 12.8661 2.27727L12.5376 2.45614C12.4089 2.52623 12.2661 2.56664 12.1198 2.5744C11.9735 2.58216 11.8272 2.55707 11.6919 2.50097C11.5565 2.44488 11.4354 2.3592 11.3374 2.25022C11.2394 2.14124 11.1671 2.01171 11.1257 1.87114L11.0199 1.51227ZM8.05781 1.83064C8.33456 0.891266 9.66431 0.891266 9.94106 1.83064L10.0468 2.18952C10.1357 2.49111 10.291 2.76899 10.5012 3.00278C10.7115 3.23657 10.9714 3.42034 11.2619 3.54062C11.5524 3.6609 11.8662 3.71464 12.1801 3.6979C12.4941 3.68117 12.8004 3.59437 13.0764 3.44389L13.4038 3.26389C14.2633 2.79702 15.2038 3.73639 14.7358 4.59702L14.5569 4.92552C14.4067 5.20162 14.3201 5.50785 14.3035 5.82175C14.287 6.13566 14.3409 6.44929 14.4613 6.73967C14.5816 7.03005 14.7655 7.28982 14.9993 7.49994C15.2331 7.71006 15.5109 7.86521 15.8124 7.95402L16.1702 8.05977C17.1096 8.33652 17.1096 9.66627 16.1702 9.94302L15.8113 10.0488C15.5097 10.1377 15.2318 10.2929 14.9981 10.5032C14.7643 10.7134 14.5805 10.9733 14.4602 11.2639C14.3399 11.5544 14.2862 11.8681 14.3029 12.1821C14.3197 12.4961 14.4065 12.8023 14.5569 13.0784L14.7369 13.4058C15.2038 14.2653 14.2644 15.2058 13.4038 14.7378L13.0764 14.5589C12.8003 14.4084 12.494 14.3217 12.1799 14.305C11.8659 14.2883 11.5521 14.3422 11.2616 14.4626C10.971 14.583 10.7112 14.7669 10.501 15.0008C10.2908 15.2347 10.1356 15.5127 10.0468 15.8144L9.94106 16.1721C9.66431 17.1115 8.33456 17.1115 8.05781 16.1721L7.95206 15.8133C7.86313 15.5118 7.70788 15.2341 7.49771 15.0004C7.28754 14.7668 7.02775 14.5831 6.73739 14.4628C6.44702 14.3425 6.13343 14.2887 5.81959 14.3054C5.50574 14.322 5.19959 14.4086 4.92356 14.5589L4.59506 14.7389C3.73556 15.2058 2.79506 14.2664 3.26306 13.4058L3.44194 13.0784C3.59263 12.8023 3.67959 12.4959 3.69644 12.1818C3.71329 11.8677 3.6596 11.5538 3.5393 11.2631C3.419 10.9725 3.23516 10.7125 3.00125 10.5021C2.76735 10.2918 2.48932 10.1365 2.18756 10.0476L1.82869 9.94189C0.889313 9.66514 0.889313 8.33539 1.82869 8.05864L2.18756 7.95289C2.48884 7.86391 2.76642 7.7087 2.99997 7.4986C3.23353 7.28851 3.41715 7.02885 3.5374 6.73863C3.65765 6.44841 3.71148 6.13497 3.69497 5.82126C3.67845 5.50755 3.592 5.2015 3.44194 4.92552L3.26194 4.59702C2.79506 3.73752 3.73444 2.79702 4.59506 3.26502L4.92356 3.44389C5.19959 3.59416 5.50574 3.68079 5.81959 3.69741C6.13343 3.71404 6.44702 3.66025 6.73739 3.53998C7.02775 3.41972 7.28754 3.23602 7.49771 3.00235C7.70788 2.76868 7.86313 2.49095 7.95206 2.18952L8.05781 1.83064Z" fill="#94A8B2"/>
</svg>
