<svg width="29" height="27" viewBox="0 0 29 27" fill="none" xmlns="http://www.w3.org/2000/svg">
<rect width="29" height="27" rx="4.13851" fill="#023773"/>
<path d="M14.9176 20.2258C13.9941 20.2258 13.0878 20.2229 12.2229 20.2156C11.2267 20.2069 10.7614 19.7238 10.7571 18.695C10.7528 17.5801 10.7542 16.4666 10.7542 15.3516C10.7542 13.7683 10.7571 12.1323 10.7428 10.5212C10.74 10.2717 10.7814 10.1768 10.8156 10.1418C10.8484 10.1082 10.9384 10.0674 11.1739 10.0674H11.1938C12.5583 10.0805 13.8057 10.0863 15.0089 10.0863C16.2778 10.0863 17.4596 10.0791 18.6214 10.0659H18.6471C18.8512 10.0659 18.9896 10.098 19.0481 10.1579C19.1095 10.2221 19.1366 10.3797 19.1309 10.6248C19.1038 11.5909 19.1095 12.5701 19.1138 13.5173C19.1166 13.9171 19.1181 14.3184 19.1181 14.7183C19.1181 15.1371 19.1181 15.556 19.1209 15.9748C19.1238 16.8781 19.1266 17.8106 19.1138 18.7271C19.0995 19.807 18.7013 20.2098 17.6437 20.2171C16.7359 20.2229 15.8282 20.2258 14.919 20.2258H14.9176ZM12.5398 11.0159C12.2357 11.0159 12.0131 11.0933 11.8618 11.2509C11.7091 11.4114 11.6377 11.6449 11.6449 11.966C11.662 12.719 11.6591 13.4881 11.6548 14.2323C11.6548 14.5432 11.652 14.854 11.652 15.1649C11.652 15.4757 11.6534 15.7851 11.6548 16.0959C11.6577 16.8402 11.662 17.6092 11.6434 18.3637C11.6391 18.5637 11.6548 18.8541 11.8532 19.0613C12.0502 19.2685 12.3371 19.2919 12.5355 19.2919H12.5583C13.3176 19.2846 14.104 19.2802 14.8962 19.2802C15.6883 19.2802 16.499 19.2846 17.3268 19.2919H17.3482C17.558 19.2919 17.8235 19.2671 18.0133 19.0715C18.1561 18.9256 18.2246 18.714 18.2232 18.4265C18.2117 16.379 18.2117 14.2353 18.2232 11.8726C18.2232 11.6887 18.2032 11.4216 18.0148 11.2276C17.8749 11.0845 17.6751 11.0145 17.4039 11.0145C16.5718 11.0203 15.7511 11.0232 14.9304 11.0232C14.1098 11.0232 13.3447 11.0203 12.5512 11.0159H12.5383H12.5398Z" fill="white"/>
<path d="M10.4582 8.73661C10.0928 8.73661 10 8.67532 10 8.21855C10 8.10326 10.0128 7.95295 10.0771 7.88728C10.1313 7.83182 10.2626 7.8041 10.4753 7.8041H10.5267C10.6423 7.80702 10.7593 7.81139 10.8763 7.81577C11.0376 7.82161 11.1975 7.82891 11.3573 7.82891C11.9939 7.82891 12.7204 7.73259 13.2884 7.02481C13.3156 7.01897 13.3698 7.01313 13.4825 7.01313H13.631C13.8051 7.01022 13.9807 7.01022 14.1548 7.01022H15.004C15.2352 7.01167 15.4679 7.01022 15.6991 7.00584H15.7705C15.859 7.00292 15.9474 7 16.0359 7C16.554 7 16.9123 7.07589 17.202 7.46115C17.3933 7.71362 17.7587 7.76615 18.1183 7.79826C18.2696 7.81139 18.4323 7.81723 18.6307 7.81723C18.7463 7.81723 18.8634 7.81577 18.979 7.81285C19.0917 7.81139 19.2045 7.80847 19.3172 7.80847H19.3515C19.6584 7.80847 19.8667 7.86977 19.9395 7.97776C20.0095 8.08137 19.9909 8.29006 19.8882 8.56587C19.8439 8.61695 19.6641 8.70451 19.5485 8.70743C18.6807 8.72202 17.8243 8.72494 17.1749 8.72494C16.8167 8.72494 14.974 8.72202 14.974 8.72202C14.5501 8.72202 14.1262 8.72056 13.7023 8.7191C13.277 8.71764 12.8531 8.71618 12.4278 8.71618C11.677 8.71618 11.0647 8.72202 10.5024 8.73516H10.461L10.4582 8.73661Z" fill="white"/>
</svg>
