<svg width="20" height="19" viewBox="0 0 20 19" fill="none" xmlns="http://www.w3.org/2000/svg">
<path d="M6.18457 15.6551C6.25046 14.7199 6.35852 13.8158 6.72354 12.9671C6.88826 12.5833 7.10174 12.2346 7.47993 12.0319C7.56427 11.9859 7.66179 11.963 7.75271 11.9305C7.86868 11.8886 7.94642 11.9346 8.01627 12.0346C8.25215 12.3698 8.49462 12.6995 8.74894 13.0509C8.95452 12.8833 9.15086 12.7238 9.36566 12.5481C9.56596 12.7103 9.76758 12.8725 9.98106 13.0441C10.2262 12.7049 10.466 12.3819 10.694 12.0508C10.7836 11.9211 10.8771 11.8873 11.0247 11.9319C11.4148 12.0468 11.6652 12.3252 11.8589 12.6684C12.2252 13.3158 12.3583 14.0361 12.4598 14.7632C12.5006 15.0524 12.5191 15.3456 12.5507 15.6551H6.18457Z" fill="#BCC8CE"/>
<path d="M3.22617 13.1779C3.2802 12.3387 3.38299 11.517 3.77963 10.7669C3.93118 10.4791 4.1407 10.2372 4.47541 10.175C4.55053 10.1615 4.66913 10.2034 4.71657 10.2629C4.92082 10.5196 5.10662 10.7913 5.30693 11.0683C5.48087 10.9278 5.64296 10.798 5.80899 10.6629C5.97372 10.7953 6.13185 10.9224 6.29657 11.0548C6.57725 10.7669 6.7288 10.3723 7.0332 10.1318C7.41799 10.7372 7.61038 11.4224 8.16121 11.8738C8.2271 11.9278 8.2495 12.0387 8.29167 12.1238L8.24818 12.1535C8.20469 12.0968 8.15198 12.0454 8.12036 11.9832C8.0268 11.7994 7.87789 11.7819 7.70526 11.8224C7.31125 11.9157 7.04111 12.1765 6.83685 12.5144C6.73143 12.6887 6.65764 12.8833 6.55749 13.0617C6.52586 13.1185 6.45206 13.1887 6.39672 13.1887C5.36886 13.1982 4.341 13.1982 3.31314 13.1995C3.28942 13.1995 3.26439 13.1887 3.22485 13.1779H3.22617Z" fill="#BCC8CE"/>
<path d="M10.6887 11.8185C11.0287 11.4603 11.2725 11.0914 11.4306 10.6589C11.4926 10.49 11.6217 10.3481 11.7495 10.1508C11.9604 10.4413 12.1844 10.7481 12.4189 11.0711C12.5889 10.9333 12.7497 10.8022 12.9197 10.6657C13.0857 10.7981 13.2478 10.9279 13.4205 11.0657C13.6168 10.7954 13.8092 10.5359 13.9924 10.2711C14.0675 10.1629 14.1426 10.1319 14.2717 10.1697C14.5906 10.2616 14.7922 10.4886 14.9464 10.7657C15.2311 11.2779 15.3457 11.8455 15.4287 12.4199C15.4643 12.6685 15.4788 12.9185 15.5052 13.1821C15.4274 13.1875 15.3707 13.1956 15.3141 13.1956C14.3521 13.1996 13.3901 13.1983 12.4282 13.2091C12.27 13.2104 12.216 13.1469 12.1449 13.0118C11.9841 12.7104 11.8128 12.409 11.5967 12.1482C11.3805 11.886 11.0748 11.7603 10.69 11.8171L10.6887 11.8185Z" fill="#BCC8CE"/>
<path d="M9.42091 12.2414C8.57622 12.1995 8.04253 11.7563 7.66169 11.0819C7.58131 10.9386 7.53519 10.7765 7.46271 10.6278C7.42845 10.5562 7.37837 10.4872 7.31907 10.4359C7.20048 10.3332 7.16094 9.90072 7.24791 9.76422C7.30194 9.68043 7.33884 9.56826 7.34148 9.46826C7.35202 8.96822 7.47852 8.51819 7.86068 8.18033C8.09787 7.9695 8.37065 7.84111 8.69614 7.86409C8.73436 7.86679 8.78311 7.87085 8.80947 7.85057C9.23774 7.52352 9.71214 7.60191 10.1734 7.71138C11.0194 7.91409 11.3646 8.37088 11.4107 9.26419C11.4213 9.45609 11.3962 9.65341 11.5452 9.82639C11.6479 9.94667 11.532 10.3413 11.4147 10.4629C11.3554 10.5237 11.3251 10.6183 11.2921 10.7021C11.0154 11.4022 10.574 11.9346 9.84787 12.163C9.69501 12.2117 9.53029 12.2212 9.42091 12.2401V12.2414ZM8.98473 9.13175C8.56041 9.32365 8.17299 9.5088 7.77897 9.67368C7.64588 9.72909 7.60898 9.79936 7.61689 9.93991C7.64193 10.444 7.80665 10.8954 8.11764 11.2805C8.54064 11.8063 9.07566 12.0874 9.75431 11.9009C10.5845 11.6725 11.1643 10.7278 11.1709 9.87775C11.1709 9.8345 11.0945 9.76423 11.0431 9.75206C10.8599 9.71017 10.6702 9.6953 10.4857 9.65476C9.95197 9.53988 9.41037 9.44934 8.98737 9.13175H8.98473Z" fill="#BCC8CE"/>
<path d="M4.01953 8.61416C4.05511 8.53443 4.09464 8.45739 4.12232 8.37631C4.14472 8.31144 4.16185 8.24116 4.16317 8.17224C4.17898 7.64653 4.31998 7.16001 4.83259 6.96405C5.41768 6.7397 6.02122 6.53158 6.66956 6.79647C7.16636 6.99918 7.422 7.31812 7.46417 7.90871C7.47472 8.05466 7.49185 8.20062 7.49712 8.34793C7.49975 8.40334 7.4813 8.46145 7.46681 8.51551C7.3917 8.79526 7.31527 9.07501 7.23884 9.35476C7.21775 9.43044 7.20457 9.51152 7.16636 9.57639C6.47585 10.7224 5.05003 10.667 4.42277 9.47233C4.36479 9.36151 4.32657 9.23988 4.26991 9.12771C4.23696 9.06149 4.17766 9.00743 4.14604 8.93986C4.09991 8.84256 4.06697 8.7385 4.01953 8.61416ZM7.26256 8.4128C6.6432 8.28306 6.00409 8.23981 5.49279 7.88708C5.16204 8.03845 4.85236 8.19116 4.53478 8.3209C4.40564 8.37361 4.37401 8.44118 4.38455 8.57227C4.41881 8.96959 4.55059 9.32502 4.79174 9.63586C5.14095 10.0859 5.68387 10.2832 6.13982 10.1345C6.80397 9.91696 7.30209 9.1642 7.26387 8.4128H7.26256Z" fill="#BCC8CE"/>
<path d="M13.0249 6.66124C13.4413 6.68286 13.7945 6.75179 14.1029 6.9491C14.4297 7.15722 14.5166 7.5086 14.5733 7.87349C14.6049 8.07756 14.6721 8.27622 14.6932 8.48164C14.7103 8.64922 14.7591 8.83842 14.5786 8.97086C14.5285 9.00735 14.5127 9.0952 14.4863 9.16142C14.2623 9.72362 13.9131 10.1561 13.3267 10.3439C12.5347 10.5967 11.86 10.0818 11.5688 9.51144C11.495 9.36819 11.5266 9.17223 11.491 9.00465C11.4502 8.81139 11.4067 8.61408 11.3316 8.43164C11.0733 7.7951 11.6149 6.89234 12.283 6.85044C12.3779 6.84504 12.4701 6.79098 12.565 6.76665C12.7337 6.72476 12.905 6.68827 13.0236 6.66124H13.0249ZM12.6072 7.8843C12.2738 8.03566 11.9707 8.18567 11.6584 8.31136C11.5148 8.36947 11.4792 8.44515 11.495 8.59381C11.5358 8.96005 11.6531 9.29116 11.8679 9.58847C12.2422 10.1061 12.8352 10.3142 13.3596 10.0845C13.9487 9.82633 14.2544 9.3344 14.3664 8.70868C14.4191 8.41542 14.4059 8.41272 14.1134 8.36406C14.062 8.35595 14.0106 8.34785 13.9592 8.33703C13.4835 8.23297 12.9959 8.1681 12.6046 7.88565L12.6072 7.8843Z" fill="#BCC8CE"/>
<path d="M11.7929 6.16126C11.2658 6.16531 10.74 5.74771 10.5081 5.15172C10.4501 5.00442 10.2985 4.85035 10.3196 4.72196C10.3881 4.33004 10.346 3.90434 10.5884 3.55431C10.7611 3.30565 10.9917 3.1651 11.2948 3.16104C11.3317 3.16104 11.3752 3.16104 11.4068 3.14347C11.8917 2.87048 12.3529 3.00563 12.7918 3.24889C13.0434 3.38944 13.1238 3.66513 13.1647 3.94218C13.1976 4.16111 13.1844 4.3841 13.3017 4.59358C13.3399 4.66115 13.2635 4.8044 13.224 4.90576C13.195 4.98279 13.1278 5.04361 13.0988 5.12064C12.8721 5.7315 12.3424 6.1572 11.7929 6.16126ZM13.0066 4.47195C12.4873 4.36518 11.9471 4.31248 11.5082 4.03002C11.2407 4.153 10.997 4.27599 10.7439 4.37464C10.6082 4.42735 10.5502 4.50438 10.5884 4.64088C10.653 4.86927 10.6926 5.11388 10.8046 5.31525C11.0365 5.73285 11.387 6.01125 11.8864 5.94908C12.5387 5.86799 13.0421 5.19497 13.0066 4.47059V4.47195Z" fill="#BCC8CE"/>
<path d="M6.7906 2.96513C7.03175 3.03541 7.29531 3.08676 7.53646 3.19083C7.85931 3.32867 7.95551 3.64086 8.01217 3.96656C8.04512 4.15846 8.10046 4.34766 8.12286 4.54092C8.13868 4.68012 8.16503 4.83283 8.02271 4.94365C7.97791 4.97879 7.9621 5.05717 7.93838 5.11799C7.82373 5.41531 7.65374 5.66938 7.40468 5.86804C6.89075 6.27753 6.22528 6.26942 5.77988 5.7829C5.52686 5.50585 5.34765 5.15042 5.16711 4.81256C5.11836 4.72202 5.18556 4.5666 5.20138 4.44227C5.2106 4.36523 5.23037 4.28955 5.23432 4.21252C5.2554 3.79357 5.38586 3.42192 5.78383 3.25299C6.0935 3.1219 6.43085 3.06514 6.78928 2.96649L6.7906 2.96513ZM6.34124 4.02197C6.1528 4.11522 5.9749 4.21252 5.79174 4.2909C5.36741 4.47335 5.35555 4.49092 5.47942 4.94771C5.48601 4.97338 5.49524 4.99906 5.50314 5.02339C5.83259 6.00859 6.83145 6.26942 7.47057 5.53424C7.73281 5.23286 7.87512 4.87878 7.85404 4.46794C7.31244 4.36658 6.78533 4.30712 6.34124 4.02197Z" fill="#BCC8CE"/>
<path d="M8.89259 4.46118C9.00196 4.37469 9.09289 4.30171 9.19568 4.22198C9.29451 4.29631 9.3907 4.37064 9.50535 4.45713C9.60023 4.32604 9.70302 4.20711 9.77945 4.07061C9.87433 3.90303 9.98502 3.8706 10.1445 3.9679C10.2802 4.05034 10.3421 4.20846 10.267 4.35982C10.1405 4.61254 10.1669 4.81932 10.3395 5.05176C10.4897 5.25313 10.5727 5.50585 10.6913 5.74641H7.72241C7.87527 5.48017 8.04922 5.23151 8.16255 4.95581C8.2258 4.8004 8.19813 4.60308 8.19681 4.42469C8.19681 4.29766 8.12697 4.1517 8.16914 4.04899C8.23766 3.87871 8.47749 3.88952 8.59082 4.04629C8.68834 4.18008 8.78453 4.31387 8.89259 4.46389V4.46118Z" fill="#BCC8CE"/>
<path d="M11.3581 6.71536C11.5043 6.59914 11.6374 6.49372 11.7837 6.3775C11.9181 6.48426 12.0552 6.59103 12.2067 6.71131C12.3661 6.49102 12.5269 6.2829 12.6692 6.06396C12.7562 5.93017 12.8537 5.9153 12.9842 5.97071C13.2649 6.09099 13.4322 6.31668 13.5416 6.55454C13.2346 6.57751 12.9262 6.58968 12.6218 6.62887C12.4676 6.64779 12.32 6.72077 12.1672 6.75861C11.5926 6.90186 11.2342 7.32757 11.1775 7.94248C11.1736 7.98707 11.1709 8.03302 11.1643 8.11816C10.7598 7.69921 10.2551 7.5965 9.72534 7.51542C9.82549 7.01673 9.9375 6.53427 10.2999 6.16262C10.3579 6.1018 10.4317 6.05315 10.5055 6.01396C10.7268 5.89774 10.7756 5.9126 10.9245 6.11667C11.0668 6.31263 11.2091 6.50994 11.3594 6.71671L11.3581 6.71536Z" fill="#BCC8CE"/>
<path d="M6.34131 6.60861C6.45991 6.50995 6.53766 6.44373 6.62199 6.37346C6.76036 6.48428 6.89214 6.58969 7.045 6.71267C7.20181 6.49509 7.36258 6.28967 7.50358 6.07073C7.5945 5.93018 7.71047 5.89234 7.83038 5.97884C7.99642 6.09911 8.173 6.2275 8.28765 6.39373C8.55779 6.787 8.64345 7.25325 8.71724 7.73166C8.28238 7.75193 7.91868 7.91546 7.59187 8.29251C7.59582 7.38569 7.32041 6.73294 6.34131 6.60726V6.60861Z" fill="#BCC8CE"/>
<path d="M9.24032 4.0611C8.79755 4.04353 8.53268 3.81108 8.3416 3.46511C8.27835 3.35159 8.21246 3.23942 8.15712 3.12184C8.13603 3.07589 8.12154 3.01643 8.13076 2.96777C8.17425 2.74343 8.20851 2.51504 8.28494 2.30286C8.32579 2.18799 8.42462 2.0542 8.53005 2.00825C8.89111 1.85283 9.25745 1.71498 9.66991 1.84337C10.0046 1.94743 10.1549 2.17177 10.201 2.50558C10.2181 2.63532 10.255 2.76235 10.2761 2.89209C10.2853 2.94345 10.2945 3.00697 10.2761 3.05021C10.0942 3.44484 9.93347 3.86243 9.47357 4.01244C9.38791 4.04082 9.29698 4.05028 9.24164 4.06245L9.24032 4.0611ZM10.089 2.85831C9.83068 2.79749 9.57503 2.77857 9.3576 2.67451C9.08746 2.54477 8.87003 2.56639 8.61175 2.70559C8.29944 2.87452 8.26913 2.87858 8.38904 3.22049C8.43648 3.35564 8.50632 3.48943 8.5933 3.6016C8.84894 3.92865 9.24427 4.0165 9.56449 3.81648C9.90579 3.60431 10.0745 3.28401 10.0876 2.85831H10.089Z" fill="#BCC8CE"/>
<path d="M6.05009 6.51392C5.60601 6.62474 5.18169 6.73015 4.74023 6.83962C4.88124 6.48824 5.02619 6.15984 5.37803 5.99091C5.53485 5.91523 5.65476 5.92604 5.7536 6.09632C5.83925 6.24363 5.94994 6.37607 6.05009 6.51392Z" fill="#BCC8CE"/>
<path d="M9.83611 19C9.32219 19 8.79508 18.9554 8.26797 18.8689C5.27401 18.3743 2.95342 16.7661 1.36683 14.0915C0.306026 12.2995 -0.140697 10.3115 0.0385192 8.17896C0.241455 5.76798 1.20079 3.66377 2.88885 1.92716C3.55432 1.24198 4.32917 0.656803 5.19362 0.1865L5.78925 0.800057C2.81374 2.4245 1.15335 4.93549 0.854217 8.26951C0.62229 10.8508 1.38528 13.1617 3.12473 15.1362C4.81279 17.0539 7.2243 18.1526 9.74255 18.1526C12.2608 18.1526 14.3719 17.1945 16.0494 15.4552C17.7625 13.6794 18.6849 11.3427 18.6467 8.87496C18.6085 6.40451 17.6307 4.11245 15.8926 2.41909L15.6659 2.19745L14.7712 3.57728L13.7407 0.432463L17.0812 0L16.1429 1.45551L16.2853 1.61093C16.3788 1.71499 16.4737 1.81499 16.5673 1.91635C16.7676 2.13123 16.9573 2.3353 17.1365 2.55018C18.2949 3.93542 19.0381 5.57202 19.3438 7.41404C19.3807 7.63433 19.4071 7.86542 19.4321 8.08706C19.444 8.18842 19.4558 8.29113 19.4677 8.39249V9.59798C19.4519 9.71691 19.4387 9.83448 19.4242 9.95341C19.3939 10.2115 19.3623 10.4778 19.3148 10.7305C18.7218 13.8942 17.0285 16.2795 14.2809 17.8188C12.8841 18.6013 11.3898 18.9986 9.84139 18.9986L9.83611 19Z" fill="#BCC8CE"/>
</svg>
