<svg width="45" height="36" viewBox="0 0 45 36" fill="none" xmlns="http://www.w3.org/2000/svg">
<path d="M0.5 8C0.5 3.85786 3.85786 0.5 8 0.5H37C41.1421 0.5 44.5 3.85786 44.5 8V28C44.5 32.1421 41.1421 35.5 37 35.5H8C3.85786 35.5 0.5 32.1421 0.5 28V8Z" fill="white" stroke="#023773"/>
<path fill-rule="evenodd" clip-rule="evenodd" d="M15 26V14.832H18.5294V16.1013H16.3961V24.7301H29.6039V16.1013H27.4706V14.832H31V26H15ZM23.6652 10V17.4638L25.2247 16.0217L26.2035 16.9267L22.9671 19.9197L19.7301 16.9267L20.7088 16.0217L22.2691 17.4632V10H23.6652Z" fill="#023773"/>
</svg>
