<svg width="12" height="12" viewBox="0 0 12 12" fill="none" xmlns="http://www.w3.org/2000/svg">
<path fill-rule="evenodd" clip-rule="evenodd" d="M9.87412 1.11298C9.91402 1.14871 9.94568 1.19114 9.96728 1.23786C9.98888 1.28459 10 1.33467 10 1.38526C10 1.43584 9.98888 1.48593 9.96728 1.53265C9.94568 1.57937 9.91402 1.62181 9.87412 1.65753L5.03507 6.0001L9.87412 10.3427C9.95458 10.4149 9.99978 10.5128 9.99978 10.6149C9.99978 10.7171 9.95458 10.815 9.87412 10.8872C9.79367 10.9594 9.68455 11 9.57077 11C9.45699 11 9.34787 10.9594 9.26742 10.8872L4.12588 6.27238C4.08598 6.23665 4.05432 6.19422 4.03272 6.14749C4.01112 6.10077 4 6.05069 4 6.0001C4 5.94952 4.01112 5.89943 4.03272 5.85271C4.05432 5.80599 4.08598 5.76355 4.12588 5.72783L9.26742 1.11298C9.30722 1.07717 9.3545 1.04875 9.40656 1.02937C9.45861 1.00998 9.51441 1 9.57077 1C9.62713 1 9.68293 1.00998 9.73499 1.02937C9.78704 1.04875 9.83432 1.07717 9.87412 1.11298Z" fill="#023773"/>
<path fill-rule="evenodd" clip-rule="evenodd" d="M2.35982 1.02734C2.55805 1.02734 2.71875 1.18804 2.71875 1.38628L2.71875 10.616C2.71875 10.8142 2.55805 10.9749 2.35982 10.9749C2.16158 10.9749 2.00089 10.8142 2.00089 10.616L2.00089 1.38628C2.00089 1.18804 2.16158 1.02734 2.35982 1.02734Z" fill="#023773"/>
</svg>
