<svg width="14" height="14" viewBox="0 0 14 14" fill="none" xmlns="http://www.w3.org/2000/svg">
<g clip-path="url(#clip0_2942_6848)">
<path fill-rule="evenodd" clip-rule="evenodd" d="M0.874634 12.9719C0.874634 13.0558 0.942856 13.1241 1.02666 13.1241H12.9624C13.0462 13.1241 13.1144 13.0558 13.1144 12.9719C13.1144 12.888 13.0462 12.8197 12.9624 12.8197H11.3629L11.4873 12.6489C12.6933 10.9899 12.9466 10.1867 12.9466 9.80478C12.9466 9.31444 12.7542 8.8502 12.4048 8.49758C12.0535 8.14308 11.5883 7.9478 11.0946 7.9478C10.071 7.9478 9.23809 8.78081 9.23809 9.80478C9.23809 10.6063 10.356 12.1838 10.6987 12.6483L10.8252 12.8199H8.32917V8.63287L12.9329 3.92481C13.1883 3.66283 13.1888 3.24243 12.9329 2.98691C12.772 2.8223 12.5936 2.78787 12.4725 2.78787C12.2971 2.78787 12.1265 2.86023 12.0043 2.98691L7.37647 7.72187L7.36304 7.7294C7.15273 7.84721 7.02193 8.06992 7.02193 8.31065V12.8197H6.3397V2.29001L6.43451 2.27871C6.6416 2.25397 6.79765 2.07913 6.79765 1.87203V1.28621C6.79765 1.05893 6.61313 0.874146 6.38617 0.874146H1.32184C1.09488 0.874146 0.910357 1.05893 0.910357 1.28621V1.87203C0.910357 2.07913 1.06641 2.25397 1.27349 2.27871L1.36831 2.29001V12.8197H1.02666C0.942856 12.8197 0.874634 12.888 0.874634 12.9719ZM7.53843 7.97927C7.58168 7.9583 7.62787 7.94754 7.67595 7.94754H7.67568C7.86504 7.94754 8.02485 8.11376 8.02485 8.31065V12.8197H7.32597V8.31065C7.32597 8.16648 7.40816 8.03926 7.53843 7.97927ZM6.03592 12.8197H1.67236V2.28409H6.03592V12.8197ZM9.54214 9.80451C9.54214 8.94838 10.2319 8.25201 11.0796 8.25201V8.25174H11.0809C12.0583 8.26331 12.6425 9.05005 12.6425 9.80424C12.6425 10.4898 11.62 11.9549 11.1803 12.5531L11.0943 12.6701L11.0076 12.5539C10.8574 12.3527 9.54214 10.566 9.54214 9.80451ZM7.86602 7.65687L7.98913 7.72537C8.11322 7.79449 8.21717 7.90961 8.27411 8.04194L8.3375 8.18907L9.3458 7.15811L9.23567 6.25544L7.86602 7.65687ZM9.61815 6.87918L9.50803 5.97652L11.0841 4.36377L11.1945 5.26724L9.61815 6.87918ZM12.2227 3.19886C12.2882 3.13081 12.3753 3.09342 12.4677 3.09342H12.4679C12.5606 3.09342 12.6495 3.13189 12.7172 3.20101C12.8536 3.33738 12.8531 3.57111 12.7158 3.71152L11.4669 4.98859L11.3565 4.08512L12.2227 3.19886ZM6.4936 1.97961H1.2144V1.17862H6.4936V1.97961ZM2.54834 6.65241C2.46454 6.65241 2.39631 6.58409 2.39631 6.50017V3.46861C2.39631 3.38469 2.46454 3.31637 2.54834 3.31637H5.15853C5.24233 3.31637 5.31055 3.38469 5.31055 3.46861V6.50044C5.31055 6.58436 5.24233 6.65268 5.15853 6.65268H2.54834V6.65241ZM5.0065 6.34794H2.70063V3.62084H5.0065V6.34794ZM11.0926 10.6622C10.5758 10.6622 10.1554 10.2413 10.1554 9.72349C10.1554 9.20573 10.5758 8.78506 11.0926 8.78506C11.6093 8.78506 12.03 9.206 12.03 9.72349C12.03 10.241 11.6096 10.6622 11.0926 10.6622ZM11.0926 9.08953C10.7434 9.08953 10.4595 9.37383 10.4595 9.72349C10.4595 10.0732 10.7434 10.3577 11.0926 10.3577C11.4417 10.3577 11.7259 10.0732 11.7259 9.72349C11.7259 9.37383 11.4417 9.08953 11.0926 9.08953ZM2.39631 12.1058C2.39631 12.1897 2.46454 12.258 2.54834 12.258H5.15853C5.24233 12.258 5.31055 12.1897 5.31055 12.1058V8.20815C5.31055 8.12424 5.24233 8.05592 5.15853 8.05592H2.54834C2.46454 8.05592 2.39631 8.12424 2.39631 8.20815V12.1058ZM5.0065 11.9536H2.70063V8.36066H5.0065V11.9536ZM3.47785 9.38875C3.39405 9.38875 3.32583 9.32043 3.32583 9.23652C3.32583 9.1526 3.39405 9.08428 3.47785 9.08428H4.22965C4.31345 9.08428 4.38167 9.1526 4.38167 9.23652C4.38167 9.32043 4.31345 9.38875 4.22965 9.38875H3.47785ZM3.32583 10.1571C3.32583 10.241 3.39405 10.3093 3.47785 10.3093H4.22965C4.31345 10.3093 4.38167 10.241 4.38167 10.1571C4.38167 10.0731 4.31345 10.0048 4.22965 10.0048H3.47785C3.39405 10.0048 3.32583 10.0731 3.32583 10.1571ZM3.47785 11.23C3.39405 11.23 3.32583 11.1617 3.32583 11.0778C3.32583 10.9938 3.39405 10.9255 3.47785 10.9255H4.22965C4.31345 10.9255 4.38167 10.9938 4.38167 11.0778C4.38167 11.1617 4.31345 11.23 4.22965 11.23H3.47785Z" fill="white"/>
</g>
<defs>
<clipPath id="clip0_2942_6848">
<rect width="14" height="14" fill="white"/>
</clipPath>
</defs>
</svg>
