<svg width="16" height="17" viewBox="0 0 16 17" fill="none" xmlns="http://www.w3.org/2000/svg">
<path d="M2.38895 12.8981C3.17451 12.8981 3.81382 12.2539 3.81382 11.4617C3.81382 10.6695 3.17451 10.0254 2.38895 10.0254C1.60339 10.0254 0.96309 10.6695 0.96309 11.4617C0.96309 12.2539 1.60273 12.8981 2.38895 12.8981ZM2.38895 10.5566C2.88433 10.5566 3.28715 10.9627 3.28715 11.4621C3.28715 11.9614 2.88433 12.3675 2.38895 12.3675C1.89357 12.3675 1.48976 11.9614 1.48976 11.4621C1.48976 10.9627 1.89324 10.5566 2.38895 10.5566ZM2.9614 13.2042H1.81584C0.814542 13.2042 0 14.0595 0 15.1111V16.2197C0 16.65 0.33662 17 0.750643 17H4.02693C4.44095 17 4.77757 16.65 4.77757 16.2197V15.1111C4.77757 14.0595 3.9627 13.2042 2.9614 13.2042ZM4.25057 16.2197C4.25057 16.3549 4.14781 16.4691 4.0266 16.4691H0.750314C0.628775 16.4691 0.52634 16.3549 0.52634 16.2197V15.1111C0.52634 14.3524 1.10472 13.7351 1.81584 13.7351H2.9614C3.67252 13.7351 4.2509 14.3524 4.2509 15.1111V16.2197H4.25057ZM9.42504 11.4621C9.42504 10.6702 8.78572 10.0257 8.00016 10.0257C7.21461 10.0257 6.57431 10.6698 6.57431 11.4621C6.57431 12.2543 7.21395 12.8984 8.00016 12.8984C8.78605 12.8981 9.42504 12.2539 9.42504 11.4621ZM7.1013 11.4621C7.1013 10.9627 7.50479 10.5566 8.00049 10.5566C8.4962 10.5566 8.8987 10.9627 8.8987 11.4621C8.8987 11.9614 8.49587 12.3675 8.00049 12.3675C7.50512 12.3675 7.1013 11.9611 7.1013 11.4621ZM8.57262 13.2042H7.42804C6.42609 13.2042 5.61122 14.0595 5.61122 15.1111V16.2197C5.61122 16.65 5.94784 17 6.36186 17H9.63814C10.0522 17 10.3888 16.65 10.3888 16.2197V15.1111C10.3888 14.0595 9.57391 13.2042 8.57262 13.2042ZM9.86212 16.2197C9.86212 16.3549 9.75935 16.4691 9.63814 16.4691H6.36186C6.24032 16.4691 6.13788 16.3549 6.13788 16.2197V15.1111C6.13788 14.3524 6.71659 13.7351 7.42804 13.7351H8.57262C9.28374 13.7351 9.86212 14.3524 9.86212 15.1111V16.2197ZM13.6117 12.8981C14.3973 12.8981 15.0366 12.2539 15.0366 11.4617C15.0366 10.6695 14.3973 10.0254 13.6117 10.0254C12.8262 10.0254 12.1859 10.6695 12.1859 11.4617C12.1859 12.2539 12.8255 12.8981 13.6117 12.8981ZM13.6117 10.5566C14.1071 10.5566 14.5099 10.9627 14.5099 11.4621C14.5099 11.9614 14.1071 12.3675 13.6117 12.3675C13.1163 12.3675 12.7125 11.9614 12.7125 11.4621C12.7125 10.9627 13.1157 10.5566 13.6117 10.5566ZM14.1838 13.2042H13.0393C12.0373 13.2042 11.2224 14.0595 11.2224 15.1111V16.2197C11.2224 16.65 11.5591 17 11.9731 17H15.2494C15.6634 17 16 16.65 16 16.2197V15.1111C16 14.0595 15.1851 13.2042 14.1838 13.2042ZM15.4733 16.2197C15.4733 16.3572 15.3729 16.4691 15.2494 16.4691H11.9731C11.8515 16.4691 11.7491 16.3549 11.7491 16.2197V15.1111C11.7491 14.3524 12.3278 13.7351 13.0393 13.7351H14.1838C14.8946 13.7351 15.4733 14.3524 15.4733 15.1111V16.2197ZM11.5199 6.90127L11.2106 6.28768C11.367 6.01309 11.4876 5.72023 11.5696 5.41377L12.2178 5.20127C12.3262 5.16574 12.3996 5.06381 12.3996 4.94893V3.92195C12.3996 3.80707 12.3262 3.70514 12.2178 3.66961L11.5693 3.45711C11.4872 3.15131 11.3667 2.85879 11.2102 2.58354L11.5195 1.97061C11.5712 1.86834 11.5515 1.74416 11.4711 1.66281L10.7511 0.936328C10.6704 0.85498 10.5472 0.835391 10.4454 0.88752L9.83741 1.1993C9.56502 1.04125 9.27418 0.920059 8.97017 0.837051L8.75937 0.183281C8.72413 0.074043 8.62301 0 8.50905 0H7.49029C7.37633 0 7.27521 0.074043 7.23997 0.183281L7.02917 0.837051C6.72713 0.919727 6.43696 1.04092 6.16259 1.1993L5.55522 0.88752C5.45345 0.835391 5.32993 0.85498 5.24923 0.936328L4.52856 1.66281C4.44787 1.74416 4.42843 1.86867 4.48015 1.97127L4.78943 2.58354C4.63232 2.86012 4.51209 3.15297 4.43008 3.45711L3.78154 3.66961C3.67318 3.70514 3.59973 3.80707 3.59973 3.92195V4.94893C3.59973 5.06381 3.67318 5.16574 3.78154 5.20127L4.43008 5.41377C4.51209 5.71891 4.63265 6.01176 4.78943 6.28768L4.48015 6.90094C4.42843 7.0032 4.44787 7.12771 4.52856 7.20906L5.24956 7.93488C5.33026 8.0159 5.45344 8.03549 5.55489 7.98369L6.16292 7.67191C6.43597 7.82963 6.72648 7.95115 7.0295 8.03383L7.2403 8.6876C7.27554 8.79684 7.37666 8.87088 7.49062 8.87088H8.50938C8.62334 8.87088 8.72446 8.79684 8.7597 8.6876L8.9705 8.03383C9.27418 7.95115 9.56469 7.82963 9.83708 7.67191L10.4461 7.98369C10.5475 8.03549 10.6704 8.0159 10.7511 7.93488L11.4714 7.20873C11.5518 7.12771 11.5712 7.00354 11.5199 6.90127ZM11.0927 5.14814C11.0136 5.49943 10.8772 5.83146 10.6869 6.13527C10.6375 6.2143 10.6329 6.31391 10.675 6.39758L10.9639 6.97L10.5143 7.42322L9.94644 7.13203C9.86376 7.08953 9.76495 7.09418 9.68623 7.14398C9.38485 7.33557 9.05515 7.47336 8.707 7.55305C8.61642 7.57363 8.5433 7.64104 8.51465 7.73002L8.31801 8.33996H7.68166L7.48502 7.73002C7.45637 7.64104 7.38358 7.57363 7.293 7.55305C6.94551 7.47336 6.61581 7.3359 6.31311 7.14398C6.23472 7.09418 6.13591 7.08986 6.05324 7.13236L5.48605 7.42355L5.0358 6.97033L5.32466 6.39725C5.36649 6.31424 5.36188 6.21496 5.3128 6.13627C5.12242 5.83047 4.98573 5.49811 4.90668 5.14848C4.88593 5.05717 4.8194 4.98379 4.73113 4.9549L4.12607 4.75668V4.1152L4.73113 3.91697C4.8194 3.88809 4.88626 3.81471 4.90668 3.7234C4.98508 3.3751 5.12177 3.04273 5.3128 2.73527C5.36188 2.65625 5.36616 2.55764 5.32466 2.47463L5.03613 1.90221L5.48605 1.44832L6.05389 1.73918C6.13624 1.78135 6.23439 1.7767 6.31245 1.72723C6.61745 1.53465 6.94716 1.39686 7.29267 1.31783C7.38325 1.29725 7.45604 1.22984 7.48469 1.14086L7.68133 0.530918H8.31768L8.51432 1.14086C8.54297 1.22984 8.61609 1.29725 8.70667 1.31783C9.05515 1.39752 9.38452 1.53498 9.6859 1.72689C9.76429 1.7767 9.86278 1.78135 9.94545 1.73918L10.5139 1.44799L10.9635 1.90188L10.6747 2.47363C10.6325 2.55697 10.6371 2.65625 10.6862 2.73561C10.8766 3.04041 11.0129 3.37277 11.092 3.7234C11.1128 3.81471 11.1793 3.88809 11.2676 3.91697L11.8726 4.1152V4.75668L11.2676 4.9549C11.1799 4.98312 11.1131 5.05684 11.0927 5.14814ZM8.00016 2.34746C6.8579 2.34746 5.9284 3.28445 5.9284 4.43594C5.9284 5.58742 6.8579 6.52342 8.00016 6.52342C9.14243 6.52342 10.0709 5.58709 10.0709 4.43594C10.0713 3.28445 9.14211 2.34746 8.00016 2.34746ZM8.00016 5.9925C7.14807 5.9925 6.45507 5.29424 6.45507 4.43561C6.45507 3.57697 7.14807 2.87805 8.00016 2.87805C8.85226 2.87805 9.54427 3.57697 9.54427 4.43561C9.5446 5.29424 8.85193 5.9925 8.00016 5.9925Z" fill="#94A8B2"/>
</svg>
