<svg width="14" height="14" viewBox="0 0 14 14" fill="none" xmlns="http://www.w3.org/2000/svg">
<path d="M6.99746 0C8.92978 0 10.6793 0.785424 11.9493 2.04983C13.2143 3.31966 14 5.06847 14 7C14 8.93153 13.2143 10.6803 11.9493 11.9502C10.679 13.2146 8.92978 14 6.99746 14C5.06514 14 3.31594 13.2146 2.05101 11.9502C0.78066 10.6803 0 8.93186 0 7C0 5.06847 0.780321 3.31966 2.05067 2.04983C3.31594 0.785424 5.06514 0 6.99746 0ZM10.5664 6.61797C10.7763 6.61797 10.9431 6.79017 10.9431 7C10.9431 7.20983 10.7763 7.38203 10.5664 7.38203H7.00831H6.99746C6.8574 7.38203 6.73362 7.30136 6.66919 7.18847L6.66376 7.18305L6.65833 7.1722V7.16678L6.65291 7.15593L6.64748 7.14508V7.13966L6.64206 7.12881L6.63663 7.12339V7.11254L6.6312 7.1017V7.09627L6.62578 7.08542V7.07458V7.06915V7.06373L6.62035 7.05831V7.04746V7.03661V7.02712V7.0217V7.01085V7V2.44271C6.62035 2.23288 6.7872 2.0661 6.99712 2.0661C7.20703 2.0661 7.37931 2.23288 7.37931 2.44271V6.61797H10.5664ZM11.4111 2.58814C10.2808 1.45831 8.71986 0.764068 6.99746 0.764068C5.27505 0.764068 3.71407 1.45797 2.58378 2.58814C1.45891 3.71797 0.758956 5.27831 0.758956 7C0.758956 8.72169 1.45857 10.282 2.58378 11.4122C3.71407 12.542 5.27505 13.2363 6.99746 13.2363C8.71986 13.2363 10.2808 12.542 11.4111 11.4122C12.5414 10.2824 13.2414 8.72203 13.2414 7C13.2414 5.27831 12.5418 3.71797 11.4111 2.58814Z" fill="#023773"/>
</svg>
