<svg width="12" height="12" viewBox="0 0 12 12" fill="none" xmlns="http://www.w3.org/2000/svg">
<path fill-rule="evenodd" clip-rule="evenodd" d="M2.12588 10.887C2.08598 10.8513 2.05432 10.8089 2.03272 10.7621C2.01112 10.7154 2 10.6653 2 10.6147C2 10.5642 2.01112 10.5141 2.03272 10.4673C2.05432 10.4206 2.08598 10.3782 2.12588 10.3425L6.96493 5.9999L2.12588 1.65733C2.04542 1.58512 2.00022 1.48718 2.00022 1.38505C2.00022 1.28293 2.04542 1.18499 2.12588 1.11278C2.20633 1.04057 2.31545 1 2.42923 1C2.54301 1 2.65213 1.04057 2.73258 1.11278L7.87412 5.72762C7.91403 5.76335 7.94568 5.80578 7.96728 5.85251C7.98888 5.89923 8 5.94931 8 5.9999C8 6.05048 7.98888 6.10057 7.96728 6.14729C7.94568 6.19401 7.91403 6.23645 7.87412 6.27217L2.73258 10.887C2.69278 10.9228 2.6455 10.9512 2.59344 10.9706C2.54139 10.99 2.48559 11 2.42923 11C2.37287 11 2.31707 10.99 2.26501 10.9706C2.21296 10.9512 2.16568 10.9228 2.12588 10.887Z" fill="#023773"/>
<path fill-rule="evenodd" clip-rule="evenodd" d="M9.64018 10.9727C9.44195 10.9727 9.28125 10.812 9.28125 10.6137L9.28125 1.38404C9.28125 1.18581 9.44195 1.0251 9.64018 1.0251C9.83842 1.0251 9.99912 1.18581 9.99912 1.38404L9.99911 10.6137C9.99911 10.812 9.83842 10.9727 9.64018 10.9727Z" fill="#023773"/>
</svg>
