<svg width="16" height="16" viewBox="0 0 16 16" fill="none" xmlns="http://www.w3.org/2000/svg">
<path fill-rule="evenodd" clip-rule="evenodd" d="M13.8769 11.9722H6.84774C6.62159 11.9722 6.62159 11.6366 6.84774 11.6366H13.8766V10.7033H3.22395C2.61871 10.7033 2.12283 11.1991 2.12283 11.8044C2.12283 12.4096 2.61871 12.9055 3.22395 12.9055H13.8769V11.9722ZM10.1144 8.51613C10.0779 8.51613 10.0489 8.50872 10.0124 8.5016L9.81559 8.84424C10.1511 9.10685 10.0489 9.6537 9.6259 9.76308C9.49459 9.79953 9.34876 9.78501 9.22487 9.71209L6.8842 8.36318C6.629 8.21735 6.54156 7.88923 6.68739 7.64144C6.82581 7.40817 7.10294 7.32073 7.34362 7.41529L7.54043 7.07265C7.46011 6.99973 7.41653 6.88296 7.42365 6.77359C7.22684 6.65681 7.04455 6.5913 6.97876 6.3435C6.95683 6.26318 6.95683 6.18315 6.97136 6.10283L4.17925 4.49102C3.79274 4.26487 3.58853 3.76928 3.82208 3.37538C4.03342 2.99628 4.55094 2.88691 4.96678 3.12758L7.75946 4.7391C7.92722 4.59327 8.17501 4.56422 8.37182 4.68071L8.56864 4.79749C8.66348 4.73198 8.77285 4.71717 8.88223 4.74651L9.07904 4.40387C8.57604 4.01024 9.10097 3.20818 9.66976 3.5363L12.0175 4.88522C12.4186 5.11848 12.3457 5.73114 11.8862 5.85503C11.7769 5.88409 11.6601 5.87697 11.5581 5.8331L11.3613 6.17574C11.4781 6.29252 11.5071 6.48933 11.4197 6.63516L10.4499 8.32672C10.377 8.4435 10.2531 8.51641 10.1144 8.51641V8.51613ZM9.71334 8.34124L7.82497 7.25493L7.63528 7.57564L9.52364 8.66936L9.71334 8.34124ZM9.181 4.89974L11.0694 5.99346L11.2591 5.66534L9.3707 4.57903L9.181 4.89974ZM7.76658 6.78811C7.75205 6.83197 7.81044 6.85362 7.8469 6.87555L8.79479 7.42241L9.27613 6.58389C9.38551 6.38708 9.67716 6.56196 9.56779 6.75165L9.08644 7.59017L10.0927 8.17348C10.1146 8.18089 10.1437 8.17348 10.1511 8.15155L11.128 6.46712C11.1571 6.41613 11.0842 6.3868 11.0477 6.37227L10.8654 6.2629L10.377 7.10142C10.2676 7.29823 9.97594 7.12335 10.0853 6.93366L10.5667 6.09514L9.34164 5.38793L8.86029 6.22644C8.75092 6.41613 8.45927 6.24837 8.56864 6.05868L9.04999 5.22017L8.80219 5.07434C8.78766 5.06693 8.75833 5.06693 8.7438 5.08886L7.76686 6.78783L7.76658 6.78811ZM9.40715 3.80603C9.21746 3.80603 9.15195 4.06123 9.31231 4.14867L11.6601 5.50499C11.8714 5.62889 12.0537 5.30077 11.8424 5.18428L9.50171 3.82796C9.47266 3.81343 9.4362 3.80603 9.40687 3.80603H9.40715ZM7.14681 7.71435C6.95711 7.71435 6.89161 7.96955 7.05196 8.0644L9.39975 9.42072C9.60396 9.54462 9.80078 9.22391 9.58203 9.0926L7.24137 7.74369C7.21232 7.72176 7.17586 7.71464 7.14652 7.71464L7.14681 7.71435ZM7.94886 5.03104C7.82497 5.27884 7.48233 5.8331 7.32169 6.11736C7.21972 6.30705 7.46752 6.40901 7.56236 6.46L8.36442 5.06722C8.25505 5.00883 8.06536 4.85588 7.94886 5.03076V5.03104ZM4.49996 3.33892C3.99696 3.33892 3.90212 3.93676 4.35413 4.19936L7.11747 5.79608L7.56236 5.01595L4.79902 3.41924C4.70417 3.36825 4.5948 3.33892 4.49996 3.33892ZM14.0446 13.2482H3.22395C2.4293 13.2482 1.7876 12.5993 1.7876 11.8044C1.7876 11.0095 2.4293 10.3606 3.22395 10.3606H14.0446C14.1395 10.3606 14.2124 10.441 14.2124 10.5355V13.073C14.2124 13.1678 14.1395 13.2479 14.0446 13.2479V13.2482Z" fill="white"/>
</svg>
