<svg width="14" height="18" viewBox="0 0 14 18" fill="none" xmlns="http://www.w3.org/2000/svg">
<path d="M1.50633 17.9151C1.06329 17.9151 0.708861 17.7453 0.443038 17.4906C0.177215 17.2358 0 16.8962 0 16.4717V7.5566C0 7.13208 0.177215 6.79245 0.443038 6.53774C0.708861 6.28302 1.06329 6.11321 1.50633 6.11321H2.74684V4.07547C2.74684 2.88679 3.18987 1.95283 3.98734 1.18868C4.78481 0.424528 5.8481 0 7 0C8.1519 0 9.21519 0.424528 10.0127 1.18868C10.8987 2.03774 11.2532 2.9717 11.2532 4.07547V6.19811H12.4937C12.9367 6.19811 13.2911 6.36792 13.557 6.62264C13.8228 6.87736 14 7.21698 14 7.64151V16.5566C14 16.9811 13.8228 17.3208 13.557 17.5755C13.2911 17.8302 12.9367 18 12.4937 18H1.50633V17.9151ZM1.1519 16.8113H12.9367V7.30189H1.1519V16.8113ZM7.08861 1.01887C6.20253 1.01887 5.49367 1.27358 4.87342 1.86792C4.25316 2.46226 3.98734 3.14151 3.98734 3.99057V6.11321H10.1899V4.07547C10.1899 3.22641 9.92405 2.54717 9.3038 1.95283C8.68354 1.35849 7.97468 1.01887 7.08861 1.01887ZM7.08861 13.5C6.64557 13.5 6.29114 13.3302 6.02532 13.0755C5.75949 12.8208 5.58228 12.4811 5.58228 12.0566C5.58228 11.6321 5.75949 11.2925 6.02532 11.0377C6.29114 10.783 6.64557 10.6132 7.08861 10.6132C7.53165 10.6132 7.88608 10.783 8.1519 11.0377C8.41772 11.2925 8.59494 11.6321 8.59494 12.0566C8.59494 12.4811 8.41772 12.8208 8.1519 13.0755C7.88608 13.3302 7.53165 13.5 7.08861 13.5Z" fill="#212B36"/>
</svg>
