<svg width="13" height="15" viewBox="0 0 13 15" fill="none" xmlns="http://www.w3.org/2000/svg">
<path d="M3.37024 0.703125C3.37024 0.516644 3.44397 0.337803 3.57521 0.205941C3.70645 0.0740794 3.88445 -1.56767e-07 4.07005 -1.72993e-07L10.6673 -7.49743e-07C11.2858 0.000697286 11.8787 0.247851 12.316 0.687239C12.7533 1.12663 12.9993 1.72236 13 2.34375L13 12.6562C12.9993 13.2776 12.7533 13.8734 12.316 14.3128C11.8787 14.7521 11.2858 14.9993 10.6673 15L4.07005 15C3.88445 15 3.70645 14.9259 3.57521 14.7941C3.44397 14.6622 3.37024 14.4834 3.37024 14.2969C3.37024 14.1104 3.44397 13.9316 3.57521 13.7997C3.70645 13.6678 3.88445 13.5938 4.07005 13.5938L10.6673 13.5938C10.9147 13.5935 11.1519 13.4946 11.3268 13.3189C11.5017 13.1431 11.6001 12.9048 11.6004 12.6562L11.6004 2.34375C11.6001 2.09519 11.5017 1.85689 11.3268 1.68113C11.1519 1.50537 10.9147 1.40651 10.6673 1.40625L4.07005 1.40625C3.88445 1.40625 3.70645 1.33217 3.57521 1.20031C3.44397 1.06845 3.37024 0.889605 3.37024 0.703125ZM0.204969 7.99717L3.53055 11.3385C3.59527 11.405 3.67247 11.458 3.75769 11.4943C3.8429 11.5306 3.93444 11.5495 4.027 11.55C4.11955 11.5505 4.21129 11.5326 4.29691 11.4973C4.38251 11.4619 4.4603 11.4098 4.52574 11.3441C4.59119 11.2783 4.643 11.2002 4.67817 11.1141C4.71335 11.0281 4.73119 10.9359 4.73067 10.8429C4.73015 10.7499 4.71127 10.658 4.67512 10.5724C4.63898 10.4867 4.58629 10.4092 4.52011 10.3442L2.38928 8.20313L7.89841 8.20312C8.08402 8.20312 8.26202 8.12905 8.39326 7.99718C8.5245 7.86532 8.59822 7.68648 8.59822 7.5C8.59822 7.31352 8.5245 7.13468 8.39326 7.00282C8.26202 6.87095 8.08402 6.79687 7.89841 6.79687L2.38931 6.79687L4.52023 4.65586C4.5855 4.59063 4.63733 4.51311 4.67273 4.42772C4.70813 4.34234 4.72642 4.25078 4.72655 4.15828C4.72667 4.06578 4.70863 3.97417 4.67346 3.88869C4.63829 3.80321 4.58667 3.72555 4.52158 3.66014C4.45648 3.59474 4.37918 3.54288 4.2941 3.50754C4.20903 3.4722 4.11784 3.45407 4.02578 3.4542C3.93372 3.45433 3.84259 3.4727 3.75761 3.50827C3.67263 3.54384 3.59547 3.59591 3.53055 3.66149L0.204969 7.0028C0.0737298 7.13466 2.817e-07 7.31351 2.98002e-07 7.49999C3.14305e-07 7.68647 0.0737298 7.86531 0.204969 7.99717Z" fill="#929EAF"/>
</svg>
