<svg width="12" height="12" viewBox="0 0 12 12" fill="none" xmlns="http://www.w3.org/2000/svg">
<path fill-rule="evenodd" clip-rule="evenodd" d="M3.12588 10.887C3.08598 10.8513 3.05432 10.8089 3.03272 10.7621C3.01112 10.7154 3 10.6653 3 10.6147C3 10.5642 3.01112 10.5141 3.03272 10.4673C3.05432 10.4206 3.08598 10.3782 3.12588 10.3425L7.96493 5.9999L3.12588 1.65733C3.04542 1.58512 3.00023 1.48718 3.00023 1.38505C3.00023 1.28293 3.04542 1.18499 3.12588 1.11278C3.20633 1.04057 3.31545 0.999999 3.42923 0.999999C3.54301 0.999999 3.65213 1.04057 3.73258 1.11278L8.87412 5.72762C8.91403 5.76335 8.94568 5.80578 8.96728 5.85251C8.98888 5.89923 9 5.94931 9 5.9999C9 6.05048 8.98888 6.10057 8.96728 6.14729C8.94568 6.19401 8.91403 6.23645 8.87412 6.27217L3.73258 10.887C3.69278 10.9228 3.6455 10.9512 3.59344 10.9706C3.54139 10.99 3.48559 11 3.42923 11C3.37287 11 3.31707 10.99 3.26501 10.9706C3.21296 10.9512 3.16568 10.9228 3.12588 10.887V10.887Z" fill="#023773"/>
</svg>
