<svg width="14" height="15" viewBox="0 0 14 15" fill="none" xmlns="http://www.w3.org/2000/svg">
<path d="M9.98273 14.8897H1.19233C0.536 14.8897 0 14.3384 0 13.6602V2.20511C0 1.5269 0.536 0.975586 1.19233 0.975586H8.14064C8.2019 0.975586 8.25878 1.00184 8.29816 1.04997L11.1204 4.32067C11.1554 4.36005 11.1751 4.41255 11.1751 4.46506V6.8169C11.1751 6.93722 11.081 7.03567 10.9628 7.03567C10.8447 7.03567 10.7506 6.93722 10.7506 6.8169V4.54819L8.04657 1.41314H1.19233C0.767902 1.41314 0.422237 1.76974 0.422237 2.20729V13.6624C0.422237 14.0999 0.767902 14.4565 1.19233 14.4565H9.98055C10.405 14.4565 10.7506 14.0999 10.7506 13.6624V12.8464C10.7506 12.726 10.8447 12.6276 10.9628 12.6276C11.081 12.6276 11.1751 12.726 11.1751 12.8464V13.6624C11.1751 14.3384 10.6391 14.8897 9.98273 14.8897Z" fill="#023773"/>
<path d="M10.9628 4.68383H8.14062C8.02248 4.68383 7.92841 4.58538 7.92841 4.46506V1.19436C7.92841 1.07403 8.02248 0.975586 8.14062 0.975586C8.25876 0.975586 8.35283 1.07403 8.35283 1.19436V4.24628H10.9628C11.081 4.24628 11.175 4.34473 11.175 4.46506C11.175 4.58538 11.081 4.68383 10.9628 4.68383Z" fill="#023773"/>
<path d="M8.13629 12.8662C8.08159 12.8662 8.0269 12.8443 7.98533 12.8027C7.93282 12.7502 7.91313 12.6715 7.92845 12.5993L8.38131 10.5931C8.39007 10.5537 8.40976 10.5165 8.4382 10.4881L12.0458 6.76673C12.2624 6.54358 12.6124 6.54358 12.829 6.76673L13.8376 7.80591C14.0542 8.02906 14.0542 8.39223 13.8376 8.6132L10.2322 12.3346C10.2037 12.363 10.1687 12.3827 10.1293 12.3936L8.18442 12.8618C8.1691 12.864 8.1516 12.8662 8.13629 12.8662ZM8.78386 10.7506L8.42069 12.3521L9.974 11.978L13.54 8.30253C13.5904 8.25003 13.5904 8.1647 13.54 8.1122L12.5315 7.07301C12.4812 7.02051 12.398 7.02051 12.3477 7.07301L8.78386 10.7506Z" fill="#023773"/>
<path d="M10.0812 12.398C10.0265 12.398 9.97182 12.3761 9.93026 12.3345L8.43821 10.7965C8.35507 10.7112 8.35507 10.5734 8.43821 10.4881C8.52134 10.4027 8.65479 10.4027 8.73793 10.4881L10.23 12.0261C10.3131 12.1114 10.3131 12.2492 10.23 12.3345C10.1906 12.3761 10.1359 12.398 10.0812 12.398Z" fill="#023773"/>
<path d="M9.80992 10.5581C9.75523 10.5581 9.70054 10.5363 9.65897 10.4947C9.57583 10.4094 9.57583 10.2716 9.65897 10.1862L12.0174 7.75344C12.1005 7.66812 12.234 7.66812 12.3171 7.75344C12.4002 7.83877 12.4002 7.9766 12.3171 8.06192L9.95869 10.4947C9.91712 10.5363 9.86462 10.5581 9.80992 10.5581Z" fill="#023773"/>
<path d="M8.77072 6.28081H2.40435C2.28621 6.28081 2.19214 6.18236 2.19214 6.06204C2.19214 5.94171 2.28621 5.84326 2.40435 5.84326H8.77072C8.88886 5.84326 8.98294 5.94171 8.98294 6.06204C8.98294 6.18236 8.88886 6.28081 8.77072 6.28081Z" fill="#023773"/>
<path d="M8.77072 8.95415H2.40435C2.28621 8.95415 2.19214 8.8557 2.19214 8.73538C2.19214 8.61505 2.28621 8.5166 2.40435 8.5166H8.77072C8.88886 8.5166 8.98294 8.61505 8.98294 8.73538C8.98294 8.8557 8.88886 8.95415 8.77072 8.95415Z" fill="#023773"/>
<path d="M6.72955 11.6277H2.40435C2.28621 11.6277 2.19214 11.5293 2.19214 11.409C2.19214 11.2886 2.28621 11.1902 2.40435 11.1902H6.72955C6.84768 11.1902 6.94176 11.2886 6.94176 11.409C6.94176 11.5315 6.8455 11.6277 6.72955 11.6277Z" fill="#023773"/>
</svg>
