<svg width="35" height="34" viewBox="0 0 35 34" fill="none" xmlns="http://www.w3.org/2000/svg">
<path d="M34.292 17C34.292 26.2489 26.734 33.75 17.4065 33.75C8.07902 33.75 0.520996 26.2489 0.520996 17C0.520996 7.7511 8.07902 0.25 17.4065 0.25C26.734 0.25 34.292 7.7511 34.292 17Z" fill="#EFF4FB" stroke="#E2E8F0" stroke-width="0.5"/>
<path d="M24.6644 22.9344L24.0974 22.0625C23.984 21.8938 23.9273 21.725 23.9273 21.5281V15.6781C23.9273 14.0188 23.2186 12.4719 21.9145 11.3188C20.8656 10.3906 19.5048 9.80002 18.059 9.68752V9.12502C18.059 8.78752 17.7755 8.47815 17.407 8.47815C17.0668 8.47815 16.7549 8.7594 16.7549 9.12502V9.6594C16.6982 9.6594 16.6415 9.6594 16.5848 9.68752C13.2963 10.0531 10.8299 12.6688 10.8299 15.7906V21.5281C10.8016 21.8094 10.7449 21.95 10.6882 22.0344L10.1495 22.9344C9.97945 23.2156 9.97945 23.5531 10.1495 23.8344C10.3196 24.0875 10.6031 24.2563 10.915 24.2563H16.7833V24.875C16.7833 25.2125 17.0668 25.5219 17.4353 25.5219C17.7755 25.5219 18.0874 25.2406 18.0874 24.875V24.2563H23.9273C24.2392 24.2563 24.5226 24.0875 24.6927 23.8344C24.8628 23.5531 24.8628 23.2156 24.6644 22.9344ZM11.5954 22.9906L11.7938 22.6531C11.9639 22.3719 12.0489 22.0344 12.1056 21.6406V15.7906C12.1056 13.3156 14.0901 11.2344 16.7266 10.9531C18.3425 10.7844 19.9301 11.2625 21.0924 12.275C22.113 13.175 22.6799 14.3844 22.6799 15.6781V21.5281C22.6799 21.95 22.7933 22.3438 23.0485 22.7375L23.2186 22.9906H11.5954Z" fill="#64748B"/>
</svg>
