<svg width="35" height="34" viewBox="0 0 35 34" fill="none" xmlns="http://www.w3.org/2000/svg">
<ellipse cx="17.4065" cy="17" rx="17.1355" ry="17" fill="#001C3A"/>
<path d="M24.6639 22.9344L24.0969 22.0625C23.9835 21.8938 23.9269 21.725 23.9269 21.5281V15.6781C23.9269 14.0188 23.2181 12.4719 21.914 11.3188C20.8651 10.3906 19.5044 9.8 18.0585 9.6875V9.125C18.0585 8.7875 17.7751 8.47813 17.4065 8.47813C17.0663 8.47813 16.7545 8.75938 16.7545 9.125V9.65938C16.6978 9.65938 16.6411 9.65938 16.5844 9.6875C13.2959 10.0531 10.8295 12.6688 10.8295 15.7906V21.5281C10.8011 21.8094 10.7444 21.95 10.6877 22.0344L10.1491 22.9344C9.97899 23.2156 9.97899 23.5531 10.1491 23.8344C10.3192 24.0875 10.6027 24.2563 10.9145 24.2563H16.7828V24.875C16.7828 25.2125 17.0663 25.5219 17.4349 25.5219C17.775 25.5219 18.0869 25.2406 18.0869 24.875V24.2563H23.9269C24.2387 24.2563 24.5222 24.0875 24.6923 23.8344C24.8624 23.5531 24.8624 23.2156 24.6639 22.9344ZM11.5949 22.9906L11.7933 22.6531C11.9634 22.3719 12.0485 22.0344 12.1052 21.6406V15.7906C12.1052 13.3156 14.0896 11.2344 16.7261 10.9531C18.342 10.7844 19.9296 11.2625 21.0919 12.275C22.1125 13.175 22.6795 14.3844 22.6795 15.6781V21.5281C22.6795 21.95 22.7929 22.3438 23.048 22.7375L23.2181 22.9906H11.5949Z" fill="white"/>
</svg>
