<svg width="14" height="14" viewBox="0 0 14 14" fill="none" xmlns="http://www.w3.org/2000/svg">
<g clip-path="url(#clip0_2942_10673)">
<rect width="14" height="14" fill="#929EAF" fill-opacity="0.01"/>
<path fill-rule="evenodd" clip-rule="evenodd" d="M2.79963 12.2491C2.22063 12.2491 1.74963 11.7781 1.74963 11.1991V3.65629C1.74963 3.07729 2.22063 2.60629 2.79963 2.60629H3.54963V1.74915H3.93535V2.60629H10.0639V1.74915H10.4496V2.60629H11.1996C11.7786 2.60629 12.2496 3.07729 12.2496 3.65629V11.1991C12.2496 11.7781 11.7786 12.2491 11.1996 12.2491H2.79963ZM2.13535 11.1991C2.13535 11.5654 2.43342 11.8634 2.79963 11.8634H11.1996C11.5658 11.8634 11.8639 11.5654 11.8639 11.1991V5.30629H2.13535V11.1991ZM2.79963 2.992C2.43342 2.992 2.13535 3.29007 2.13535 3.65629V4.92057H11.8639V3.65629C11.8639 3.29007 11.5658 2.992 11.1996 2.992H10.4496V3.84915H10.0639V2.992H3.93535V3.84915H3.54963V2.992H2.79963ZM3.76367 6.67769H3.37795V7.0634H3.76367V6.67769ZM5.09241 6.67769H5.47812V7.0634H5.09241V6.67769ZM7.19257 6.67769H6.80686V7.0634H7.19257V6.67769ZM8.52131 6.67769H8.90703V7.0634H8.52131V6.67769ZM10.621 6.67769H10.2353V7.0634H10.621V6.67769ZM3.37795 8.39201H3.76367V8.77772H3.37795V8.39201ZM5.47812 8.39201H5.09241V8.77772H5.47812V8.39201ZM6.80686 8.39201H7.19257V8.77772H6.80686V8.39201ZM8.90703 8.39201H8.52131V8.77772H8.90703V8.39201ZM3.37795 10.1063H3.76367V10.492H3.37795V10.1063ZM5.47812 10.1063H5.09241V10.492H5.47812V10.1063ZM6.80686 10.1063H7.19257V10.492H6.80686V10.1063ZM8.90703 10.1063H8.52131V10.492H8.90703V10.1063ZM10.2353 8.39201H10.621V8.77772H10.2353V8.39201Z" fill="#929EAF" fill-opacity="0.55"/>
</g>
<defs>
<clipPath id="clip0_2942_10673">
<rect width="14" height="14" fill="#929EAF"/>
</clipPath>
</defs>
</svg>
