<svg width="12" height="12" viewBox="0 0 12 12" fill="none" xmlns="http://www.w3.org/2000/svg">
<path fill-rule="evenodd" clip-rule="evenodd" d="M8.87412 1.11298C8.91402 1.14871 8.94568 1.19114 8.96728 1.23786C8.98888 1.28459 9 1.33467 9 1.38526C9 1.43584 8.98888 1.48593 8.96728 1.53265C8.94568 1.57937 8.91402 1.62181 8.87412 1.65753L4.03507 6.0001L8.87412 10.3427C8.95458 10.4149 8.99978 10.5128 8.99978 10.6149C8.99978 10.7171 8.95458 10.815 8.87412 10.8872C8.79367 10.9594 8.68455 11 8.57077 11C8.45699 11 8.34787 10.9594 8.26742 10.8872L3.12588 6.27238C3.08598 6.23665 3.05432 6.19422 3.03272 6.14749C3.01112 6.10077 3 6.05069 3 6.0001C3 5.94952 3.01112 5.89943 3.03272 5.85271C3.05432 5.80599 3.08598 5.76355 3.12588 5.72783L8.26742 1.11298C8.30722 1.07717 8.3545 1.04875 8.40656 1.02937C8.45861 1.00998 8.51441 1 8.57077 1C8.62713 1 8.68293 1.00998 8.73499 1.02937C8.78704 1.04875 8.83432 1.07717 8.87412 1.11298V1.11298Z" fill="#023773"/>
</svg>
