<svg width="15" height="18" viewBox="0 0 15 18" fill="none" xmlns="http://www.w3.org/2000/svg">
<path d="M6.24246 17.4994C4.59572 17.4994 2.94898 17.4994 1.30224 17.4989C0.500175 17.4989 0.00157784 17.0024 0.00105189 16.2033C0 14.519 0 12.8347 0 11.1509V9.16762V7.1891C0 5.49689 0 3.80469 0.00157784 2.11249C0.00210379 1.43582 0.413394 0.941454 1.04874 0.852668C1.14867 0.838483 1.25859 0.832704 1.4048 0.832704C1.47423 0.832704 1.54365 0.83428 1.61308 0.83533C1.68566 0.836907 1.75824 0.837957 1.83082 0.837957H1.85817C2.06013 0.836907 2.26262 0.835856 2.46459 0.835856C2.68969 0.835856 2.8885 0.836907 3.07363 0.839008H3.08415C3.28506 0.839008 3.42759 0.760203 3.53278 0.59051C3.77577 0.198063 4.10764 0.00630438 4.54576 0.00525365C5.74649 0.00210146 6.75421 0 7.76928 0C8.78436 0 9.62325 0.00210146 10.4464 0.00630438C11.1343 0.00998194 11.6376 0.52484 11.6434 1.23041C11.6439 1.30868 11.6455 1.38696 11.6476 1.46577C11.6529 1.71479 11.6581 1.95016 11.6313 2.17974C11.5598 2.80335 11.0649 3.2415 10.4285 3.24518C9.37658 3.25148 8.39674 3.25464 7.43373 3.25464C6.47072 3.25464 5.4872 3.25148 4.56837 3.24465C3.86413 3.2394 3.36606 2.72349 3.35764 1.98956C3.35344 1.62128 3.09677 1.56611 2.94425 1.56611H2.93163C2.72177 1.56927 2.4972 1.57084 2.20266 1.57084C2.0817 1.57084 1.59835 1.56979 1.47738 1.56979H1.28278C0.90831 1.57084 0.734222 1.74789 0.733696 2.12668C0.73317 6.82397 0.73317 11.5207 0.733696 16.218C0.733696 16.6021 0.899895 16.766 1.29015 16.766C3.35764 16.766 5.42409 16.766 7.49158 16.766C9.55908 16.766 11.635 16.766 13.7062 16.766C14.1033 16.766 14.2653 16.6021 14.2658 16.2012C14.2658 11.5107 14.2658 6.82029 14.2658 2.1293C14.2658 1.74474 14.0917 1.57189 13.7009 1.56927H13.672C13.6404 1.56927 13.6089 1.56927 13.5773 1.56979C13.5473 1.56979 13.5179 1.57032 13.4879 1.57032C13.4369 1.57032 13.3964 1.56927 13.3596 1.56716C13.1723 1.55666 13.0219 1.4064 13.0093 1.21675C12.9977 1.0418 13.1313 0.866327 13.2901 0.849515C13.439 0.833229 13.5589 0.825874 13.6688 0.825874C13.8671 0.825874 14.037 0.851092 14.1885 0.903628C14.6497 1.06281 14.9742 1.49729 14.9968 1.98483C14.9989 2.03474 15 2.0836 15 2.12983V4.58959C15 8.45995 15 12.3308 15 16.2012C15 16.8668 14.6392 17.3423 14.0349 17.4726C13.9329 17.4947 13.8135 17.4968 13.6993 17.4968C11.2137 17.4978 8.72861 17.4983 6.24351 17.4983L6.24246 17.4994ZM9.26613 2.51807C9.62114 2.51807 9.97616 2.51807 10.3317 2.51755C10.7309 2.51755 10.9097 2.34103 10.9113 1.94753C10.9123 1.77941 10.9118 1.61129 10.9113 1.4437V1.33758C10.9108 0.893121 10.753 0.734986 10.3091 0.734986H5.50929C5.22212 0.734986 4.93548 0.734986 4.64832 0.734986C4.26332 0.735511 4.09029 0.909932 4.08871 1.29923C4.08818 1.44318 4.08871 1.58713 4.08871 1.73055V1.88921C4.08871 2.35311 4.25175 2.51755 4.71038 2.51755H7.50105H9.26613V2.51807Z" fill="#94A8B2"/>
<path d="M3.28972 9.95046C3.184 9.95046 3.09091 9.90685 3.02675 9.82805C2.91104 9.68515 2.93628 9.4708 3.08302 9.34944C3.37703 9.10725 3.68786 8.87189 3.9887 8.64388C4.09863 8.56087 4.20802 8.47786 4.31742 8.3938C4.53937 8.22411 4.76184 8.05442 4.98432 7.88525C5.2515 7.68193 5.51868 7.47862 5.78534 7.27425C6.04621 7.07409 6.31602 6.97217 6.58688 6.97217C6.89929 6.97217 7.2075 7.11349 7.47783 7.38037L7.57461 7.47599C7.71609 7.61521 7.8623 7.75916 8.0001 7.90364C8.12212 8.0313 8.25729 8.09645 8.40192 8.09645C8.52236 8.09645 8.63912 8.05232 8.76009 7.96195C9.32338 7.53903 9.89877 7.11244 10.4552 6.69898C10.7671 6.46729 11.079 6.23613 11.3904 6.00392C11.5182 5.90883 11.6139 5.86627 11.7007 5.86627C11.7401 5.86627 11.7806 5.8752 11.8237 5.89359C11.96 5.95138 12.0473 6.05961 12.0636 6.19095C12.0799 6.32229 12.0215 6.44838 11.9031 6.53716C11.3246 6.97269 10.745 7.40717 10.1654 7.84164C9.86511 8.0665 9.56479 8.29188 9.265 8.51726C8.96311 8.7437 8.71223 8.84457 8.45136 8.84457C8.45136 8.84457 8.43137 8.84457 8.42086 8.84457C8.08267 8.83826 7.80392 8.72531 7.56619 8.49835C7.4447 8.38224 7.3232 8.25984 7.20592 8.14163C7.13702 8.07228 7.06812 8.00241 6.99817 7.93358C6.90245 7.83849 6.76938 7.72974 6.58898 7.72974C6.43909 7.72974 6.31812 7.80539 6.22924 7.87159C5.77955 8.20572 5.32987 8.54038 4.88018 8.87451C4.54726 9.12196 3.81987 9.66308 3.81987 9.66308C3.71942 9.73821 3.62422 9.80914 3.52587 9.87533C3.45224 9.92472 3.37072 9.95046 3.28972 9.95046Z" fill="#94A8B2"/>
<path d="M11.7038 13.7199C11.4981 13.7199 11.3425 13.5681 11.3409 13.3669C11.3377 12.8825 11.3383 12.3892 11.3388 11.9127C11.3388 11.6973 11.3388 11.4819 11.3388 11.2665V10.8162C11.3388 10.2919 11.3383 9.76759 11.3388 9.24328C11.3393 8.81195 11.6107 8.81195 11.7001 8.81195C12.032 8.81195 12.0698 9.11771 12.0709 9.24905C12.074 9.72293 12.0735 10.2052 12.0725 10.6717C12.0725 10.8714 12.0719 11.071 12.0719 11.2712C12.0719 11.4713 12.0719 11.6626 12.0719 11.858C12.0725 12.3219 12.073 12.8021 12.0704 13.2739C12.0688 13.5518 11.9326 13.7189 11.7054 13.7204H11.7022L11.7038 13.7199Z" fill="#94A8B2"/>
<path d="M6.10667 13.7204C5.92838 13.7204 5.73588 13.6242 5.72957 13.3542C5.71221 12.5551 5.71221 11.7298 5.72957 10.8319C5.73378 10.6207 5.92627 10.4736 6.09615 10.4736H6.10352C6.30601 10.4784 6.4538 10.6475 6.45538 10.8761C6.45695 11.1619 6.45643 11.4477 6.45643 11.7335V12.1117V12.4705C6.45643 12.75 6.45643 13.0295 6.4559 13.309C6.4559 13.4272 6.42382 13.7036 6.13823 13.7199C6.12771 13.7204 6.11719 13.7209 6.10667 13.7209V13.7204Z" fill="#94A8B2"/>
<path d="M8.89167 13.7273C8.82014 13.7273 8.75177 13.702 8.68234 13.65C8.56137 13.5597 8.54612 13.4756 8.54612 13.412C8.54612 13.2056 8.54612 12.9996 8.54612 12.7932V12.2678H8.54454C8.54454 12.2673 8.54454 12.2662 8.54454 12.2657C8.54402 12.0708 8.54297 11.8691 8.54612 11.672C8.54875 11.4908 8.67393 11.3468 8.84328 11.3295C8.86169 11.3274 8.8801 11.3269 8.89798 11.3269C9.08206 11.3269 9.21144 11.4262 9.25352 11.6001C9.26457 11.6447 9.27666 11.7025 9.27719 11.7524V11.7897C9.27982 12.2841 9.28245 12.7953 9.27719 13.2975C9.27456 13.5534 9.16095 13.6395 9.06208 13.6863C9.00317 13.7141 8.94584 13.7283 8.89325 13.7283L8.89167 13.7273Z" fill="#94A8B2"/>
<path d="M3.3076 13.7199C3.08565 13.7199 2.94259 13.5797 2.93418 13.3532C2.91419 12.7974 2.91419 12.2289 2.93418 11.6637C2.94259 11.4314 3.12931 11.3274 3.31076 11.3274C3.31865 11.3274 3.32706 11.3274 3.33548 11.3279C3.53376 11.3374 3.65788 11.484 3.65999 11.7115C3.66156 11.899 3.66104 12.0871 3.66104 12.2747C3.66104 12.3613 3.66104 12.4475 3.66104 12.5342V12.7569C3.66104 12.9377 3.66156 13.1184 3.66104 13.2991C3.65999 13.5466 3.53008 13.7115 3.32969 13.7194C3.32233 13.7194 3.31496 13.7194 3.30813 13.7194L3.3076 13.7199Z" fill="#94A8B2"/>
</svg>
