<svg width="20" height="20" viewBox="0 0 20 20" fill="none" xmlns="http://www.w3.org/2000/svg">
<path d="M3.4375 19.6094C1.75781 19.6094 0.390625 18.2422 0.390625 16.5625V5.9375C0.390625 4.25781 1.75781 2.89062 3.4375 2.89062H7.8125C8.11328 2.89062 8.35938 3.13672 8.35938 3.4375C8.35938 3.73828 8.11328 3.98438 7.8125 3.98438H3.4375C2.35938 3.98438 1.48438 4.85938 1.48438 5.9375V16.5625C1.48438 17.6406 2.35938 18.5156 3.4375 18.5156H14.0625C15.1406 18.5156 16.0156 17.6406 16.0156 16.5625V12.1875C16.0156 11.8867 16.2617 11.6406 16.5625 11.6406C16.8633 11.6406 17.1094 11.8867 17.1094 12.1875V16.5625C17.1094 18.2422 15.7422 19.6094 14.0625 19.6094H3.4375ZM5.9375 14.6055C5.79297 14.6055 5.65625 14.5469 5.55078 14.4453C5.41016 14.3047 5.35547 14.0977 5.41016 13.9062L6.52734 10C6.63672 9.60547 6.85156 9.24609 7.14453 8.95312L14.8516 1.25391C15.3086 0.796875 15.918 0.546875 16.5625 0.546875C17.207 0.546875 17.8164 0.796875 18.2734 1.25391L18.7461 1.72656C19.6914 2.67188 19.6914 4.20703 18.7461 5.15234L11.0391 12.8516C10.75 13.1406 10.3867 13.3516 9.99219 13.4688L6.08594 14.5859C6.03906 14.5977 5.98828 14.6055 5.9375 14.6055ZM7.91406 9.72656C7.75391 9.88672 7.63672 10.0859 7.57422 10.3047L6.73047 13.2656L9.69141 12.4219C9.90625 12.3594 10.1055 12.2422 10.2656 12.0859L15.7891 6.5625L13.4375 4.21094L8.19531 9.45312L8.19141 9.44922L7.91406 9.72656ZM16.5625 1.63281C16.207 1.63281 15.875 1.76953 15.6211 2.02344L14.2109 3.4375L16.5664 5.79297L17.9805 4.375C18.2305 4.12891 18.3672 3.79688 18.3711 3.44141C18.3711 3.08594 18.2344 2.75 17.9805 2.5L17.3945 1.91406H17.375C17.1406 1.73047 16.8594 1.63281 16.5625 1.63281Z" fill="white"/>
</svg>
