<svg width="45" height="36" viewBox="0 0 45 36" fill="none" xmlns="http://www.w3.org/2000/svg">
<path d="M0.5 8C0.5 3.85786 3.85786 0.5 8 0.5H37C41.1421 0.5 44.5 3.85786 44.5 8V28C44.5 32.1421 41.1421 35.5 37 35.5H8C3.85786 35.5 0.5 32.1421 0.5 28V8Z" fill="white" stroke="#023773"/>
<path d="M24.4742 22.9834C24.2232 22.9834 24.0195 22.7797 24.0195 22.5287V19.2767C24.0195 19.0257 24.2232 18.822 24.4742 18.822C24.7252 18.822 24.9289 19.0257 24.9289 19.2767V22.5287C24.9289 22.78 24.7252 22.9834 24.4742 22.9834Z" fill="#023773"/>
<path d="M22.1991 24.6713C22.0602 24.6713 21.9228 24.6079 21.8337 24.4876C21.6841 24.2859 21.7262 24.0011 21.9278 23.8515L24.2013 22.1636C24.4028 22.014 24.6876 22.0559 24.8375 22.2577C24.9871 22.4594 24.945 22.7443 24.7433 22.8939L22.4698 24.5817C22.3885 24.6422 22.2934 24.6713 22.1991 24.6713Z" fill="#023773"/>
<path d="M22.1988 24.6713C21.9478 24.6713 21.7441 24.4676 21.7441 24.2166V19.2767C21.7441 19.0257 21.9478 18.822 22.1988 18.822C22.4498 18.822 22.6535 19.0257 22.6535 19.2767V24.2166C22.6535 24.4676 22.4498 24.6713 22.1988 24.6713Z" fill="#023773"/>
<path d="M22.2012 19.7311C22.0698 19.7311 21.9395 19.6742 21.8495 19.5649L18.4392 15.4108C18.2798 15.2166 18.308 14.9301 18.5022 14.7708C18.6961 14.6114 18.9828 14.6396 19.1422 14.8337L22.5524 18.9879C22.7118 19.182 22.6836 19.4685 22.4895 19.6279C22.4049 19.6972 22.3028 19.7311 22.2012 19.7311Z" fill="#023773"/>
<path d="M24.4741 19.7311C24.3724 19.7311 24.2704 19.6972 24.1858 19.6278C23.9916 19.4685 23.9634 19.182 24.1228 18.9879L27.5331 14.8337C27.6924 14.6393 27.9789 14.6116 28.1731 14.7707C28.3672 14.9301 28.3954 15.2166 28.236 15.4107L24.8258 19.5649C24.7358 19.6742 24.6055 19.7311 24.4741 19.7311Z" fill="#023773"/>
<path d="M27.8846 15.5769H18.7906C18.5396 15.5769 18.3359 15.3732 18.3359 15.1222C18.3359 14.8712 18.5396 14.6675 18.7906 14.6675H27.8846C28.1356 14.6675 28.3393 14.8712 28.3393 15.1222C28.3393 15.3732 28.1356 15.5769 27.8846 15.5769Z" fill="#023773"/>
<path d="M13.993 14.9859C13.8818 14.9522 13.7614 14.9633 13.6585 15.0168C13.5556 15.0703 13.4785 15.1618 13.4442 15.2712C12.7471 17.4933 12.8737 19.8863 13.8015 22.0252C14.7293 24.1641 16.3982 25.9105 18.5118 26.9542C20.6254 27.9978 23.0469 28.2711 25.3461 27.7256C27.6453 27.18 29.6734 25.851 31.0701 23.9744C32.4669 22.0978 33.1418 19.7953 32.9751 17.4758C32.8084 15.1562 31.8108 12.9699 30.1596 11.305C28.5083 9.64022 26.3103 8.6047 23.9559 8.38242C21.6015 8.16014 19.2432 8.76549 17.2999 10.0909L17.4724 8.47686C17.4785 8.42045 17.4732 8.36341 17.4569 8.30901C17.4405 8.2546 17.4134 8.2039 17.3771 8.1598C17.3409 8.1157 17.2961 8.07906 17.2454 8.05199C17.1947 8.02491 17.139 8.00792 17.0816 8.002C16.966 7.99107 16.8506 8.0252 16.7603 8.09705C16.6699 8.1689 16.6119 8.27273 16.5986 8.3862L16.3194 10.9971V11.0178C16.3194 11.0178 16.3163 11.0346 16.3163 11.0437C16.3187 11.0609 16.3222 11.0779 16.3268 11.0946C16.3297 11.1278 16.3365 11.1605 16.347 11.1922C16.3563 11.214 16.3676 11.235 16.3808 11.2548C16.3955 11.2818 16.413 11.3073 16.4331 11.3308C16.4898 11.3955 16.5672 11.4393 16.6526 11.4551C16.6703 11.4616 16.6883 11.4671 16.7067 11.4715L19.3623 11.7465C19.3778 11.7482 19.3933 11.7491 19.4089 11.7491C19.5215 11.7491 19.6299 11.7065 19.7115 11.6302C19.7931 11.5539 19.8418 11.4496 19.8475 11.339C19.8531 11.2284 19.8153 11.1198 19.7418 11.0359C19.6683 10.9519 19.5649 10.8989 19.4528 10.8878L17.9089 10.7281C19.6816 9.56597 21.8148 9.05658 23.9322 9.2898C26.0497 9.52301 28.0153 10.4838 29.4825 12.0028C30.9497 13.5218 31.8241 15.5014 31.9516 17.5924C32.0791 19.6833 31.4515 21.7514 30.1794 23.4318C28.9073 25.1123 27.0725 26.2971 24.9985 26.7773C22.9246 27.2576 20.7448 27.0024 18.8436 26.0567C16.9423 25.1111 15.4418 23.5358 14.6067 21.6087C13.7716 19.6816 13.6555 17.5264 14.2789 15.5233C14.3127 15.4148 14.3016 15.2975 14.2481 15.1969C14.1946 15.0963 14.103 15.0205 13.993 14.9859Z" fill="#023773"/>
</svg>
