<svg width="16" height="16" viewBox="0 0 16 16" fill="none" xmlns="http://www.w3.org/2000/svg">
<path d="M10.7368 2.22616H10.5263C10.4105 2.22616 10.3158 2.3367 10.3158 2.47181C10.3158 2.60691 10.4105 2.71745 10.5263 2.71745H10.7368C11.1916 2.70517 11.5684 3.12277 11.5789 3.65338V13.5727C11.5684 14.1033 11.1916 14.5209 10.7368 14.5086H5.26316C4.80842 14.5209 4.43158 14.1033 4.42105 13.5727V3.65338C4.43158 3.12277 4.80842 2.70517 5.26316 2.71745H6.35368C6.44 3.00241 6.67158 3.20875 6.94737 3.20875H9.05263C9.40211 3.20875 9.68421 2.87958 9.68421 2.47181C9.68421 2.06403 9.40211 1.73486 9.05263 1.73486H8.81474C8.73684 1.39095 8.50737 1.12319 8.21263 1.0323C7.76211 0.894742 7.30316 1.20917 7.18526 1.73486H6.94737C6.67368 1.73486 6.44211 1.9412 6.35368 2.22616H5.26316C4.57684 2.21387 4.01263 2.85256 4 3.65338V13.5727C4.01263 14.3735 4.57684 15.0097 5.26316 14.9999H10.7368C11.4232 15.0097 11.9874 14.3735 12 13.5727V3.65338C11.9874 2.85256 11.4232 2.21633 10.7368 2.22616ZM6.94737 2.22616H7.36842C7.48421 2.22616 7.57895 2.11562 7.57895 1.98051C7.57895 1.7103 7.76842 1.48921 8 1.48921C8.23158 1.48921 8.42105 1.7103 8.42105 1.98051C8.42105 2.11562 8.51579 2.22616 8.63158 2.22616H9.05263C9.16842 2.22616 9.26316 2.3367 9.26316 2.47181C9.26316 2.60691 9.16842 2.71745 9.05263 2.71745H6.94737C6.83158 2.71745 6.73684 2.60691 6.73684 2.47181C6.73684 2.3367 6.83158 2.22616 6.94737 2.22616ZM8 4.19135C6.83789 4.19135 5.89474 5.29185 5.89474 6.64783C5.89474 6.78294 5.98947 6.89348 6.10526 6.89348H7.78947V8.85867C7.78947 8.99378 7.88421 9.10432 8 9.10432C9.16211 9.10432 10.1053 8.00381 10.1053 6.64783C10.1053 5.29185 9.16211 4.19135 8 4.19135ZM8.21053 8.59828V6.64783C8.21053 6.51273 8.11579 6.40218 8 6.40218H6.32842C6.42526 5.51294 7.02526 4.81038 7.78737 4.69984C8.70947 4.56473 9.55368 5.32624 9.66947 6.40218C9.78526 7.47813 9.13263 8.46318 8.21053 8.59828ZM5.89474 10.0869C5.77895 10.0869 5.68421 10.1975 5.68421 10.3326C5.68421 10.4677 5.77895 10.5782 5.89474 10.5782H10.1053C10.2211 10.5782 10.3158 10.4677 10.3158 10.3326C10.3158 10.1975 10.2211 10.0869 10.1053 10.0869H5.89474ZM9.26316 11.3152C9.26316 11.1801 9.16842 11.0695 9.05263 11.0695H5.89474C5.77895 11.0695 5.68421 11.1801 5.68421 11.3152C5.68421 11.4503 5.77895 11.5608 5.89474 11.5608H9.05263C9.16842 11.5608 9.26316 11.4503 9.26316 11.3152ZM5.89474 12.5434H7.57895C7.69474 12.5434 7.78947 12.4329 7.78947 12.2978C7.78947 12.1626 7.69474 12.0521 7.57895 12.0521H5.89474C5.77895 12.0521 5.68421 12.1626 5.68421 12.2978C5.68421 12.4329 5.77895 12.5434 5.89474 12.5434ZM5.89474 13.526H8.42105C8.53684 13.526 8.63158 13.4155 8.63158 13.2803C8.63158 13.1452 8.53684 13.0347 8.42105 13.0347H5.89474C5.77895 13.0347 5.68421 13.1452 5.68421 13.2803C5.68421 13.4155 5.77895 13.526 5.89474 13.526Z" fill="white"/>
</svg>
