<svg width="13" height="13" viewBox="0 0 13 13" fill="none" xmlns="http://www.w3.org/2000/svg">
<path fill-rule="evenodd" clip-rule="evenodd" d="M8.56765 1.95271C8.25242 1.82198 8.10563 1.46697 8.23978 1.15976C8.37392 0.852558 8.7382 0.709504 9.05343 0.840235C11.4428 1.83674 13 4.13203 13 6.66538C13 10.1638 10.0897 13 6.50001 13C2.91032 13 0 10.1638 0 6.66541C0 4.74412 0.893295 2.93885 2.42213 1.73529L1.05845 1.5252C0.720439 1.47423 0.488806 1.16583 0.541135 0.836416C0.593437 0.507001 0.909886 0.281261 1.2479 0.332259L4.2508 0.79487C4.62069 0.831 4.87405 1.17323 4.79577 1.52436L4.32155 4.4478C4.26925 4.77721 3.9528 5.00295 3.61478 4.95195C3.27677 4.90098 3.04514 4.59258 3.09747 4.26317L3.37659 2.54243C2.03031 3.51152 1.24357 5.03012 1.24357 6.66538C1.24357 9.49471 3.59686 11.7881 6.50004 11.7881C9.40322 11.7881 11.7565 9.49471 11.7565 6.66538C11.7565 4.60989 10.5075 2.76167 8.56771 1.95271H8.56765ZM5.93965 0.605937V6.14557C5.93965 6.48022 6.21802 6.75151 6.5614 6.75151C6.90478 6.75151 7.18319 6.48022 7.18319 6.14557V0.605937C7.18319 0.271294 6.90481 0 6.5614 0C6.218 0 5.93965 0.271294 5.93965 0.605937Z" fill="white"/>
</svg>
