<svg width="19" height="19" viewBox="0 0 19 19" fill="none" xmlns="http://www.w3.org/2000/svg">
<g clip-path="url(#clip0_442_550)">
<path d="M7.45104 15.7585H1.09161C0.797035 15.7585 0.55742 15.5189 0.55742 15.2243V8.92402C0.55742 8.77009 0.432658 8.64532 0.278729 8.64532C0.124799 8.64532 0 8.77005 0 8.92402V15.2243C0 15.8262 0.489695 16.3159 1.09161 16.3159H7.45104C7.60497 16.3159 7.72973 16.1912 7.72973 16.0373C7.72973 15.8833 7.60497 15.7585 7.45104 15.7585Z" fill="#929EAF"/>
<path d="M1.95774 9.75685H3.69275C3.98284 9.75685 4.21885 9.52087 4.21885 9.23075V7.49573C4.21885 7.20565 3.98287 6.96964 3.69275 6.96964H1.95774C1.66766 6.96964 1.43164 7.20561 1.43164 7.49573V9.23075C1.43168 9.52083 1.66766 9.75685 1.95774 9.75685ZM1.98906 7.52705H3.66143V9.19943H1.98906V7.52705Z" fill="#929EAF"/>
<path d="M7.20963 6.96964H5.47459C5.1845 6.96964 4.94849 7.20561 4.94849 7.49573V9.23075C4.94849 9.52083 5.18446 9.75685 5.47459 9.75685H7.20963C7.49972 9.75685 7.73573 9.52087 7.73573 9.23075V7.49573C7.73573 7.20561 7.49972 6.96964 7.20963 6.96964ZM7.17831 9.19943H5.50591V7.52705H7.17831V9.19943Z" fill="#929EAF"/>
<path d="M8.99143 9.75685H10.7264C11.0165 9.75685 11.2525 9.52087 11.2525 9.23075V7.49573C11.2525 7.20565 11.0166 6.96964 10.7264 6.96964H8.99143C8.70135 6.96964 8.46533 7.20561 8.46533 7.49573V9.23075C8.46537 9.52083 8.70135 9.75685 8.99143 9.75685ZM9.02275 7.52705H10.6951V9.19943H9.02275V7.52705Z" fill="#929EAF"/>
<path d="M1.43168 13.6674C1.43168 13.9575 1.66766 14.1935 1.95778 14.1935H3.69279C3.98287 14.1935 4.21889 13.9575 4.21889 13.6674V11.9324C4.21889 11.6423 3.98291 11.4063 3.69279 11.4063H1.95774C1.66766 11.4063 1.43164 11.6423 1.43164 11.9324L1.43168 13.6674ZM1.98906 11.9637H3.66143V13.6361H1.98906V11.9637Z" fill="#929EAF"/>
<path d="M7.20963 11.4063H5.47459C5.1845 11.4063 4.94849 11.6423 4.94849 11.9324V13.6674C4.94849 13.9575 5.18446 14.1935 5.47459 14.1935H7.20963C7.49972 14.1935 7.73573 13.9575 7.73573 13.6674V11.9324C7.73573 11.6423 7.49972 11.4063 7.20963 11.4063ZM7.17831 13.6361H5.50591V11.9637H7.17831V13.6361Z" fill="#929EAF"/>
<path d="M18.9928 14.835C18.9898 14.1348 18.5738 13.5001 17.933 13.218C17.5834 13.0641 17.0451 12.9498 16.5758 12.8721C16.5755 12.8721 16.5753 12.872 16.575 12.8719C16.5747 12.8719 16.5744 12.8719 16.5741 12.8718C16.3495 12.8347 16.1406 12.8059 15.976 12.7853C15.976 12.7853 15.976 12.7853 15.976 12.7853C15.9615 12.7834 15.9506 12.7712 15.9505 12.7568L15.9477 12.0887C16.4206 11.7299 16.679 11.2485 16.7522 10.7228C17.0353 10.6629 17.2478 10.4104 17.2466 10.1099L17.245 9.72759C17.2442 9.55748 17.175 9.39925 17.0571 9.28439L17.0532 8.35484C17.0505 7.7235 16.7085 7.17168 16.2011 6.87117C16.2011 6.25412 16.2011 4.51985 16.2011 3.89307C16.2011 3.29116 15.7114 2.80146 15.1095 2.80146H14.4442V2.51717C14.4442 1.91084 13.9509 1.41754 13.3446 1.41754C12.7383 1.41754 12.245 1.91084 12.245 2.51717V2.80146H10.9482V2.51717C10.9482 1.91084 10.4549 1.41754 9.84853 1.41754C9.2422 1.41754 8.74891 1.91084 8.74891 2.51717V2.80146H7.45205V2.51717C7.45205 1.91084 6.95875 1.41754 6.35242 1.41754C5.74609 1.41754 5.2528 1.91084 5.2528 2.51717V2.80146H3.95597V2.51717C3.95597 1.91084 3.46268 1.41754 2.85635 1.41754C2.25002 1.41754 1.75687 1.91084 1.75687 2.51717V2.80146H1.09161C0.489695 2.80146 0 3.29116 0 3.89307V7.62037C0 7.7743 0.124762 7.89906 0.278691 7.89906C0.432621 7.89906 0.557383 7.7743 0.557383 7.62037V5.81597H15.6437V6.66076C15.5392 6.64098 15.4315 6.63022 15.3214 6.63022C15.3189 6.63022 15.3164 6.63022 15.314 6.63022C15.314 6.63022 15.314 6.63022 15.314 6.63022L13.8153 6.63657C13.4429 6.63809 13.11 6.86813 12.9757 7.21276C12.4895 7.23277 12.1011 7.63559 12.1033 8.1261L12.1082 9.30529C11.9914 9.42114 11.9234 9.5799 11.9241 9.75001L11.9258 10.1324C11.927 10.4329 12.1417 10.6836 12.4253 10.7411C12.5024 11.2627 12.7627 11.7435 13.2413 12.1002L13.2441 12.7682C13.2442 12.7827 13.2333 12.795 13.2188 12.7969C13.2188 12.7969 13.2188 12.7969 13.2187 12.7969C13.0542 12.819 12.8454 12.8496 12.6209 12.8886C12.6208 12.8887 12.6206 12.8887 12.6205 12.8887C12.6204 12.8887 12.6203 12.8887 12.6202 12.8888C12.1514 12.9704 11.6139 13.0892 11.2655 13.2461C11.2611 13.2481 11.2569 13.2502 11.2525 13.2523V11.9324C11.2525 11.6423 11.0166 11.4063 10.7264 11.4063H8.99142C8.70133 11.4063 8.46532 11.6423 8.46532 11.9324V13.6674C8.46532 13.9575 8.7013 14.1935 8.99142 14.1935H10.3515C10.2649 14.4051 10.2184 14.635 10.2194 14.872L10.2231 15.7585H8.75373C8.5998 15.7585 8.47504 15.8833 8.47504 16.0372C8.47504 16.1912 8.5998 16.3159 8.75373 16.3159H10.2255L10.2266 16.5788C10.229 17.1354 10.6809 17.5825 11.2332 17.5824H11.2376H17.9952H17.9964C18.5615 17.58 19.0023 17.0898 19 16.5418L18.9928 14.835ZM10.6951 13.6361H9.02277V11.9637H10.6951V13.6361ZM12.8024 2.51717C12.8024 2.21818 13.0457 1.97496 13.3446 1.97496C13.6436 1.97496 13.8868 2.21818 13.8868 2.51717V3.64318C13.8868 3.94217 13.6436 4.18538 13.3446 4.18538C13.0457 4.18538 12.8024 3.94217 12.8024 3.64318V2.51717ZM9.3064 2.51717C9.3064 2.21818 9.54962 1.97496 9.84861 1.97496C10.1476 1.97496 10.3908 2.21818 10.3908 2.51717V3.64318C10.3908 3.94217 10.1476 4.18538 9.84861 4.18538C9.54962 4.18538 9.3064 3.94217 9.3064 3.64318V2.51717ZM5.81033 2.51717C5.81033 2.21818 6.05354 1.97496 6.35253 1.97496C6.65152 1.97496 6.89474 2.21818 6.89474 2.51717V3.64318C6.89474 3.94217 6.65152 4.18538 6.35253 4.18538C6.05354 4.18538 5.81033 3.94217 5.81033 3.64318V2.51717ZM2.31425 2.51717C2.31425 2.21818 2.55747 1.97496 2.85646 1.97496C3.15545 1.97496 3.39866 2.21818 3.39866 2.51717V3.64318C3.39866 3.94217 3.15545 4.18538 2.85646 4.18538C2.55747 4.18538 2.31425 3.94217 2.31425 3.64318V2.51717ZM0.55742 5.25858V3.89307C0.55742 3.5985 0.797035 3.35888 1.09161 3.35888H1.75687V3.64318C1.75687 4.24951 2.25016 4.7428 2.85649 4.7428C3.46282 4.7428 3.95612 4.24951 3.95612 3.64318V3.35888H5.25294V3.64318C5.25294 4.24951 5.74624 4.7428 6.35257 4.7428C6.9589 4.7428 7.45219 4.24951 7.45219 3.64318V3.35888H8.74906V3.64318C8.74906 4.24951 9.24235 4.7428 9.84868 4.7428C10.455 4.7428 10.9483 4.24951 10.9483 3.64318V3.35888H12.2451V3.64318C12.2451 4.24951 12.7384 4.7428 13.3448 4.7428C13.9511 4.7428 14.4444 4.24951 14.4444 3.64318V3.35888H15.1097C15.4043 3.35888 15.6439 3.5985 15.6439 3.89307V5.25858H0.55742ZM13.012 7.7694C13.2281 7.76851 13.4203 7.63147 13.4902 7.42837C13.5383 7.28876 13.6699 7.19458 13.8176 7.19399L15.3164 7.18764H15.3214C15.9667 7.18764 16.4931 7.71125 16.4958 8.35718L16.4993 9.18442C16.4079 9.20977 16.3056 9.25103 16.2097 9.31831L16.2071 8.69439C16.2051 8.24173 15.8364 7.87491 15.3838 7.87491C15.3827 7.87491 15.3814 7.87491 15.3802 7.87491L15.374 7.87494C15.256 7.87546 15.139 7.89398 15.0264 7.92998C14.7324 8.0239 14.4227 8.02542 14.1275 7.93376C14.0161 7.89918 13.9006 7.88166 13.7837 7.88166C13.7821 7.88166 13.7806 7.88166 13.779 7.88166L13.7728 7.8817C13.319 7.88363 12.9514 8.25435 12.9533 8.70816L12.9556 9.22777C12.857 9.20105 12.7561 9.18513 12.6652 9.17574L12.6608 8.1238C12.6599 7.9292 12.8175 7.77026 13.012 7.7694ZM12.9601 10.4671C12.9563 10.316 12.8326 10.1955 12.6816 10.1955C12.6812 10.1955 12.6808 10.1955 12.6804 10.1955L12.5499 10.1961C12.5498 10.1961 12.5497 10.1961 12.5496 10.1961C12.5131 10.1961 12.4833 10.1665 12.4832 10.13L12.4816 9.74767C12.4815 9.73817 12.4839 9.73 12.487 9.72247C12.6846 9.7316 12.8861 9.77138 12.9351 9.81628C13.0003 9.88 13.0861 9.9137 13.1734 9.9137C13.2183 9.9137 13.2635 9.90479 13.3066 9.88661C13.4333 9.83295 13.5149 9.70926 13.5144 9.57143L13.5107 8.70579C13.5101 8.55935 13.6287 8.43971 13.7755 8.43908C13.7799 8.43938 13.8626 8.43518 13.9623 8.46613C14.3628 8.59041 14.7932 8.58963 15.1961 8.46094C15.2931 8.42995 15.3792 8.43259 15.383 8.43229H15.3841C15.53 8.43229 15.649 8.55067 15.6496 8.69669L15.6533 9.56253C15.6535 9.60958 15.6688 9.76915 15.8575 9.84712C15.9125 9.86991 16.3184 9.97968 16.4979 9.80118C16.5482 9.75116 16.6234 9.72518 16.6847 9.71256C16.6863 9.71798 16.6875 9.72362 16.6875 9.72993L16.6892 10.1123C16.6893 10.1489 16.6597 10.1788 16.6231 10.1789L16.4926 10.1795C16.341 10.1801 16.2177 10.3018 16.2151 10.4533C16.2066 10.9415 15.9918 11.3957 15.5185 11.7104C15.2338 11.8925 14.9464 11.9916 14.594 11.9976C14.2442 11.9946 13.9523 11.8983 13.6676 11.7185C13.1951 11.4101 12.9727 10.9571 12.9601 10.4671ZM13.8 12.4095C14.0495 12.5043 14.3145 12.5532 14.5933 12.5551H14.5953C14.5967 12.5551 14.5981 12.5551 14.5995 12.5551C14.8783 12.5508 15.1429 12.4997 15.3916 12.4028L15.3931 12.7592C15.3935 12.858 15.4192 12.9514 15.4637 13.0337L14.6007 13.5785L13.7332 13.041C13.777 12.9583 13.8019 12.8646 13.8015 12.7658L13.8 12.4095ZM13.7161 17.025H12.1278L12.1243 16.1923C12.1236 16.0387 11.999 15.9148 11.8456 15.9148C11.8452 15.9148 11.8448 15.9148 11.8445 15.9148C11.6905 15.9154 11.5663 16.0407 11.5669 16.1946L11.5704 17.0251H11.2364C11.2358 17.0251 11.2352 17.0251 11.2345 17.0251C10.9865 17.0251 10.7851 16.8249 10.7841 16.5765L10.7769 14.8697C10.7748 14.3893 11.0565 13.9516 11.4944 13.7544C11.6856 13.6683 11.9565 13.5936 12.2363 13.5318C12.2524 13.5803 12.2753 13.627 12.3067 13.6697L12.9256 14.5128C13.0595 14.6953 13.257 14.8119 13.4815 14.8413C13.579 14.854 13.6759 14.8501 13.7775 14.8261L14.0008 15.211L13.7161 17.025ZM13.7536 14.2324C13.698 14.2771 13.6269 14.2982 13.5537 14.2885C13.4815 14.2791 13.418 14.2416 13.375 14.1829L12.8157 13.421C12.9586 13.3972 13.089 13.3777 13.1945 13.3629L14.1208 13.9368L13.7536 14.2324ZM14.2804 17.025L14.5668 15.1999C14.5768 15.1363 14.5634 15.07 14.5326 15.0167L14.2574 14.5424L14.6031 14.2641L14.9496 14.5397L14.6777 15.0157C14.6455 15.072 14.6346 15.1394 14.6448 15.2L14.9501 17.025H14.2804ZM16.0051 13.3511C16.1107 13.365 16.2412 13.3834 16.3843 13.406L15.8299 14.1742C15.7873 14.2333 15.7239 14.2713 15.6517 14.2813C15.5772 14.2914 15.506 14.27 15.4512 14.2263L15.0828 13.9333L16.0051 13.3511ZM17.9947 17.025H17.6601L17.6565 16.169C17.6558 16.0154 17.5312 15.8914 17.3778 15.8914C17.3774 15.8914 17.377 15.8914 17.3767 15.8914C17.2227 15.8921 17.0984 16.0174 17.0991 16.1713L17.1027 17.025H15.5153L15.211 15.2059L15.4313 14.8203C15.5299 14.8429 15.6265 14.8474 15.7278 14.8335C15.9524 14.8026 16.1492 14.6843 16.2819 14.5004L16.8952 13.6505C16.9263 13.6075 16.9488 13.5605 16.9646 13.5118C17.245 13.5713 17.5166 13.6437 17.7084 13.7281C18.148 13.9217 18.4334 14.357 18.4354 14.8373L18.4426 16.5442C18.4436 16.7904 18.2448 17.0236 17.9947 17.025Z" fill="#929EAF"/>
</g>
<defs>
<clipPath id="clip0_442_550">
<rect width="19" height="19" fill="white"/>
</clipPath>
</defs>
</svg>
