<svg width="29" height="29" viewBox="0 0 29 29" fill="none" xmlns="http://www.w3.org/2000/svg">
<circle cx="14" cy="15" r="10" transform="rotate(-90 14 15)" fill="#2A415A"/>
<ellipse cx="14" cy="15" rx="8" ry="8" transform="rotate(-90 14 15)" fill="#E00505"/>
<path d="M14.5 29C22.5081 29 29 22.5081 29 14.5C29 6.49187 22.5081 0 14.5 0C6.49187 0 0 6.49187 0 14.5C0 22.5081 6.49187 29 14.5 29Z" fill="#2A415A"/>
<path d="M14.2002 7.3V11.33C14.2002 11.49 14.3302 11.63 14.5002 11.63C14.6702 11.63 14.8002 11.5 14.8002 11.33V7.3C14.8002 7.14 14.6702 7 14.5002 7C14.3302 7 14.2002 7.13 14.2002 7.3Z" fill="#70F64A"/>
<path d="M15.6167 8.09753C15.717 8.01084 15.8601 7.98194 15.9747 8.01084C17.3778 8.34315 18.652 9.15226 19.5683 10.2937C20.4846 11.4496 21 12.9233 21 14.4115C21 18.0381 18.0793 21 14.5 21C10.9207 21 8 18.0525 8 14.4115C8 12.9233 8.51542 11.4496 9.43172 10.2937C10.3337 9.15226 11.6222 8.3287 13.0253 8.01084C13.1542 7.98194 13.283 8.01084 13.3833 8.09753C13.4835 8.18422 13.5407 8.29981 13.5407 8.44429V9.93248C13.5407 10.1203 13.4119 10.2937 13.2401 10.3515C11.4648 10.915 10.2764 12.5477 10.2764 14.4404C10.2764 16.7955 12.1663 18.7171 14.5 18.7171C16.8337 18.7171 18.7236 16.7955 18.7236 14.4404C18.7236 12.5621 17.5352 10.915 15.7599 10.3515C15.5738 10.2937 15.4592 10.1203 15.4592 9.93248V8.44429C15.4592 8.31425 15.5165 8.18422 15.6167 8.09753Z" fill="#70F64A"/>
</svg>
