<svg width="16" height="16" viewBox="0 0 16 16" fill="none" xmlns="http://www.w3.org/2000/svg">
<path d="M2.17927 13.9993C2.0804 13.9993 2 13.9189 2 13.8203C2 13.7217 2.0804 13.641 2.17927 13.641H2.90728V8.82188C2.90728 8.72302 2.98768 8.64261 3.08655 8.64261H5.35729C5.45616 8.64261 5.53656 8.72302 5.53656 8.82188C5.53656 8.92075 5.45616 9.00115 5.35729 9.00115H3.26606V13.6408H5.17802V9.89968C5.17802 9.80082 5.25843 9.72042 5.35729 9.72042C5.45616 9.72042 5.53656 9.80082 5.53656 9.89968V13.6408H6.68578V7.78853C6.68578 7.68967 6.76619 7.60926 6.86505 7.60926H9.13604C9.23491 7.60926 9.31531 7.68967 9.31531 7.78853C9.31531 7.8874 9.23491 7.9678 9.13604 7.9678H7.04456V13.6408H8.95677V8.86634C8.95677 8.76747 9.03718 8.68707 9.13604 8.68707C9.23491 8.68707 9.31531 8.76747 9.31531 8.86634V13.6408H10.4631V6.00385C10.4631 5.90499 10.5435 5.82458 10.6423 5.82458H12.9124C13.0115 5.82458 13.0919 5.90499 13.0919 6.00385C13.0919 6.10272 13.0112 6.18312 12.9124 6.18312H10.8214V13.641H12.7328V7.08166C12.7328 6.98279 12.8135 6.90239 12.9124 6.90239C13.0112 6.90239 13.0919 6.98279 13.0919 7.08166V13.641H13.8199C13.919 13.641 13.9994 13.7214 13.9994 13.8203C13.9994 13.9192 13.9187 13.9993 13.8199 13.9993H2.17927Z" fill="white"/>
<path d="M2.17888 7.86682C2.08876 7.86682 2.01249 7.79905 2.00132 7.70893C1.98941 7.61079 2.05961 7.52116 2.15775 7.50926C2.22164 7.50148 8.5908 6.68651 12.9436 2.77902L13.3937 2.37481L11.4115 2.45012H11.4045C11.3078 2.45012 11.2293 2.37457 11.2257 2.27813C11.2218 2.17903 11.299 2.09571 11.3979 2.09182L13.8081 2H13.8176C13.821 2 13.8236 2 13.8265 2C13.8382 2.00024 13.8494 2.0017 13.8603 2.00413L13.8644 2.0051C13.8678 2.00607 13.8712 2.00704 13.8746 2.00802L13.8776 2.00899C13.881 2.0102 13.8844 2.01117 13.8875 2.01263L13.8897 2.0136C13.9033 2.01943 13.915 2.02599 13.9254 2.03352L13.9295 2.03668L13.9412 2.0464C13.9412 2.0464 13.9502 2.05514 13.9519 2.05708C13.9538 2.05927 13.9555 2.06097 13.957 2.06291C13.9589 2.06534 13.9606 2.06753 13.9623 2.06972L13.9669 2.07555C13.9684 2.07749 13.9701 2.0804 13.9718 2.08308C13.9735 2.08575 13.9752 2.08842 13.9769 2.09134C13.9784 2.09401 13.9805 2.09789 13.9825 2.10178L13.9849 2.10761C13.9864 2.11101 13.9876 2.11368 13.9888 2.11684L13.991 2.1234C13.992 2.12631 13.9929 2.12996 13.9939 2.13336L13.9951 2.13749V2.13652C13.9978 2.14842 13.9993 2.15886 14 2.16931V2.1885L13.9997 2.19312C13.9995 2.19724 13.999 2.2021 13.9983 2.20672L13.9971 2.21303L13.9966 2.21765L13.5321 4.6475C13.5161 4.73204 13.4423 4.79325 13.3565 4.79325C13.3453 4.79325 13.3337 4.79228 13.3225 4.79009C13.2253 4.77163 13.1614 4.67738 13.1799 4.57997L13.5309 2.74404L13.0521 3.16477C8.63016 7.05064 2.46139 7.83379 2.20075 7.86537C2.19297 7.86634 2.18544 7.86682 2.17864 7.86682H2.17888Z" fill="white"/>
</svg>
