<svg width="14" height="14" viewBox="0 0 14 14" fill="none" xmlns="http://www.w3.org/2000/svg">
<path fill-rule="evenodd" clip-rule="evenodd" d="M1.75133 6.74452C1.76111 6.82338 1.82785 6.88268 1.9067 6.88268H1.90649C1.91244 6.88268 1.91903 6.88225 1.92583 6.8814C2.1539 6.85377 7.55156 6.16851 11.4208 2.76838L11.8397 2.40024L11.5326 4.00668C11.5164 4.09192 11.5723 4.17438 11.6574 4.19054C11.6671 4.19245 11.6773 4.1933 11.6871 4.1933C11.7621 4.1933 11.8268 4.13974 11.8408 4.06577L12.2472 1.93965L12.2476 1.93561L12.2487 1.93009C12.2493 1.92605 12.2497 1.9218 12.2499 1.91818L12.2502 1.91414V1.89735C12.2495 1.88821 12.2482 1.87907 12.2459 1.86866V1.86951L12.2448 1.8659L12.2423 1.85718L12.2404 1.85144L12.237 1.84337L12.2349 1.83826C12.2335 1.83555 12.232 1.83283 12.2308 1.83066C12.2305 1.83011 12.2302 1.8296 12.23 1.82912L12.2255 1.8219C12.2251 1.82121 12.2246 1.8205 12.2242 1.8198C12.2232 1.81813 12.2222 1.81651 12.2213 1.81531L12.2172 1.81021L12.2125 1.80426C12.2116 1.80307 12.2107 1.80199 12.2096 1.80079C12.2091 1.80028 12.2086 1.79973 12.2081 1.79916C12.2066 1.79746 12.1987 1.7898 12.1987 1.7898L12.1885 1.7813L12.1849 1.77854C12.1758 1.77195 12.1656 1.76621 12.1537 1.76111L12.1518 1.76026C12.1498 1.75937 12.1478 1.75868 12.1457 1.75799C12.1448 1.75769 12.1439 1.75739 12.143 1.75707L12.1405 1.75622L12.1316 1.75367L12.1279 1.75282C12.1184 1.75069 12.1086 1.74942 12.0984 1.74921H12.0905H12.0822L9.97334 1.82955C9.88683 1.83295 9.81924 1.90585 9.82264 1.99257C9.82583 2.07696 9.89449 2.14306 9.97908 2.14306H9.98524L11.7196 2.07717L11.3258 2.43085C7.51713 5.8499 1.94411 6.563 1.88821 6.56981C1.80234 6.58022 1.74091 6.65865 1.75133 6.74452ZM1.75 12.092C1.75 12.1783 1.82035 12.2486 1.90686 12.2486H12.0924C12.1789 12.2486 12.2495 12.1785 12.2495 12.092C12.2495 12.0055 12.1791 11.9351 12.0924 11.9351H11.4554V6.19567C11.4554 6.10916 11.3848 6.03881 11.2983 6.03881C11.2118 6.03881 11.1412 6.10916 11.1412 6.19567V11.9351H9.4687V5.40945H11.2983C11.3848 5.40945 11.4554 5.3391 11.4554 5.25259C11.4554 5.16608 11.385 5.09573 11.2983 5.09573H9.31205C9.22554 5.09573 9.15519 5.16608 9.15519 5.25259V11.9349H8.1509V7.75726C8.1509 7.67076 8.08054 7.6004 7.99404 7.6004C7.90753 7.6004 7.83718 7.67076 7.83718 7.75726V11.9349H6.16399V6.97105H7.99404C8.08054 6.97105 8.1509 6.90069 8.1509 6.81419C8.1509 6.72768 8.08054 6.65732 7.99404 6.65732H6.00692C5.92041 6.65732 5.85006 6.72768 5.85006 6.81419V11.9349H4.84449V8.66144C4.84449 8.57494 4.77414 8.50458 4.68763 8.50458C4.60113 8.50458 4.53077 8.57494 4.53077 8.66144V11.9349H2.8578V7.87523H4.68763C4.77414 7.87523 4.84449 7.80487 4.84449 7.71837C4.84449 7.63186 4.77414 7.56151 4.68763 7.56151H2.70073C2.61422 7.56151 2.54387 7.63186 2.54387 7.71837V11.9351H1.90686C1.82035 11.9351 1.75 12.0057 1.75 12.092Z" fill="white" fill-opacity="0.55"/>
</svg>
