<svg width="16" height="16" viewBox="0 0 16 16" fill="none" xmlns="http://www.w3.org/2000/svg">
<path d="M8.28507 7.43799H4.54129C4.25816 7.43799 4.25598 7.87085 4.54129 7.87303H8.28507C8.5682 7.87303 8.57038 7.44016 8.28507 7.43799Z" fill="#94A8B2"/>
<path d="M4.54129 8.96067H7.62518C7.74496 8.96067 7.84296 8.86279 7.84296 8.74315C7.84296 8.62352 7.74496 8.52563 7.62518 8.52563H4.54129C4.25816 8.52563 4.25598 8.9585 4.54129 8.96067Z" fill="#94A8B2"/>
<path d="M8.28507 9.61316H4.54129C4.25816 9.61316 4.25598 10.046 4.54129 10.0482H8.28507C8.5682 10.0482 8.57038 9.61533 8.28507 9.61316Z" fill="#94A8B2"/>
<path d="M8.28507 10.7008H4.54129C4.25816 10.7008 4.25598 11.1337 4.54129 11.1358H8.28507C8.5682 11.1358 8.57038 10.703 8.28507 10.7008Z" fill="#94A8B2"/>
<path d="M12.69 3.32482C12.6748 2.68749 12.1434 2.37208 11.5488 2.43516V3.74028H12.69V3.32482Z" fill="#94A8B2"/>
<path d="M11.1126 13.3154L10.9798 13.1457C10.7424 12.8259 10.2306 12.8107 9.9736 13.1152L9.66434 13.4654C9.58593 13.559 9.43566 13.5633 9.34854 13.4785L8.85198 13C8.59717 12.7542 8.19862 12.7542 7.94381 13L7.42329 13.5024C7.33835 13.5851 7.2055 13.5851 7.12056 13.5024C6.88317 13.3001 6.49987 12.7759 6.14705 12.8151C5.79859 12.7781 5.43706 13.2719 5.20402 13.472C5.12126 13.559 4.96228 13.5503 4.88605 13.4567L4.60946 13.1305C4.35465 12.8151 3.83631 12.8281 3.59674 13.15L3.453 13.3349L3.43558 3.30512C3.43558 2.8244 3.84502 2.43504 4.34593 2.43504H11.1126V12.6873H11.5482V4.17519H12.9072C13.027 4.17519 13.125 4.07731 13.125 3.95767V3.32469C13.125 2.59383 12.5304 2 11.7987 2H4.34593C3.60327 2 3 2.58513 3 3.30512L3.01742 13.3349C3.01742 13.5242 3.13285 13.6851 3.31144 13.746C3.60327 13.8483 3.79057 13.6351 3.94085 13.4176C4.02143 13.3088 4.19348 13.3067 4.27842 13.4111L4.55501 13.7373C4.67044 13.8744 4.84032 13.9592 5.02108 13.9679C5.3935 14.0201 5.75285 13.5242 5.99677 13.3132C6.08171 13.2305 6.21456 13.2305 6.2995 13.3132L6.82002 13.8157C7.07483 14.0614 7.47338 14.0614 7.72819 13.8157L8.24871 13.3132C8.33365 13.2305 8.4665 13.2305 8.55144 13.3132C8.79754 13.5198 9.15471 14.0288 9.52931 13.9744C9.8647 13.9918 10.1043 13.6177 10.3025 13.4024C10.4005 13.3088 10.5268 13.2893 10.6379 13.4132L10.7707 13.5829C11.0037 13.9092 11.5656 13.7199 11.5504 13.3154V12.5902H11.1126V13.3154ZM11.5482 2.43504C12.1428 2.37196 12.6742 2.68736 12.6894 3.32469V3.74015H11.5482V2.43504Z" fill="#94A8B2"/>
<path d="M6.42578 3.42712H8.05729V3.75476H6.81671V4.76025H7.96283V5.08353H6.81671V6.45282H6.42578V3.42712Z" fill="#94A8B2"/>
</svg>
