<svg width="20" height="19" viewBox="0 0 20 19" fill="none" xmlns="http://www.w3.org/2000/svg">
<path d="M6.18451 15.6551C6.2504 14.7199 6.35845 13.8158 6.72348 12.9671C6.8882 12.5833 7.10167 12.2346 7.47987 12.0319C7.56421 11.9859 7.66173 11.963 7.75265 11.9305C7.86862 11.8886 7.94636 11.9346 8.01621 12.0346C8.25209 12.3698 8.49455 12.6995 8.74888 13.0509C8.95445 12.8833 9.1508 12.7238 9.3656 12.5481C9.5659 12.7103 9.76752 12.8725 9.98099 13.0441C10.2261 12.7049 10.4659 12.3819 10.6939 12.0508C10.7835 11.9211 10.8771 11.8873 11.0247 11.9319C11.4147 12.0468 11.6651 12.3252 11.8588 12.6684C12.2252 13.3158 12.3582 14.0361 12.4597 14.7632C12.5006 15.0524 12.519 15.3456 12.5506 15.6551H6.18451Z" fill="#94A8B2"/>
<path d="M3.22611 13.1779C3.28014 12.3387 3.38292 11.517 3.77957 10.7669C3.93112 10.4791 4.14064 10.2372 4.47535 10.175C4.55047 10.1615 4.66906 10.2034 4.7165 10.2629C4.92076 10.5196 5.10656 10.7913 5.30686 11.0683C5.48081 10.9278 5.64289 10.798 5.80893 10.6629C5.97365 10.7953 6.13179 10.9224 6.29651 11.0548C6.57719 10.7669 6.72873 10.3723 7.03314 10.1318C7.41793 10.7372 7.61032 11.4224 8.16115 11.8738C8.22704 11.9278 8.24944 12.0387 8.29161 12.1238L8.24812 12.1535C8.20463 12.0968 8.15192 12.0454 8.1203 11.9832C8.02673 11.7994 7.87783 11.7819 7.7052 11.8224C7.31119 11.9157 7.04105 12.1765 6.83679 12.5144C6.73137 12.6887 6.65757 12.8833 6.55742 13.0617C6.5258 13.1185 6.452 13.1887 6.39666 13.1887C5.3688 13.1982 4.34094 13.1982 3.31308 13.1995C3.28936 13.1995 3.26433 13.1887 3.22479 13.1779H3.22611Z" fill="#94A8B2"/>
<path d="M10.6887 11.8185C11.0286 11.4603 11.2724 11.0914 11.4306 10.6589C11.4925 10.49 11.6216 10.3481 11.7495 10.1508C11.9603 10.4413 12.1843 10.7481 12.4189 11.0711C12.5889 10.9333 12.7496 10.8022 12.9196 10.6657C13.0857 10.7981 13.2478 10.9279 13.4204 11.0657C13.6167 10.7954 13.8091 10.5359 13.9923 10.2711C14.0674 10.1629 14.1425 10.1319 14.2717 10.1697C14.5906 10.2616 14.7922 10.4886 14.9464 10.7657C15.231 11.2779 15.3456 11.8455 15.4287 12.4199C15.4642 12.6685 15.4787 12.9185 15.5051 13.1821C15.4273 13.1875 15.3707 13.1956 15.314 13.1956C14.3521 13.1996 13.3901 13.1983 12.4281 13.2091C12.27 13.2104 12.216 13.1469 12.1448 13.0118C11.984 12.7104 11.8127 12.409 11.5966 12.1482C11.3805 11.886 11.0748 11.7603 10.69 11.8171L10.6887 11.8185Z" fill="#94A8B2"/>
<path d="M9.42097 12.2414C8.57628 12.1995 8.04259 11.7563 7.66175 11.0819C7.58137 10.9386 7.53525 10.7765 7.46277 10.6278C7.42851 10.5562 7.37843 10.4872 7.31914 10.4359C7.20054 10.3332 7.161 9.90072 7.24798 9.76422C7.302 9.68043 7.3389 9.56826 7.34154 9.46826C7.35208 8.96822 7.47858 8.51819 7.86074 8.18033C8.09794 7.9695 8.37071 7.84111 8.6962 7.86409C8.73442 7.86679 8.78317 7.87085 8.80953 7.85057C9.2378 7.52352 9.7122 7.60191 10.1734 7.71138C11.0194 7.91409 11.3647 8.37088 11.4108 9.26419C11.4213 9.45609 11.3963 9.65341 11.5452 9.82639C11.648 9.94667 11.532 10.3413 11.4148 10.4629C11.3555 10.5237 11.3251 10.6183 11.2922 10.7021C11.0155 11.4022 10.574 11.9346 9.84793 12.163C9.69507 12.2117 9.53035 12.2212 9.42097 12.2401V12.2414ZM8.98479 9.13175C8.56047 9.32365 8.17305 9.5088 7.77904 9.67368C7.64594 9.72909 7.60904 9.79936 7.61695 9.93991C7.64199 10.444 7.80671 10.8954 8.1177 11.2805C8.5407 11.8063 9.07572 12.0874 9.75437 11.9009C10.5846 11.6725 11.1644 10.7278 11.171 9.87775C11.171 9.8345 11.0945 9.76423 11.0431 9.75206C10.86 9.71017 10.6702 9.6953 10.4857 9.65476C9.95203 9.53988 9.41043 9.44934 8.98743 9.13175H8.98479Z" fill="#94A8B2"/>
<path d="M4.01941 8.61416C4.05499 8.53443 4.09452 8.45739 4.1222 8.37631C4.1446 8.31144 4.16173 8.24116 4.16305 8.17224C4.17886 7.64653 4.31986 7.16001 4.83247 6.96405C5.41756 6.7397 6.0211 6.53158 6.66944 6.79647C7.16624 6.99918 7.42188 7.31812 7.46405 7.90871C7.47459 8.05466 7.49172 8.20062 7.497 8.34793C7.49963 8.40334 7.48118 8.46145 7.46669 8.51551C7.39157 8.79526 7.31514 9.07501 7.23871 9.35476C7.21763 9.43044 7.20445 9.51152 7.16624 9.57639C6.47573 10.7224 5.0499 10.667 4.42265 9.47233C4.36466 9.36151 4.32645 9.23988 4.26979 9.12771C4.23684 9.06149 4.17754 9.00743 4.14591 8.93986C4.09979 8.84256 4.06685 8.7385 4.01941 8.61416ZM7.26243 8.4128C6.64308 8.28306 6.00397 8.23981 5.49267 7.88708C5.16191 8.03845 4.85224 8.19116 4.53466 8.3209C4.40551 8.37361 4.37389 8.44118 4.38443 8.57227C4.41869 8.96959 4.55047 9.32502 4.79162 9.63586C5.14083 10.0859 5.68375 10.2832 6.1397 10.1345C6.80385 9.91696 7.30197 9.1642 7.26375 8.4128H7.26243Z" fill="#94A8B2"/>
<path d="M13.025 6.66124C13.4415 6.68286 13.7946 6.75179 14.103 6.9491C14.4298 7.15722 14.5168 7.5086 14.5734 7.87349C14.605 8.07756 14.6722 8.27622 14.6933 8.48164C14.7105 8.64922 14.7592 8.83842 14.5787 8.97086C14.5286 9.00735 14.5128 9.0952 14.4864 9.16142C14.2624 9.72362 13.9132 10.1561 13.3268 10.3439C12.5348 10.5967 11.8601 10.0818 11.5689 9.51144C11.4951 9.36819 11.5267 9.17223 11.4912 9.00465C11.4503 8.81139 11.4068 8.61408 11.3317 8.43164C11.0734 7.7951 11.615 6.89234 12.2831 6.85044C12.378 6.84504 12.4703 6.79098 12.5651 6.76665C12.7338 6.72476 12.9051 6.68827 13.0237 6.66124H13.025ZM12.6073 7.8843C12.2739 8.03566 11.9708 8.18567 11.6585 8.31136C11.5149 8.36947 11.4793 8.44515 11.4951 8.59381C11.536 8.96005 11.6532 9.29116 11.868 9.58847C12.2423 10.1061 12.8353 10.3142 13.3598 10.0845C13.9488 9.82633 14.2545 9.3344 14.3665 8.70868C14.4192 8.41542 14.4061 8.41272 14.1135 8.36406C14.0621 8.35595 14.0107 8.34785 13.9593 8.33703C13.4836 8.23297 12.9961 8.1681 12.6047 7.88565L12.6073 7.8843Z" fill="#94A8B2"/>
<path d="M11.7929 6.16126C11.2658 6.16531 10.74 5.74771 10.5081 5.15172C10.4501 5.00442 10.2985 4.85035 10.3196 4.72196C10.3881 4.33004 10.346 3.90434 10.5884 3.55431C10.7611 3.30565 10.9917 3.1651 11.2948 3.16104C11.3317 3.16104 11.3752 3.16104 11.4068 3.14347C11.8917 2.87048 12.3529 3.00563 12.7918 3.24889C13.0434 3.38944 13.1238 3.66513 13.1647 3.94218C13.1976 4.16111 13.1844 4.3841 13.3017 4.59358C13.3399 4.66115 13.2635 4.8044 13.224 4.90576C13.195 4.98279 13.1278 5.04361 13.0988 5.12064C12.8721 5.7315 12.3424 6.1572 11.7929 6.16126ZM13.0066 4.47195C12.4873 4.36518 11.9471 4.31248 11.5082 4.03002C11.2407 4.153 10.997 4.27599 10.7439 4.37464C10.6082 4.42735 10.5502 4.50438 10.5884 4.64088C10.653 4.86927 10.6926 5.11388 10.8046 5.31525C11.0365 5.73285 11.387 6.01125 11.8864 5.94908C12.5387 5.86799 13.0421 5.19497 13.0066 4.47059V4.47195Z" fill="#94A8B2"/>
<path d="M6.79066 2.96513C7.03181 3.03541 7.29537 3.08676 7.53652 3.19083C7.85937 3.32867 7.95557 3.64086 8.01223 3.96656C8.04518 4.15846 8.10052 4.34766 8.12293 4.54092C8.13874 4.68012 8.16509 4.83283 8.02278 4.94365C7.97797 4.97879 7.96216 5.05717 7.93844 5.11799C7.82379 5.41531 7.6538 5.66938 7.40474 5.86804C6.89081 6.27753 6.22534 6.26942 5.77994 5.7829C5.52693 5.50585 5.34771 5.15042 5.16717 4.81256C5.11842 4.72202 5.18562 4.5666 5.20144 4.44227C5.21066 4.36523 5.23043 4.28955 5.23438 4.21252C5.25547 3.79357 5.38592 3.42192 5.78389 3.25299C6.09356 3.1219 6.43091 3.06514 6.78935 2.96649L6.79066 2.96513ZM6.3413 4.02197C6.15286 4.11522 5.97497 4.21252 5.7918 4.2909C5.36748 4.47335 5.35562 4.49092 5.47949 4.94771C5.48607 4.97338 5.4953 4.99906 5.50321 5.02339C5.83265 6.00859 6.83151 6.26942 7.47063 5.53424C7.73287 5.23286 7.87519 4.87878 7.8541 4.46794C7.3125 4.36658 6.78539 4.30712 6.3413 4.02197Z" fill="#94A8B2"/>
<path d="M8.89247 4.46118C9.00184 4.37469 9.09277 4.30171 9.19555 4.22198C9.29439 4.29631 9.39058 4.37064 9.50523 4.45713C9.60011 4.32604 9.70289 4.20711 9.77932 4.07061C9.8742 3.90303 9.9849 3.8706 10.1443 3.9679C10.2801 4.05034 10.342 4.20846 10.2669 4.35982C10.1404 4.61254 10.1667 4.81932 10.3394 5.05176C10.4896 5.25313 10.5726 5.50585 10.6912 5.74641H7.72229C7.87515 5.48017 8.0491 5.23151 8.16242 4.95581C8.22568 4.8004 8.198 4.60308 8.19669 4.42469C8.19669 4.29766 8.12684 4.1517 8.16901 4.04899C8.23754 3.87871 8.47737 3.88952 8.5907 4.04629C8.68821 4.18008 8.78441 4.31387 8.89247 4.46389V4.46118Z" fill="#94A8B2"/>
<path d="M11.3581 6.71536C11.5043 6.59914 11.6374 6.49372 11.7837 6.3775C11.9181 6.48426 12.0552 6.59103 12.2067 6.71131C12.3661 6.49102 12.5269 6.2829 12.6692 6.06396C12.7562 5.93017 12.8537 5.9153 12.9842 5.97071C13.2649 6.09099 13.4322 6.31668 13.5416 6.55454C13.2346 6.57751 12.9262 6.58968 12.6218 6.62887C12.4676 6.64779 12.32 6.72077 12.1672 6.75861C11.5926 6.90186 11.2342 7.32757 11.1775 7.94248C11.1736 7.98707 11.1709 8.03302 11.1643 8.11816C10.7598 7.69921 10.2551 7.5965 9.72534 7.51542C9.82549 7.01673 9.9375 6.53427 10.2999 6.16262C10.3579 6.1018 10.4317 6.05315 10.5055 6.01396C10.7268 5.89774 10.7756 5.9126 10.9245 6.11667C11.0668 6.31263 11.2091 6.50994 11.3594 6.71671L11.3581 6.71536Z" fill="#94A8B2"/>
<path d="M6.34131 6.60861C6.45991 6.50995 6.53766 6.44373 6.62199 6.37346C6.76036 6.48428 6.89214 6.58969 7.045 6.71267C7.20181 6.49509 7.36258 6.28967 7.50358 6.07073C7.5945 5.93018 7.71047 5.89234 7.83038 5.97884C7.99642 6.09911 8.173 6.2275 8.28765 6.39373C8.55779 6.787 8.64345 7.25325 8.71724 7.73166C8.28238 7.75193 7.91868 7.91546 7.59187 8.29251C7.59582 7.38569 7.32041 6.73294 6.34131 6.60726V6.60861Z" fill="#94A8B2"/>
<path d="M9.24044 4.0611C8.79767 4.04353 8.5328 3.81108 8.34173 3.46511C8.27847 3.35159 8.21259 3.23942 8.15724 3.12184C8.13615 3.07589 8.12166 3.01643 8.13088 2.96777C8.17437 2.74343 8.20863 2.51504 8.28506 2.30286C8.32591 2.18799 8.42475 2.0542 8.53017 2.00825C8.89124 1.85283 9.25757 1.71498 9.67003 1.84337C10.0047 1.94743 10.155 2.17177 10.2011 2.50558C10.2182 2.63532 10.2551 2.76235 10.2762 2.89209C10.2854 2.94345 10.2947 3.00697 10.2762 3.05021C10.0944 3.44484 9.93359 3.86243 9.47369 4.01244C9.38803 4.04082 9.29711 4.05028 9.24176 4.06245L9.24044 4.0611ZM10.0891 2.85831C9.8308 2.79749 9.57516 2.77857 9.35772 2.67451C9.08758 2.54477 8.87015 2.56639 8.61187 2.70559C8.29956 2.87452 8.26925 2.87858 8.38917 3.22049C8.43661 3.35564 8.50645 3.48943 8.59342 3.6016C8.84907 3.92865 9.2444 4.0165 9.56461 3.81648C9.90592 3.60431 10.0746 3.28401 10.0878 2.85831H10.0891Z" fill="#94A8B2"/>
<path d="M6.05009 6.51392C5.60601 6.62474 5.18169 6.73015 4.74023 6.83962C4.88124 6.48824 5.02619 6.15984 5.37803 5.99091C5.53485 5.91523 5.65476 5.92604 5.7536 6.09632C5.83925 6.24363 5.94994 6.37607 6.05009 6.51392Z" fill="#94A8B2"/>
<path d="M9.83611 19C9.32219 19 8.79508 18.9554 8.26797 18.8689C5.27401 18.3743 2.95342 16.7661 1.36683 14.0915C0.306026 12.2995 -0.140697 10.3115 0.0385192 8.17896C0.241455 5.76798 1.20079 3.66377 2.88885 1.92716C3.55432 1.24198 4.32917 0.656803 5.19362 0.1865L5.78925 0.800057C2.81374 2.4245 1.15335 4.93549 0.854217 8.26951C0.62229 10.8508 1.38528 13.1617 3.12473 15.1362C4.81279 17.0539 7.2243 18.1526 9.74255 18.1526C12.2608 18.1526 14.3719 17.1945 16.0494 15.4552C17.7625 13.6794 18.6849 11.3427 18.6467 8.87496C18.6085 6.40451 17.6307 4.11245 15.8926 2.41909L15.6659 2.19745L14.7712 3.57728L13.7407 0.432463L17.0812 0L16.1429 1.45551L16.2853 1.61093C16.3788 1.71499 16.4737 1.81499 16.5673 1.91635C16.7676 2.13123 16.9573 2.3353 17.1365 2.55018C18.2949 3.93542 19.0381 5.57202 19.3438 7.41404C19.3807 7.63433 19.4071 7.86542 19.4321 8.08706C19.444 8.18842 19.4558 8.29113 19.4677 8.39249V9.59798C19.4519 9.71691 19.4387 9.83448 19.4242 9.95341C19.3939 10.2115 19.3623 10.4778 19.3148 10.7305C18.7218 13.8942 17.0285 16.2795 14.2809 17.8188C12.8841 18.6013 11.3898 18.9986 9.84139 18.9986L9.83611 19Z" fill="#94A8B2"/>
</svg>
