<svg width="19" height="11" viewBox="0 0 19 11" fill="none" xmlns="http://www.w3.org/2000/svg">
<path d="M5.19061 2.13127H3.72635C3.56956 2.13127 3.44269 2.25581 3.44269 2.40973C3.44269 2.56364 3.56956 2.68819 3.72635 2.68819H5.19061C5.34739 2.68819 5.47426 2.56364 5.47426 2.40973C5.47426 2.25581 5.34739 2.13127 5.19061 2.13127ZM6.83326 6.11565C6.67869 6.11565 6.55293 6.23856 6.55293 6.39084V7.21372C6.55293 7.36546 6.67813 7.48892 6.83326 7.48892C6.98838 7.48892 7.11359 7.366 7.11359 7.21372V6.39084C7.11359 6.23911 6.98838 6.11565 6.83326 6.11565ZM6.83326 4.12346C6.67869 4.12346 6.55293 4.24637 6.55293 4.39865V5.22153C6.55293 5.37327 6.67813 5.49672 6.83326 5.49672C6.98838 5.49672 7.11359 5.37381 7.11359 5.22153V4.39865C7.11359 4.24691 6.98838 4.12346 6.83326 4.12346ZM6.83326 8.10784C6.67869 8.10784 6.55293 8.23075 6.55293 8.38304V9.20591C6.55293 9.35765 6.67813 9.48111 6.83326 9.48111C6.98838 9.48111 7.11359 9.35819 7.11359 9.20591V8.38304C7.11359 8.2313 6.98838 8.10784 6.83326 8.10784ZM6.83326 2.13127C6.67869 2.13127 6.55293 2.25418 6.55293 2.40646V3.22934C6.55293 3.38108 6.67813 3.50453 6.83326 3.50453C6.98838 3.50453 7.11359 3.38162 7.11359 3.22934V2.40646C7.11359 2.25472 6.98838 2.13127 6.83326 2.13127ZM5.02108 7.68144H3.55682C3.40004 7.68144 3.27317 7.80599 3.27317 7.95991C3.27317 8.11382 3.40004 8.23837 3.55682 8.23837H5.02108C5.17786 8.23837 5.30473 8.11382 5.30473 7.95991C5.30473 7.80599 5.17786 7.68144 5.02108 7.68144ZM5.02108 8.69413H3.55682C3.40004 8.69413 3.27317 8.81867 3.27317 8.97259C3.27317 9.1265 3.40004 9.25105 3.55682 9.25105H5.02108C5.17786 9.25105 5.30473 9.1265 5.30473 8.97259C5.30473 8.81867 5.17786 8.69413 5.02108 8.69413ZM15.0809 1.88652H9.64432C9.34349 1.88652 9.09917 2.12691 9.09917 2.42169V2.89105C9.09917 3.18637 9.34404 3.42622 9.64432 3.42622H15.0809C15.3817 3.42622 15.626 3.18583 15.626 2.89105V2.42169C15.626 2.12637 15.3811 1.88652 15.0809 1.88652ZM15.1274 2.89105C15.1274 2.91661 15.1063 2.93674 15.0809 2.93674H9.64432C9.61883 2.93674 9.59778 2.91607 9.59778 2.89105V2.42169C9.59778 2.39613 9.61883 2.37601 9.64432 2.37601H15.0809C15.1063 2.37601 15.1274 2.39667 15.1274 2.42169V2.89105ZM15.4083 6.84715L14.7418 6.77427C14.6892 6.59208 14.6155 6.41641 14.5207 6.25107L14.9401 5.73657C14.9939 5.67076 14.9883 5.57613 14.9279 5.51685L14.3163 4.91642C14.2559 4.85714 14.159 4.8517 14.0925 4.90445L13.5689 5.31616C13.4005 5.2237 13.2221 5.15082 13.0365 5.09916L12.9623 4.44488C12.9529 4.36113 12.8809 4.29804 12.795 4.29804H11.9302C11.8443 4.29804 11.7723 4.36113 11.7629 4.44488L11.6886 5.09916C11.503 5.15082 11.3246 5.2237 11.1562 5.31616L10.6327 4.90554C10.5656 4.85278 10.4692 4.85822 10.4089 4.9175L9.79723 5.51794C9.73684 5.57722 9.7313 5.67239 9.78504 5.73766L10.2044 6.25216C10.1102 6.41695 10.036 6.59262 9.98338 6.77482L9.3169 6.84661C9.23158 6.85585 9.16731 6.92656 9.16731 7.01086V7.85983C9.16731 7.94413 9.23158 8.01484 9.3169 8.02408L9.98338 8.09696C10.036 8.27916 10.1102 8.45428 10.2044 8.61962L9.78504 9.13412C9.7313 9.19993 9.73684 9.29456 9.79723 9.35384L10.4089 9.95427C10.4404 9.98527 10.4831 10.0027 10.528 10.0027C10.5662 10.0027 10.6028 9.98962 10.6327 9.96678L10.9579 9.71171C11.0305 9.6546 11.0421 9.55072 10.9839 9.47947C10.9258 9.40823 10.8199 9.39681 10.7474 9.45391L10.5402 9.61707L10.1413 9.22549L10.5391 8.73764C10.5839 8.68271 10.5884 8.60657 10.5501 8.54674C10.4249 8.3504 10.3341 8.13503 10.2809 7.90933C10.2648 7.8408 10.2066 7.79022 10.1357 7.7826L9.5036 7.71353V7.15987L10.1363 7.0908C10.2072 7.08319 10.2654 7.03207 10.2814 6.96408C10.3346 6.73838 10.4255 6.52301 10.5507 6.32667C10.5884 6.26739 10.5839 6.1907 10.5396 6.13577L10.1418 5.64792L10.5407 5.25633L11.0377 5.64629C11.0936 5.69034 11.1712 5.69469 11.2321 5.65717C11.4321 5.53425 11.6515 5.44506 11.8814 5.39285C11.9512 5.37707 12.0028 5.31997 12.0105 5.25035L12.0809 4.6298H12.6449L12.7152 5.2509C12.723 5.32051 12.775 5.37762 12.8443 5.39339C13.0742 5.4456 13.2936 5.5348 13.4936 5.65771C13.554 5.69469 13.6321 5.69034 13.6881 5.64683L14.185 5.25633L14.5845 5.64792L14.1867 6.13577C14.1418 6.1907 14.1374 6.26684 14.1756 6.32667C14.3008 6.52301 14.3917 6.73838 14.4448 6.96408C14.4609 7.03261 14.5191 7.08319 14.59 7.0908L15.2221 7.15987V7.71353L14.5894 7.7826C14.5185 7.79022 14.4604 7.84134 14.4443 7.90933C14.3911 8.13503 14.3002 8.3504 14.175 8.54674C14.1374 8.60602 14.1418 8.68271 14.1861 8.73764L14.5839 9.22549L14.185 9.61707L13.9817 9.45718C13.9817 9.45718 13.9795 9.455 13.9778 9.45446C13.9047 9.39844 13.7989 9.41149 13.7418 9.48328C13.6847 9.55507 13.698 9.65895 13.7712 9.71497L14.0925 9.96787C14.1595 10.0206 14.2559 10.0152 14.3163 9.9559L14.9279 9.35547C14.9883 9.29619 14.9939 9.20101 14.9401 9.13575L14.5207 8.62125C14.6149 8.45646 14.6892 8.28079 14.7418 8.09859L15.4083 8.02571C15.4936 8.01647 15.5579 7.94577 15.5579 7.86146V7.01249C15.5579 6.92819 15.4936 6.85748 15.4083 6.84824V6.84715ZM12.3623 6.44414C11.805 6.44414 11.3529 6.88794 11.3529 7.43507C11.3529 7.52644 11.4282 7.60041 11.5213 7.60041C11.6144 7.60041 11.6897 7.52644 11.6897 7.43507C11.6897 7.07014 11.9911 6.77482 12.3623 6.77482C12.7335 6.77482 13.0349 7.07068 13.0349 7.43507C13.0349 7.52644 13.1102 7.60041 13.2033 7.60041C13.2964 7.60041 13.3717 7.52644 13.3717 7.43507C13.3717 6.88794 12.9196 6.44414 12.3623 6.44414ZM17.3916 5.68164C17.3988 4.24637 18.9451 4.70866 18.9789 3.55457C18.8897 2.72571 19.3966 0.860789 18.0293 0.837402H0.970133C-0.399942 0.861876 0.112521 2.73007 0.0211084 3.55457C0.0604433 4.71682 1.59617 4.23713 1.60836 5.68164C1.60115 7.11691 0.0549032 6.65462 0.0211084 7.80871V10.0679C0.0211084 10.5819 0.447145 11.0001 0.970133 11.0001H18.0293C18.5529 11.0001 18.9789 10.5819 18.9789 10.0679V7.80871C18.9396 6.64592 17.4038 7.1267 17.3916 5.68164ZM12.6991 9.81831V10.5101H12.0266V9.81776C12.0266 9.75358 11.9889 9.69539 11.9296 9.6682C11.8016 9.61109 11.6881 9.52788 11.5956 9.42454C11.2399 9.02426 11.282 8.41621 11.6903 8.06705V8.62995C11.6903 8.72132 11.7656 8.79529 11.8587 8.79529H12.8681C12.9612 8.79529 13.0365 8.72132 13.0365 8.62995V8.06705C13.1424 8.15787 13.2277 8.26991 13.2853 8.39554C13.5086 8.87959 13.2903 9.45011 12.7972 9.66928C12.7379 9.69648 12.7003 9.75467 12.7003 9.81885H12.6991V9.81831ZM18.4803 10.0674C18.4803 10.3116 18.2781 10.5101 18.0293 10.5101H13.0349V9.91838C13.2786 9.78404 13.4731 9.57737 13.5889 9.32719C13.8908 8.67781 13.5989 7.9115 12.9374 7.61509C12.9152 7.60476 12.8908 7.59986 12.8665 7.59986C12.7734 7.59986 12.698 7.67383 12.6986 7.7652V8.46407H12.026V7.7652C12.026 7.74127 12.0205 7.71734 12.0105 7.69559C11.9712 7.61292 11.8715 7.57702 11.7872 7.61564C11.533 7.72985 11.3219 7.9202 11.185 8.15951C10.8294 8.78224 11.0554 9.56976 11.6897 9.91892V10.5106H7.11303V10.3752C7.11303 10.2235 6.98783 10.1 6.8327 10.1C6.67758 10.1 6.55237 10.2229 6.55237 10.3752V10.5106H0.970133C0.721381 10.5106 0.51972 10.3121 0.51972 10.0679V7.80871C0.567919 7.13214 2.04381 7.42365 2.10697 5.68164C2.10697 4.89629 1.59617 4.20667 0.835508 3.96573C0.646589 3.90591 0.51972 3.74057 0.51972 3.55457V1.76959C0.51972 1.5254 0.721935 1.32688 0.970133 1.32688H6.55293V1.40411C6.55293 1.55585 6.67813 1.67931 6.83326 1.67931C6.98838 1.67931 7.11359 1.5564 7.11359 1.40411V1.32688H18.0299C18.2786 1.32688 18.4808 1.5254 18.4808 1.76959V3.55511C18.4326 4.23169 16.9567 3.94072 16.8936 5.68218C16.9457 7.40679 18.4426 7.14465 18.4808 7.80925V10.0685H18.4803V10.0674Z" fill="#94A8B2"/>
</svg>
