<svg width="16" height="16" viewBox="0 0 16 16" fill="none" xmlns="http://www.w3.org/2000/svg">
<path d="M2.64394 9.88773H3.05478V8.34151H3.46563V9.52478H3.87648V8.34151H4.76058V7.93066H2.02753C1.46094 7.93066 1 8.3916 1 8.95819V9.31703H1.41085V8.95819C1.41085 8.61824 1.6873 8.34178 2.02725 8.34178H2.64366V9.888L2.64394 9.88773Z" fill="white"/>
<path d="M13.5483 12.9387H13.9592V15.0132H13.5483V12.9387Z" fill="white"/>
<path d="M11.5622 9.98553H9.57586V9.28099C10.3986 8.75819 10.9458 7.83851 10.9458 6.79346V5.81903C11.5236 5.72022 11.8669 5.62825 11.8901 5.62196L12.1688 5.54641L11.2192 4.15375C11.1848 2.40826 9.75405 0.998901 8.00035 0.998901C6.24666 0.998901 4.81594 2.40826 4.78173 4.15402L3.83221 5.54669L4.11085 5.62223C4.14124 5.63044 4.48393 5.72186 5.05517 5.81985V6.79374C5.05517 7.83878 5.60233 8.75819 6.42512 9.28126V9.98581H4.43849C3.11644 9.98581 2.04102 11.0612 2.04102 12.3833V12.5281H2.45186V12.3833C2.45186 11.3574 3.23359 10.5108 4.23266 10.4076V15.0137H4.6435V10.3972H5.05435V15.0137H5.4652V10.3972H6.43798C6.53023 11.1017 7.08943 11.6609 7.79397 11.7532V12.5478H8.20482V11.7532C8.90936 11.6609 9.46856 11.1017 9.56081 10.3972H10.5336V13.2055H10.9444V10.3972H11.3553V15.0137H11.7661V10.4076C12.7652 10.5108 13.5469 11.3574 13.5469 12.3833V12.5281H13.9578V12.3833C13.9578 11.0612 12.8823 9.98581 11.5603 9.98581L11.5622 9.98553ZM10.8032 4.04262C10.5429 4.08121 10.0245 4.15347 9.43216 4.20931C9.39055 3.14483 9.15297 2.08829 8.73747 1.50801C9.8753 1.81786 10.7277 2.82677 10.8032 4.04262ZM8.00035 1.46477C8.45718 1.46477 8.96493 2.63435 9.02241 4.24435C8.68108 4.2698 8.32991 4.28677 8.00035 4.28677C7.6708 4.28677 7.3199 4.2698 6.9783 4.24435C7.03578 2.63435 7.54352 1.46477 8.00035 1.46477ZM7.26324 1.50829C6.84774 2.08829 6.61015 3.14511 6.56855 4.20959C5.9765 4.15375 5.45781 4.08149 5.1975 4.04289C5.27278 2.82705 6.1254 1.81813 7.26324 1.50829ZM9.16474 10.1911C9.16474 10.8332 8.64249 11.3555 8.00035 11.3555C7.35822 11.3555 6.83597 10.8332 6.83597 10.1911V9.49887C7.19344 9.65324 7.58704 9.73892 8.00035 9.73892C8.41366 9.73892 8.80754 9.65324 9.16474 9.49887V10.1911ZM8.00035 9.32807C6.60303 9.32807 5.46602 8.19105 5.46602 6.79374V5.885C6.1306 5.98162 7.00293 6.06784 8.00035 6.06784C8.36467 6.06784 8.73637 6.05607 9.10534 6.03253L9.07934 5.62251C8.71913 5.64522 8.35591 5.65699 8.00035 5.65699C6.36928 5.65699 5.05654 5.41421 4.50281 5.29295L5.08309 4.4417C5.50434 4.50602 6.85732 4.69789 8.00035 4.69789C9.14339 4.69789 10.4964 4.50602 10.9176 4.4417L11.4982 5.29295C11.1251 5.37479 10.4082 5.51192 9.48471 5.59212L9.5203 6.0016C9.89583 5.96903 10.2363 5.9277 10.535 5.88418V6.79374C10.535 8.19105 9.39794 9.32807 8.00063 9.32807H8.00035Z" fill="white"/>
<path d="M2.45235 12.9387H2.0415V15.0132H2.45235V14.3968H3.06876V13.986H2.45235V12.939V12.9387Z" fill="white"/>
<path d="M10.5342 13.6157H10.945V15.013H10.5342V13.6157Z" fill="white"/>
<path d="M13.9731 7.93082H11.2397V8.34166H12.1238V9.52494H12.5347V8.34166H12.9455V9.88788H13.3564V8.34166H13.9728C14.3128 8.34166 14.5892 8.61812 14.5892 8.95807V11.15C14.5892 11.3462 14.4989 11.5263 14.3415 11.644L14.5876 11.973C14.8459 11.7798 15.0001 11.4721 15.0001 11.15V8.95807C15.0001 8.39148 14.5391 7.93054 13.9725 7.93054L13.9731 7.93082Z" fill="white"/>
<path d="M1.41085 11.1499V9.72766H1V11.1499C1 11.4721 1.1541 11.78 1.41249 11.973L1.65856 11.6439C1.50117 11.5262 1.41085 11.3461 1.41085 11.1499Z" fill="white"/>
<path d="M7.79492 12.9584H8.20577V13.3692H7.79492V12.9584Z" fill="white"/>
<path d="M13.7676 8.95801H14.1784V9.36886H13.7676V8.95801Z" fill="white"/>
<path d="M13.7676 9.77991H14.1784V10.1908H13.7676V9.77991Z" fill="white"/>
<path d="M3.47949 13.9856H3.89034V14.3964H3.47949V13.9856Z" fill="white"/>
</svg>
