<svg width="16" height="16" viewBox="0 0 16 16" fill="none" xmlns="http://www.w3.org/2000/svg">
<g clip-path="url(#clip0_2094_5245)">
<path d="M14.175 9.08719C13.68 8.94608 13.17 8.71646 12.8275 8.54664C12.6025 8.43662 12.3725 8.31703 12.16 8.20222C12.8025 7.51576 13.21 6.4227 13.21 5.40857C13.21 3.90172 12.28 3 10.725 3C9.84 3 9.1575 3.28702 8.7275 3.82757C8.505 3.77973 8.2625 3.75103 8 3.75103C7.7375 3.75103 7.495 3.77973 7.2725 3.82757C6.845 3.28941 6.1625 3 5.275 3C3.72 3 2.795 3.89933 2.795 5.40857C2.795 6.42509 3.1975 7.51337 3.8425 8.20222C3.6325 8.31703 3.4 8.43662 3.1725 8.54664C2.83 8.71646 2.32 8.94608 1.825 9.08719C0.075 9.58948 0.0025 11.955 0 12.0578V13.017C0 13.1437 0.11 13.249 0.2425 13.249H2.725V13.768C2.725 13.8948 2.835 14 2.9675 14H13.035C13.1675 14 13.2775 13.8948 13.2775 13.768V13.249H15.7575C15.89 13.249 16 13.1437 16 13.017V12.0531C16 11.9526 15.9275 9.58948 14.175 9.08719ZM12.31 8.81213C11.685 9.18047 11.0925 9.4938 10.84 9.62296C10.56 9.51294 10.3025 9.39335 10.1 9.29528C9.84 9.16851 9.6125 9.04653 9.4325 8.95086C9.54 8.83605 9.6375 8.71168 9.73 8.57773C10.045 8.78582 10.3825 8.89824 10.7225 8.89824C11.1075 8.89824 11.465 8.7619 11.785 8.5299C11.9175 8.60644 12.095 8.70211 12.31 8.81213ZM9.585 9.56317C8.9125 9.9626 8.26 10.3046 8.0025 10.4386C7.745 10.3094 7.0775 9.96499 6.41 9.56556C6.6225 9.45793 6.8025 9.35986 6.9375 9.28571C7.2575 9.51533 7.615 9.65406 8 9.65406C8.385 9.65406 8.745 9.51533 9.0625 9.28571C9.1975 9.35747 9.3775 9.45553 9.585 9.56317ZM10.725 3.46401C11.4725 3.46401 12.725 3.71755 12.725 5.40857C12.725 6.93694 11.7325 8.43662 10.725 8.43662C10.47 8.43662 10.22 8.34573 9.9775 8.17352C10.295 7.56599 10.4825 6.84366 10.4825 6.15482C10.4825 5.10002 10.0275 4.34421 9.22 3.98304C9.64 3.56447 10.2525 3.46401 10.725 3.46401ZM8 4.21505C8.7475 4.21505 9.9975 4.46858 9.9975 6.15721C9.9975 7.68798 9.0075 9.18765 8 9.18765C6.9925 9.18765 6.0025 7.68798 6.0025 6.15721C6.0025 4.46858 7.2525 4.21505 8 4.21505ZM3.28 5.40857C3.28 3.71755 4.53 3.46401 5.275 3.46401C5.7475 3.46401 6.36 3.56447 6.78 3.98543C5.9725 4.34421 5.5175 5.10002 5.5175 6.15721C5.5175 6.84605 5.705 7.56838 6.025 8.17591C5.78 8.34812 5.53 8.43901 5.275 8.43901C4.27 8.43662 3.28 6.93694 3.28 5.40857ZM4.215 8.53229C4.5325 8.7619 4.8925 8.90063 5.275 8.90063C5.615 8.90063 5.955 8.78821 6.2675 8.58013C6.36 8.71168 6.46 8.84083 6.565 8.95325C6.3875 9.04892 6.1575 9.16851 5.8975 9.29767C5.6975 9.39574 5.44 9.51533 5.16 9.62535C4.88 9.48424 4.285 9.17569 3.6825 8.81692C3.9025 8.7045 4.0825 8.60644 4.215 8.53229ZM2.725 12.7873H0.485V12.0626C0.485 12.0411 0.5475 9.93868 1.965 9.53207C2.4 9.4077 2.84 9.22114 3.185 9.06088C3.6725 9.36225 4.1775 9.63731 4.55 9.83823C2.865 10.3238 2.735 12.5242 2.725 12.7873ZM12.7925 13.5384H3.21V12.8137C3.21 12.7921 3.2775 10.6897 4.69 10.2831C4.875 10.2281 5.06 10.1635 5.24 10.0942C5.24 10.0942 5.24083 10.0942 5.2425 10.0942C5.485 10.0033 5.71 9.9028 5.9075 9.81192C6.8425 10.3907 7.8525 10.8858 7.895 10.9074C7.93 10.9241 7.9675 10.9337 8.005 10.9337C8.045 10.9337 8.0825 10.9241 8.12 10.905C8.13 10.9002 9.1375 10.3931 10.0875 9.80952C10.435 9.97217 10.875 10.1563 11.3125 10.2855C12.725 10.6921 12.7925 12.7945 12.7925 12.8113V13.5408V13.5384ZM15.515 12.7873H13.275C13.2675 12.5482 13.145 10.3262 11.4525 9.84062C11.4525 9.84062 11.4475 9.84062 11.445 9.84062C11.805 9.64688 12.31 9.36943 12.8125 9.06327C13.1575 9.22353 13.6 9.41009 14.0375 9.53686C15.45 9.94347 15.5175 12.0459 15.5175 12.0626V12.7897H15.515V12.7873Z" fill="#94A8B2"/>
</g>
<defs>
<clipPath id="clip0_2094_5245">
<rect width="16" height="11" fill="#94A8B2" transform="translate(0 3)"/>
</clipPath>
</defs>
</svg>
