<svg width="20" height="11" viewBox="0 0 20 11" fill="none" xmlns="http://www.w3.org/2000/svg">
<path fill-rule="evenodd" clip-rule="evenodd" d="M9.55689 7.37443C9.14122 7.37443 8.73284 7.25699 8.38644 7.03702C8.04004 6.81706 7.77022 6.50576 7.61161 6.14039C7.45299 5.77503 7.41106 5.37425 7.49128 4.98651C7.57332 4.59878 7.77386 4.24274 8.06739 3.96312C8.36274 3.68351 8.73648 3.49337 9.14487 3.41694C9.55325 3.34051 9.97622 3.37966 10.3609 3.53065C10.7456 3.68164 11.0737 3.93703 11.3053 4.26697C11.5368 4.59505 11.6608 4.98092 11.6608 5.37611C11.6608 5.90552 11.4384 6.41255 11.0428 6.78724C10.6471 7.16192 10.113 7.37256 9.55507 7.37256L9.55689 7.37443ZM9.55689 2.81297C9.02271 2.81297 8.49947 2.96397 8.05463 3.24545C7.60978 3.52692 7.26339 3.92771 7.05919 4.3956C6.855 4.86348 6.80031 5.37984 6.90605 5.87755C7.00997 6.37527 7.26703 6.83197 7.64625 7.18988C8.02363 7.54779 8.50677 7.79198 9.03001 7.89078C9.55507 7.98958 10.0984 7.93925 10.5924 7.74538C11.0865 7.55152 11.5077 7.22343 11.8048 6.80215C12.102 6.38086 12.2606 5.88501 12.2606 5.37797C12.2606 4.69758 11.9744 4.04701 11.4675 3.56607C10.9607 3.08513 10.2734 2.81484 9.55689 2.81484V2.81297ZM12.844 9.36342C13.4821 8.88994 13.9999 8.28597 14.3554 7.59439C14.7109 6.90281 14.895 6.14598 14.895 5.37611C14.895 4.60624 14.7109 3.84941 14.3554 3.15783C13.9999 2.46625 13.4839 1.86228 12.844 1.3888C14.9115 2.08784 16.8294 3.4449 18.4356 5.37425C16.8294 7.30545 14.9115 8.66252 12.844 9.35969V9.36342ZM0.678208 5.37797C2.28439 3.44677 4.20234 2.0897 6.26977 1.39253C5.63168 1.86601 5.1139 2.46998 4.75839 3.16156C4.40288 3.85314 4.21874 4.60997 4.21874 5.37984C4.21874 6.14971 4.40288 6.90654 4.75839 7.59812C5.1139 8.2897 5.62985 8.89367 6.26977 9.36715C4.20234 8.66811 2.28439 7.31105 0.678208 5.3817V5.37797ZM4.81673 5.37797C4.81673 6.26715 5.09385 7.13582 5.61527 7.87587C6.13669 8.61592 6.87688 9.19192 7.74287 9.53119C8.60886 9.87232 9.56236 9.95993 10.4812 9.78657C11.4001 9.61321 12.246 9.18447 12.9078 8.55626C13.5714 7.92806 14.0218 7.1265 14.2059 6.2541C14.3882 5.3817 14.2952 4.47762 13.9361 3.65555C13.5769 2.83348 12.9698 2.13258 12.1895 1.63859C11.4092 1.14461 10.494 0.881767 9.55507 0.881767C8.29893 0.881767 7.09383 1.35711 6.20414 2.19969C5.31627 3.04226 4.81491 4.18495 4.81491 5.37797H4.81673ZM9.55689 0.279663C6.00177 0.279663 2.63079 2.02819 0.0619867 5.20461C0.0218777 5.25308 0 5.31273 0 5.37425V5.37797C0 5.43949 0.0218777 5.49914 0.0619867 5.54761C2.62897 8.72403 6.00177 10.4726 9.55689 10.4726C13.112 10.4726 16.483 8.72403 19.0518 5.54761C19.0919 5.49728 19.1138 5.43763 19.1138 5.37611C19.1138 5.3146 19.0919 5.25308 19.0518 5.20461C16.4848 2.02819 13.112 0.279663 9.55689 0.279663Z" fill="#fff"/>
</svg>

