<svg width="16" height="16" viewBox="0 0 16 16" fill="none" xmlns="http://www.w3.org/2000/svg">
<path d="M12.6774 12.1863C12.0868 12.1863 11.6064 11.7053 11.6064 11.1135C11.6064 10.5218 12.0868 10.041 12.6774 10.041C13.268 10.041 13.7487 10.5221 13.7487 11.1135C13.7487 11.7049 13.2683 12.1863 12.6774 12.1863ZM12.6774 10.389C12.2784 10.389 11.9539 10.7139 11.9539 11.1135C11.9539 11.5131 12.2784 11.8384 12.6774 11.8384C13.0765 11.8384 13.4013 11.5131 13.4013 11.1135C13.4013 10.7139 13.0765 10.389 12.6774 10.389Z" fill="white"/>
<path d="M2.913 7.60376C2.81723 7.60376 2.73926 7.52568 2.73926 7.42977V3.96512C2.73926 3.86922 2.81723 3.79114 2.913 3.79114H5.89607C5.99185 3.79114 6.06981 3.86922 6.06981 3.96512V7.43008C6.06981 7.52599 5.99185 7.60407 5.89607 7.60407H2.913V7.60376ZM3.08674 7.25579H5.72233V4.13911H3.08705V7.25609L3.08674 7.25579Z" fill="white"/>
<path d="M2.913 14.0102C2.81723 14.0102 2.73926 13.9321 2.73926 13.8362V9.38175C2.73926 9.28584 2.81723 9.20776 2.913 9.20776H5.89607C5.99185 9.20776 6.06981 9.28584 6.06981 9.38175V13.8362C6.06981 13.9321 5.99185 14.0102 5.89607 14.0102H2.913ZM3.08674 13.6622H5.72233V9.55604H3.08705V13.6622H3.08674Z" fill="white"/>
<path d="M3.97501 10.731C3.87924 10.731 3.80127 10.6529 3.80127 10.557C3.80127 10.4611 3.87924 10.3831 3.97501 10.3831H4.8342C4.92998 10.3831 5.00794 10.4611 5.00794 10.557C5.00794 10.6529 4.92998 10.731 4.8342 10.731H3.97501Z" fill="white"/>
<path d="M3.97501 11.783C3.87924 11.783 3.80127 11.705 3.80127 11.609C3.80127 11.5131 3.87924 11.4351 3.97501 11.4351H4.8342C4.92998 11.4351 5.00794 11.5131 5.00794 11.609C5.00794 11.705 4.92998 11.783 4.8342 11.783H3.97501Z" fill="white"/>
<path d="M3.97501 12.8353C3.87924 12.8353 3.80127 12.7572 3.80127 12.6613C3.80127 12.5654 3.87924 12.4873 3.97501 12.4873H4.8342C4.92998 12.4873 5.00794 12.5654 5.00794 12.6613C5.00794 12.7572 4.92998 12.8353 4.8342 12.8353H3.97501Z" fill="white"/>
<path d="M1.17374 15C1.07797 15 1 14.9219 1 14.826C1 14.7301 1.07797 14.652 1.17374 14.652H1.5642V2.61813L1.45584 2.60522C1.21917 2.57694 1.04083 2.37713 1.04083 2.14044V1.47093C1.04083 1.21118 1.25171 1 1.51109 1H7.29889C7.55828 1 7.76916 1.21118 7.76916 1.47093V2.14044C7.76916 2.37713 7.59082 2.57694 7.35415 2.60522L7.24579 2.61813V14.652H8.02548V9.49886C8.02548 9.22374 8.17497 8.96922 8.41532 8.83458L8.43067 8.82597L13.7197 3.41459C13.8593 3.26981 14.0542 3.18712 14.2547 3.18712C14.3931 3.18712 14.597 3.22646 14.7808 3.41459C15.0734 3.70661 15.0728 4.18707 14.7808 4.48647L9.51947 9.86712V14.6523H12.3721L12.2275 14.4562C11.8358 13.9253 10.5582 12.1225 10.5582 11.2064C10.5582 10.0362 11.5101 9.08418 12.68 9.08418C13.2442 9.08418 13.7758 9.30735 14.1773 9.7125C14.5767 10.1155 14.7965 10.6461 14.7965 11.2064C14.7965 11.6429 14.507 12.5608 13.1287 14.4568L12.9866 14.652H14.8146C14.9104 14.652 14.9883 14.7301 14.9883 14.826C14.9883 14.9219 14.9104 15 14.8146 15H1.17374ZM8.77293 9.08388C8.71799 9.08388 8.66519 9.09617 8.61577 9.12015C8.46689 9.1887 8.37296 9.3341 8.37296 9.49886V14.652H9.17168V9.49886C9.17168 9.27385 8.98904 9.08388 8.77263 9.08388H8.77293ZM1.91168 14.652H6.89861V2.61136H1.91168V14.652ZM12.6628 9.43185C11.694 9.43185 10.9057 10.2277 10.9057 11.2061C10.9057 12.0764 12.4089 14.1184 12.5805 14.3483L12.6797 14.4811L12.7779 14.3474C13.2804 13.6638 14.449 11.9894 14.449 11.2058C14.449 10.3439 13.7814 9.44476 12.6643 9.43154H12.6628V9.43185ZM8.98996 8.75158L9.13085 8.82997C9.27267 8.90897 9.39147 9.04053 9.45654 9.19177L9.52899 9.35992L10.6813 8.18167L10.5555 7.15005L8.98996 8.75189V8.75158ZM10.8667 6.83128L10.9926 7.8629L12.7942 6.02068L12.668 4.98814L10.8667 6.83128ZM14.2492 3.53632C14.1436 3.53632 14.0441 3.57904 13.9692 3.65682L12.9793 4.66968L13.1054 5.70222L14.5328 4.24271C14.6897 4.08225 14.6903 3.81512 14.5343 3.65927C14.457 3.58027 14.3554 3.53632 14.2495 3.53632H14.2492ZM1.38831 2.26339H7.42168V1.34797H1.38831V2.26339Z" fill="white"/>
</svg>
