<svg width="14" height="14" viewBox="0 0 14 14" fill="none" xmlns="http://www.w3.org/2000/svg">
<path d="M11.6777 11.1863C11.0871 11.1863 10.6067 10.7053 10.6067 10.1135C10.6067 9.52178 11.0871 9.04102 11.6777 9.04102C12.2683 9.04102 12.749 9.52209 12.749 10.1135C12.749 10.7049 12.2686 11.1863 11.6777 11.1863ZM11.6777 9.38899C11.2786 9.38899 10.9542 9.7139 10.9542 10.1135C10.9542 10.5131 11.2786 10.8384 11.6777 10.8384C12.0767 10.8384 12.4015 10.5131 12.4015 10.1135C12.4015 9.7139 12.0767 9.38899 11.6777 9.38899Z" fill="#023773"/>
<path d="M1.91276 6.60364C1.81698 6.60364 1.73901 6.52556 1.73901 6.42965V2.965C1.73901 2.86909 1.81698 2.79102 1.91276 2.79102H4.89583C4.9916 2.79102 5.06957 2.86909 5.06957 2.965V6.42996C5.06957 6.52586 4.9916 6.60394 4.89583 6.60394H1.91276V6.60364ZM2.0865 6.25566H4.72209V3.13899H2.0868V6.25597L2.0865 6.25566Z" fill="#023773"/>
<path d="M1.91276 13.0102C1.81698 13.0102 1.73901 12.9321 1.73901 12.8362V8.38175C1.73901 8.28584 1.81698 8.20776 1.91276 8.20776H4.89583C4.9916 8.20776 5.06957 8.28584 5.06957 8.38175V12.8362C5.06957 12.9321 4.9916 13.0102 4.89583 13.0102H1.91276ZM2.0865 12.6622H4.72209V8.55604H2.0868V12.6622H2.0865Z" fill="#023773"/>
<path d="M2.97501 9.73103C2.87924 9.73103 2.80127 9.65295 2.80127 9.55704C2.80127 9.46114 2.87924 9.38306 2.97501 9.38306H3.8342C3.92998 9.38306 4.00794 9.46114 4.00794 9.55704C4.00794 9.65295 3.92998 9.73103 3.8342 9.73103H2.97501Z" fill="#023773"/>
<path d="M2.97501 10.783C2.87924 10.783 2.80127 10.705 2.80127 10.609C2.80127 10.5131 2.87924 10.4351 2.97501 10.4351H3.8342C3.92998 10.4351 4.00794 10.5131 4.00794 10.609C4.00794 10.705 3.92998 10.783 3.8342 10.783H2.97501Z" fill="#023773"/>
<path d="M2.97501 11.8353C2.87924 11.8353 2.80127 11.7572 2.80127 11.6613C2.80127 11.5654 2.87924 11.4873 2.97501 11.4873H3.8342C3.92998 11.4873 4.00794 11.5654 4.00794 11.6613C4.00794 11.7572 3.92998 11.8353 3.8342 11.8353H2.97501Z" fill="#023773"/>
<path d="M0.173741 14C0.0779688 14 0 13.9219 0 13.826C0 13.7301 0.0779688 13.652 0.173741 13.652H0.564199V1.61813L0.455841 1.60522C0.219172 1.57694 0.0408262 1.37713 0.0408262 1.14044V0.470929C0.0408262 0.21118 0.25171 0 0.511095 0H6.29889C6.55828 0 6.76916 0.21118 6.76916 0.470929V1.14044C6.76916 1.37713 6.59082 1.57694 6.35415 1.60522L6.24579 1.61813V13.652H7.02548V8.49886C7.02548 8.22374 7.17497 7.96922 7.41532 7.83458L7.43067 7.82597L12.7197 2.41459C12.8593 2.26981 13.0542 2.18712 13.2547 2.18712C13.3931 2.18712 13.597 2.22646 13.7808 2.41459C14.0734 2.70661 14.0728 3.18707 13.7808 3.48647L8.51947 8.86712V13.6523H11.3721L11.2275 13.4562C10.8358 12.9253 9.55824 11.1225 9.55824 10.2064C9.55824 9.03619 10.5101 8.08418 11.68 8.08418C12.2442 8.08418 12.7758 8.30735 13.1773 8.7125C13.5767 9.11549 13.7965 9.64606 13.7965 10.2064C13.7965 10.6429 13.507 11.5608 12.1287 13.4568L11.9866 13.652H13.8146C13.9104 13.652 13.9883 13.7301 13.9883 13.826C13.9883 13.9219 13.9104 14 13.8146 14H0.173741ZM7.77293 8.08388C7.71799 8.08388 7.66519 8.09617 7.61577 8.12015C7.46689 8.1887 7.37296 8.3341 7.37296 8.49886V13.652H8.17168V8.49886C8.17168 8.27385 7.98904 8.08388 7.77263 8.08388H7.77293ZM0.911682 13.652H5.89861V1.61136H0.911682V13.652ZM11.6628 8.43185C10.694 8.43185 9.90572 9.22769 9.90572 10.2061C9.90572 11.0764 11.4089 13.1184 11.5805 13.3483L11.6797 13.4811L11.7779 13.3474C12.2804 12.6638 13.449 10.9894 13.449 10.2058C13.449 9.34389 12.7814 8.44476 11.6643 8.43154H11.6628V8.43185ZM7.98996 7.75158L8.13085 7.82997C8.27267 7.90897 8.39147 8.04053 8.45654 8.19177L8.52899 8.35992L9.68133 7.18167L9.55547 6.15005L7.98996 7.75189V7.75158ZM9.86673 5.83128L9.99259 6.8629L11.7942 5.02068L11.668 3.98814L9.86673 5.83128ZM13.2492 2.53632C13.1436 2.53632 13.0441 2.57904 12.9692 2.65682L11.9793 3.66968L12.1054 4.70222L13.5328 3.24271C13.6897 3.08225 13.6903 2.81512 13.5343 2.65927C13.457 2.58027 13.3554 2.53632 13.2495 2.53632H13.2492ZM0.388309 1.26339H6.42168V0.347971H0.388309V1.26339Z" fill="#023773"/>
</svg>
