<svg width="21" height="14" viewBox="0 0 21 14" fill="none" xmlns="http://www.w3.org/2000/svg">
<path d="M1.92999 13.1832C1.5101 13.1832 1.08256 13.1774 0.669031 13.1717L0.298197 13.1666C0.173949 13.1653 0.0847448 13.1384 0.0401427 13.0899C0.0101956 13.0572 -0.00318498 13.0125 0.000638049 12.953C0.0101956 12.8028 0.0917536 12.744 0.291188 12.744C0.440924 12.744 1.4776 12.744 1.4776 12.744V1.95117L1.42344 1.94286C1.1673 1.90322 1.02648 1.88085 0.971688 1.81564C0.916254 1.74979 0.916254 1.60211 0.916254 1.33488V1.02481C0.915617 0.783793 0.91498 0.542773 0.916891 0.302393C0.920077 0.0632916 0.979334 0.00127862 1.20553 0.00127862C2.52511 0.00127862 3.84406 0 5.16364 0C6.48323 0 7.86589 0 9.21733 0.00127862C9.43142 0.00127862 9.50023 0.070324 9.50215 0.284493C9.50469 0.608622 9.50406 0.938506 9.50342 1.25752V1.54713C9.50278 1.87381 9.4722 1.90514 9.1396 1.91921C9.1071 1.92048 9.0746 1.92496 9.04083 1.92943C9.02427 1.93199 9.00643 1.93391 8.98795 1.93647L8.93188 1.94286V5.39321H9.83475C10.1412 5.39321 10.5044 5.39321 10.8784 5.38938C10.9683 5.38874 11.0607 5.33567 11.1129 5.28389C11.8839 4.51352 12.6663 3.72717 13.422 2.96767L14.121 2.26507C14.2166 2.16918 14.3147 2.06944 14.4147 1.9761C14.5632 1.83801 14.7512 1.7613 14.9436 1.7613C15.136 1.7613 15.3208 1.83801 15.4616 1.97738C15.7541 2.26763 15.7598 2.71834 15.4763 3.02649C15.287 3.23171 15.085 3.43309 14.8901 3.62744C14.8346 3.68306 14.7786 3.73804 14.7231 3.79366C14.4466 4.07112 14.1701 4.34794 13.8935 4.62476C13.1672 5.3523 12.4159 6.10412 11.6806 6.847C11.6061 6.92244 11.5309 7.04838 11.5303 7.15962C11.5239 8.70931 11.5245 10.2846 11.5252 11.808V12.5343C11.5252 12.5605 11.5277 12.5867 11.5309 12.618C11.5322 12.6327 11.5341 12.6494 11.5354 12.6673L11.5398 12.7261H12.8365L12.716 11.5977L12.6186 11.5798C12.5759 11.5721 12.5255 11.5632 12.4758 11.5536C12.1789 11.4973 11.9686 11.2915 11.9132 11.0031C11.8552 10.7027 11.9744 10.4271 12.2241 10.2846C12.3911 10.1887 12.4223 10.0672 12.4172 9.91377C12.4032 9.50525 12.3892 9.08266 12.6899 8.72145L12.7262 8.67798L12.5026 8.43888C12.3643 8.2912 12.2273 8.1448 12.091 7.99776C11.9202 7.81236 11.9769 7.71262 12.0464 7.64678C12.0897 7.60458 12.133 7.58476 12.1783 7.58476C12.242 7.58476 12.3146 7.62568 12.3936 7.70623C12.486 7.80085 12.5771 7.89739 12.6778 8.00351C12.725 8.05338 12.9104 8.249 12.9104 8.249L12.9359 8.13073C12.9652 7.99456 12.9926 7.86158 13.0193 7.7318C13.0818 7.43005 13.1404 7.14556 13.2105 6.86362C13.2564 6.68078 13.3233 6.44487 13.4386 6.23838C13.6399 5.87781 13.9553 5.69497 14.3765 5.69497C14.848 5.69624 15.3163 5.69624 15.7847 5.69624H17.7452C18.4334 5.69624 18.817 5.99097 18.9903 6.65329C19.0616 6.92755 19.1209 7.21077 19.1776 7.48439C19.205 7.61673 19.233 7.7497 19.2617 7.88204C19.2706 7.92104 19.2808 7.96004 19.2942 8.0099C19.3012 8.03611 19.3089 8.06488 19.3178 8.09941L19.3465 8.21129L19.7823 7.74715C19.8906 7.63143 19.9849 7.57262 20.0614 7.57262C20.1021 7.57262 20.1404 7.58924 20.1792 7.62376C20.2251 7.66468 20.2474 7.70495 20.2493 7.74906C20.2525 7.82386 20.1984 7.9204 20.0843 8.04315C19.9677 8.16845 19.8505 8.29248 19.7275 8.42354L19.5089 8.65624L19.5465 8.69972C19.8422 9.04303 19.8485 9.45794 19.8556 9.89714L19.8568 9.95852C19.8587 10.0538 19.9097 10.188 19.9919 10.2481C20.1952 10.3964 20.4214 10.6477 20.3424 11.0044C20.2723 11.3215 20.0454 11.5165 19.6861 11.5683C19.6606 11.5721 19.6351 11.5753 19.6102 11.5785L19.5274 11.5894L19.4172 12.7446H20.5953C20.9655 12.7446 20.9986 12.8488 20.9999 12.955C21.0012 13.0138 20.9878 13.056 20.9579 13.086C20.9037 13.141 20.7884 13.1678 20.6036 13.1678H17.995C17.5139 13.1678 17.0329 13.1678 16.5518 13.1678C14.6773 13.1698 12.8021 13.1717 10.9275 13.1742C7.94235 13.1774 4.9572 13.1813 1.97141 13.1838H1.93318L1.92999 13.1832ZM14.5288 12.7191H17.7153L17.6044 11.5817H14.6416L14.5288 12.7191ZM1.92745 12.7171H8.47439V1.93966H1.92808V12.7171H1.92745ZM9.52763 5.79534C9.03956 5.79534 8.92742 5.90658 8.92742 6.39053C8.92742 7.87501 8.92742 9.35948 8.92742 10.844V12.7133H11.0881V7.52147L10.988 7.59179C10.8708 7.67427 10.7943 7.77656 10.7293 7.87437C10.57 8.11411 10.2903 8.26882 10.0163 8.26882C9.96601 8.26882 9.91567 8.26371 9.86788 8.25284C9.49578 8.17101 9.21733 7.89355 9.17464 7.56303C9.12685 7.19031 9.28041 6.86618 9.60855 6.65137C9.81882 6.51328 10.0157 6.34898 10.2056 6.19043C10.2897 6.12011 10.3738 6.04978 10.4592 5.98138L10.507 5.94302L10.4095 5.80876L10.384 5.80429L10.3725 5.80173C10.3604 5.79917 10.3451 5.79598 10.3279 5.79598C10.0756 5.79534 9.82392 5.7947 9.5716 5.7947H9.527L9.52763 5.79534ZM13.1735 11.6552C13.1735 11.7057 13.1735 11.755 13.1723 11.8036C13.171 11.9308 13.1697 12.0516 13.178 12.1724C13.1818 12.2332 13.2506 12.3559 13.3296 12.3578C13.3774 12.3591 13.4252 12.3591 13.473 12.3591C13.6164 12.3591 13.7623 12.3553 13.9025 12.3515C13.9611 12.3502 14.1376 12.3457 14.1376 12.3457L14.1471 12.182C14.1561 12.0228 14.165 11.8643 14.1733 11.7051C14.1745 11.6751 14.1599 11.654 14.1484 11.6386C14.1452 11.6341 14.1414 11.629 14.1376 11.6226L14.1191 11.5913H13.1729V11.6552H13.1735ZM18.0798 12.347H19.0585V11.5964H18.0798V12.347ZM13.0021 11.1457C13.5131 11.1464 14.0248 11.147 14.5358 11.147C14.9136 11.147 15.2909 11.147 15.6687 11.1457C16.3078 11.1438 16.9469 11.1406 17.5859 11.1368C18.0893 11.1342 18.5933 11.131 19.0967 11.1291H19.1037C19.1668 11.1291 19.2318 11.1323 19.2948 11.1355C19.3592 11.1387 19.4255 11.1425 19.4917 11.1425C19.558 11.1425 19.6198 11.1387 19.6752 11.131C19.753 11.1201 19.8059 11.0473 19.8562 10.9769C19.8753 10.9501 19.8938 10.9252 19.9116 10.9053L19.955 10.8574L19.9072 10.8146C19.8874 10.7967 19.8677 10.7781 19.8485 10.7596C19.7976 10.7116 19.7453 10.6618 19.6854 10.6215C19.6644 10.6074 19.6389 10.6004 19.6064 10.6004C19.5899 10.6004 19.5714 10.6023 19.5535 10.6042C19.5402 10.6055 19.5274 10.6074 19.5153 10.6074H12.6797C12.6702 10.6074 12.6593 10.6055 12.6485 10.6042C12.6326 10.6023 12.6166 10.6004 12.6026 10.6004C12.5727 10.6004 12.5491 10.6074 12.53 10.6215C12.5198 10.6292 12.5096 10.6362 12.4988 10.6439C12.4255 10.6963 12.342 10.7557 12.3331 10.8382C12.3216 10.9443 12.4268 11.0588 12.4835 11.1042C12.5287 11.1406 12.5912 11.1457 12.6466 11.1457C12.66 11.1457 12.6734 11.1457 12.6867 11.1457C12.6982 11.1457 12.7103 11.1457 12.7211 11.1457H13.0034H13.0021ZM14.9168 8.6409C14.5224 8.6409 14.1287 8.6409 13.7342 8.64282C13.2812 8.64474 12.9027 8.95033 12.853 9.35437C12.8333 9.51867 12.8377 9.68681 12.8428 9.84984C12.8448 9.92336 12.8473 9.99751 12.8473 10.0717V10.1356H19.4178V10.0717C19.4178 10.0116 19.4185 9.9534 19.4191 9.89714C19.4204 9.77567 19.4216 9.66124 19.4165 9.54616C19.3904 8.9906 19.0272 8.6441 18.4691 8.64218C18.1989 8.64154 17.9281 8.6409 17.6573 8.6409H16.4359H14.9162H14.9168ZM14.4237 6.11435C14.07 6.11435 13.826 6.27929 13.7355 6.57849C13.6278 6.93714 13.5418 7.3105 13.459 7.67107C13.4233 7.82578 13.3876 7.98113 13.35 8.13713L13.3309 8.2164H18.9043L18.8864 8.1384C18.8526 7.98945 18.8214 7.84113 18.7896 7.69408C18.7157 7.3495 18.6462 7.02345 18.5551 6.69484C18.4398 6.27993 18.2206 6.11819 17.7739 6.11819H17.7089C17.4114 6.11819 17.1138 6.11819 16.8169 6.11883C16.5193 6.11883 16.2224 6.11947 15.9248 6.11947C15.3393 6.11947 14.8659 6.11755 14.4345 6.11371H14.4237V6.11435ZM10.0119 6.99148C9.79716 6.99148 9.60664 7.17497 9.59645 7.39169C9.59135 7.49846 9.62831 7.60202 9.70094 7.68194C9.77549 7.76377 9.87744 7.81172 9.98831 7.81683C9.99659 7.81683 10.0042 7.81683 10.0125 7.81683C10.2527 7.81683 10.4159 7.65381 10.4178 7.41151C10.4197 7.18456 10.2413 6.99532 10.0202 6.99084H10.0119V6.99148ZM10.8574 7.13021L10.9339 7.0471C11.0046 6.97039 11.0753 6.89239 11.1454 6.81503C11.3022 6.64306 11.464 6.46533 11.6278 6.29528C11.9189 5.99224 11.9451 5.79789 11.7373 5.46354L11.6953 5.39641L10.4413 6.61941L10.8052 6.95185L10.8568 7.13021H10.8574ZM12.6625 4.31661C12.4835 4.49946 12.314 4.67143 12.1515 4.8466C12.1012 4.9003 12.0846 4.99876 12.098 5.06205C12.1209 5.17329 12.1515 5.27941 12.1866 5.4028C12.2006 5.45203 12.2152 5.50317 12.2299 5.55751L12.2592 5.66364C12.2592 5.66364 12.4599 5.46162 12.5204 5.40088C12.7027 5.21804 12.8747 5.04543 13.0429 4.86706C13.0926 4.81464 13.1041 4.7149 13.0901 4.64714C13.0678 4.54101 13.0378 4.4368 13.0028 4.31661C12.9881 4.26611 12.9728 4.21177 12.9563 4.15359L12.9263 4.04683C12.9263 4.04683 12.7237 4.2546 12.6632 4.31598L12.6625 4.31661ZM13.8738 3.09234C13.7005 3.27262 13.5361 3.44268 13.3793 3.61337C13.336 3.66068 13.2978 3.75274 13.3131 3.82946C13.3354 3.94198 13.3666 4.05066 13.4029 4.17725C13.4176 4.22839 13.4335 4.28273 13.4494 4.34091L13.4787 4.44767L13.74 4.18172C13.9171 4.00208 14.0841 3.83202 14.2459 3.66196C14.2822 3.62424 14.33 3.54113 14.3153 3.46889C14.2905 3.3487 14.258 3.23107 14.2204 3.09426C14.2058 3.03991 14.1898 2.98302 14.1733 2.921L14.1439 2.81168C14.1439 2.81168 13.9356 3.02841 13.8738 3.09234ZM14.8984 2.20306C14.885 2.20306 14.8729 2.2037 14.8608 2.20562C14.7582 2.21968 14.669 2.27658 14.6091 2.36608C14.5435 2.46454 14.5224 2.59176 14.553 2.70683C14.5734 2.78547 14.5957 2.86347 14.6237 2.96064L14.7008 3.23299L14.8843 3.038C14.964 2.95361 15.0328 2.88009 15.1016 2.80721C15.1093 2.7989 15.1188 2.79058 15.1284 2.78227C15.1596 2.75414 15.1991 2.71962 15.2055 2.66975C15.2074 2.65505 15.2099 2.63971 15.2118 2.62372C15.2271 2.52399 15.2443 2.41083 15.1902 2.33348C15.1341 2.25229 14.9971 2.2037 14.8984 2.2037V2.20306ZM1.3559 1.47361H9.07524V0.443041H1.3559V1.47361Z" fill="#94A8B2"/>
<path d="M4.02823 7.77669C3.76508 7.77669 3.50193 7.77669 3.23878 7.77541C2.80422 7.77413 2.58313 7.55229 2.58249 7.11628C2.58058 5.69702 2.58058 4.42799 2.58249 3.23632C2.58313 2.81118 2.80677 2.58614 3.22794 2.58422C3.88869 2.58166 4.54944 2.58102 5.21019 2.58102C5.87093 2.58102 6.52722 2.5823 7.18606 2.58422C7.60404 2.5855 7.82578 2.8035 7.82769 3.21458C7.83406 4.46954 7.83406 5.78972 7.82769 7.13994C7.82578 7.5606 7.60595 7.77413 7.17331 7.77541C6.91207 7.77605 6.65083 7.77605 6.38895 7.77605H5.20573H4.02759L4.02823 7.77669ZM6.83689 7.35219C6.94584 7.35219 7.03505 7.35411 7.11724 7.35794C7.12871 7.35794 7.13954 7.35858 7.15037 7.35858C7.20708 7.35858 7.28864 7.35219 7.34535 7.29401C7.39123 7.24734 7.41289 7.17766 7.41225 7.07473C7.40716 5.8447 7.40716 4.57119 7.41225 3.28938C7.41225 3.18837 7.39123 3.11932 7.34471 3.07265C7.28418 3.01192 7.19307 3.00361 7.12043 3.00361C6.48007 3.00616 5.84226 3.00744 5.20509 3.00744C4.56792 3.00744 3.93457 3.00616 3.29867 3.00361C3.22093 3.00361 3.12854 3.01192 3.06738 3.07393C3.01895 3.12316 2.99856 3.19476 2.99984 3.30664C3.00621 3.81233 3.00493 4.32698 3.0043 4.825C3.0043 5.01487 3.00366 5.20411 3.00366 5.39398C3.00366 5.52632 3.00366 5.6593 3.00366 5.79163C3.00302 6.21038 3.00175 6.64383 3.01003 7.06961C3.01194 7.15784 3.09414 7.33621 3.18971 7.34388C3.30695 7.35283 3.43248 7.35666 3.5975 7.35666C3.66696 7.35666 3.73704 7.35602 3.80777 7.35538C3.87977 7.35475 3.95305 7.35411 4.02759 7.35411H4.09131V7.11692C4.09131 7.00185 4.09131 6.89444 4.09131 6.78768C4.0945 6.12535 4.53096 5.67272 5.17705 5.66185H5.2019C5.86201 5.66185 6.30357 6.08827 6.32651 6.74868C6.33033 6.8644 6.3297 6.98139 6.32842 7.10541C6.32842 7.16551 6.32715 7.22752 6.32715 7.29145V7.35538H6.39087C6.47051 7.35538 6.54825 7.35475 6.62407 7.35411C6.69607 7.35347 6.7668 7.35283 6.83625 7.35283L6.83689 7.35219ZM5.21082 6.0838C5.19298 6.0838 5.17514 6.0838 5.15666 6.08508C4.78392 6.1049 4.5316 6.34783 4.51503 6.70393C4.5093 6.83051 4.51057 6.95518 4.51185 7.08687C4.51248 7.14633 4.51312 7.20707 4.51312 7.26844V7.33237H5.89132V7.26844C5.89132 7.19875 5.89323 7.13099 5.89515 7.06386C5.89961 6.91362 5.90343 6.7717 5.88623 6.62849C5.84481 6.29221 5.58612 6.08316 5.21019 6.08316L5.21082 6.0838Z" fill="#94A8B2"/>
<path d="M3.36 9.2176C3.32687 9.2176 3.31795 9.21185 3.31604 9.21057C3.19625 9.11979 3.13508 9.05202 3.13381 9.00983C3.13253 8.96188 3.20453 8.86982 3.2982 8.80013C3.31158 8.78991 3.33961 8.78543 3.38103 8.78543C3.40078 8.78543 3.42117 8.78671 3.44156 8.78735C3.46322 8.78863 3.48425 8.78927 3.50464 8.78927C4.10868 8.78927 4.71144 8.78863 5.31485 8.78863H6.98169C7.0231 8.78863 7.06771 8.78991 7.10912 8.79694C7.24229 8.81995 7.30601 8.8922 7.29964 9.01302C7.29135 9.16902 7.18176 9.20546 7.09192 9.20865C6.9887 9.21249 6.88675 9.21249 6.80073 9.21249H6.56753H4.40305C4.0953 9.21249 3.47852 9.21249 3.47852 9.21249C3.45813 9.21249 3.43646 9.21377 3.4148 9.21569C3.39632 9.21696 3.37721 9.21824 3.35873 9.21824L3.36 9.2176Z" fill="#94A8B2"/>
<path d="M5.20266 10.6516C4.612 10.6516 4.02071 10.6516 3.43005 10.6504C3.30134 10.6504 3.21213 10.6254 3.16498 10.5775C3.1344 10.5461 3.11974 10.5027 3.12038 10.4451C3.12229 10.2949 3.19748 10.231 3.37079 10.231C3.63585 10.231 3.89964 10.231 4.16343 10.231H6.25463C6.49867 10.2303 6.7427 10.231 6.98674 10.231C7.29895 10.231 7.30214 10.3774 7.30342 10.4323C7.30469 10.4892 7.2894 10.5334 7.25563 10.5672C7.20338 10.6209 7.10653 10.6497 6.97591 10.6497C6.38461 10.6497 5.79395 10.6504 5.20266 10.6504V10.6516Z" fill="#94A8B2"/>
<path d="M7.00719 12.0882C6.40825 12.0876 5.8093 12.0876 5.21036 12.0876H5.067C4.51584 12.0876 3.96469 12.0876 3.41354 12.0869C3.29566 12.0869 3.209 12.0601 3.16185 12.0096C3.13 11.975 3.11598 11.9277 3.12044 11.8683C3.13127 11.7187 3.20837 11.6631 3.40525 11.6631C3.67733 11.6643 3.94494 11.665 4.21191 11.665L6.24385 11.6637C6.49745 11.6637 6.75104 11.6637 7.00464 11.6643C7.12443 11.6643 7.21682 11.6937 7.26397 11.7468C7.29391 11.78 7.30666 11.8242 7.30092 11.8772C7.28563 12.0275 7.20089 12.0882 7.00846 12.0882H7.00719Z" fill="#94A8B2"/>
<path d="M15.6382 9.61341C15.5318 9.61341 15.426 9.61341 15.3196 9.61341C15.2259 9.61341 15.1597 9.59295 15.1195 9.55267C15.0858 9.51879 15.0692 9.467 15.0698 9.3986C15.0698 9.34745 15.0718 9.19274 15.3081 9.19146C15.5809 9.19018 15.8536 9.18954 16.1263 9.18954C16.399 9.18954 16.6781 9.19018 16.954 9.19146C17.112 9.1921 17.1929 9.26179 17.1942 9.39796C17.1948 9.46573 17.1782 9.51687 17.1445 9.55139C17.1037 9.59231 17.0368 9.61341 16.945 9.61341H15.6395H15.6382Z" fill="#94A8B2"/>
<path d="M18.4482 9.61472C18.438 9.61472 18.4272 9.61472 18.4163 9.61408C18.4042 9.61408 18.3921 9.61344 18.38 9.61344H18.322C17.955 9.61344 17.9232 9.51179 17.9219 9.4063C17.9213 9.34685 17.9353 9.30402 17.9659 9.27333C18.0207 9.21771 18.1347 9.19086 18.315 9.19086H18.3717C18.3832 9.19086 18.394 9.19086 18.4055 9.19086C18.5247 9.19341 18.6164 9.2241 18.6642 9.2778C18.6941 9.31169 18.7069 9.35452 18.7024 9.4063C18.6897 9.55079 18.6113 9.61472 18.4476 9.61472H18.4482Z" fill="#94A8B2"/>
<path d="M13.8606 9.61344C13.5962 9.6096 13.5611 9.50411 13.5618 9.40182C13.5624 9.30529 13.5975 9.19405 13.8651 9.19021C13.9039 9.19021 13.9428 9.18893 13.9817 9.18893C14.018 9.18893 14.0537 9.18893 14.0894 9.19021C14.1512 9.19213 14.2346 9.20556 14.285 9.25926C14.3187 9.2957 14.3347 9.34748 14.3321 9.41397C14.327 9.54567 14.248 9.61216 14.097 9.61216C14.097 9.61216 14.0543 9.61216 14.0377 9.61216H13.8906H13.86L13.8606 9.61344Z" fill="#94A8B2"/>
</svg>
