<svg width="46" height="45" viewBox="0 0 46 45" fill="none" xmlns="http://www.w3.org/2000/svg">
<rect x="0.726562" width="45" height="45" rx="10" fill="#023773"/>
<g clip-path="url(#clip0_6522_32180)">
<path d="M33.64 17.689H9.41783C9.18772 17.689 9 17.8767 9 18.1007V29.7274C9 29.9575 9.18772 30.1452 9.41178 30.1452H25.8829C26.113 30.1452 26.3007 29.9575 26.3007 29.7274C26.3007 29.4973 26.113 29.3096 25.8829 29.3096H9.82961V18.5186H33.2222V19.5541C33.2222 19.7842 33.4099 19.9719 33.634 19.9719C33.8641 19.9719 34.0518 19.7842 34.0518 19.5601V18.1068C34.0518 17.8767 33.8701 17.689 33.64 17.689Z" fill="white"/>
<path d="M30.8254 15.7632L11.4477 11.4032C11.3387 11.379 11.2297 11.3971 11.1328 11.4577C11.042 11.5183 10.9754 11.6091 10.9512 11.7181L9.98227 16.0781C9.93382 16.3021 10.0731 16.5262 10.2972 16.5746C10.5212 16.6231 10.7453 16.4838 10.7937 16.2597L11.6718 12.3055L30.6438 16.5746C30.6741 16.5807 30.7043 16.5867 30.7346 16.5867C30.9647 16.5867 31.1524 16.399 31.1464 16.1689C31.1464 15.9751 31.0132 15.8056 30.8254 15.7632Z" fill="white"/>
<path d="M28.4679 13.3591L16.8413 8.51463C16.6414 8.42986 16.4053 8.51463 16.3084 8.71447L15.3395 10.6522C15.2305 10.8521 15.3032 11.1064 15.5091 11.2154C15.7089 11.3244 15.9632 11.2517 16.0722 11.0459C16.0783 11.0398 16.0783 11.0277 16.0843 11.0216L16.8776 9.42902L28.147 14.1221C28.3589 14.2129 28.6011 14.11 28.692 13.898C28.7828 13.6921 28.6799 13.4499 28.4679 13.3591Z" fill="white"/>
<path d="M28.767 19.6267H24.9217C24.6916 19.6267 24.5039 19.8144 24.5039 20.0445C24.5039 20.2747 24.6916 20.4624 24.9217 20.4624H28.767C28.9971 20.4624 29.1848 20.2747 29.1848 20.0445C29.1848 19.8144 28.9911 19.6267 28.767 19.6267Z" fill="white"/>
<path d="M21.0444 19.657C18.6887 19.657 16.7812 21.5645 16.7812 23.9201C16.7812 26.2757 18.6887 28.1832 21.0444 28.1832C23.4 28.1832 25.3075 26.2757 25.3075 23.9201C25.3075 21.5645 23.3939 19.657 21.0444 19.657ZM21.0444 27.4081C19.1187 27.4081 17.5564 25.8457 17.5564 23.9201C17.5564 21.9944 19.1187 20.4321 21.0444 20.4321C22.97 20.4321 24.5323 21.9944 24.5323 23.9201C24.5323 25.8457 22.97 27.4081 21.0444 27.4081Z" fill="white"/>
<path d="M32.6726 21.0134C30.1051 21.0134 27.3438 21.619 27.3438 22.9512V34.5778C27.3438 35.9101 30.1051 36.5156 32.6726 36.5156C35.2402 36.5156 38.0015 35.9101 38.0015 34.5778V22.9512C38.0015 21.619 35.2402 21.0134 32.6726 21.0134ZM37.0326 34.5718C36.96 34.8382 35.5066 35.5467 32.6726 35.5467C29.8386 35.5467 28.3853 34.8382 28.3126 34.5778V33.8148C29.3421 34.3356 31.0437 34.5778 32.6726 34.5778C34.3016 34.5778 36.0032 34.3356 37.0326 33.8148V34.5718ZM37.0326 32.634C36.96 32.9005 35.5066 33.609 32.6726 33.609C29.8386 33.609 28.3853 32.9005 28.3126 32.6401V31.8771C29.3421 32.3978 31.0437 32.6401 32.6726 32.6401C34.3016 32.6401 36.0032 32.3978 37.0326 31.8771V32.634ZM37.0326 30.6962C36.96 30.9627 35.5066 31.6712 32.6726 31.6712C29.8386 31.6712 28.3853 30.9627 28.3126 30.7023V29.9393C29.3421 30.4601 31.0437 30.7023 32.6726 30.7023C34.3016 30.7023 36.0032 30.4601 37.0326 29.9393V30.6962ZM37.0326 28.7585C36.96 29.0249 35.5066 29.7334 32.6726 29.7334C29.8386 29.7334 28.3853 29.0249 28.3126 28.7645V28.0015C29.3421 28.5223 31.0437 28.7645 32.6726 28.7645C34.3016 28.7645 36.0032 28.5223 37.0326 28.0015V28.7585ZM37.0326 26.8207C36.96 27.0871 35.5066 27.7956 32.6726 27.7956C29.8386 27.7956 28.3853 27.0871 28.3126 26.8267V26.0638C29.3421 26.5785 31.0437 26.8267 32.6726 26.8267C34.3016 26.8267 36.0032 26.5845 37.0326 26.0638V26.8207ZM37.0326 24.8829C36.96 25.1494 35.5066 25.8579 32.6726 25.8579C29.8386 25.8579 28.3853 25.1494 28.3126 24.889V24.126C29.3421 24.6407 31.0437 24.889 32.6726 24.889C34.3016 24.889 36.0032 24.6468 37.0326 24.126V24.8829ZM32.6726 23.9201C29.8447 23.9201 28.3914 23.2176 28.3126 22.9573C28.3914 22.6848 29.8447 21.9823 32.6726 21.9823C35.4824 21.9823 36.9357 22.6787 37.0326 22.9512C36.9357 23.2237 35.4824 23.9201 32.6726 23.9201Z" fill="white"/>
<path d="M17.1687 27.3778H13.5051L11.7671 25.4763V22.3274L13.6867 20.4563H17.1687C17.3988 20.4563 17.5865 20.2685 17.5865 20.0384C17.5865 19.8083 17.3988 19.6206 17.1687 19.6206H13.5172C13.4082 19.6206 13.3052 19.663 13.2265 19.7357L11.0647 21.849C10.9859 21.9459 10.9375 22.061 10.9375 22.1882V25.6338C10.9375 25.7367 10.9738 25.8396 11.0465 25.9123L13.0146 28.0681C13.0933 28.1529 13.2023 28.2013 13.3234 28.2013H17.1687C17.3988 28.2013 17.5865 28.0136 17.5865 27.7835C17.5865 27.5534 17.3927 27.3778 17.1687 27.3778Z" fill="white"/>
<path d="M20.0859 22.176H22.3265V22.8603H20.9155V23.702H22.2357V24.3802H20.9155V25.8578H20.0859V22.176Z" fill="white"/>
</g>
<defs>
<clipPath id="clip0_6522_32180">
<rect width="29" height="29" fill="white" transform="translate(9 8)"/>
</clipPath>
</defs>
</svg>
