<svg width="341" height="138" viewBox="0 0 341 138" fill="none" xmlns="http://www.w3.org/2000/svg">
<path d="M120.32 45.8023L124.577 45.5785C124.636 46.9379 124.867 47.854 125.273 48.329C125.926 49.1016 127.132 49.49 128.892 49.49C130.355 49.49 131.414 49.2282 132.066 48.7026C132.719 48.177 133.045 47.5416 133.045 46.7986C133.045 46.1548 132.778 45.6081 132.245 45.1627C131.868 44.8355 130.839 44.3057 129.153 43.5711C127.467 42.8365 126.235 42.2243 125.461 41.7346C124.684 41.2428 124.073 40.6074 123.629 39.8243C123.185 39.0412 122.962 38.125 122.962 37.0738C122.962 35.2395 123.625 33.7175 124.949 32.508C126.273 31.2985 128.193 30.6948 130.704 30.6948C133.215 30.6948 135.23 31.2942 136.63 32.4932C138.03 33.6922 138.798 35.2901 138.937 37.2828L134.651 37.477C134.542 36.4363 134.167 35.6384 133.525 35.0833C132.883 34.5281 131.933 34.2495 130.677 34.2495C129.42 34.2495 128.559 34.4669 128.029 34.9038C127.5 35.3408 127.235 35.8896 127.235 36.5545C127.235 37.1794 127.477 37.6944 127.961 38.1018C128.446 38.5177 129.519 39.0876 131.18 39.8116C133.681 40.8924 135.274 41.7705 135.956 42.4439C136.975 43.436 137.484 44.7088 137.484 46.2667C137.484 48.1897 136.727 49.834 135.209 51.1977C133.691 52.5613 131.578 53.2431 128.869 53.2431C126.999 53.2431 125.381 52.9286 124.012 52.2995C122.642 51.6705 121.676 50.7945 121.114 49.6757C120.552 48.557 120.289 47.2672 120.329 45.8086L120.32 45.8023Z" fill="#023773"/>
<path d="M128.862 53.5557C126.957 53.5557 125.277 53.2285 123.873 52.5826C122.444 51.9261 121.417 50.9931 120.823 49.8131C120.238 48.6479 119.962 47.2969 120.004 45.794L120.013 45.5027L124.877 45.2473L124.892 45.566C124.949 46.8452 125.157 47.7064 125.513 48.1244C126.1 48.821 127.237 49.1735 128.891 49.1735C130.274 49.1735 131.276 48.9307 131.868 48.4558C132.447 47.9893 132.729 47.4468 132.729 46.7988C132.729 46.2478 132.504 45.7919 132.04 45.4056C131.796 45.1924 131.078 44.7554 129.024 43.8625C127.332 43.1258 126.075 42.501 125.288 42.0029C124.471 41.4857 123.818 40.806 123.351 39.9806C122.882 39.1532 122.642 38.1737 122.642 37.0719C122.642 35.1531 123.345 33.5383 124.732 32.2717C126.111 31.0137 128.119 30.3741 130.7 30.3741C133.28 30.3741 135.379 31.0052 136.829 32.2485C138.288 33.5003 139.101 35.1847 139.246 37.2555L139.269 37.5785L134.362 37.8001L134.331 37.5025C134.23 36.5357 133.897 35.8201 133.312 35.3156C132.731 34.8132 131.843 34.5599 130.67 34.5599C129.498 34.5599 128.691 34.7562 128.224 35.1425C127.767 35.5183 127.546 35.9784 127.546 36.5484C127.546 37.0803 127.746 37.5067 128.159 37.8529C128.62 38.2497 129.677 38.8091 131.299 39.5163C133.859 40.6224 135.455 41.5047 136.17 42.214C137.246 43.2609 137.791 44.6246 137.791 46.2605C137.791 48.2679 136.989 50.0073 135.411 51.4258C133.84 52.8359 131.636 53.5514 128.86 53.5514L128.862 53.5557ZM120.631 46.1022C120.634 47.3814 120.888 48.5318 121.387 49.526C121.915 50.5751 122.84 51.4089 124.136 52.0063C125.458 52.6142 127.047 52.9224 128.862 52.9224C131.478 52.9224 133.539 52.2617 134.992 50.9593C136.431 49.6653 137.162 48.0864 137.162 46.2647C137.162 44.7829 136.692 43.6071 135.73 42.6699C135.078 42.0261 133.503 41.1606 131.049 40.101C129.342 39.3579 128.264 38.7817 127.75 38.3405C127.197 37.8761 126.913 37.2745 126.913 36.5526C126.913 35.7927 127.218 35.1552 127.822 34.657C128.416 34.1673 129.346 33.9309 130.67 33.9309C131.994 33.9309 133.026 34.237 133.724 34.8407C134.364 35.3937 134.764 36.1684 134.92 37.1457L138.587 36.9811C138.397 35.2333 137.669 33.8063 136.419 32.734C135.084 31.5899 133.16 31.0116 130.7 31.0116C128.239 31.0116 126.416 31.5942 125.157 32.7425C123.89 33.8992 123.273 35.3177 123.273 37.074C123.273 38.064 123.484 38.9379 123.898 39.6682C124.315 40.4028 124.896 41.0086 125.624 41.4688C126.382 41.948 127.612 42.558 129.274 43.2821C131.007 44.0356 132.045 44.5739 132.449 44.9243C133.051 45.4267 133.358 46.06 133.358 46.7988C133.358 47.6389 132.99 48.3629 132.261 48.9497C131.546 49.526 130.443 49.8068 128.889 49.8068C127.041 49.8068 125.742 49.3783 125.029 48.5339C124.608 48.04 124.359 47.1787 124.275 45.9101L120.629 46.1022H120.631Z" fill="#023773"/>
<path d="M154.134 48.0483H145.519L142.909 52.8674H138.311L150.607 31.0642H155.574L159.104 52.8674H154.863L154.137 48.0483H154.134ZM153.585 44.4197L152.324 35.6448L147.074 44.4197H153.585Z" fill="#023773"/>
<path d="M159.472 53.1819H154.589L153.863 48.3628H145.706L143.096 53.1819H137.77L150.421 30.7455H155.841L159.475 53.1819H159.472ZM155.132 52.5487H158.732L155.305 31.3787H150.789L138.852 52.5487H142.721L145.331 47.7295H154.408L155.134 52.5487H155.132ZM153.949 44.7342H146.516L152.509 34.716L153.949 44.7342ZM147.632 44.101H153.221L152.139 36.5694L147.632 44.101Z" fill="#023773"/>
<path d="M161.771 52.8655L166.324 31.0623H181.541L180.77 34.7056H170.033L168.936 39.9406H179.465L178.71 43.584H168.18L166.252 52.8633H161.773L161.771 52.8655Z" fill="#023773"/>
<path d="M166.508 53.1819H161.384L166.07 30.7455H181.933L181.028 35.0221H170.29L169.326 39.6238H179.855L178.967 43.9004H168.438L166.51 53.1798L166.508 53.1819ZM162.161 52.5487H165.994L167.922 43.2693H178.451L179.076 40.2592H168.545L169.774 34.3909H180.512L181.15 31.3808H166.579L162.159 52.5508L162.161 52.5487Z" fill="#023773"/>
<path d="M180.384 52.8655L184.922 31.0623H201.042L200.287 34.7056H188.644L187.606 39.6577H198.864L198.108 43.3011H186.853L185.489 49.22H198.14L197.369 52.8633H180.388L180.384 52.8655Z" fill="#023773"/>
<path d="M197.622 53.1819H179.997L184.668 30.7455H201.434L200.545 35.0221H188.903L187.998 39.3409H199.253L198.365 43.6176H187.103L185.884 48.9032H198.527L197.622 53.1798V53.1819ZM180.773 52.5487H197.11L197.748 49.5386H185.091L186.602 42.9864H197.853L198.478 39.9763H187.221L188.391 34.3909H200.034L200.659 31.3808H185.183L180.778 52.5508L180.773 52.5487Z" fill="#023773"/>
<path d="M205.21 52.8655H200.73L205.283 31.0623H214.939C216.6 31.0623 217.892 31.2332 218.816 31.5752C219.74 31.9172 220.488 32.5441 221.056 33.456C221.624 34.3679 221.908 35.474 221.908 36.7722C221.908 38.6255 221.355 40.1559 220.248 41.3612C219.14 42.5665 217.465 43.3116 215.221 43.5987C215.794 44.1138 216.332 44.7935 216.838 45.6357C217.835 47.3413 218.949 49.7498 220.174 52.8633H215.368C214.983 51.6348 214.227 49.716 213.099 47.107C212.487 45.699 211.834 44.7513 211.141 44.2658C210.716 43.9787 209.975 43.8351 208.917 43.8351H207.091L205.208 52.8633L205.21 52.8655ZM207.776 40.5654H210.148C212.55 40.5654 214.145 40.4219 214.93 40.1348C215.716 39.8477 216.332 39.396 216.777 38.7817C217.221 38.1675 217.444 37.5236 217.444 36.8482C217.444 36.0545 217.122 35.4592 216.48 35.0624C216.084 34.8238 215.229 34.7056 213.914 34.7056H208.99L207.774 40.5654H207.776Z" fill="#023773"/>
<path d="M220.639 53.1819H215.139L215.07 52.9603C214.689 51.7465 213.929 49.8193 212.813 47.2356C212.226 45.8889 211.605 44.977 210.963 44.5274C210.712 44.3585 210.15 44.1537 208.919 44.1537H207.351L205.467 53.1819H200.343L205.029 30.7455H214.939C216.629 30.7455 217.97 30.9249 218.926 31.2774C219.913 31.6426 220.719 32.3202 221.324 33.2891C221.921 34.2474 222.225 35.4211 222.225 36.7741C222.225 38.7013 221.637 40.3183 220.48 41.5764C219.433 42.7141 217.89 43.4677 215.891 43.8181C216.318 44.2804 216.724 44.8355 217.107 45.473C218.111 47.1871 219.242 49.6336 220.467 52.7471L220.637 53.1798L220.639 53.1819ZM215.6 52.5487H219.709C218.562 49.6716 217.505 47.4024 216.564 45.7981C216.08 44.9896 215.558 44.3289 215.009 43.835L214.495 43.3727L215.179 43.2841C217.337 43.0075 218.964 42.2877 220.014 41.1457C221.06 40.0059 221.591 38.5346 221.591 36.772C221.591 35.5393 221.319 34.4796 220.787 33.6226C220.258 32.7761 219.56 32.1872 218.705 31.8706C217.819 31.5434 216.552 31.3766 214.937 31.3766H205.538L201.118 52.5466H204.951L206.835 43.5184H208.915C210.047 43.5184 210.832 43.6767 211.316 44.0039C212.068 44.5316 212.744 45.5047 213.388 46.9802C214.449 49.4351 215.192 51.3054 215.598 52.5466L215.6 52.5487ZM210.15 40.8819H207.389L208.736 34.3888H213.916C215.301 34.3888 216.194 34.5197 216.644 34.7899C217.387 35.248 217.762 35.9403 217.762 36.8459C217.762 37.5847 217.518 38.2982 217.034 38.9652C216.554 39.628 215.882 40.122 215.04 40.4302C214.213 40.7341 212.613 40.8798 210.148 40.8798L210.15 40.8819ZM208.165 40.2486H210.15C212.506 40.2486 214.078 40.1093 214.826 39.837C215.548 39.5731 216.12 39.1552 216.524 38.5958C216.926 38.0385 217.13 37.4517 217.13 36.848C217.13 36.1662 216.865 35.6701 216.316 35.3324C216.082 35.191 215.474 35.0221 213.916 35.0221H209.249L208.165 40.2486Z" fill="#023773"/>
<path d="M234.038 2.14105C234.09 2.20846 234.145 2.28219 234.206 2.36013L234.038 2.14105Z" fill="#2C2829"/>
<path d="M234.211 2.36484C234.28 2.4551 234.355 2.55165 234.428 2.6503L234.211 2.36484Z" fill="#2C2829"/>
<path d="M236.737 5.53324L234.442 2.66879C234.518 2.768 234.596 2.86932 234.667 2.96431C229.748 3.4287 221.257 5.22717 221.257 5.22717L219.966 4.04086C225.626 1.59858 233.764 1.78434 233.764 1.78434C233.764 1.78434 233.859 1.90677 233.998 2.09041L232.651 0.196959C232.651 0.196959 194.919 -4.04801 161.22 26.8763H196.108C203.89 16.9615 216.522 8.75233 236.739 5.53324H236.737ZM211.727 6.30582L214.38 7.67156C214.38 7.67156 209.109 9.49535 204.812 11.9482C203.629 11.2664 200.476 10.5107 200.476 10.5107C205.779 7.88687 211.727 6.30793 211.727 6.30793V6.30582ZM177.976 23.9464C183.708 18.2344 190.587 14.857 190.587 14.857C190.587 14.857 193.454 15.467 196.14 16.0074C190.444 19.0977 186.251 23.9485 186.251 23.9485H177.974L177.976 23.9464Z" fill="#2C2829"/>
<path d="M137.823 56.4643C133.43 64.055 129.357 72.6547 125.749 82.4048H186.189C186.189 82.4048 183.232 70.7676 184.769 56.4643H137.823ZM158.62 79.3166H148.624L152.198 69.9127H161.603C161.469 70.128 158.62 79.3166 158.62 79.3166ZM163.927 63.0692H155.114L157.612 58.5836H165.508L163.929 63.0692H163.927Z" fill="#2C2829"/>
<path d="M148.624 79.3145H158.62C158.62 79.3145 161.468 70.1259 161.603 69.9106H152.198L148.624 79.3145Z" fill="white"/>
<path d="M155.113 63.0671H163.927L165.506 58.5794H157.61L155.113 63.0671Z" fill="white"/>
<path d="M196.142 16.0075C193.454 15.4692 190.589 14.8571 190.589 14.8571C190.589 14.8571 183.71 18.2345 177.978 23.9465H186.255C186.255 23.9465 190.446 19.0957 196.144 16.0054L196.142 16.0075Z" fill="white"/>
<path d="M214.379 7.67158L211.727 6.30585C211.727 6.30585 205.778 7.88689 200.476 10.5086C200.476 10.5086 203.629 11.2622 204.812 11.9461C207.176 10.8316 214.379 7.66947 214.379 7.66947V7.67158Z" fill="white"/>
<path d="M234.429 2.64978L234.446 2.67128C234.446 2.67128 234.434 2.65695 234.429 2.64978Z" fill="white"/>
<path d="M234 2.09058L234.038 2.14154C234.026 2.12455 234.013 2.10756 234 2.09058Z" fill="white"/>
<path d="M219.968 4.04281L221.258 5.22912C221.258 5.22912 229.75 3.43066 234.669 2.96627C234.595 2.87128 234.52 2.76996 234.444 2.67075L234.429 2.65175C234.353 2.55465 234.28 2.45755 234.21 2.36467H234.208C234.147 2.28235 234.092 2.21058 234.04 2.14092L234.002 2.09026C233.863 1.90872 233.768 1.78418 233.768 1.78418C233.768 1.78418 227.388 1.52876 219.97 4.0407L219.968 4.04281Z" fill="white"/>
<path d="M18.7706 110.806C18.7706 110.588 18.737 110.393 18.67 110.22C18.6085 110.041 18.4912 109.879 18.3179 109.733C18.1447 109.582 17.9016 109.434 17.5887 109.289C17.2757 109.144 16.8706 108.993 16.3732 108.836C15.82 108.658 15.2947 108.456 14.7973 108.233C14.3056 108.009 13.8697 107.75 13.4897 107.453C13.1153 107.152 12.8191 106.802 12.6011 106.406C12.3888 106.009 12.2826 105.548 12.2826 105.022C12.2826 104.514 12.3944 104.053 12.6179 103.639C12.8414 103.22 13.1544 102.863 13.5567 102.566C13.9591 102.265 14.4341 102.033 14.9817 101.871C15.535 101.709 16.1413 101.628 16.8007 101.628C17.7004 101.628 18.4856 101.79 19.1562 102.114C19.8268 102.438 20.3465 102.882 20.7153 103.447C21.0897 104.011 21.2769 104.656 21.2769 105.383H18.779C18.779 105.025 18.7035 104.712 18.5526 104.444C18.4073 104.17 18.1838 103.955 17.882 103.799C17.5859 103.642 17.2115 103.564 16.7588 103.564C16.3229 103.564 15.9597 103.631 15.6691 103.765C15.3785 103.894 15.1606 104.07 15.0153 104.293C14.87 104.511 14.7973 104.757 14.7973 105.031C14.7973 105.238 14.8476 105.425 14.9482 105.592C15.0544 105.76 15.2109 105.917 15.4176 106.062C15.6244 106.207 15.8787 106.344 16.1804 106.473C16.4822 106.601 16.8315 106.727 17.2282 106.85C17.8932 107.051 18.4772 107.277 18.9801 107.529C19.4887 107.78 19.9134 108.062 20.2543 108.375C20.5951 108.688 20.8522 109.043 21.0254 109.44C21.1987 109.837 21.2853 110.287 21.2853 110.79C21.2853 111.32 21.1819 111.795 20.9751 112.215C20.7684 112.634 20.4694 112.989 20.0782 113.279C19.6871 113.57 19.2204 113.79 18.6784 113.941C18.1363 114.092 17.53 114.168 16.8594 114.168C16.2559 114.168 15.6607 114.089 15.0739 113.933C14.4872 113.771 13.9535 113.528 13.4729 113.204C12.9979 112.88 12.6179 112.466 12.3329 111.963C12.0479 111.46 11.9054 110.865 11.9054 110.178H14.4285C14.4285 110.558 14.4872 110.879 14.6045 111.142C14.7219 111.404 14.8867 111.617 15.0991 111.779C15.317 111.941 15.5741 112.058 15.8703 112.131C16.172 112.203 16.5017 112.24 16.8594 112.24C17.2953 112.24 17.6529 112.178 17.9323 112.055C18.2173 111.932 18.4269 111.762 18.561 111.544C18.7007 111.326 18.7706 111.08 18.7706 110.806ZM33.0206 107.613V108.191C33.0206 109.119 32.8949 109.951 32.6434 110.689C32.3919 111.427 32.0371 112.055 31.5789 112.575C31.1206 113.089 30.573 113.483 29.9359 113.757C29.3044 114.031 28.6031 114.168 27.8319 114.168C27.0663 114.168 26.365 114.031 25.728 113.757C25.0965 113.483 24.5488 113.089 24.085 112.575C23.6212 112.055 23.2607 111.427 23.0037 110.689C22.7522 109.951 22.6265 109.119 22.6265 108.191V107.613C22.6265 106.679 22.7522 105.847 23.0037 105.115C23.2551 104.377 23.61 103.748 24.0682 103.229C24.5321 102.709 25.0797 102.312 25.7112 102.038C26.3482 101.765 27.0496 101.628 27.8152 101.628C28.5863 101.628 29.2877 101.765 29.9191 102.038C30.5562 102.312 31.1038 102.709 31.5621 103.229C32.0259 103.748 32.3836 104.377 32.635 105.115C32.8921 105.847 33.0206 106.679 33.0206 107.613ZM30.4808 108.191V107.596C30.4808 106.948 30.4221 106.378 30.3047 105.886C30.1874 105.394 30.0141 104.981 29.785 104.645C29.5559 104.31 29.2765 104.058 28.9468 103.891C28.6171 103.718 28.2399 103.631 27.8152 103.631C27.3905 103.631 27.0132 103.718 26.6835 103.891C26.3594 104.058 26.0828 104.31 25.8537 104.645C25.6302 104.981 25.4597 105.394 25.3424 105.886C25.225 106.378 25.1663 106.948 25.1663 107.596V108.191C25.1663 108.834 25.225 109.404 25.3424 109.901C25.4597 110.393 25.633 110.809 25.8621 111.15C26.0912 111.485 26.3706 111.74 26.7003 111.913C27.03 112.086 27.4072 112.173 27.8319 112.173C28.2566 112.173 28.6338 112.086 28.9635 111.913C29.2933 111.74 29.5699 111.485 29.7934 111.15C30.0169 110.809 30.1874 110.393 30.3047 109.901C30.4221 109.404 30.4808 108.834 30.4808 108.191ZM41.9059 109.951H44.4123C44.362 110.773 44.1357 111.502 43.7333 112.139C43.3365 112.776 42.7805 113.274 42.0652 113.631C41.3555 113.989 40.5005 114.168 39.5002 114.168C38.7178 114.168 38.0165 114.034 37.3962 113.765C36.7759 113.491 36.245 113.1 35.8036 112.592C35.3677 112.083 35.0352 111.469 34.8061 110.748C34.5769 110.027 34.4624 109.219 34.4624 108.325V107.479C34.4624 106.584 34.5797 105.777 34.8144 105.056C35.0547 104.33 35.3956 103.712 35.8371 103.203C36.2842 102.695 36.8178 102.304 37.4381 102.03C38.0584 101.756 38.7514 101.619 39.517 101.619C40.534 101.619 41.3918 101.804 42.0904 102.172C42.7945 102.541 43.3393 103.05 43.7249 103.698C44.1161 104.346 44.3508 105.084 44.429 105.911H41.9143C41.8864 105.419 41.7886 105.003 41.6209 104.662C41.4533 104.316 41.199 104.056 40.8581 103.882C40.5228 103.704 40.0758 103.614 39.517 103.614C39.0978 103.614 38.7318 103.692 38.4189 103.849C38.1059 104.005 37.8433 104.243 37.6309 104.561C37.4186 104.88 37.2593 105.282 37.1531 105.769C37.0525 106.249 37.0022 106.814 37.0022 107.462V108.325C37.0022 108.957 37.0497 109.513 37.1448 109.993C37.2398 110.468 37.385 110.871 37.5806 111.2C37.7818 111.524 38.0389 111.77 38.3518 111.938C38.6703 112.1 39.0531 112.181 39.5002 112.181C40.0255 112.181 40.4586 112.097 40.7995 111.93C41.1404 111.762 41.4002 111.513 41.579 111.184C41.7634 110.854 41.8724 110.443 41.9059 109.951ZM48.7376 101.795V114H46.2312V101.795H48.7376ZM59.2826 112.039V114H52.7863V112.039H59.2826ZM53.6077 101.795V114H51.093V101.795H53.6077ZM58.436 106.766V108.677H52.7863V106.766H58.436ZM59.2742 101.795V103.765H52.7863V101.795H59.2742ZM54.1861 101.074L55.8291 98.4926H58.4528L56.1476 101.074H54.1861ZM66.3741 101.795V114H63.8678V101.795H66.3741ZM70.1294 101.795V103.765H60.1711V101.795H70.1294ZM79.7524 112.039V114H73.256V112.039H79.7524ZM74.0775 101.795V114H71.5628V101.795H74.0775ZM78.9058 106.766V108.677H73.256V106.766H78.9058ZM79.744 101.795V103.765H73.256V101.795H79.744ZM74.6559 101.074L76.2988 98.4926H78.9225L76.6174 101.074H74.6559ZM90.4567 103.882L87.1373 114H84.4633L88.9981 101.795H90.6998L90.4567 103.882ZM93.2145 114L89.8867 103.882L89.6184 101.795H91.3368L95.8968 114H93.2145ZM93.0636 109.457V111.427H86.6175V109.457H93.0636ZM103.617 101.795H106.123V109.859C106.123 110.798 105.922 111.589 105.52 112.231C105.123 112.874 104.573 113.357 103.868 113.681C103.17 114.006 102.365 114.168 101.454 114.168C100.543 114.168 99.7332 114.006 99.0235 113.681C98.3193 113.357 97.7661 112.874 97.3638 112.231C96.967 111.589 96.7686 110.798 96.7686 109.859V101.795H99.2833V109.859C99.2833 110.407 99.3699 110.854 99.5432 111.2C99.7164 111.547 99.9651 111.801 100.289 111.963C100.619 112.125 101.007 112.206 101.454 112.206C101.913 112.206 102.301 112.125 102.62 111.963C102.944 111.801 103.19 111.547 103.357 111.2C103.53 110.854 103.617 110.407 103.617 109.859V101.795ZM113.651 101.795V114H111.144V101.795H113.651ZM117.406 101.795V103.765H107.448V101.795H117.406ZM128.63 107.613V108.191C128.63 109.119 128.504 109.951 128.253 110.689C128.001 111.427 127.646 112.055 127.188 112.575C126.73 113.089 126.182 113.483 125.545 113.757C124.914 114.031 124.213 114.168 123.441 114.168C122.676 114.168 121.974 114.031 121.337 113.757C120.706 113.483 120.158 113.089 119.694 112.575C119.231 112.055 118.87 111.427 118.613 110.689C118.362 109.951 118.236 109.119 118.236 108.191V107.613C118.236 106.679 118.362 105.847 118.613 105.115C118.865 104.377 119.219 103.748 119.678 103.229C120.141 102.709 120.689 102.312 121.321 102.038C121.958 101.765 122.659 101.628 123.425 101.628C124.196 101.628 124.897 101.765 125.529 102.038C126.166 102.312 126.713 102.709 127.171 103.229C127.635 103.748 127.993 104.377 128.244 105.115C128.501 105.847 128.63 106.679 128.63 107.613ZM126.09 108.191V107.596C126.09 106.948 126.031 106.378 125.914 105.886C125.797 105.394 125.624 104.981 125.394 104.645C125.165 104.31 124.886 104.058 124.556 103.891C124.226 103.718 123.849 103.631 123.425 103.631C123 103.631 122.623 103.718 122.293 103.891C121.969 104.058 121.692 104.31 121.463 104.645C121.24 104.981 121.069 105.394 120.952 105.886C120.834 106.378 120.776 106.948 120.776 107.596V108.191C120.776 108.834 120.834 109.404 120.952 109.901C121.069 110.393 121.242 110.809 121.471 111.15C121.701 111.485 121.98 111.74 122.31 111.913C122.639 112.086 123.017 112.173 123.441 112.173C123.866 112.173 124.243 112.086 124.573 111.913C124.903 111.74 125.179 111.485 125.403 111.15C125.626 110.809 125.797 110.393 125.914 109.901C126.031 109.404 126.09 108.834 126.09 108.191ZM140.374 101.795V114H137.859L132.955 105.819V114H130.441V101.795H132.955L137.867 109.985V101.795H140.374ZM152.587 107.613V108.191C152.587 109.119 152.461 109.951 152.21 110.689C151.958 111.427 151.603 112.055 151.145 112.575C150.687 113.089 150.139 113.483 149.502 113.757C148.871 114.031 148.169 114.168 147.398 114.168C146.633 114.168 145.931 114.031 145.294 113.757C144.663 113.483 144.115 113.089 143.651 112.575C143.187 112.055 142.827 111.427 142.57 110.689C142.318 109.951 142.193 109.119 142.193 108.191V107.613C142.193 106.679 142.318 105.847 142.57 105.115C142.821 104.377 143.176 103.748 143.634 103.229C144.098 102.709 144.646 102.312 145.277 102.038C145.914 101.765 146.616 101.628 147.381 101.628C148.153 101.628 148.854 101.765 149.485 102.038C150.122 102.312 150.67 102.709 151.128 103.229C151.592 103.748 151.95 104.377 152.201 105.115C152.458 105.847 152.587 106.679 152.587 107.613ZM150.047 108.191V107.596C150.047 106.948 149.988 106.378 149.871 105.886C149.754 105.394 149.58 104.981 149.351 104.645C149.122 104.31 148.843 104.058 148.513 103.891C148.183 103.718 147.806 103.631 147.381 103.631C146.957 103.631 146.579 103.718 146.25 103.891C145.926 104.058 145.649 104.31 145.42 104.645C145.196 104.981 145.026 105.394 144.909 105.886C144.791 106.378 144.733 106.948 144.733 107.596V108.191C144.733 108.834 144.791 109.404 144.909 109.901C145.026 110.393 145.199 110.809 145.428 111.15C145.657 111.485 145.937 111.74 146.267 111.913C146.596 112.086 146.973 112.173 147.398 112.173C147.823 112.173 148.2 112.086 148.53 111.913C148.86 111.74 149.136 111.485 149.36 111.15C149.583 110.809 149.754 110.393 149.871 109.901C149.988 109.404 150.047 108.834 150.047 108.191ZM155.546 101.795H157.675L160.81 110.756L163.945 101.795H166.074L161.665 114H159.955L155.546 101.795ZM154.397 101.795H156.518L156.904 110.53V114H154.397V101.795ZM165.102 101.795H167.231V114H164.716V110.53L165.102 101.795ZM177.625 112.039V114H171.129V112.039H177.625ZM171.95 101.795V114H169.435V101.795H171.95ZM176.778 106.766V108.677H171.129V106.766H176.778ZM177.617 101.795V103.765H171.129V101.795H177.617ZM187.114 114H184.457L184.473 112.039H187.114C187.773 112.039 188.329 111.89 188.782 111.594C189.235 111.292 189.576 110.854 189.805 110.278C190.039 109.703 190.157 109.007 190.157 108.191V107.596C190.157 106.97 190.09 106.42 189.956 105.945C189.827 105.47 189.634 105.07 189.377 104.746C189.12 104.422 188.804 104.179 188.43 104.017C188.056 103.849 187.625 103.765 187.139 103.765H184.406V101.795H187.139C187.955 101.795 188.701 101.935 189.377 102.214C190.059 102.488 190.648 102.882 191.146 103.396C191.643 103.91 192.026 104.525 192.294 105.24C192.568 105.95 192.705 106.741 192.705 107.613V108.191C192.705 109.057 192.568 109.848 192.294 110.563C192.026 111.279 191.643 111.893 191.146 112.407C190.654 112.916 190.064 113.31 189.377 113.589C188.695 113.863 187.941 114 187.114 114ZM185.882 101.795V114H183.367V101.795H185.882ZM202.722 112.039V114H196.226V112.039H202.722ZM197.047 101.795V114H194.532V101.795H197.047ZM201.875 106.766V108.677H196.226V106.766H201.875ZM202.713 101.795V103.765H196.226V101.795H202.713ZM210.979 101.795V114H208.464V101.795H210.979ZM215.84 107.009V108.971H210.291V107.009H215.84ZM216.427 101.795V103.765H210.291V101.795H216.427ZM220.56 101.795V114H218.053V101.795H220.56ZM232.848 101.795V114H230.333L225.43 105.819V114H222.915V101.795H225.43L230.342 109.985V101.795H232.848ZM240.149 103.882L236.83 114H234.156L238.691 101.795H240.392L240.149 103.882ZM242.907 114L239.579 103.882L239.311 101.795H241.029L245.589 114H242.907ZM242.756 109.457V111.427H236.31V109.457H242.756ZM256.654 101.795V114H254.139L249.236 105.819V114H246.721V101.795H249.236L254.148 109.985V101.795H256.654ZM265.917 109.951H268.423C268.373 110.773 268.146 111.502 267.744 112.139C267.347 112.776 266.791 113.274 266.076 113.631C265.366 113.989 264.511 114.168 263.511 114.168C262.729 114.168 262.027 114.034 261.407 113.765C260.787 113.491 260.256 113.1 259.814 112.592C259.378 112.083 259.046 111.469 258.817 110.748C258.588 110.027 258.473 109.219 258.473 108.325V107.479C258.473 106.584 258.59 105.777 258.825 105.056C259.065 104.33 259.406 103.712 259.848 103.203C260.295 102.695 260.829 102.304 261.449 102.03C262.069 101.756 262.762 101.619 263.528 101.619C264.545 101.619 265.403 101.804 266.101 102.172C266.805 102.541 267.35 103.05 267.736 103.698C268.127 104.346 268.361 105.084 268.44 105.911H265.925C265.897 105.419 265.799 105.003 265.632 104.662C265.464 104.316 265.21 104.056 264.869 103.882C264.534 103.704 264.086 103.614 263.528 103.614C263.109 103.614 262.743 103.692 262.43 103.849C262.117 104.005 261.854 104.243 261.642 104.561C261.429 104.88 261.27 105.282 261.164 105.769C261.063 106.249 261.013 106.814 261.013 107.462V108.325C261.013 108.957 261.06 109.513 261.155 109.993C261.25 110.468 261.396 110.871 261.591 111.2C261.793 111.524 262.05 111.77 262.363 111.938C262.681 112.1 263.064 112.181 263.511 112.181C264.036 112.181 264.469 112.097 264.81 111.93C265.151 111.762 265.411 111.513 265.59 111.184C265.774 110.854 265.883 110.443 265.917 109.951ZM278.264 112.039V114H271.768V112.039H278.264ZM272.589 101.795V114H270.074V101.795H272.589ZM277.417 106.766V108.677H271.768V106.766H277.417ZM278.255 101.795V103.765H271.768V101.795H278.255ZM280.879 101.795H283.008L286.143 110.756L289.278 101.795H291.407L286.998 114H285.288L280.879 101.795ZM279.731 101.795H281.852L282.237 110.53V114H279.731V101.795ZM290.435 101.795H292.564V114H290.049V110.53L290.435 101.795ZM302.958 112.039V114H296.462V112.039H302.958ZM297.283 101.795V114H294.769V101.795H297.283ZM302.112 106.766V108.677H296.462V106.766H302.112ZM302.95 101.795V103.765H296.462V101.795H302.95ZM314.358 101.795V114H311.844L306.94 105.819V114H304.425V101.795H306.94L311.852 109.985V101.795H314.358ZM321.752 101.795V114H319.245V101.795H321.752ZM325.507 101.795V103.765H315.549V101.795H325.507ZM73.5746 134H70.9173L70.9341 132.039H73.5746C74.234 132.039 74.79 131.89 75.2427 131.594C75.6953 131.292 76.0362 130.854 76.2653 130.278C76.5 129.703 76.6174 129.007 76.6174 128.191V127.596C76.6174 126.97 76.5503 126.42 76.4162 125.945C76.2877 125.47 76.0949 125.07 75.8378 124.746C75.5807 124.422 75.265 124.179 74.8906 124.017C74.5162 123.849 74.0859 123.765 73.5997 123.765H70.8671V121.795H73.5997C74.4156 121.795 75.1616 121.935 75.8378 122.214C76.5196 122.488 77.1091 122.882 77.6065 123.396C78.1038 123.91 78.4866 124.525 78.7549 125.24C79.0287 125.95 79.1656 126.741 79.1656 127.613V128.191C79.1656 129.057 79.0287 129.848 78.7549 130.563C78.4866 131.279 78.1038 131.893 77.6065 132.407C77.1147 132.916 76.5252 133.31 75.8378 133.589C75.156 133.863 74.4016 134 73.5746 134ZM72.3424 121.795V134H69.8276V121.795H72.3424ZM89.1826 132.039V134H82.6862V132.039H89.1826ZM83.5077 121.795V134H80.993V121.795H83.5077ZM88.3359 126.766V128.677H82.6862V126.766H88.3359ZM89.1742 121.795V123.765H82.6862V121.795H89.1742ZM102.77 132.039V134H96.6261V132.039H102.77ZM97.4392 121.795V134H94.9245V121.795H97.4392ZM106.266 121.125V122.399C106.266 122.762 106.196 123.136 106.056 123.522C105.922 123.908 105.741 124.274 105.511 124.62C105.282 124.961 105.031 125.252 104.757 125.492L103.625 124.838C103.832 124.508 104.008 124.151 104.153 123.765C104.299 123.374 104.371 122.921 104.371 122.407V121.125H106.266ZM116.341 132.039V134H109.845V132.039H116.341ZM110.667 121.795V134H108.152V121.795H110.667ZM115.495 126.766V128.677H109.845V126.766H115.495ZM116.333 121.795V123.765H109.845V121.795H116.333ZM127.741 121.795V134H125.227L120.323 125.819V134H117.808V121.795H120.323L125.235 129.985V121.795H127.741ZM135.135 121.795V134H132.628V121.795H135.135ZM138.89 121.795V123.765H128.932V121.795H138.89ZM140.323 121.795H144.875C145.808 121.795 146.61 121.935 147.281 122.214C147.957 122.494 148.477 122.907 148.84 123.455C149.203 124.003 149.385 124.676 149.385 125.475C149.385 126.129 149.273 126.691 149.049 127.16C148.832 127.624 148.521 128.012 148.119 128.325C147.722 128.632 147.256 128.878 146.719 129.063L145.923 129.482H141.966L141.95 127.52H144.892C145.333 127.52 145.699 127.442 145.99 127.286C146.281 127.129 146.498 126.911 146.644 126.632C146.795 126.352 146.87 126.028 146.87 125.66C146.87 125.268 146.797 124.93 146.652 124.645C146.507 124.36 146.286 124.142 145.99 123.991C145.694 123.841 145.322 123.765 144.875 123.765H142.838V134H140.323V121.795ZM147.147 134L144.364 128.56L147.021 128.543L149.837 133.883V134H147.147ZM159.511 132.039V134H153.014V132.039H159.511ZM153.836 121.795V134H151.321V121.795H153.836ZM158.664 126.766V128.677H153.014V126.766H158.664ZM159.502 121.795V123.765H153.014V121.795H159.502ZM166.602 121.795V134H164.096V121.795H166.602ZM170.357 121.795V123.765H160.399V121.795H170.357ZM174.465 121.795V134H171.959V121.795H174.465ZM185.01 132.039V134H178.514V132.039H185.01ZM179.335 121.795V134H176.82V121.795H179.335ZM184.163 126.766V128.677H178.514V126.766H184.163ZM185.002 121.795V123.765H178.514V121.795H185.002ZM196.41 121.795V134H193.895L188.992 125.819V134H186.477V121.795H188.992L193.904 129.985V121.795H196.41ZM202.873 121.795H207.424C208.358 121.795 209.16 121.935 209.83 122.214C210.506 122.494 211.026 122.907 211.389 123.455C211.752 124.003 211.934 124.676 211.934 125.475C211.934 126.129 211.822 126.691 211.599 127.16C211.381 127.624 211.071 128.012 210.668 128.325C210.272 128.632 209.805 128.878 209.268 129.063L208.472 129.482H204.516L204.499 127.52H207.441C207.883 127.52 208.249 127.442 208.539 127.286C208.83 127.129 209.048 126.911 209.193 126.632C209.344 126.352 209.419 126.028 209.419 125.66C209.419 125.268 209.347 124.93 209.201 124.645C209.056 124.36 208.835 124.142 208.539 123.991C208.243 123.841 207.871 123.765 207.424 123.765H205.387V134H202.873V121.795ZM209.696 134L206.913 128.56L209.57 128.543L212.387 133.883V134H209.696ZM223.896 127.613V128.191C223.896 129.119 223.77 129.951 223.519 130.689C223.267 131.427 222.912 132.055 222.454 132.575C221.996 133.089 221.448 133.483 220.811 133.757C220.18 134.031 219.478 134.168 218.707 134.168C217.941 134.168 217.24 134.031 216.603 133.757C215.972 133.483 215.424 133.089 214.96 132.575C214.496 132.055 214.136 131.427 213.879 130.689C213.627 129.951 213.502 129.119 213.502 128.191V127.613C213.502 126.679 213.627 125.847 213.879 125.115C214.13 124.377 214.485 123.748 214.943 123.229C215.407 122.709 215.955 122.312 216.586 122.038C217.223 121.765 217.925 121.628 218.69 121.628C219.461 121.628 220.163 121.765 220.794 122.038C221.431 122.312 221.979 122.709 222.437 123.229C222.901 123.748 223.259 124.377 223.51 125.115C223.767 125.847 223.896 126.679 223.896 127.613ZM221.356 128.191V127.596C221.356 126.948 221.297 126.378 221.18 125.886C221.063 125.394 220.889 124.981 220.66 124.645C220.431 124.31 220.152 124.058 219.822 123.891C219.492 123.718 219.115 123.631 218.69 123.631C218.266 123.631 217.888 123.718 217.559 123.891C217.235 124.058 216.958 124.31 216.729 124.645C216.505 124.981 216.335 125.394 216.217 125.886C216.1 126.378 216.041 126.948 216.041 127.596V128.191C216.041 128.834 216.1 129.404 216.217 129.901C216.335 130.393 216.508 130.809 216.737 131.15C216.966 131.485 217.246 131.74 217.575 131.913C217.905 132.086 218.282 132.173 218.707 132.173C219.132 132.173 219.509 132.086 219.839 131.913C220.168 131.74 220.445 131.485 220.669 131.15C220.892 130.809 221.063 130.393 221.18 129.901C221.297 129.404 221.356 128.834 221.356 128.191ZM232.446 121.795H234.952V129.859C234.952 130.798 234.751 131.589 234.349 132.231C233.952 132.874 233.401 133.357 232.697 133.681C231.999 134.006 231.194 134.168 230.283 134.168C229.372 134.168 228.562 134.006 227.852 133.681C227.148 133.357 226.595 132.874 226.193 132.231C225.796 131.589 225.597 130.798 225.597 129.859V121.795H228.112V129.859C228.112 130.407 228.199 130.854 228.372 131.2C228.545 131.547 228.794 131.801 229.118 131.963C229.448 132.125 229.836 132.206 230.283 132.206C230.741 132.206 231.13 132.125 231.448 131.963C231.772 131.801 232.018 131.547 232.186 131.2C232.359 130.854 232.446 130.407 232.446 129.859V121.795ZM242.479 121.795V134H239.973V121.795H242.479ZM246.235 121.795V123.765H236.277V121.795H246.235ZM250.342 121.795V134H247.836V121.795H250.342ZM260.887 132.039V134H254.391V132.039H260.887ZM255.212 121.795V134H252.698V121.795H255.212ZM260.041 126.766V128.677H254.391V126.766H260.041ZM260.879 121.795V123.765H254.391V121.795H260.879ZM262.354 121.795H266.906C267.839 121.795 268.641 121.935 269.311 122.214C269.988 122.494 270.507 122.907 270.871 123.455C271.234 124.003 271.415 124.676 271.415 125.475C271.415 126.129 271.304 126.691 271.08 127.16C270.862 127.624 270.552 128.012 270.15 128.325C269.753 128.632 269.286 128.878 268.75 129.063L267.954 129.482H263.997L263.98 127.52H266.923C267.364 127.52 267.73 127.442 268.021 127.286C268.311 127.129 268.529 126.911 268.674 126.632C268.825 126.352 268.901 126.028 268.901 125.66C268.901 125.268 268.828 124.93 268.683 124.645C268.538 124.36 268.317 124.142 268.021 123.991C267.724 123.841 267.353 123.765 266.906 123.765H264.869V134H262.354V121.795ZM269.177 134L266.394 128.56L269.052 128.543L271.868 133.883V134H269.177Z" fill="#023773"/>
</svg>
