<svg width="73" height="73" viewBox="0 0 73 73" fill="none" xmlns="http://www.w3.org/2000/svg">
<circle cx="36.5" cy="36.5" r="36" stroke="#023773"/>
<path d="M20.3265 52C20.1463 52 20 51.8537 20 51.6735V39.1347C20 38.9544 20.1463 38.8082 20.3265 38.8082H22.0898V37.0449C22.0898 36.8647 22.2361 36.7184 22.4163 36.7184H23.1347V20.3265C23.1347 20.1463 23.281 20 23.4612 20H34.9551C35.1353 20 35.2816 20.1463 35.2816 20.3265V22.0898H37.0449C37.2251 22.0898 37.3714 22.2361 37.3714 22.4163V36.7184H49.5837C49.7639 36.7184 49.9102 36.8647 49.9102 37.0449V38.8082H51.6735C51.8537 38.8082 52 38.9544 52 39.1347V51.6735C52 51.8537 51.8537 52 51.6735 52H20.3265ZM20.6531 51.3469H51.3469V39.4612H49.9102V49.5837C49.9102 49.7639 49.7639 49.9102 49.5837 49.9102H22.4163C22.2361 49.9102 22.0898 49.7639 22.0898 49.5837V39.4612H20.6531V51.3469ZM22.7429 49.2571H49.2571V37.3714H47.8204V40.1796C47.8204 40.3598 47.6741 40.5061 47.4939 40.5061H45.7306V42.2694C45.7306 42.4496 45.5843 42.5959 45.4041 42.5959H26.5959C26.4157 42.5959 26.2694 42.4496 26.2694 42.2694V40.5061H24.5061C24.3259 40.5061 24.1796 40.3598 24.1796 40.1796V37.3714H22.7429V49.2571ZM26.9224 41.9429H45.0775V40.5061H26.9224V41.9429ZM24.8327 39.8531H47.1673V37.3714H24.8327V39.8531ZM33.9102 24.1796C34.0904 24.1796 34.2367 24.3259 34.2367 24.5061C34.2367 24.9025 34.5587 25.2245 34.9551 25.2245C35.1353 25.2245 35.2816 25.3708 35.2816 25.551V36.7184H36.7184V22.7429H25.8776V36.7184H27.3143V25.551C27.3143 25.3708 27.4606 25.2245 27.6408 25.2245C28.0372 25.2245 28.3592 24.9025 28.3592 24.5061C28.3592 24.3259 28.5055 24.1796 28.6857 24.1796H33.9102ZM28.9345 24.9633C28.7974 25.3499 28.4846 25.6627 28.098 25.7998L27.9673 25.8462V36.719H34.6286V36.5231V25.8462L34.498 25.7998C34.1113 25.6627 33.7985 25.3499 33.6614 24.9633L33.615 24.8327H28.9796L28.9332 24.9633H28.9345ZM23.7878 36.7184H25.2245V22.4163C25.2245 22.2361 25.3708 22.0898 25.551 22.0898H34.6286V20.6531H23.7878V36.7184Z" fill="#023773"/>
<path d="M36 47.8204C34.9557 47.8204 34.1061 46.9707 34.1061 45.9265C34.1061 44.8823 34.9557 44.0326 36 44.0326C37.0442 44.0326 37.8939 44.8823 37.8939 45.9265C37.8939 46.9707 37.0442 47.8204 36 47.8204ZM36 44.6857C35.3156 44.6857 34.7592 45.2421 34.7592 45.9265C34.7592 46.6109 35.3156 47.1673 36 47.1673C36.6844 47.1673 37.2408 46.6109 37.2408 45.9265C37.2408 45.2421 36.6844 44.6857 36 44.6857Z" fill="#023773"/>
<path d="M31.2979 29.0122C30.5417 29.0122 29.9265 28.397 29.9265 27.6408C29.9265 26.8845 30.5417 26.2693 31.2979 26.2693C32.0542 26.2693 32.6694 26.8845 32.6694 27.6408C32.6694 28.397 32.0542 29.0122 31.2979 29.0122ZM31.2979 26.9224C30.9015 26.9224 30.5796 27.2444 30.5796 27.6408C30.5796 28.0372 30.9015 28.3591 31.2979 28.3591C31.6944 28.3591 32.0163 28.0372 32.0163 27.6408C32.0163 27.2444 31.6944 26.9224 31.2979 26.9224Z" fill="#023773"/>
<path d="M32.5388 35.8042V34.1715C32.5388 33.9194 32.3337 33.7144 32.0816 33.7144C31.8296 33.7144 31.6245 33.9194 31.6245 34.1715V34.694C31.6245 35.3059 31.1262 35.8042 30.5143 35.8042C29.9892 35.8042 29.5314 35.4306 29.4269 34.916L29.3949 34.7593H28.8816V34.1062H29.4041V33.0613H30.0571V34.694C30.0571 34.9461 30.2622 35.1511 30.5143 35.1511C30.7664 35.1511 30.9714 34.9461 30.9714 34.694V34.1715C30.9714 33.5596 31.4697 33.0613 32.0816 33.0613C32.6067 33.0613 33.0645 33.4349 33.169 33.9495L33.201 34.1062H33.7143V34.7593H33.1918V35.8042H32.5388Z" fill="#023773"/>
<path d="M44.0326 34.2367V33.1918H42.4653V32.5387H44.8816C45.278 32.5387 45.6 32.2168 45.6 31.8204C45.6 31.424 45.278 31.102 44.8816 31.102H43.8367C43.0805 31.102 42.4653 30.4868 42.4653 29.7306C42.4653 28.9743 43.0805 28.3592 43.8367 28.3592H44.0326V27.3143H44.6857V28.3592H46.253V29.0122H43.8367C43.4403 29.0122 43.1183 29.3342 43.1183 29.7306C43.1183 30.127 43.4403 30.4489 43.8367 30.4489H44.8816C45.6379 30.4489 46.253 31.0641 46.253 31.8204C46.253 32.5766 45.6379 33.1918 44.8816 33.1918H44.6857V34.2367H44.0326Z" fill="#023773"/>
<path d="M44.3592 36.3266C41.2983 36.3266 38.8082 33.8365 38.8082 30.7756C38.8082 29.2526 39.4188 27.8303 40.527 26.7697L40.5662 26.7325L40.5806 26.6802C40.9064 25.5001 41.5922 24.4853 42.5619 23.7454C43.5344 23.0041 44.6975 22.6123 45.9265 22.6123C48.9874 22.6123 51.4775 25.1024 51.4775 28.1633C51.4775 29.666 50.8499 31.1276 49.7548 32.1744L49.7162 32.2117L49.7019 32.2632C49.0344 34.6554 46.8375 36.3266 44.3592 36.3266ZM44.3592 25.8776C41.6581 25.8776 39.4612 28.0752 39.4612 30.7756C39.4612 33.476 41.6581 35.6735 44.3592 35.6735C47.0602 35.6735 49.2571 33.476 49.2571 30.7756C49.2571 28.0752 47.0602 25.8776 44.3592 25.8776ZM44.3592 25.2245C47.245 25.2245 49.6738 27.4796 49.8886 30.3589L49.9396 31.042L50.2576 30.4353C50.6286 29.7281 50.8245 28.9424 50.8245 28.1633C50.8245 25.4629 48.6276 23.2654 45.9265 23.2654C44.2978 23.2654 42.782 24.0693 41.871 25.4152L41.4877 25.9821L42.1133 25.7039C42.829 25.3859 43.5853 25.2245 44.3598 25.2245H44.3592Z" fill="#023773"/>
</svg>
