<svg width="73" height="73" viewBox="0 0 73 73" fill="none" xmlns="http://www.w3.org/2000/svg">
<circle cx="36.5" cy="36.5" r="36" stroke="#F1F1F1"/>
<path d="M28.345 51.7821C28.4872 49.764 28.7203 47.813 29.508 45.9816C29.8635 45.1534 30.3241 44.401 31.1402 43.9636C31.3222 43.8644 31.5326 43.8148 31.7289 43.7448C31.9791 43.6544 32.1469 43.7536 32.2976 43.9694C32.8066 44.6926 33.3298 45.4042 33.8786 46.1624C34.3222 45.8008 34.7459 45.4567 35.2094 45.0776C35.6417 45.4275 36.0767 45.7775 36.5374 46.1479C37.0663 45.4159 37.5838 44.7189 38.0758 44.0044C38.2691 43.7244 38.471 43.6515 38.7895 43.7478C39.6312 43.9956 40.1715 44.5964 40.5895 45.3371C41.38 46.734 41.6672 48.2884 41.8862 49.8574C41.9744 50.4814 42.0142 51.1143 42.0824 51.7821H28.345Z" fill="white"/>
<path d="M21.9611 46.4366C22.0777 44.6256 22.2995 42.8525 23.1554 41.2339C23.4824 40.6128 23.9346 40.0908 24.6568 39.9566C24.8189 39.9274 25.0748 40.0178 25.1772 40.1462C25.618 40.7003 26.0189 41.2864 26.4511 41.8843C26.8265 41.581 27.1763 41.301 27.5346 41.0094C27.89 41.2952 28.2312 41.5693 28.5867 41.8551C29.1924 41.2339 29.5194 40.3824 30.1763 39.8633C31.0066 41.1698 31.4218 42.6483 32.6104 43.6224C32.7526 43.739 32.8009 43.9782 32.8919 44.1619L32.7981 44.226C32.7042 44.1036 32.5905 43.9927 32.5222 43.8586C32.3203 43.462 31.999 43.4241 31.6265 43.5115C30.7763 43.7128 30.1933 44.2756 29.7526 45.0047C29.5251 45.3809 29.3658 45.8008 29.1497 46.1858C29.0815 46.3083 28.9222 46.4599 28.8028 46.4599C26.5848 46.4803 24.3668 46.4803 22.1488 46.4832C22.0976 46.4832 22.0436 46.4599 21.9583 46.4366H21.9611Z" fill="white"/>
<path d="M38.0645 43.503C38.7981 42.7302 39.3242 41.934 39.6654 41.0008C39.799 40.6363 40.0777 40.3301 40.3536 39.9043C40.8085 40.5313 41.2919 41.1933 41.7981 41.8903C42.1649 41.5928 42.5118 41.3099 42.8787 41.0154C43.237 41.3012 43.5867 41.5812 43.9592 41.8786C44.3829 41.2954 44.7981 40.7354 45.1934 40.1638C45.3554 39.9305 45.5175 39.8635 45.7962 39.9451C46.4844 40.1434 46.9194 40.6334 47.2521 41.2312C47.8663 42.3365 48.1137 43.5613 48.2929 44.8007C48.3697 45.3373 48.4009 45.8768 48.4578 46.4455C48.29 46.4572 48.1678 46.4747 48.0455 46.4747C45.9697 46.4834 43.8938 46.4805 41.818 46.5038C41.4768 46.5068 41.3602 46.3697 41.2066 46.0781C40.8597 45.4277 40.49 44.7774 40.0237 44.2146C39.5573 43.6488 38.8976 43.3776 38.0673 43.5001L38.0645 43.503Z" fill="white"/>
<path d="M35.3289 44.4157C33.5062 44.3253 32.3545 43.3688 31.5327 41.9135C31.3593 41.6044 31.2598 41.2545 31.1034 40.9337C31.0294 40.7791 30.9214 40.6304 30.7934 40.5196C30.5375 40.2979 30.4522 39.3647 30.6398 39.0702C30.7564 38.8894 30.8361 38.6473 30.8417 38.4315C30.8645 37.3525 31.1375 36.3814 31.9621 35.6523C32.474 35.1974 33.0626 34.9203 33.765 34.9699C33.8474 34.9757 33.9526 34.9845 34.0095 34.9407C34.9337 34.235 35.9574 34.4041 36.9526 34.6403C38.7782 35.0778 39.5233 36.0635 39.6228 37.9912C39.6455 38.4053 39.5915 38.831 39.9128 39.2043C40.1346 39.4639 39.8844 40.3154 39.6313 40.5779C39.5034 40.7091 39.438 40.9133 39.3669 41.0941C38.7697 42.6047 37.8171 43.7537 36.2503 44.2466C35.9204 44.3516 35.565 44.372 35.3289 44.4128V44.4157ZM34.3877 37.7054C33.4721 38.1195 32.6361 38.519 31.7858 38.8748C31.4986 38.9944 31.419 39.146 31.4361 39.4493C31.4901 40.5371 31.8455 41.5111 32.5166 42.3422C33.4294 43.4767 34.5839 44.0833 36.0484 43.6808C37.8398 43.188 39.091 41.1495 39.1052 39.3151C39.1052 39.2218 38.9403 39.0702 38.8294 39.0439C38.4342 38.9535 38.0247 38.9214 37.6266 38.834C36.4749 38.5861 35.3062 38.3907 34.3934 37.7054H34.3877Z" fill="white"/>
<path d="M23.673 36.5885C23.7498 36.4164 23.8351 36.2502 23.8948 36.0752C23.9431 35.9352 23.9801 35.7836 23.9829 35.6348C24.017 34.5004 24.3213 33.4505 25.4275 33.0277C26.69 32.5436 27.9924 32.0945 29.3915 32.6661C30.4635 33.1035 31.0152 33.7917 31.1061 35.0662C31.1289 35.3811 31.1659 35.6961 31.1772 36.014C31.1829 36.1335 31.1431 36.2589 31.1118 36.3756C30.9498 36.9792 30.7848 37.5829 30.6199 38.1866C30.5744 38.3499 30.546 38.5249 30.4635 38.6649C28.9734 41.1379 25.8967 41.0183 24.5431 38.4403C24.418 38.2012 24.3355 37.9387 24.2133 37.6966C24.1422 37.5537 24.0142 37.4371 23.946 37.2913C23.8464 37.0813 23.7753 36.8568 23.673 36.5885ZM30.6711 36.1539C29.3346 35.874 27.9554 35.7806 26.8521 35.0195C26.1384 35.3461 25.4701 35.6757 24.7848 35.9556C24.5061 36.0694 24.4379 36.2152 24.4607 36.4981C24.5346 37.3554 24.8189 38.1224 25.3393 38.7932C26.0929 39.7643 27.2644 40.1901 28.2483 39.8693C29.6815 39.3998 30.7564 37.7754 30.6739 36.1539H30.6711Z" fill="white"/>
<path d="M43.1061 32.3743C44.0047 32.4209 44.7668 32.5697 45.4322 32.9954C46.1374 33.4445 46.3251 34.2028 46.4474 34.9902C46.5156 35.4305 46.6606 35.8592 46.7061 36.3025C46.7431 36.6641 46.8483 37.0724 46.4588 37.3582C46.3507 37.4369 46.3166 37.6265 46.2597 37.7694C45.7763 38.9826 45.0227 39.9158 43.7573 40.3211C42.0483 40.8665 40.5924 39.7554 39.964 38.5247C39.8047 38.2156 39.873 37.7927 39.7962 37.4311C39.708 37.0141 39.6142 36.5883 39.4521 36.1946C38.8948 34.821 40.0635 32.873 41.5052 32.7825C41.7099 32.7709 41.909 32.6542 42.1137 32.6017C42.4777 32.5113 42.8474 32.4326 43.1033 32.3743H43.1061ZM42.2047 35.0135C41.4853 35.3401 40.8313 35.6638 40.1573 35.935C39.8474 36.0604 39.7706 36.2238 39.8047 36.5445C39.8929 37.3349 40.146 38.0494 40.6095 38.6909C41.417 39.8079 42.6967 40.257 43.8284 39.7612C45.0995 39.2042 45.7592 38.1427 46.0009 36.7924C46.1147 36.1596 46.0862 36.1538 45.455 36.0488C45.3441 36.0313 45.2332 36.0138 45.1223 35.9905C44.0957 35.7659 43.0436 35.6259 42.199 35.0164L42.2047 35.0135Z" fill="white"/>
<path d="M40.4474 31.2953C39.3099 31.3041 38.1753 30.403 37.6749 29.1169C37.5497 28.799 37.2227 28.4665 37.2682 28.1895C37.4161 27.3438 37.3251 26.4252 37.8483 25.6698C38.2208 25.1332 38.7185 24.8299 39.3725 24.8212C39.4521 24.8212 39.546 24.8212 39.6142 24.7833C40.6606 24.1942 41.6559 24.4858 42.6028 25.0108C43.146 25.3141 43.3194 25.909 43.4076 26.5068C43.4787 26.9792 43.4502 27.4604 43.7033 27.9125C43.7858 28.0583 43.6208 28.3674 43.5355 28.5861C43.473 28.7523 43.3279 28.8836 43.2654 29.0498C42.7763 30.368 41.6332 31.2866 40.4474 31.2953ZM43.0663 27.65C41.9459 27.4196 40.7801 27.3059 39.8332 26.6964C39.2559 26.9617 38.7298 27.2271 38.1839 27.44C37.891 27.5538 37.7659 27.72 37.8483 28.0145C37.9877 28.5074 38.073 29.0352 38.3147 29.4698C38.8151 30.3709 39.5715 30.9716 40.6493 30.8375C42.0569 30.6625 43.1431 29.2102 43.0663 27.6471V27.65Z" fill="white"/>
<path d="M29.653 24.3984C30.1734 24.5501 30.7421 24.6609 31.2625 24.8855C31.9592 25.1829 32.1668 25.8566 32.2891 26.5594C32.3602 26.9735 32.4796 27.3818 32.5279 27.7988C32.562 28.0992 32.6189 28.4287 32.3118 28.6679C32.2151 28.7437 32.181 28.9128 32.1298 29.0441C31.8824 29.6857 31.5156 30.2339 30.9782 30.6626C29.8692 31.5462 28.4331 31.5287 27.472 30.4789C26.926 29.881 26.5393 29.1141 26.1497 28.385C26.0445 28.1896 26.1895 27.8542 26.2237 27.5859C26.2436 27.4197 26.2862 27.2564 26.2948 27.0902C26.3402 26.1861 26.6218 25.3841 27.4805 25.0196C28.1488 24.7367 28.8767 24.6142 29.6502 24.4014L29.653 24.3984ZM28.6834 26.679C28.2767 26.8802 27.8929 27.0902 27.4976 27.2593C26.582 27.653 26.5564 27.6909 26.8237 28.6766C26.8379 28.732 26.8578 28.7874 26.8748 28.8399C27.5857 30.9659 29.7412 31.5287 31.1203 29.9423C31.6862 29.292 31.9933 28.5279 31.9478 27.6413C30.7791 27.4226 29.6417 27.2943 28.6834 26.679Z" fill="white"/>
<path d="M34.1886 27.6268C34.4246 27.4401 34.6208 27.2826 34.8426 27.1106C35.0559 27.271 35.2635 27.4314 35.5108 27.618C35.7156 27.3351 35.9374 27.0785 36.1023 26.784C36.3071 26.4223 36.5459 26.3524 36.89 26.5623C37.1829 26.7402 37.3165 27.0814 37.1544 27.408C36.8815 27.9534 36.9383 28.3996 37.3108 28.9012C37.635 29.3357 37.8142 29.8811 38.0701 30.4002H31.6635C31.9933 29.8256 32.3687 29.289 32.6132 28.6941C32.7497 28.3588 32.69 27.933 32.6871 27.548C32.6871 27.2739 32.5364 26.9589 32.6274 26.7373C32.7753 26.3699 33.2928 26.3932 33.5374 26.7315C33.7478 27.0202 33.9554 27.3089 34.1886 27.6326V27.6268Z" fill="white"/>
<path d="M39.509 32.491C39.8246 32.2402 40.1118 32.0128 40.4275 31.762C40.7175 31.9923 41.0133 32.2227 41.3403 32.4823C41.6844 32.0069 42.0313 31.5578 42.3384 31.0854C42.5261 30.7967 42.7365 30.7646 43.018 30.8842C43.6237 31.1437 43.9848 31.6307 44.2208 32.144C43.5583 32.1936 42.8929 32.2198 42.236 32.3044C41.9033 32.3452 41.5848 32.5027 41.255 32.5844C40.0152 32.8935 39.2417 33.8121 39.1194 35.139C39.1109 35.2353 39.1052 35.3344 39.091 35.5181C38.218 34.6141 37.1289 34.3924 35.9858 34.2175C36.2019 33.1414 36.4436 32.1003 37.2256 31.2983C37.3507 31.167 37.5099 31.0621 37.6692 30.9775C38.1469 30.7267 38.2521 30.7588 38.5735 31.1991C38.8806 31.622 39.1877 32.0478 39.5118 32.494L39.509 32.491Z" fill="white"/>
<path d="M28.6834 32.2607C28.9393 32.0478 29.1071 31.9049 29.2891 31.7532C29.5877 31.9924 29.872 32.2198 30.2019 32.4852C30.5403 32.0157 30.8872 31.5724 31.1915 31.1C31.3877 30.7967 31.6379 30.715 31.8967 30.9017C32.255 31.1612 32.636 31.4383 32.8834 31.797C33.4663 32.6456 33.6512 33.6517 33.8104 34.6841C32.872 34.7278 32.0872 35.0807 31.382 35.8944C31.3905 33.9375 30.7962 32.529 28.6834 32.2578V32.2607Z" fill="white"/>
<path d="M34.9394 26.7634C33.9839 26.7255 33.4123 26.2239 33 25.4773C32.8635 25.2324 32.7214 24.9903 32.6019 24.7366C32.5564 24.6374 32.5251 24.5091 32.5451 24.4041C32.6389 23.92 32.7128 23.4272 32.8778 22.9693C32.9659 22.7214 33.1792 22.4327 33.4067 22.3336C34.1858 21.9982 34.9763 21.7007 35.8664 21.9778C36.5887 22.2023 36.9128 22.6865 37.0124 23.4068C37.0493 23.6867 37.1289 23.9609 37.1744 24.2408C37.1943 24.3516 37.2142 24.4887 37.1744 24.582C36.782 25.4336 36.4351 26.3347 35.4427 26.6584C35.2578 26.7197 35.0616 26.7401 34.9422 26.7663L34.9394 26.7634ZM36.7706 24.1679C36.2133 24.0367 35.6616 23.9959 35.1924 23.7713C34.6095 23.4913 34.1403 23.538 33.583 23.8384C32.909 24.2029 32.8436 24.2117 33.1024 24.9495C33.2048 25.2411 33.3555 25.5298 33.5432 25.7719C34.0948 26.4776 34.9479 26.6672 35.6389 26.2356C36.3754 25.7777 36.7394 25.0866 36.7678 24.1679H36.7706Z" fill="white"/>
<path d="M28.0549 32.0563C27.0966 32.2955 26.181 32.5229 25.2284 32.7592C25.5327 32.0009 25.8455 31.2923 26.6047 30.9277C26.9431 30.7644 27.2019 30.7878 27.4151 31.1552C27.6 31.4731 27.8388 31.7589 28.0549 32.0563Z" fill="white"/>
<path d="M36.2248 59C35.1158 59 33.9784 58.9038 32.8409 58.7171C26.3803 57.6498 21.3727 54.1794 17.949 48.4081C15.6599 44.5411 14.6959 40.2512 15.0826 35.6493C15.5205 30.4467 17.5907 25.906 21.2333 22.1586C22.6694 20.6801 24.3414 19.4173 26.2068 18.4024L27.4921 19.7264C21.0713 23.2318 17.4883 28.6503 16.8428 35.8447C16.3423 41.4148 17.9888 46.4017 21.7423 50.6624C25.385 54.8006 30.5888 57.1715 36.0229 57.1715C41.457 57.1715 46.0125 55.1039 49.6324 51.3506C53.3291 47.5186 55.3196 42.4764 55.2371 37.1512C55.1547 31.8203 53.0447 26.8742 49.294 23.2201L48.8049 22.7419L46.8741 25.7194L44.6504 18.9332L51.8589 18L49.8343 21.1408L50.1414 21.4762C50.3433 21.7008 50.548 21.9166 50.7499 22.1353C51.1822 22.599 51.5916 23.0393 51.9784 23.503C54.4779 26.4922 56.0817 30.0238 56.7414 33.9987C56.821 34.4741 56.8779 34.9728 56.9319 35.451C56.9575 35.6698 56.9831 35.8914 57.0087 36.1101V38.7114C56.9746 38.9681 56.9461 39.2218 56.9149 39.4784C56.8495 40.0354 56.7812 40.6099 56.6788 41.1553C55.3992 47.9823 51.7452 53.1295 45.8163 56.4512C42.8021 58.1397 39.5774 58.9971 36.2362 58.9971L36.2248 59Z" fill="white"/>
</svg>