<svg width="73" height="73" viewBox="0 0 73 73" fill="none" xmlns="http://www.w3.org/2000/svg">
<circle cx="36.5" cy="36.5" r="36" stroke="#FFFFFF"/>
<path d="M17.5891 52.9998C17.2643 52.9998 17 52.7356 17 52.4107V19.5891C17 19.2643 17.2643 19 17.5891 19H20.9554C21.2803 19 21.5445 19.2643 21.5445 19.5891V23.6287H23.7326V19.5891C23.7326 19.2643 23.9969 19 24.3217 19H36.9454C37.2703 19 37.5346 19.2643 37.5346 19.5891V32.2128C37.5346 32.5377 37.2703 32.8019 36.9454 32.8019H24.3217C23.9969 32.8019 23.7326 32.5377 23.7326 32.2128V28.1732H21.5445V52.4107C21.5445 52.7356 21.2803 52.9998 20.9554 52.9998H17.5891ZM18.1782 51.8216H20.3663V20.1782H18.1782V51.8216ZM24.9109 31.6237H36.3563V20.1782H24.9109V31.6237ZM21.5445 26.995H23.7326V24.8069H21.5445V26.995Z" fill="#FFFFFF"/>
<path d="M58.9949 45.4257C59.3202 45.4257 59.584 45.162 59.584 44.8366C59.584 44.5112 59.3202 44.2475 58.9949 44.2475C58.6695 44.2475 58.4058 44.5112 58.4058 44.8366C58.4058 45.162 58.6695 45.4257 58.9949 45.4257Z" fill="#FFFFFF"/>
<path d="M54.1978 41.2178C53.873 41.2178 53.6087 40.9536 53.6087 40.6287C53.6087 40.3039 53.873 40.0396 54.1978 40.0396H55.6285C55.9533 40.0396 56.2176 40.3039 56.2176 40.6287C56.2176 40.9536 55.9533 41.2178 55.6285 41.2178H54.1978Z" fill="#FFFFFF"/>
<path d="M48.0543 53.0001C47.8995 53.0001 47.748 52.937 47.6377 52.8276C47.5283 52.7181 47.4652 52.5658 47.4652 52.411V45.4259H24.3217C23.9969 45.4259 23.7326 45.1616 23.7326 44.8367V40.6288C23.7326 40.304 23.9969 40.0397 24.3217 40.0397H47.4652V37.2625C47.4652 37.1077 47.5283 36.9562 47.6377 36.8459C47.7471 36.7365 47.8995 36.6734 48.0543 36.6734H53.3563V33.8962C53.3563 33.5714 53.6205 33.3071 53.9454 33.3071H58.9949C59.3197 33.3071 59.584 33.5714 59.584 33.8962V41.0496C59.584 41.3745 59.3197 41.6387 58.9949 41.6387C58.67 41.6387 58.4057 41.3745 58.4057 41.0496V37.8516H48.6434V40.0397H49.1484C50.6329 40.0397 51.8414 41.2482 51.8414 42.7328C51.8414 44.2173 50.6329 45.4259 49.1484 45.4259H48.6434V51.8219H58.4057V48.6239C58.4057 48.299 58.6708 48.0348 58.9949 48.0348C59.3189 48.0348 59.584 48.299 59.584 48.6239V52.411C59.584 52.5658 59.5208 52.7173 59.4114 52.8276C59.302 52.9378 59.1497 53.0001 58.9949 53.0001H48.0543ZM45.9007 44.2476H49.1484C49.9832 44.2476 50.6632 43.5676 50.6632 42.7328C50.6632 41.8979 49.9832 41.218 49.1484 41.218H46.8096L45.9007 44.2476ZM42.5344 44.2476H44.6703L45.5792 41.218H43.4433L42.5344 44.2476ZM38.7473 44.2476H41.304L42.2129 41.218H39.6562L38.7473 44.2476ZM35.3809 44.2476H37.5169L38.4258 41.218H36.2899L35.3809 44.2476ZM31.5938 44.2476H34.1506L35.0595 41.218H32.5027L31.5938 44.2476ZM28.2275 44.2476H30.3634L31.2724 41.218H29.1364L28.2275 44.2476ZM24.9108 44.2476H26.9971L27.906 41.218H24.9108V44.2476ZM54.5345 36.6734H58.4057V34.4853H54.5345V36.6734Z" fill="#FFFFFF"/>
</svg>