<svg width="73" height="73" viewBox="0 0 73 73" fill="none" xmlns="http://www.w3.org/2000/svg">
<circle cx="36.5" cy="36.5" r="36" stroke="#023773"/>
<path d="M26.747 28.9282H23.4331C23.0783 28.9282 22.7912 29.2101 22.7912 29.5584C22.7912 29.9068 23.0783 30.1886 23.4331 30.1886H26.747C27.1018 30.1886 27.3889 29.9068 27.3889 29.5584C27.3889 29.2101 27.1018 28.9282 26.747 28.9282ZM30.4646 37.9456C30.1148 37.9456 29.8301 38.2238 29.8301 38.5684V40.4307C29.8301 40.7741 30.1135 41.0535 30.4646 41.0535C30.8157 41.0535 31.099 40.7753 31.099 40.4307V38.5684C31.099 38.225 30.8157 37.9456 30.4646 37.9456ZM30.4646 33.4369C30.1148 33.4369 29.8301 33.7151 29.8301 34.0597V35.922C29.8301 36.2654 30.1135 36.5448 30.4646 36.5448C30.8157 36.5448 31.099 36.2667 31.099 35.922V34.0597C31.099 33.7163 30.8157 33.4369 30.4646 33.4369ZM30.4646 42.4542C30.1148 42.4542 29.8301 42.7324 29.8301 43.0771V44.9394C29.8301 45.2828 30.1135 45.5622 30.4646 45.5622C30.8157 45.5622 31.099 45.284 31.099 44.9394V43.0771C31.099 42.7337 30.8157 42.4542 30.4646 42.4542ZM30.4646 28.9282C30.1148 28.9282 29.8301 29.2064 29.8301 29.5511V31.4134C29.8301 31.7568 30.1135 32.0362 30.4646 32.0362C30.8157 32.0362 31.099 31.758 31.099 31.4134V29.5511C31.099 29.2076 30.8157 28.9282 30.4646 28.9282ZM26.3633 41.4892H23.0495C22.6946 41.4892 22.4075 41.7711 22.4075 42.1194C22.4075 42.4678 22.6946 42.7497 23.0495 42.7497H26.3633C26.7181 42.7497 27.0053 42.4678 27.0053 42.1194C27.0053 41.7711 26.7181 41.4892 26.3633 41.4892ZM26.3633 43.7811H23.0495C22.6946 43.7811 22.4075 44.063 22.4075 44.4113C22.4075 44.7597 22.6946 45.0415 23.0495 45.0415H26.3633C26.7181 45.0415 27.0053 44.7597 27.0053 44.4113C27.0053 44.063 26.7181 43.7811 26.3633 43.7811ZM49.1303 28.3743H36.8265C36.1457 28.3743 35.5927 28.9184 35.5927 29.5855V30.6478C35.5927 31.3161 36.1469 31.8589 36.8265 31.8589H49.1303C49.8111 31.8589 50.3641 31.3149 50.3641 30.6478V29.5855C50.3641 28.9172 49.8099 28.3743 49.1303 28.3743ZM49.2356 30.6478C49.2356 30.7056 49.188 30.7512 49.1303 30.7512H36.8265C36.7688 30.7512 36.7212 30.7044 36.7212 30.6478V29.5855C36.7212 29.5277 36.7688 29.4821 36.8265 29.4821H49.1303C49.188 29.4821 49.2356 29.5289 49.2356 29.5855V30.6478ZM49.8713 39.6011L48.363 39.4362C48.2439 39.0238 48.0771 38.6262 47.8627 38.2521L48.8118 37.0877C48.9335 36.9387 48.9209 36.7246 48.7843 36.5904L47.4 35.2315C47.2634 35.0973 47.0439 35.085 46.8935 35.2044L45.7086 36.1362C45.3275 35.927 44.9237 35.762 44.5037 35.6451L44.3357 34.1643C44.3144 33.9748 44.1514 33.832 43.957 33.832H41.9998C41.8055 33.832 41.6425 33.9748 41.6211 34.1643L41.4531 35.6451C41.0331 35.762 40.6294 35.927 40.2482 36.1362L39.0633 35.2069C38.9116 35.0875 38.6935 35.0998 38.5568 35.234L37.1726 36.5928C37.0359 36.727 37.0234 36.9424 37.145 37.0901L38.0941 38.2545C37.881 38.6275 37.713 39.025 37.5938 39.4374L36.0855 39.5999C35.8924 39.6208 35.747 39.7808 35.747 39.9716V41.893C35.747 42.0838 35.8924 42.2438 36.0855 42.2647L37.5938 42.4296C37.713 42.842 37.881 43.2383 38.0941 43.6125L37.145 44.7769C37.0234 44.9258 37.0359 45.14 37.1726 45.2742L38.5568 46.633C38.6283 46.7032 38.7248 46.7426 38.8264 46.7426C38.9129 46.7426 38.9956 46.713 39.0633 46.6614L39.7993 46.0841C39.9636 45.9548 39.9899 45.7197 39.8583 45.5585C39.7266 45.3972 39.4871 45.3714 39.3229 45.5006L38.8539 45.8699L37.9512 44.9837L38.8514 43.8796C38.953 43.7553 38.963 43.583 38.8765 43.4476C38.5931 43.0032 38.3875 42.5158 38.2672 42.005C38.2308 41.8499 38.0991 41.7354 37.9386 41.7182L36.508 41.5619V40.3088L37.9399 40.1525C38.1004 40.1353 38.232 40.0196 38.2684 39.8657C38.3888 39.3549 38.5944 38.8675 38.8778 38.4232C38.963 38.289 38.953 38.1154 38.8527 37.9911L37.9524 36.887L38.8552 36.0008L39.9799 36.8833C40.1065 36.983 40.2821 36.9929 40.42 36.908C40.8726 36.6298 41.3691 36.4279 41.8895 36.3098C42.0474 36.2741 42.164 36.1448 42.1816 35.9873L42.3408 34.5828H43.6172L43.7765 35.9885C43.794 36.146 43.9119 36.2753 44.0686 36.311C44.5889 36.4291 45.0855 36.631 45.5381 36.9092C45.6748 36.9929 45.8516 36.983 45.9782 36.8846L47.1029 36.0008L48.0069 36.887L47.1066 37.9911C47.0051 38.1154 46.995 38.2878 47.0816 38.4232C47.3649 38.8675 47.5705 39.3549 47.6909 39.8657C47.7273 40.0208 47.8589 40.1353 48.0194 40.1525L49.45 40.3088V41.5619L48.0182 41.7182C47.8577 41.7354 47.726 41.8511 47.6897 42.005C47.5693 42.5158 47.3637 43.0032 47.0803 43.4476C46.995 43.5817 47.0051 43.7553 47.1054 43.8796L48.0056 44.9837L47.1029 45.8699L46.6427 45.508C46.6427 45.508 46.6377 45.5031 46.6339 45.5019C46.4684 45.3751 46.229 45.4046 46.0998 45.5671C45.9707 45.7296 46.0008 45.9647 46.1663 46.0915L46.8935 46.6638C47.0452 46.7832 47.2634 46.7709 47.4 46.6367L48.7843 45.2779C48.9209 45.1437 48.9335 44.9283 48.8118 44.7806L47.8627 43.6162C48.0758 43.2432 48.2439 42.8457 48.363 42.4333L49.8713 42.2684C50.0644 42.2475 50.2099 42.0874 50.2099 41.8967V39.9753C50.2099 39.7845 50.0644 39.6245 49.8713 39.6036V39.6011ZM42.9778 38.689C41.7164 38.689 40.6933 39.6934 40.6933 40.9317C40.6933 41.1384 40.8638 41.3058 41.0745 41.3058C41.2851 41.3058 41.4556 41.1384 41.4556 40.9317C41.4556 40.1057 42.1377 39.4374 42.9778 39.4374C43.8178 39.4374 44.4999 40.107 44.4999 40.9317C44.4999 41.1384 44.6704 41.3058 44.8811 41.3058C45.0917 41.3058 45.2623 41.1384 45.2623 40.9317C45.2623 39.6934 44.2391 38.689 42.9778 38.689ZM54.36 36.9633C54.3763 33.7151 57.8758 34.7613 57.9522 32.1494C57.7504 30.2736 58.8976 26.0529 55.8032 26H17.1953C14.0946 26.0554 15.2544 30.2834 15.0475 32.1494C15.1365 34.7798 18.6122 33.6942 18.6397 36.9633C18.6234 40.2116 15.124 39.1654 15.0475 41.7773V46.8903C15.0475 48.0535 16.0117 49 17.1953 49H55.8032C56.988 49 57.9522 48.0535 57.9522 46.8903V41.7773C57.8632 39.1457 54.3876 40.2338 54.36 36.9633ZM43.7401 46.3253V47.891H42.218V46.3241C42.218 46.1789 42.1327 46.0471 41.9985 45.9856C41.7089 45.8564 41.4519 45.668 41.2425 45.4342C40.4375 44.5283 40.5328 43.1521 41.4569 42.3619V43.6359C41.4569 43.8427 41.6274 44.0101 41.8381 44.0101H44.1225C44.3332 44.0101 44.5037 43.8427 44.5037 43.6359V42.3619C44.7432 42.5675 44.9363 42.821 45.0667 43.1054C45.5719 44.2008 45.0779 45.492 43.962 45.9881C43.8279 46.0496 43.7426 46.1813 43.7426 46.3266H43.7401V46.3253ZM56.8238 46.8891C56.8238 47.4417 56.3661 47.891 55.8032 47.891H44.4999V46.5518C45.0516 46.2478 45.4917 45.7801 45.7538 45.2139C46.4371 43.7442 45.7763 42.0099 44.2793 41.3391C44.2291 41.3157 44.1739 41.3046 44.1188 41.3046C43.9081 41.3046 43.7376 41.472 43.7389 41.6788V43.2605H42.2167V41.6788C42.2167 41.6246 42.2042 41.5705 42.1816 41.5212C42.0926 41.3342 41.8669 41.2529 41.6763 41.3403C41.1008 41.5988 40.6231 42.0296 40.3134 42.5712C39.5084 43.9805 40.02 45.7628 41.4556 46.553V47.8922H31.0978V47.5857C31.0978 47.2423 30.8144 46.9629 30.4633 46.9629C30.1123 46.9629 29.8289 47.2411 29.8289 47.5857V47.8922H17.1953C16.6324 47.8922 16.176 47.443 16.176 46.8903V41.7773C16.2851 40.2461 19.6252 40.9058 19.7682 36.9633C19.7682 35.186 18.6122 33.6252 16.8907 33.08C16.4631 32.9446 16.176 32.5704 16.176 32.1494V28.1097C16.176 27.557 16.6336 27.1078 17.1953 27.1078H29.8301V27.2826C29.8301 27.626 30.1135 27.9054 30.4646 27.9054C30.8157 27.9054 31.099 27.6272 31.099 27.2826V27.1078H55.8044C56.3674 27.1078 56.825 27.557 56.825 28.1097V32.1506C56.716 33.6818 53.3758 33.0233 53.2328 36.9646C53.3507 40.8677 56.7385 40.2744 56.825 41.7785V46.8915H56.8238V46.8891Z" fill="#023773"/>
</svg>
