<svg width="73" height="73" viewBox="0 0 73 73" fill="none" xmlns="http://www.w3.org/2000/svg">
<circle cx="36.5" cy="36.5" r="36" stroke="#FFFFFF"/>
<path d="M18.9512 50C18.0913 50 17.2156 49.9882 16.3687 49.9764L15.6092 49.966C15.3547 49.9633 15.172 49.9083 15.0807 49.8088C15.0194 49.7421 14.992 49.6504 14.9998 49.5286C15.0194 49.2209 15.1864 49.1005 15.5948 49.1005C15.9015 49.1005 18.0247 49.1005 18.0247 49.1005V26.9961L17.9138 26.9791C17.3892 26.8979 17.1008 26.8521 16.9886 26.7185C16.875 26.5837 16.875 26.2812 16.875 25.7339V25.0989C16.8737 24.6053 16.8724 24.1116 16.8763 23.6193C16.8828 23.1296 17.0042 23.0026 17.4675 23.0026C20.1701 23.0026 22.8713 23 25.5739 23C28.2765 23 31.1083 23 33.8761 23.0026C34.3146 23.0026 34.4555 23.144 34.4595 23.5827C34.4647 24.2465 34.4634 24.9221 34.4621 25.5755V26.1686C34.4608 26.8377 34.3981 26.9018 33.7169 26.9307C33.6504 26.9333 33.5838 26.9424 33.5147 26.9516C33.4807 26.9568 33.4442 26.9608 33.4064 26.966L33.2915 26.9791V34.0456H35.1407C35.7683 34.0456 36.5122 34.0456 37.2782 34.0378C37.4622 34.0365 37.6514 33.9278 37.7584 33.8217C39.3374 32.244 40.9399 30.6335 42.4876 29.078L43.9192 27.639C44.1149 27.4426 44.3159 27.2383 44.5208 27.0472C44.8248 26.7644 45.2098 26.6072 45.6039 26.6072C45.998 26.6072 46.3764 26.7644 46.6648 27.0498C47.2638 27.6442 47.2756 28.5673 46.6948 29.1984C46.3073 29.6187 45.8936 30.0312 45.4943 30.4292C45.3807 30.5431 45.2659 30.6557 45.1524 30.7697C44.586 31.3379 44.0197 31.9049 43.4533 32.4718C41.9656 33.9618 40.4271 35.5016 38.9211 37.0231C38.7685 37.1776 38.6145 37.4355 38.6132 37.6634C38.6001 40.8372 38.6014 44.0634 38.6027 47.1836V48.671C38.6027 48.7247 38.608 48.7784 38.6145 48.8425C38.6171 48.8727 38.621 48.9067 38.6236 48.9434L38.6328 49.0638H41.2884L41.0417 46.7528L40.8421 46.7162C40.7546 46.7005 40.6515 46.6821 40.5497 46.6625C39.9416 46.5473 39.511 46.1256 39.3975 45.5351C39.2787 44.9197 39.5227 44.3554 40.0343 44.0634C40.3762 43.867 40.4401 43.6183 40.4297 43.304C40.401 42.4673 40.3723 41.6019 40.9882 40.8621L41.0626 40.773L40.6046 40.2834C40.3214 39.9809 40.0408 39.6811 39.7615 39.3799C39.4118 39.0002 39.528 38.7959 39.6702 38.6611C39.7589 38.5747 39.8477 38.5341 39.9403 38.5341C40.0708 38.5341 40.2196 38.6179 40.3814 38.7828C40.5706 38.9766 40.7572 39.1743 40.9634 39.3917C41.06 39.4938 41.4397 39.8945 41.4397 39.8945L41.4919 39.6522C41.552 39.3734 41.6081 39.101 41.6629 38.8352C41.7908 38.2172 41.9108 37.6345 42.0544 37.0571C42.1483 36.6827 42.2854 36.1995 42.5216 35.7766C42.9339 35.0381 43.5799 34.6636 44.4425 34.6636C45.4081 34.6663 46.3673 34.6663 47.3264 34.6663H51.3418C52.7512 34.6663 53.5368 35.2699 53.8917 36.6264C54.0379 37.1881 54.1593 37.7681 54.2754 38.3285C54.3315 38.5995 54.3889 38.8719 54.4477 39.1429C54.4659 39.2228 54.4868 39.3027 54.5142 39.4048C54.5286 39.4585 54.5442 39.5174 54.5625 39.5881L54.6212 39.8172L55.5138 38.8666C55.7357 38.6296 55.9288 38.5092 56.0854 38.5092C56.1689 38.5092 56.2472 38.5432 56.3268 38.6139C56.4208 38.6977 56.4664 38.7802 56.4704 38.8706C56.4769 39.0238 56.366 39.2215 56.1324 39.4729C55.8936 39.7295 55.6535 39.9835 55.4016 40.2519L54.954 40.7285L55.031 40.8176C55.6365 41.5207 55.6495 42.3704 55.6639 43.27L55.6665 43.3957C55.6704 43.5908 55.7748 43.8657 55.9431 43.9888C56.3594 44.2926 56.8227 44.8071 56.6609 45.5378C56.5173 46.1872 56.0528 46.5865 55.3168 46.6926C55.2646 46.7004 55.2124 46.707 55.1615 46.7135L54.9918 46.7358L54.7661 49.1018H57.179C57.9371 49.1018 58.005 49.3152 58.0076 49.5326C58.0102 49.653 57.9828 49.7394 57.9215 49.801C57.8106 49.9136 57.5744 49.9686 57.1959 49.9686H51.8534C50.8681 49.9686 49.8829 49.9686 48.8976 49.9686C45.0584 49.9725 41.2179 49.9764 37.3787 49.9817C31.2649 49.9882 25.1511 49.9961 19.036 50.0013H18.9577L18.9512 50ZM44.7544 49.0494H51.2805L51.0534 46.7201H44.9853L44.7544 49.0494ZM18.946 49.0455H32.3546V26.9726H18.9473V49.0455H18.946ZM34.5117 34.8692C33.5121 34.8692 33.2824 35.097 33.2824 36.0882C33.2824 39.1285 33.2824 42.1688 33.2824 45.2091V49.0376H37.7075V38.4044L37.5026 38.5485C37.2625 38.7174 37.1059 38.9269 36.9728 39.1272C36.6466 39.6182 36.0737 39.9351 35.5126 39.9351C35.4095 39.9351 35.3064 39.9246 35.2085 39.9023C34.4464 39.7347 33.8761 39.1665 33.7887 38.4895C33.6908 37.7262 34.0053 37.0624 34.6774 36.6224C35.108 36.3396 35.5113 36.0031 35.9001 35.6784C36.0724 35.5344 36.2447 35.3903 36.4195 35.2502L36.5174 35.1717L36.3177 34.8967L36.2655 34.8875L36.2421 34.8823C36.2173 34.8771 36.1859 34.8705 36.1507 34.8705C35.6339 34.8692 35.1185 34.8679 34.6017 34.8679H34.5104L34.5117 34.8692ZM41.9787 46.8707C41.9787 46.9741 41.9787 47.0749 41.9761 47.1744C41.9735 47.435 41.9709 47.6825 41.9878 47.9299C41.9957 48.0543 42.1366 48.3057 42.2984 48.3096C42.3963 48.3123 42.4942 48.3123 42.592 48.3123C42.8856 48.3123 43.1845 48.3044 43.4716 48.2965C43.5916 48.2939 43.9531 48.2848 43.9531 48.2848L43.9727 47.9496C43.9909 47.6235 44.0092 47.2988 44.0262 46.9728C44.0288 46.9113 43.9988 46.868 43.9753 46.8366C43.9688 46.8275 43.9609 46.817 43.9531 46.8039L43.9153 46.7397H41.9774V46.8707H41.9787ZM52.0269 48.2874H54.0314V46.7502H52.0269V48.2874ZM41.6277 45.8271C42.6742 45.8284 43.7221 45.8297 44.7687 45.8297C45.5426 45.8297 46.3151 45.8297 47.0889 45.8271C48.3978 45.8232 49.7067 45.8166 51.0156 45.8088C52.0465 45.8035 53.0787 45.797 54.1097 45.7931H54.124C54.2532 45.7931 54.3863 45.7996 54.5155 45.8062C54.6473 45.8127 54.783 45.8206 54.9188 45.8206C55.0545 45.8206 55.181 45.8127 55.2946 45.797C55.4538 45.7747 55.5621 45.6255 55.6652 45.4814C55.7043 45.4265 55.7422 45.3754 55.7787 45.3348L55.8675 45.2366L55.7696 45.1489C55.7291 45.1122 55.6887 45.0742 55.6495 45.0363C55.5451 44.9381 55.4381 44.8359 55.3155 44.7535C55.2724 44.7246 55.2202 44.7102 55.1536 44.7102C55.1197 44.7102 55.0819 44.7142 55.0453 44.7181C55.0179 44.7207 54.9918 44.7246 54.967 44.7246H40.9673C40.9478 44.7246 40.9256 44.7207 40.9034 44.7181C40.8708 44.7142 40.8381 44.7102 40.8094 44.7102C40.7481 44.7102 40.6998 44.7246 40.6607 44.7535C40.6398 44.7692 40.6189 44.7836 40.5967 44.7993C40.4467 44.9066 40.2757 45.0284 40.2574 45.1973C40.2339 45.4147 40.4493 45.649 40.5654 45.742C40.6581 45.8166 40.7859 45.8271 40.8995 45.8271C40.9269 45.8271 40.9543 45.8271 40.9817 45.8271C41.0052 45.8271 41.03 45.8271 41.0522 45.8271H41.6303H41.6277ZM45.5491 40.6971C44.7413 40.6971 43.9348 40.6971 43.1271 40.701C42.1992 40.705 41.4241 41.3308 41.3223 42.1583C41.2818 42.4948 41.291 42.8392 41.3014 43.1731C41.3053 43.3237 41.3105 43.4755 41.3105 43.6274V43.7584H54.7674V43.6274C54.7674 43.5043 54.7687 43.3852 54.77 43.27C54.7726 43.0212 54.7752 42.7868 54.7648 42.5511C54.7113 41.4133 53.9674 40.7036 52.8243 40.6997C52.271 40.6984 51.7164 40.6971 51.1617 40.6971H48.6601H45.5478H45.5491ZM44.539 35.5226C43.8148 35.5226 43.315 35.8604 43.1297 36.4732C42.9091 37.2077 42.733 37.9724 42.5633 38.7108C42.4902 39.0277 42.4172 39.3459 42.3402 39.6653L42.301 39.8277H53.7156L53.679 39.668C53.6099 39.3629 53.5459 39.0591 53.4807 38.758C53.3293 38.0522 53.1871 37.3845 53.0005 36.7115C52.7643 35.8617 52.3153 35.5304 51.4006 35.5304H51.2675C50.658 35.5304 50.0486 35.5304 49.4405 35.5317C48.8311 35.5317 48.223 35.533 47.6135 35.533C46.4143 35.533 45.4447 35.5291 44.5612 35.5213H44.539V35.5226ZM35.5034 37.319C35.0637 37.319 34.6735 37.6948 34.6526 38.1386C34.6422 38.3573 34.7178 38.5694 34.8666 38.7331C35.0193 38.9007 35.2281 38.9989 35.4552 39.0094C35.4721 39.0094 35.4878 39.0094 35.5047 39.0094C35.9967 39.0094 36.3308 38.6755 36.3347 38.1792C36.3386 37.7144 35.9732 37.3268 35.5204 37.3177H35.5034V37.319ZM37.2351 37.6031L37.3917 37.4329C37.5366 37.2758 37.6814 37.116 37.825 36.9576C38.146 36.6054 38.4775 36.2414 38.8128 35.8931C39.4092 35.2725 39.4627 34.8744 39.0373 34.1897L38.9512 34.0522L36.383 36.557L37.1281 37.2378L37.2338 37.6031H37.2351ZM40.9321 31.8407C40.5654 32.2152 40.2183 32.5674 39.8855 32.9261C39.7824 33.0361 39.7485 33.2378 39.7759 33.3674C39.8229 33.5952 39.8855 33.8126 39.9573 34.0653C39.986 34.1661 40.016 34.2708 40.046 34.3821L40.1061 34.5995C40.1061 34.5995 40.5171 34.1857 40.6411 34.0613C41.0143 33.6869 41.3667 33.3333 41.7112 32.968C41.813 32.8607 41.8364 32.6564 41.8077 32.5176C41.7621 32.3003 41.7007 32.0869 41.629 31.8407C41.5989 31.7373 41.5676 31.626 41.5337 31.5068L41.4724 31.2882C41.4724 31.2882 41.0574 31.7137 40.9334 31.8394L40.9321 31.8407ZM43.4128 29.3333C43.0579 29.7025 42.7212 30.0508 42.4002 30.4004C42.3115 30.4973 42.2332 30.6859 42.2645 30.843C42.3102 31.0734 42.3741 31.296 42.4485 31.5553C42.4785 31.66 42.5111 31.7713 42.5437 31.8905L42.6038 32.1091L43.1388 31.5644C43.5016 31.1965 43.8435 30.8482 44.175 30.4999C44.2493 30.4227 44.3472 30.2525 44.3172 30.1045C44.2663 29.8583 44.1997 29.6174 44.1228 29.3372C44.0927 29.2259 44.0601 29.1094 44.0262 28.9824L43.9662 28.7585C43.9662 28.7585 43.5394 29.2024 43.4128 29.3333ZM45.5112 27.512C45.4838 27.512 45.459 27.5133 45.4342 27.5172C45.2241 27.546 45.0414 27.6626 44.9188 27.8459C44.7844 28.0475 44.7413 28.3081 44.8039 28.5438C44.8457 28.7048 44.8914 28.8646 44.9488 29.0636L45.1067 29.6214L45.4825 29.222C45.6456 29.0492 45.7866 28.8986 45.9275 28.7493C45.9432 28.7323 45.9628 28.7153 45.9823 28.6983C46.0463 28.6407 46.1272 28.57 46.1402 28.4678C46.1441 28.4377 46.1494 28.4063 46.1533 28.3736C46.1846 28.1693 46.2198 27.9375 46.1089 27.7791C45.9941 27.6128 45.7135 27.5133 45.5112 27.5133V27.512ZM17.7754 26.018H33.5851V23.9074H17.7754V26.018Z" fill="#FFFFFF"/>
<path d="M23.2487 38.9269C22.7097 38.9269 22.1708 38.9269 21.6318 38.9243C20.7419 38.9217 20.289 38.4674 20.2877 37.5744C20.2838 34.6676 20.2838 32.0686 20.2877 29.628C20.289 28.7573 20.7471 28.2964 21.6097 28.2924C22.9629 28.2872 24.3162 28.2859 25.6694 28.2859C27.0227 28.2859 28.3668 28.2885 29.7161 28.2924C30.5722 28.2951 31.0263 28.7415 31.0302 29.5834C31.0433 32.1537 31.0433 34.8575 31.0302 37.6228C31.0263 38.4844 30.5761 38.9217 29.69 38.9243C29.155 38.9256 28.6199 38.9256 28.0836 38.9256H25.6603H23.2474L23.2487 38.9269ZM29.001 38.0575C29.2241 38.0575 29.4068 38.0615 29.5752 38.0693C29.5987 38.0693 29.6209 38.0706 29.643 38.0706C29.7592 38.0706 29.9262 38.0575 30.0424 37.9384C30.1363 37.8428 30.1807 37.7001 30.1794 37.4893C30.1689 34.9701 30.1689 32.3619 30.1794 29.7366C30.1794 29.5298 30.1363 29.3884 30.0411 29.2928C29.9171 29.1684 29.7305 29.1514 29.5817 29.1514C28.2702 29.1566 26.9639 29.1592 25.659 29.1592C24.354 29.1592 23.0569 29.1566 21.7545 29.1514C21.5953 29.1514 21.4061 29.1684 21.2808 29.2954C21.1816 29.3962 21.1399 29.5429 21.1425 29.772C21.1555 30.8077 21.1529 31.8617 21.1516 32.8817C21.1516 33.2706 21.1503 33.6581 21.1503 34.047C21.1503 34.318 21.1503 34.5904 21.1503 34.8614C21.149 35.719 21.1464 36.6068 21.1634 37.4788C21.1673 37.6595 21.3356 38.0248 21.5314 38.0405C21.7715 38.0588 22.0286 38.0667 22.3665 38.0667C22.5088 38.0667 22.6523 38.0654 22.7972 38.0641C22.9446 38.0628 23.0947 38.0615 23.2474 38.0615H23.3779V37.5757C23.3779 37.34 23.3779 37.12 23.3779 36.9014C23.3844 35.5449 24.2783 34.6179 25.6016 34.5956H25.6524C27.0044 34.5956 27.9087 35.469 27.9557 36.8215C27.9635 37.0585 27.9622 37.2981 27.9596 37.5521C27.9596 37.6752 27.957 37.8022 27.957 37.9331V38.0641H28.0875C28.2506 38.0641 28.4098 38.0628 28.5651 38.0615C28.7126 38.0601 28.8575 38.0588 28.9997 38.0588L29.001 38.0575ZM25.6707 35.4598C25.6342 35.4598 25.5976 35.4598 25.5598 35.4624C24.7964 35.503 24.2796 36.0005 24.2457 36.7299C24.2339 36.9891 24.2366 37.2444 24.2392 37.5141C24.2405 37.6359 24.2418 37.7603 24.2418 37.886V38.0169H27.0644V37.886C27.0644 37.7433 27.0683 37.6045 27.0723 37.467C27.0814 37.1593 27.0892 36.8686 27.054 36.5754C26.9692 35.8866 26.4393 35.4585 25.6694 35.4585L25.6707 35.4598Z" fill="#FFFFFF"/>
<path d="M21.8798 41.878C21.8119 41.878 21.7937 41.8663 21.7898 41.8636C21.5444 41.6777 21.4191 41.5389 21.4165 41.4525C21.4139 41.3543 21.5614 41.1658 21.7532 41.023C21.7806 41.0021 21.838 40.9929 21.9229 40.9929C21.9633 40.9929 22.0051 40.9955 22.0468 40.9968C22.0912 40.9995 22.1343 41.0008 22.176 41.0008C23.4131 41.0008 24.6476 40.9995 25.8834 40.9995H29.2972C29.3821 40.9995 29.4734 41.0021 29.5582 41.0165C29.831 41.0636 29.9615 41.2116 29.9484 41.459C29.9315 41.7785 29.707 41.8532 29.523 41.8597C29.3116 41.8676 29.1028 41.8676 28.9266 41.8676H28.449H24.016C23.3857 41.8676 22.1225 41.8676 22.1225 41.8676C22.0808 41.8676 22.0364 41.8702 21.992 41.8741C21.9542 41.8767 21.915 41.8793 21.8772 41.8793L21.8798 41.878Z" fill="#FFFFFF"/>
<path d="M25.6537 44.815C24.444 44.815 23.233 44.815 22.0233 44.8124C21.7597 44.8124 21.577 44.7613 21.4805 44.6631C21.4178 44.599 21.3878 44.5099 21.3891 44.3921C21.393 44.0844 21.547 43.9535 21.902 43.9535C22.4448 43.9535 22.9851 43.9535 23.5253 43.9535H27.8082C28.308 43.9522 28.8079 43.9535 29.3077 43.9535C29.9471 43.9535 29.9536 44.2533 29.9562 44.3659C29.9588 44.4824 29.9275 44.5728 29.8584 44.6422C29.7513 44.7522 29.553 44.8111 29.2855 44.8111C28.0745 44.8111 26.8648 44.8124 25.6537 44.8124V44.815Z" fill="#FFFFFF"/>
<path d="M29.3494 47.7572C28.1227 47.7559 26.8961 47.7559 25.6694 47.7559H25.3758C24.247 47.7559 23.1182 47.7559 21.9894 47.7546C21.748 47.7546 21.5705 47.6996 21.4739 47.5961C21.4087 47.5254 21.38 47.4285 21.3891 47.3068C21.4113 47.0004 21.5692 46.8865 21.9724 46.8865C22.5296 46.8891 23.0777 46.8904 23.6245 46.8904L27.7861 46.8878C28.3054 46.8878 28.8248 46.8878 29.3442 46.8891C29.5895 46.8891 29.7787 46.9493 29.8753 47.058C29.9366 47.1261 29.9627 47.2164 29.951 47.3251C29.9197 47.6328 29.7461 47.7572 29.352 47.7572H29.3494Z" fill="#FFFFFF"/>
<path d="M47.0265 42.6887C46.8086 42.6887 46.592 42.6887 46.374 42.6887C46.1822 42.6887 46.0465 42.6468 45.9643 42.5643C45.8951 42.4949 45.8612 42.3888 45.8625 42.2487C45.8625 42.144 45.8664 41.8271 46.3506 41.8245C46.9091 41.8219 47.4676 41.8206 48.0261 41.8206C48.5847 41.8206 49.1562 41.8219 49.7213 41.8245C50.0449 41.8258 50.2106 41.9685 50.2133 42.2474C50.2146 42.3862 50.1806 42.4909 50.1115 42.5616C50.028 42.6454 49.8909 42.6887 49.703 42.6887H47.0291H47.0265Z" fill="#FFFFFF"/>
<path d="M52.7814 42.6913C52.7606 42.6913 52.7384 42.6913 52.7162 42.69C52.6914 42.69 52.6666 42.6887 52.6418 42.6887H52.5231C51.7714 42.6887 51.7061 42.4805 51.7035 42.2645C51.7022 42.1427 51.7309 42.055 51.7936 41.9921C51.9058 41.8782 52.1394 41.8232 52.5087 41.8232H52.6248C52.6483 41.8232 52.6705 41.8232 52.694 41.8232C52.938 41.8285 53.1259 41.8913 53.2238 42.0013C53.2852 42.0707 53.3113 42.1584 53.3021 42.2645C53.276 42.5604 53.1155 42.6913 52.7801 42.6913H52.7814Z" fill="#FFFFFF"/>
<path d="M43.3857 42.6887C42.8441 42.6809 42.7723 42.4648 42.7736 42.2553C42.7749 42.0576 42.8467 41.8298 43.3948 41.822C43.4744 41.822 43.554 41.8193 43.6336 41.8193C43.708 41.8193 43.7811 41.8193 43.8542 41.822C43.9807 41.8259 44.1517 41.8534 44.2548 41.9634C44.3239 42.038 44.3566 42.1441 44.3513 42.2802C44.3409 42.55 44.1791 42.6861 43.8698 42.6861C43.8698 42.6861 43.7824 42.6861 43.7484 42.6861H43.447H43.3844L43.3857 42.6887Z" fill="#FFFFFF"/>
</svg>