<svg width="305" height="72" viewBox="0 0 305 72" fill="none" xmlns="http://www.w3.org/2000/svg">
<g clip-path="url(#clip0_0_1)">
<path d="M0.279785 40.0199L3.99877 39.8243C4.05027 41.0121 4.25259 41.8126 4.60757 42.2276C5.17774 42.9027 6.23164 43.242 7.76926 43.242C9.04755 43.242 9.9727 43.0133 10.5429 42.5541C11.113 42.0948 11.3981 41.5396 11.3981 40.8904C11.3981 40.3279 11.1645 39.8502 10.6992 39.461C10.37 39.1751 9.47058 38.7122 7.99733 38.0703C6.52408 37.4285 5.44811 36.8936 4.77127 36.4657C4.09258 36.0359 3.55919 35.4808 3.17111 34.7965C2.78302 34.1122 2.58806 33.3118 2.58806 32.3932C2.58806 30.7905 3.16743 29.4606 4.32432 28.4038C5.48122 27.347 7.15863 26.8195 9.35287 26.8195C11.5471 26.8195 13.3073 27.3433 14.5304 28.3909C15.7535 29.4385 16.4248 30.8347 16.5462 32.5758L12.8015 32.7455C12.7058 31.8362 12.3785 31.1391 11.8175 30.654C11.2565 30.1689 10.427 29.9254 9.32896 29.9254C8.23092 29.9254 7.47866 30.1154 7.01517 30.4972C6.55351 30.879 6.32176 31.3585 6.32176 31.9395C6.32176 32.4855 6.53328 32.9355 6.95631 33.2915C7.37934 33.6548 8.31736 34.1528 9.76854 34.7854C11.9536 35.7298 13.3459 36.497 13.9418 37.0854C14.832 37.9523 15.2771 39.0645 15.2771 40.4256C15.2771 42.1059 14.615 43.5427 13.2889 44.7342C11.9628 45.9256 10.1162 46.5214 7.74903 46.5214C6.11577 46.5214 4.70137 46.2466 3.50585 45.6969C2.30849 45.1473 1.46427 44.3819 0.973187 43.4043C0.482104 42.4268 0.252196 41.2999 0.287142 40.0254L0.279785 40.0199Z" fill="white"/>
<path d="M29.8253 41.9823H22.2971L20.0165 46.1931H15.9995L26.7426 27.1422H31.0833L34.1678 46.1931H30.4616L29.8271 41.9823H29.8253ZM29.3452 38.8118L28.2435 31.1446L23.6564 38.8118H29.3452Z" fill="white"/>
<path d="M36.498 46.1911L40.4764 27.1403H53.7724L53.0992 30.3237H43.7172L42.7589 34.8978H51.9589L51.2986 38.0813H42.0986L40.4138 46.1893H36.4999L36.498 46.1911Z" fill="white"/>
<path d="M52.7612 46.1911L56.7267 27.1403H70.8118L70.1515 30.3237H59.9785L59.0717 34.6507H68.9081L68.2478 37.8341H58.4133L57.2214 43.0058H68.2754L67.6022 46.1893H52.7649L52.7612 46.1911Z" fill="white"/>
<path d="M74.4535 46.1911H70.5396L74.5179 27.1403H82.9546C84.4058 27.1403 85.5351 27.2897 86.3425 27.5885C87.1499 27.8872 87.8029 28.435 88.2995 29.2318C88.7961 30.0286 89.0444 30.9951 89.0444 32.1294C89.0444 33.7488 88.5606 35.086 87.5932 36.1391C86.6257 37.1923 85.1617 37.8433 83.201 38.0942C83.7013 38.5442 84.1722 39.1381 84.6136 39.874C85.4854 41.3643 86.4584 43.4688 87.5288 46.1893H83.3298C82.9932 45.1158 82.3329 43.4393 81.3471 41.1596C80.8118 39.9294 80.2417 39.1012 79.6365 38.677C79.265 38.4262 78.6176 38.3007 77.6924 38.3007H76.0978L74.4517 46.1893L74.4535 46.1911ZM76.6956 35.4438H78.7684C80.867 35.4438 82.2612 35.3183 82.9472 35.0675C83.6333 34.8167 84.1722 34.422 84.5603 33.8852C84.9483 33.3485 85.1433 32.786 85.1433 32.1958C85.1433 31.5023 84.8619 30.9822 84.3009 30.6354C83.9551 30.427 83.2084 30.3237 82.0589 30.3237H77.7568L76.6937 35.4438H76.6956Z" fill="white"/>
<path d="M99.6421 1.87024C99.6881 1.92926 99.7359 1.99381 99.7892 2.06206L99.6421 1.87024Z" fill="#2C2829"/>
<path d="M99.793 2.06567C99.8537 2.14498 99.9199 2.22983 99.9842 2.31651L99.793 2.06567Z" fill="#2C2829"/>
<path d="M102 4.83414L99.9954 2.33128C100.062 2.41797 100.13 2.5065 100.192 2.5895C95.8938 2.99527 88.4742 4.5667 88.4742 4.5667L87.3467 3.53015C92.2925 1.39617 99.4031 1.55848 99.4031 1.55848C99.4031 1.55848 99.4859 1.66545 99.6073 1.82592L98.4301 0.171486C98.4301 0.171486 65.4614 -3.53761 36.0166 23.4829H66.5005C73.3003 14.8197 84.3377 7.64685 102.002 4.83414H102ZM80.1479 5.50919L82.4653 6.70252C82.4653 6.70252 77.8598 8.29609 74.1059 10.4393C73.0722 9.84354 70.317 9.18324 70.317 9.18324C74.9501 6.89065 80.1479 5.51103 80.1479 5.51103V5.50919ZM50.6571 20.9229C55.6654 15.9319 61.6762 12.9809 61.6762 12.9809C61.6762 12.9809 64.1812 13.5139 66.5281 13.9861C61.5511 16.6863 57.8873 20.9247 57.8873 20.9247H50.6553L50.6571 20.9229Z" fill="#2C2829"/>
<path d="M15.573 49.3359C11.7344 55.9684 8.17545 63.4825 5.02295 72.0018H57.8337C57.8337 72.0018 55.2495 61.8336 56.5922 49.3359H15.573ZM33.7449 69.3035H25.0102L28.1333 61.0866H36.3511C36.2334 61.2748 33.7449 69.3035 33.7449 69.3035ZM38.3817 55.1071H30.6807L32.8639 51.1877H39.7629L38.3835 55.1071H38.3817Z" fill="#2C2829"/>
<path d="M25.0103 69.3015H33.7449C33.7449 69.3015 36.2334 61.2728 36.3511 61.0847H28.1333L25.0103 69.3015Z" fill="white"/>
<path d="M30.6807 55.1052H38.3817L39.7611 51.184H32.862L30.6807 55.1052Z" fill="white"/>
<path d="M66.5297 13.986C64.181 13.5157 61.6777 12.9808 61.6777 12.9808C61.6777 12.9808 55.667 15.9319 50.6587 20.9228H57.8907C57.8907 20.9228 61.5526 16.6844 66.5315 13.9842L66.5297 13.986Z" fill="white"/>
<path d="M82.4652 6.70248L80.1478 5.50916C80.1478 5.50916 74.95 6.89061 70.3169 9.18136C70.3169 9.18136 73.0721 9.83982 74.1058 10.4374C76.1713 9.46356 82.4652 6.70064 82.4652 6.70064V6.70248Z" fill="white"/>
<path d="M99.9839 2.3147L99.9975 2.33193C99.9975 2.33193 99.9878 2.32044 99.9839 2.3147Z" fill="white"/>
<path d="M99.6089 1.82593L99.6425 1.87064C99.6313 1.85573 99.6201 1.84083 99.6089 1.82593Z" fill="white"/>
<path d="M87.3481 3.53201L88.4756 4.56857C88.4756 4.56857 95.8952 2.99713 100.194 2.59136C100.129 2.50837 100.063 2.41983 99.9968 2.33315L99.9839 2.31655C99.9177 2.23171 99.8533 2.14686 99.7926 2.06571H99.7908C99.7374 1.99378 99.6896 1.93107 99.6436 1.8702L99.6105 1.82594C99.4891 1.66732 99.4063 1.5585 99.4063 1.5585C99.4063 1.5585 93.8315 1.33532 87.35 3.53017L87.3481 3.53201Z" fill="white"/>
</g>
<path d="M133.504 24.2095C133.504 24.019 133.475 23.8481 133.416 23.6968C133.362 23.5405 133.26 23.3989 133.108 23.272C132.957 23.1401 132.745 23.0107 132.471 22.8838C132.198 22.7568 131.844 22.625 131.409 22.4883C130.926 22.332 130.467 22.1562 130.032 21.9609C129.603 21.7656 129.222 21.5386 128.89 21.2798C128.562 21.0161 128.304 20.7109 128.113 20.3643C127.928 20.0176 127.835 19.6147 127.835 19.1558C127.835 18.7114 127.933 18.3086 128.128 17.9473C128.323 17.5811 128.597 17.2686 128.948 17.0098C129.3 16.7461 129.715 16.5435 130.193 16.4019C130.677 16.2603 131.207 16.1895 131.783 16.1895C132.569 16.1895 133.255 16.3311 133.841 16.6143C134.427 16.8975 134.881 17.2856 135.203 17.7788C135.53 18.272 135.694 18.8359 135.694 19.4707H133.511C133.511 19.1582 133.445 18.8848 133.313 18.6504C133.187 18.4111 132.991 18.2231 132.728 18.0864C132.469 17.9497 132.142 17.8813 131.746 17.8813C131.365 17.8813 131.048 17.9399 130.794 18.0571C130.54 18.1694 130.35 18.3232 130.223 18.5186C130.096 18.709 130.032 18.9238 130.032 19.1631C130.032 19.3438 130.076 19.5073 130.164 19.6538C130.257 19.8003 130.394 19.937 130.574 20.064C130.755 20.1909 130.977 20.3105 131.241 20.4229C131.504 20.5352 131.81 20.645 132.156 20.7524C132.737 20.9282 133.248 21.126 133.687 21.3457C134.131 21.5654 134.502 21.812 134.8 22.0854C135.098 22.3589 135.323 22.6689 135.474 23.0156C135.625 23.3623 135.701 23.7554 135.701 24.1948C135.701 24.6587 135.611 25.0737 135.43 25.4399C135.25 25.8062 134.988 26.1162 134.646 26.3701C134.305 26.624 133.897 26.8169 133.423 26.9487C132.95 27.0806 132.42 27.1465 131.834 27.1465C131.307 27.1465 130.787 27.0781 130.274 26.9414C129.761 26.7998 129.295 26.5874 128.875 26.3042C128.46 26.021 128.128 25.6597 127.879 25.2202C127.63 24.7808 127.505 24.2607 127.505 23.6602H129.71C129.71 23.9922 129.761 24.2729 129.864 24.5024C129.966 24.7319 130.11 24.9175 130.296 25.0591C130.486 25.2007 130.711 25.3032 130.97 25.3667C131.233 25.4302 131.521 25.4619 131.834 25.4619C132.215 25.4619 132.527 25.4082 132.771 25.3008C133.021 25.1934 133.204 25.0444 133.321 24.854C133.443 24.6636 133.504 24.4487 133.504 24.2095ZM145.955 21.4189V21.9243C145.955 22.7349 145.845 23.4624 145.625 24.1069C145.406 24.7515 145.096 25.3008 144.695 25.7549C144.295 26.2041 143.816 26.5483 143.26 26.7876C142.708 27.0269 142.095 27.1465 141.421 27.1465C140.752 27.1465 140.14 27.0269 139.583 26.7876C139.031 26.5483 138.553 26.2041 138.147 25.7549C137.742 25.3008 137.427 24.7515 137.203 24.1069C136.983 23.4624 136.873 22.7349 136.873 21.9243V21.4189C136.873 20.6035 136.983 19.876 137.203 19.2363C137.422 18.5918 137.732 18.0425 138.133 17.5884C138.538 17.1343 139.017 16.7876 139.568 16.5483C140.125 16.3091 140.738 16.1895 141.407 16.1895C142.081 16.1895 142.693 16.3091 143.245 16.5483C143.802 16.7876 144.28 17.1343 144.681 17.5884C145.086 18.0425 145.398 18.5918 145.618 19.2363C145.843 19.876 145.955 20.6035 145.955 21.4189ZM143.736 21.9243V21.4043C143.736 20.8379 143.685 20.3398 143.582 19.9102C143.479 19.4805 143.328 19.1191 143.128 18.8262C142.928 18.5332 142.684 18.3135 142.396 18.167C142.107 18.0156 141.778 17.9399 141.407 17.9399C141.036 17.9399 140.706 18.0156 140.418 18.167C140.135 18.3135 139.893 18.5332 139.693 18.8262C139.498 19.1191 139.349 19.4805 139.246 19.9102C139.144 20.3398 139.092 20.8379 139.092 21.4043V21.9243C139.092 22.4858 139.144 22.9839 139.246 23.4185C139.349 23.8481 139.5 24.2119 139.7 24.5098C139.9 24.8027 140.145 25.0249 140.433 25.1763C140.721 25.3276 141.05 25.4033 141.421 25.4033C141.792 25.4033 142.122 25.3276 142.41 25.1763C142.698 25.0249 142.94 24.8027 143.135 24.5098C143.331 24.2119 143.479 23.8481 143.582 23.4185C143.685 22.9839 143.736 22.4858 143.736 21.9243ZM153.719 23.4624H155.909C155.865 24.1802 155.667 24.8174 155.315 25.374C154.969 25.9307 154.483 26.3652 153.858 26.6777C153.238 26.9902 152.491 27.1465 151.617 27.1465C150.933 27.1465 150.32 27.0293 149.778 26.7949C149.236 26.5557 148.772 26.2139 148.387 25.7695C148.006 25.3252 147.715 24.7881 147.515 24.1582C147.315 23.5283 147.215 22.8228 147.215 22.0415V21.3018C147.215 20.5205 147.317 19.8149 147.522 19.1851C147.732 18.5503 148.03 18.0107 148.416 17.5664C148.807 17.1221 149.273 16.7803 149.815 16.541C150.357 16.3018 150.962 16.1821 151.631 16.1821C152.52 16.1821 153.27 16.3433 153.88 16.6655C154.495 16.9878 154.971 17.4321 155.308 17.9985C155.65 18.5649 155.855 19.2095 155.923 19.9321H153.726C153.702 19.5024 153.616 19.1387 153.47 18.8408C153.323 18.5381 153.101 18.311 152.803 18.1597C152.51 18.0034 152.12 17.9253 151.631 17.9253C151.265 17.9253 150.945 17.9937 150.672 18.1304C150.398 18.2671 150.169 18.4746 149.983 18.7529C149.798 19.0312 149.659 19.3828 149.566 19.8076C149.478 20.2275 149.434 20.7207 149.434 21.2871V22.0415C149.434 22.5933 149.476 23.0791 149.559 23.499C149.642 23.9141 149.769 24.2656 149.939 24.5537C150.115 24.8369 150.34 25.0518 150.613 25.1982C150.892 25.3398 151.226 25.4106 151.617 25.4106C152.076 25.4106 152.454 25.3374 152.752 25.1909C153.05 25.0444 153.277 24.8271 153.433 24.5391C153.594 24.251 153.689 23.8921 153.719 23.4624ZM159.688 16.3359V27H157.498V16.3359H159.688ZM168.902 25.2861V27H163.226V25.2861H168.902ZM163.943 16.3359V27H161.746V16.3359H163.943ZM168.162 20.6792V22.3491H163.226V20.6792H168.162ZM168.895 16.3359V18.0571H163.226V16.3359H168.895ZM164.449 15.7061L165.884 13.4502H168.177L166.163 15.7061H164.449ZM175.098 16.3359V27H172.908V16.3359H175.098ZM178.379 16.3359V18.0571H169.678V16.3359H178.379ZM186.788 25.2861V27H181.111V25.2861H186.788ZM181.829 16.3359V27H179.632V16.3359H181.829ZM186.048 20.6792V22.3491H181.111V20.6792H186.048ZM186.78 16.3359V18.0571H181.111V16.3359H186.78ZM182.334 15.7061L183.77 13.4502H186.062L184.048 15.7061H182.334ZM196.141 18.1597L193.24 27H190.904L194.866 16.3359H196.353L196.141 18.1597ZM198.55 27L195.643 18.1597L195.408 16.3359H196.91L200.894 27H198.55ZM198.418 23.0303V24.7515H192.786V23.0303H198.418ZM207.64 16.3359H209.83V23.3818C209.83 24.2021 209.654 24.8931 209.302 25.4546C208.956 26.0161 208.475 26.4385 207.859 26.7217C207.249 27.0049 206.546 27.1465 205.75 27.1465C204.954 27.1465 204.246 27.0049 203.626 26.7217C203.011 26.4385 202.527 26.0161 202.176 25.4546C201.829 24.8931 201.656 24.2021 201.656 23.3818V16.3359H203.853V23.3818C203.853 23.8604 203.929 24.251 204.08 24.5537C204.231 24.8564 204.449 25.0786 204.732 25.2202C205.02 25.3618 205.359 25.4326 205.75 25.4326C206.15 25.4326 206.49 25.3618 206.768 25.2202C207.051 25.0786 207.266 24.8564 207.413 24.5537C207.564 24.251 207.64 23.8604 207.64 23.3818V16.3359ZM216.407 16.3359V27H214.217V16.3359H216.407ZM219.688 16.3359V18.0571H210.987V16.3359H219.688ZM229.495 21.4189V21.9243C229.495 22.7349 229.385 23.4624 229.166 24.1069C228.946 24.7515 228.636 25.3008 228.235 25.7549C227.835 26.2041 227.356 26.5483 226.8 26.7876C226.248 27.0269 225.635 27.1465 224.961 27.1465C224.292 27.1465 223.68 27.0269 223.123 26.7876C222.571 26.5483 222.093 26.2041 221.688 25.7549C221.282 25.3008 220.967 24.7515 220.743 24.1069C220.523 23.4624 220.413 22.7349 220.413 21.9243V21.4189C220.413 20.6035 220.523 19.876 220.743 19.2363C220.962 18.5918 221.272 18.0425 221.673 17.5884C222.078 17.1343 222.557 16.7876 223.108 16.5483C223.665 16.3091 224.278 16.1895 224.947 16.1895C225.621 16.1895 226.233 16.3091 226.785 16.5483C227.342 16.7876 227.82 17.1343 228.221 17.5884C228.626 18.0425 228.938 18.5918 229.158 19.2363C229.383 19.876 229.495 20.6035 229.495 21.4189ZM227.276 21.9243V21.4043C227.276 20.8379 227.225 20.3398 227.122 19.9102C227.02 19.4805 226.868 19.1191 226.668 18.8262C226.468 18.5332 226.224 18.3135 225.936 18.167C225.647 18.0156 225.318 17.9399 224.947 17.9399C224.576 17.9399 224.246 18.0156 223.958 18.167C223.675 18.3135 223.433 18.5332 223.233 18.8262C223.038 19.1191 222.889 19.4805 222.786 19.9102C222.684 20.3398 222.632 20.8379 222.632 21.4043V21.9243C222.632 22.4858 222.684 22.9839 222.786 23.4185C222.889 23.8481 223.04 24.2119 223.24 24.5098C223.44 24.8027 223.685 25.0249 223.973 25.1763C224.261 25.3276 224.59 25.4033 224.961 25.4033C225.333 25.4033 225.662 25.3276 225.95 25.1763C226.238 25.0249 226.48 24.8027 226.675 24.5098C226.871 24.2119 227.02 23.8481 227.122 23.4185C227.225 22.9839 227.276 22.4858 227.276 21.9243ZM239.756 16.3359V27H237.559L233.274 19.8516V27H231.077V16.3359H233.274L237.566 23.4917V16.3359H239.756ZM250.428 21.4189V21.9243C250.428 22.7349 250.318 23.4624 250.098 24.1069C249.878 24.7515 249.568 25.3008 249.168 25.7549C248.768 26.2041 248.289 26.5483 247.732 26.7876C247.181 27.0269 246.568 27.1465 245.894 27.1465C245.225 27.1465 244.612 27.0269 244.056 26.7876C243.504 26.5483 243.025 26.2041 242.62 25.7549C242.215 25.3008 241.9 24.7515 241.675 24.1069C241.456 23.4624 241.346 22.7349 241.346 21.9243V21.4189C241.346 20.6035 241.456 19.876 241.675 19.2363C241.895 18.5918 242.205 18.0425 242.605 17.5884C243.011 17.1343 243.489 16.7876 244.041 16.5483C244.598 16.3091 245.21 16.1895 245.879 16.1895C246.553 16.1895 247.166 16.3091 247.718 16.5483C248.274 16.7876 248.753 17.1343 249.153 17.5884C249.559 18.0425 249.871 18.5918 250.091 19.2363C250.315 19.876 250.428 20.6035 250.428 21.4189ZM248.208 21.9243V21.4043C248.208 20.8379 248.157 20.3398 248.055 19.9102C247.952 19.4805 247.801 19.1191 247.601 18.8262C247.4 18.5332 247.156 18.3135 246.868 18.167C246.58 18.0156 246.25 17.9399 245.879 17.9399C245.508 17.9399 245.179 18.0156 244.891 18.167C244.607 18.3135 244.366 18.5332 244.166 18.8262C243.97 19.1191 243.821 19.4805 243.719 19.9102C243.616 20.3398 243.565 20.8379 243.565 21.4043V21.9243C243.565 22.4858 243.616 22.9839 243.719 23.4185C243.821 23.8481 243.973 24.2119 244.173 24.5098C244.373 24.8027 244.617 25.0249 244.905 25.1763C245.193 25.3276 245.523 25.4033 245.894 25.4033C246.265 25.4033 246.595 25.3276 246.883 25.1763C247.171 25.0249 247.413 24.8027 247.608 24.5098C247.803 24.2119 247.952 23.8481 248.055 23.4185C248.157 22.9839 248.208 22.4858 248.208 21.9243ZM253.013 16.3359H254.874L257.613 24.1655L260.352 16.3359H262.212L258.36 27H256.866L253.013 16.3359ZM252.01 16.3359H253.863L254.2 23.9678V27H252.01V16.3359ZM261.363 16.3359H263.223V27H261.026V23.9678L261.363 16.3359ZM272.305 25.2861V27H266.629V25.2861H272.305ZM267.347 16.3359V27H265.149V16.3359H267.347ZM271.565 20.6792V22.3491H266.629V20.6792H271.565ZM272.298 16.3359V18.0571H266.629V16.3359H272.298ZM131.226 45H128.904L128.919 43.2861H131.226C131.802 43.2861 132.288 43.1567 132.684 42.8979C133.079 42.6343 133.377 42.251 133.577 41.748C133.782 41.2451 133.885 40.6372 133.885 39.9243V39.4043C133.885 38.8574 133.826 38.3765 133.709 37.9614C133.597 37.5464 133.428 37.1973 133.204 36.9141C132.979 36.6309 132.703 36.4185 132.376 36.2769C132.049 36.1304 131.673 36.0571 131.248 36.0571H128.86V34.3359H131.248C131.961 34.3359 132.613 34.458 133.204 34.7021C133.799 34.9414 134.314 35.2856 134.749 35.7349C135.184 36.1841 135.518 36.7212 135.752 37.3462C135.992 37.9663 136.111 38.6572 136.111 39.4189V39.9243C136.111 40.6812 135.992 41.3721 135.752 41.9971C135.518 42.6221 135.184 43.1592 134.749 43.6084C134.319 44.0527 133.804 44.397 133.204 44.6411C132.608 44.8804 131.949 45 131.226 45ZM130.149 34.3359V45H127.952V34.3359H130.149ZM144.864 43.2861V45H139.188V43.2861H144.864ZM139.905 34.3359V45H137.708V34.3359H139.905ZM144.124 38.6792V40.3491H139.188V38.6792H144.124ZM144.856 34.3359V36.0571H139.188V34.3359H144.856ZM152.078 34.3359V45H149.881V34.3359H152.078ZM156.326 38.8916V40.6055H151.478V38.8916H156.326ZM156.839 34.3359V36.0571H151.478V34.3359H156.839ZM160.45 34.3359V45H158.26V34.3359H160.45ZM171.187 34.3359V45H168.99L164.705 37.8516V45H162.508V34.3359H164.705L168.997 41.4917V34.3359H171.187ZM177.566 36.1597L174.666 45H172.33L176.292 34.3359H177.779L177.566 36.1597ZM179.976 45L177.068 36.1597L176.834 34.3359H178.335L182.32 45H179.976ZM179.844 41.0303V42.7515H174.212V41.0303H179.844ZM191.988 34.3359V45H189.791L185.506 37.8516V45H183.309V34.3359H185.506L189.798 41.4917V34.3359H191.988ZM200.081 41.4624H202.271C202.227 42.1802 202.029 42.8174 201.678 43.374C201.331 43.9307 200.845 44.3652 200.22 44.6777C199.6 44.9902 198.853 45.1465 197.979 45.1465C197.295 45.1465 196.683 45.0293 196.141 44.7949C195.599 44.5557 195.135 44.2139 194.749 43.7695C194.368 43.3252 194.078 42.7881 193.877 42.1582C193.677 41.5283 193.577 40.8228 193.577 40.0415V39.3018C193.577 38.5205 193.68 37.8149 193.885 37.1851C194.095 36.5503 194.393 36.0107 194.778 35.5664C195.169 35.1221 195.635 34.7803 196.177 34.541C196.719 34.3018 197.325 34.1821 197.994 34.1821C198.882 34.1821 199.632 34.3433 200.242 34.6655C200.857 34.9878 201.333 35.4321 201.67 35.9985C202.012 36.5649 202.217 37.2095 202.286 37.9321H200.088C200.064 37.5024 199.979 37.1387 199.832 36.8408C199.686 36.5381 199.463 36.311 199.166 36.1597C198.873 36.0034 198.482 35.9253 197.994 35.9253C197.627 35.9253 197.308 35.9937 197.034 36.1304C196.761 36.2671 196.531 36.4746 196.346 36.7529C196.16 37.0312 196.021 37.3828 195.928 37.8076C195.84 38.2275 195.796 38.7207 195.796 39.2871V40.0415C195.796 40.5933 195.838 41.0791 195.921 41.499C196.004 41.9141 196.131 42.2656 196.302 42.5537C196.478 42.8369 196.702 43.0518 196.976 43.1982C197.254 43.3398 197.588 43.4106 197.979 43.4106C198.438 43.4106 198.816 43.3374 199.114 43.1909C199.412 43.0444 199.639 42.8271 199.795 42.5391C199.957 42.251 200.052 41.8921 200.081 41.4624ZM210.87 43.2861V45H205.193V43.2861H210.87ZM205.911 34.3359V45H203.714V34.3359H205.911ZM210.13 38.6792V40.3491H205.193V38.6792H210.13ZM210.862 34.3359V36.0571H205.193V34.3359H210.862ZM213.155 34.3359H215.015L217.754 42.1655L220.494 34.3359H222.354L218.501 45H217.007L213.155 34.3359ZM212.151 34.3359H214.004L214.341 41.9678V45H212.151V34.3359ZM221.504 34.3359H223.365V45H221.167V41.9678L221.504 34.3359ZM232.447 43.2861V45H226.771V43.2861H232.447ZM227.488 34.3359V45H225.291V34.3359H227.488ZM231.707 38.6792V40.3491H226.771V38.6792H231.707ZM232.439 34.3359V36.0571H226.771V34.3359H232.439ZM242.408 34.3359V45H240.21L235.926 37.8516V45H233.729V34.3359H235.926L240.218 41.4917V34.3359H242.408ZM248.868 34.3359V45H246.678V34.3359H248.868ZM252.149 34.3359V36.0571H243.448V34.3359H252.149ZM131.226 63H128.904L128.919 61.2861H131.226C131.802 61.2861 132.288 61.1567 132.684 60.8979C133.079 60.6343 133.377 60.251 133.577 59.748C133.782 59.2451 133.885 58.6372 133.885 57.9243V57.4043C133.885 56.8574 133.826 56.3765 133.709 55.9614C133.597 55.5464 133.428 55.1973 133.204 54.9141C132.979 54.6309 132.703 54.4185 132.376 54.2769C132.049 54.1304 131.673 54.0571 131.248 54.0571H128.86V52.3359H131.248C131.961 52.3359 132.613 52.458 133.204 52.7021C133.799 52.9414 134.314 53.2856 134.749 53.7349C135.184 54.1841 135.518 54.7212 135.752 55.3462C135.992 55.9663 136.111 56.6572 136.111 57.4189V57.9243C136.111 58.6812 135.992 59.3721 135.752 59.9971C135.518 60.6221 135.184 61.1592 134.749 61.6084C134.319 62.0527 133.804 62.397 133.204 62.6411C132.608 62.8804 131.949 63 131.226 63ZM130.149 52.3359V63H127.952V52.3359H130.149ZM144.864 61.2861V63H139.188V61.2861H144.864ZM139.905 52.3359V63H137.708V52.3359H139.905ZM144.124 56.6792V58.3491H139.188V56.6792H144.124ZM144.856 52.3359V54.0571H139.188V52.3359H144.856ZM156.736 61.2861V63H151.368V61.2861H156.736ZM152.078 52.3359V63H149.881V52.3359H152.078ZM159.791 51.75V52.8633C159.791 53.1807 159.729 53.5078 159.607 53.8447C159.49 54.1816 159.332 54.5015 159.131 54.8042C158.931 55.1021 158.711 55.356 158.472 55.5659L157.483 54.9946C157.664 54.7065 157.818 54.394 157.945 54.0571C158.072 53.7153 158.135 53.3198 158.135 52.8706V51.75H159.791ZM168.594 61.2861V63H162.918V61.2861H168.594ZM163.636 52.3359V63H161.438V52.3359H163.636ZM167.854 56.6792V58.3491H162.918V56.6792H167.854ZM168.587 52.3359V54.0571H162.918V52.3359H168.587ZM178.555 52.3359V63H176.358L172.073 55.8516V63H169.876V52.3359H172.073L176.365 59.4917V52.3359H178.555ZM185.015 52.3359V63H182.825V52.3359H185.015ZM188.296 52.3359V54.0571H179.595V52.3359H188.296ZM189.549 52.3359H193.526C194.341 52.3359 195.042 52.458 195.628 52.7021C196.219 52.9463 196.673 53.3076 196.99 53.7861C197.308 54.2646 197.466 54.853 197.466 55.5513C197.466 56.1226 197.369 56.6133 197.173 57.0234C196.983 57.4287 196.712 57.7681 196.36 58.0415C196.014 58.3101 195.606 58.5249 195.137 58.686L194.441 59.0522H190.984L190.97 57.3384H193.541C193.926 57.3384 194.246 57.27 194.5 57.1333C194.754 56.9966 194.944 56.8062 195.071 56.562C195.203 56.3179 195.269 56.0347 195.269 55.7124C195.269 55.3706 195.206 55.0752 195.079 54.8262C194.952 54.5771 194.759 54.3867 194.5 54.2549C194.241 54.123 193.917 54.0571 193.526 54.0571H191.746V63H189.549V52.3359ZM195.511 63L193.079 58.2466L195.401 58.2319L197.862 62.8975V63H195.511ZM206.314 61.2861V63H200.638V61.2861H206.314ZM201.355 52.3359V63H199.158V52.3359H201.355ZM205.574 56.6792V58.3491H200.638V56.6792H205.574ZM206.307 52.3359V54.0571H200.638V52.3359H206.307ZM212.51 52.3359V63H210.32V52.3359H212.51ZM215.792 52.3359V54.0571H207.09V52.3359H215.792ZM219.38 52.3359V63H217.19V52.3359H219.38ZM228.594 61.2861V63H222.918V61.2861H228.594ZM223.636 52.3359V63H221.438V52.3359H223.636ZM227.854 56.6792V58.3491H222.918V56.6792H227.854ZM228.587 52.3359V54.0571H222.918V52.3359H228.587ZM238.555 52.3359V63H236.358L232.073 55.8516V63H229.876V52.3359H232.073L236.365 59.4917V52.3359H238.555ZM244.202 52.3359H248.179C248.995 52.3359 249.695 52.458 250.281 52.7021C250.872 52.9463 251.326 53.3076 251.644 53.7861C251.961 54.2646 252.12 54.853 252.12 55.5513C252.12 56.1226 252.022 56.6133 251.827 57.0234C251.636 57.4287 251.365 57.7681 251.014 58.0415C250.667 58.3101 250.259 58.5249 249.791 58.686L249.095 59.0522H245.638L245.623 57.3384H248.194C248.58 57.3384 248.899 57.27 249.153 57.1333C249.407 56.9966 249.598 56.8062 249.725 56.562C249.856 56.3179 249.922 56.0347 249.922 55.7124C249.922 55.3706 249.859 55.0752 249.732 54.8262C249.605 54.5771 249.412 54.3867 249.153 54.2549C248.895 54.123 248.57 54.0571 248.179 54.0571H246.399V63H244.202V52.3359ZM250.164 63L247.732 58.2466L250.054 58.2319L252.515 62.8975V63H250.164ZM262.571 57.4189V57.9243C262.571 58.7349 262.461 59.4624 262.242 60.1069C262.022 60.7515 261.712 61.3008 261.312 61.7549C260.911 62.2041 260.433 62.5483 259.876 62.7876C259.324 63.0269 258.711 63.1465 258.038 63.1465C257.369 63.1465 256.756 63.0269 256.199 62.7876C255.647 62.5483 255.169 62.2041 254.764 61.7549C254.358 61.3008 254.043 60.7515 253.819 60.1069C253.599 59.4624 253.489 58.7349 253.489 57.9243V57.4189C253.489 56.6035 253.599 55.876 253.819 55.2363C254.039 54.5918 254.349 54.0425 254.749 53.5884C255.154 53.1343 255.633 52.7876 256.185 52.5483C256.741 52.3091 257.354 52.1895 258.023 52.1895C258.697 52.1895 259.31 52.3091 259.861 52.5483C260.418 52.7876 260.896 53.1343 261.297 53.5884C261.702 54.0425 262.015 54.5918 262.234 55.2363C262.459 55.876 262.571 56.6035 262.571 57.4189ZM260.352 57.9243V57.4043C260.352 56.8379 260.301 56.3398 260.198 55.9102C260.096 55.4805 259.944 55.1191 259.744 54.8262C259.544 54.5332 259.3 54.3135 259.012 54.167C258.724 54.0156 258.394 53.9399 258.023 53.9399C257.652 53.9399 257.322 54.0156 257.034 54.167C256.751 54.3135 256.509 54.5332 256.309 54.8262C256.114 55.1191 255.965 55.4805 255.862 55.9102C255.76 56.3398 255.708 56.8379 255.708 57.4043V57.9243C255.708 58.4858 255.76 58.9839 255.862 59.4185C255.965 59.8481 256.116 60.2119 256.316 60.5098C256.517 60.8027 256.761 61.0249 257.049 61.1763C257.337 61.3276 257.667 61.4033 258.038 61.4033C258.409 61.4033 258.738 61.3276 259.026 61.1763C259.314 61.0249 259.556 60.8027 259.751 60.5098C259.947 60.2119 260.096 59.8481 260.198 59.4185C260.301 58.9839 260.352 58.4858 260.352 57.9243ZM270.042 52.3359H272.232V59.3818C272.232 60.2021 272.056 60.8931 271.705 61.4546C271.358 62.0161 270.877 62.4385 270.262 62.7217C269.651 63.0049 268.948 63.1465 268.152 63.1465C267.356 63.1465 266.648 63.0049 266.028 62.7217C265.413 62.4385 264.93 62.0161 264.578 61.4546C264.231 60.8931 264.058 60.2021 264.058 59.3818V52.3359H266.255V59.3818C266.255 59.8604 266.331 60.251 266.482 60.5537C266.634 60.8564 266.851 61.0786 267.134 61.2202C267.422 61.3618 267.762 61.4326 268.152 61.4326C268.553 61.4326 268.892 61.3618 269.17 61.2202C269.454 61.0786 269.668 60.8564 269.815 60.5537C269.966 60.251 270.042 59.8604 270.042 59.3818V52.3359ZM278.809 52.3359V63H276.619V52.3359H278.809ZM282.09 52.3359V54.0571H273.389V52.3359H282.09ZM285.679 52.3359V63H283.489V52.3359H285.679ZM294.893 61.2861V63H289.217V61.2861H294.893ZM289.935 52.3359V63H287.737V52.3359H289.935ZM294.153 56.6792V58.3491H289.217V56.6792H294.153ZM294.886 52.3359V54.0571H289.217V52.3359H294.886ZM296.175 52.3359H300.152C300.967 52.3359 301.668 52.458 302.254 52.7021C302.845 52.9463 303.299 53.3076 303.616 53.7861C303.934 54.2646 304.092 54.853 304.092 55.5513C304.092 56.1226 303.995 56.6133 303.799 57.0234C303.609 57.4287 303.338 57.7681 302.986 58.0415C302.64 58.3101 302.232 58.5249 301.763 58.686L301.067 59.0522H297.61L297.596 57.3384H300.167C300.552 57.3384 300.872 57.27 301.126 57.1333C301.38 56.9966 301.57 56.8062 301.697 56.562C301.829 56.3179 301.895 56.0347 301.895 55.7124C301.895 55.3706 301.832 55.0752 301.705 54.8262C301.578 54.5771 301.385 54.3867 301.126 54.2549C300.867 54.123 300.542 54.0571 300.152 54.0571H298.372V63H296.175V52.3359ZM302.137 63L299.705 58.2466L302.027 58.2319L304.488 62.8975V63H302.137Z" fill="white"/>
<defs>
<clipPath id="clip0_0_1">
<rect width="102" height="72" fill="white"/>
</clipPath>
</defs>
</svg>
