<svg width="45" height="17" viewBox="0 0 45 17" fill="none" xmlns="http://www.w3.org/2000/svg">
<path d="M41.1775 8.39345C40.6467 8.37198 40.1163 8.34297 39.5856 8.33154C39.0718 8.32038 38.6443 7.89287 38.6432 7.36635C38.6421 6.69788 38.6429 6.02941 38.6429 5.31688H41.417C41.4167 5.2929 41.4164 5.26863 41.4161 5.24465H34.4066V11.6479H33.3757V10.6565C33.3757 7.27989 33.3757 3.90325 33.3757 0.526886C33.3757 0.0447078 33.3357 0.000924117 32.86 0.000924117C22.2942 -0.000191391 11.7287 -0.000191391 1.16292 0.000366363C0.664742 0.000366363 0.637206 0.0293696 0.636927 0.506528C0.636649 4.05384 0.636649 7.60088 0.636927 11.1482C0.636927 11.6415 0.650558 11.6544 1.15569 11.6552C1.63996 11.6563 2.12395 11.6552 2.65245 11.6552V13.8904C3.33561 14.0368 4.47966 13.9682 4.66714 13.7331H3.00321V11.7266C3.39513 11.6 3.43685 11.6251 3.43991 11.9996C3.44297 12.3647 3.44047 12.7297 3.44047 13.1486C3.9648 13.1486 4.46965 13.1542 4.97423 13.1419C5.04265 13.1402 5.11414 13.0554 5.17589 12.9997C6.25041 12.0269 7.71491 12.1884 8.57525 13.3614C8.65758 13.4738 8.83199 13.5421 8.97663 13.5778C9.12572 13.6143 9.2915 13.5764 9.44866 13.5878C10.0119 13.6285 10.4356 13.5351 10.8739 13.0345C11.8772 11.8889 13.7209 12.2422 14.4024 13.6383C14.5292 13.8982 14.6672 13.9509 14.9247 13.9476C15.9695 13.9339 17.0148 13.942 18.0871 13.942C18.1249 14.3444 18.3883 14.3742 18.7085 14.3712C19.9485 14.3595 21.1888 14.3662 22.4289 14.3664C22.6411 14.3664 22.8472 14.3737 22.9045 14.0873C22.9159 14.0298 23.0383 13.9604 23.1128 13.9562C23.3907 13.9406 23.67 13.9501 23.964 13.9501C23.9932 14.3243 24.2227 14.3773 24.5275 14.3706C25.2071 14.3556 25.8872 14.3659 26.5052 14.3659C26.7467 13.8692 26.9664 13.418 27.2023 12.9325H24.1896V12.8318H25.3812C25.7704 12.8318 26.1595 12.8223 26.5484 12.834C27.0482 12.8491 27.5066 12.7886 27.9811 12.5576C29.0206 12.0518 30.2645 12.5247 30.7441 13.573C30.9057 13.9261 31.1569 13.8912 31.4512 13.9663C32.845 14.3229 34.2541 14.0245 35.651 14.1269C35.7234 14.1322 35.7962 14.1274 35.8961 14.1274C36.2763 13.0164 37.0043 12.3345 38.2343 12.4031C39.3155 12.4634 39.9313 13.1377 40.2501 14.0474C41.5004 14.5762 42.7705 14.2817 44.0158 14.3561C44.1123 14.362 44.2127 14.3625 44.3059 14.3416C44.3496 14.3319 44.4174 14.2538 44.4094 14.2267C44.3932 14.1735 44.3304 14.0948 44.2884 14.0959C44.0483 14.1018 43.8047 14.1057 43.5702 14.1517C43.0467 14.2541 42.9401 14.1785 42.9404 13.6545C42.9404 13.3131 42.9388 12.9718 42.9388 12.6304C42.9388 12.0325 42.9315 12.0239 42.3616 11.9472C42.7549 11.7938 42.8976 11.8588 43.0127 12.2383C43.0286 12.2902 43.057 12.3474 43.0973 12.3811C43.3148 12.5649 43.5376 12.742 43.7971 12.9525C43.5846 11.7732 43.3738 10.6024 43.1574 9.40075H44.3966C44.4094 9.3751 44.4222 9.34916 44.4347 9.3235C44.3657 9.27637 44.3023 9.20219 44.2266 9.18658C43.6951 9.07558 43.161 8.97686 42.6364 8.80814C43.2247 8.88929 43.8127 8.97045 44.401 9.0516C44.4127 9.01841 44.4241 8.98523 44.4358 8.95204C43.8964 8.49859 43.1788 8.47293 42.5349 8.26294C42.4617 7.90709 42.7304 7.42909 42.1591 7.28575C42.4567 6.77317 42.316 6.23466 42.3021 5.71623C42.2957 5.47444 41.916 5.29066 41.5674 5.34811C41.7421 5.38716 41.8392 5.40891 41.9382 5.43122C41.7346 6.00375 41.7861 6.55872 41.8692 7.13237C41.9182 7.47009 41.8075 7.83123 41.7722 8.14887C41.556 8.23951 41.361 8.3215 41.1669 8.40265C41.2261 8.49496 41.3343 8.58727 41.3355 8.68069C41.3457 9.60684 41.3471 10.5333 41.3293 11.4594C41.3249 11.6878 41.2417 11.9148 41.1789 12.2194C41.1955 11.3303 41.2189 10.5355 41.2225 9.74043C41.2245 9.29171 41.1939 8.84272 41.1777 8.39373L41.1775 8.39345ZM32.7557 11.2584C32.7549 11.2862 32.7538 11.3141 32.7529 11.342H2.32506C2.32506 11.3141 2.32506 11.2862 2.32478 11.2584H32.7557ZM23.9718 13.1597V13.691H22.9248C22.8857 13.3372 23.0303 13.1601 23.3587 13.1597C23.5493 13.1597 23.7398 13.1597 23.9718 13.1597ZM18.1177 13.6651H15.3812C15.3812 13.6372 15.3812 13.6093 15.3812 13.5811H17.5558C17.6048 13.1076 17.6426 13.0853 18.1177 13.2194V13.6651ZM18.5747 12.9074C18.5747 12.8923 18.5747 12.8772 18.5747 12.8622H22.5888C22.5888 12.8772 22.5888 12.8923 22.5888 12.9074H18.5747ZM41.2623 13.698C41.0971 13.1447 40.9246 12.5677 40.7744 12.0643C41.1327 12.4015 41.4117 13.3073 41.2623 13.698Z" fill="#023773"/>
<path d="M41.7931 5.04566C41.5859 4.61508 41.4491 4.22409 41.2254 3.89167C40.9142 3.42929 40.5562 2.99424 40.1832 2.57927C39.9554 2.32605 39.6299 2.25689 39.2844 2.32438C39.1787 2.34502 39.0669 2.33665 38.9579 2.33554C37.7301 2.32243 36.502 2.31741 35.2748 2.28757C34.9822 2.28032 34.7944 2.369 34.7441 2.65122C34.6042 3.43571 34.481 4.22298 34.3452 5.04594H41.7934L41.7931 5.04566ZM39.6227 2.67102C40.1028 2.64788 40.8463 3.43292 40.8663 4.00071C40.1679 3.77677 40.0619 3.06145 39.6227 2.67102Z" fill="#023773"/>
<path d="M4.62477 14.61C4.6295 15.7607 5.56745 16.6974 6.71763 16.6997C7.87726 16.7022 8.81381 15.7512 8.80853 14.5768C8.80324 13.4175 7.87921 12.4953 6.72013 12.4925C5.54575 12.4897 4.62005 13.4251 4.62477 14.6097V14.61ZM5.73045 14.622C5.71849 14.0866 6.17244 13.601 6.69815 13.5877C7.22304 13.5743 7.70369 14.0459 7.71037 14.581C7.71732 15.1162 7.29174 15.5635 6.75657 15.5839C6.20498 15.6048 5.74269 15.1714 5.73017 14.6217L5.73045 14.622Z" fill="#023773"/>
<path d="M40.1796 14.5913C40.1773 13.4278 39.2614 12.5033 38.1029 12.4952C36.9201 12.4871 35.9933 13.4116 35.9972 14.5955C36.0014 15.7595 36.9165 16.6876 38.0711 16.6985C39.2277 16.7096 40.1815 15.7561 40.1796 14.5913ZM38.099 15.5835C37.5504 15.5897 37.097 15.1437 37.0948 14.596C37.0929 14.0673 37.5719 13.582 38.0912 13.5868C38.603 13.5912 39.0636 14.0505 39.0778 14.5706C39.0928 15.1189 38.6494 15.5777 38.0987 15.5835H38.099ZM37.5251 13.5592C36.9157 14.0547 36.8089 14.5916 37.0781 15.2162C36.6937 14.6256 36.8559 13.9284 37.5251 13.5592Z" fill="#023773"/>
<path d="M44.8772 14.5436H40.4575V15.6268C40.5418 15.6346 40.6336 15.6505 40.7254 15.6508C41.8286 15.6524 42.9314 15.6471 44.0343 15.6563C44.2396 15.658 44.3712 15.6134 44.456 15.4095C44.5709 15.1332 44.7167 14.8696 44.8772 14.5439V14.5436Z" fill="#023773"/>
<path d="M34.2033 8.45685C34.2033 7.64141 34.2033 6.82597 34.2033 6.01026C34.2033 5.78911 34.2359 5.55485 33.8993 5.54621C33.5702 5.53784 33.5321 5.73361 33.533 5.99743C33.538 7.66484 33.5366 9.33252 33.5346 10.9999C33.5344 11.2367 33.5472 11.4439 33.8656 11.4486C34.1827 11.4531 34.2067 11.2559 34.2053 11.0128C34.2006 10.1608 34.2033 9.30882 34.2033 8.45685Z" fill="#023773"/>
<path d="M37.8569 2.02704C36.5192 1.83155 35.1813 1.63606 33.8097 1.43583V2.07919H37.8555L37.8569 2.02704Z" fill="#023773"/>
<path d="M39.8722 1.76743C39.7609 1.68767 39.6193 1.52007 39.5451 1.546C39.379 1.60401 39.2466 1.75851 39.1006 1.87369C39.2399 1.97826 39.3657 2.13416 39.5217 2.17543C39.7454 2.23455 39.8533 2.08814 39.8725 1.76743H39.8722Z" fill="#023773"/>
<path d="M42.986 13.6434C43.2065 13.743 43.4188 13.8768 43.6496 13.9329C43.8886 13.9909 43.9634 13.8107 43.8663 13.4641C43.5859 13.4828 43.3072 13.5015 43.0282 13.5199C43.0141 13.5611 43.0001 13.6021 42.986 13.6434Z" fill="#023773"/>
<path d="M2.27905 11.8467V13.1192C2.31493 13.1197 2.3511 13.1203 2.38698 13.1206C2.49824 12.6989 2.46236 12.2736 2.40701 11.8478C2.36445 11.8475 2.32161 11.847 2.27905 11.8467Z" fill="#023773"/>
<path d="M44.504 10.3256C44.1644 10.0938 43.7374 10.103 43.484 10.3256H44.504Z" fill="#023773"/>
<path d="M43.5906 10.7573H44.4136C44.2943 10.5383 43.9166 10.5071 43.5906 10.7573Z" fill="#023773"/>
<path d="M44.4073 11.0759H43.6727C43.6727 11.1107 43.6727 11.1456 43.6727 11.1807H44.4073C44.4073 11.1459 44.4073 11.111 44.4073 11.0759Z" fill="#023773"/>
<path d="M43.4466 9.89106H44.4001C44.4007 9.85871 44.4012 9.82664 44.4015 9.79429H43.4449C43.4455 9.82664 43.4458 9.85871 43.4463 9.89106H43.4466Z" fill="#023773"/>
<path d="M43.7654 11.6168H44.3926L44.3976 11.4933C44.1865 11.4838 43.9756 11.4743 43.7645 11.4648C43.7645 11.5153 43.7651 11.566 43.7654 11.6165V11.6168Z" fill="#023773"/>
<path d="M6.72183 13.9455C6.35216 13.9424 6.08179 14.2149 6.08179 14.5908C6.08179 14.9606 6.35744 15.2501 6.71404 15.2548C7.05228 15.2593 7.35435 14.9509 7.35602 14.5989C7.35769 14.2319 7.08232 13.9483 6.72183 13.9452V13.9455Z" fill="#023773"/>
<path d="M38.7247 14.5763C38.7181 14.2124 38.4304 13.9366 38.0677 13.9466C37.6953 13.9569 37.4388 14.2327 37.448 14.6126C37.4569 14.9731 37.7576 15.2671 38.1039 15.2534C38.4499 15.2398 38.7311 14.933 38.7245 14.5763H38.7247Z" fill="#023773"/>
<path d="M16.2398 13.9398L9.13794 13.5862V11.6667H16.2398V13.9398Z" fill="#023773"/>
<path d="M35.8769 14.1209L21.05 14.3562L26.2277 11.7674H33.288L35.8769 14.1209Z" fill="#023773"/>
</svg>
