<svg width="31" height="31" viewBox="0 0 31 31" fill="none" xmlns="http://www.w3.org/2000/svg">
<path d="M31 15.4998C31 19.0554 29.8031 22.3308 27.7893 24.946C27.481 25.3475 27.1528 25.7332 26.8066 26.1023C23.979 29.1168 19.9592 31 15.4998 31C11.0404 31 7.02101 29.1168 4.19337 26.1023C3.84716 25.7336 3.51903 25.3478 3.21034 24.9463C1.19689 22.3312 0 19.0554 0 15.4998C0 6.93948 6.93948 0 15.4998 0C24.0602 0 31 6.93948 31 15.4998Z" fill="#DFEAEF"/>
<path d="M27.8202 25.035C27.5111 25.4306 27.1821 25.8107 26.8351 26.1743C24.0003 29.1446 19.9704 31.0001 15.4997 31.0001C11.029 31.0001 6.99948 29.1446 4.1647 26.1743C3.81762 25.811 3.48867 25.4309 3.1792 25.0353C3.3471 24.4072 3.5468 23.7717 3.98142 23.2874C4.53914 22.6666 5.38718 22.3978 6.19316 22.1548C8.13715 21.569 10.0808 20.9836 12.0248 20.3974C12.2067 19.9252 12.388 19.196 12.4461 18.1054C12.0145 17.6241 11.6531 17.0961 11.4664 16.6367C11.1651 15.897 11.1008 15.1929 11.0978 14.7483C11.0215 14.8854 10.8399 14.957 10.6802 14.9274C10.5014 14.8941 10.3561 14.7587 10.2706 14.6014C10.1848 14.4441 10.1499 14.265 10.1212 14.0889C10.0199 13.4749 9.97583 12.8521 9.98916 12.2304C9.99463 11.9652 10.0535 11.6412 10.3085 11.5559C10.4279 11.5162 10.5606 11.5448 10.6707 11.607C10.6136 10.3611 10.6163 9.61434 10.6789 8.3685C10.711 7.73095 10.7654 7.07022 11.0844 6.51435C11.3792 6.00048 11.8743 5.61265 12.4239 5.37538C12.7179 5.24867 13.0284 5.1455 13.3352 5.06215C14.8097 4.66121 16.3727 4.66759 17.8359 5.10819C18.0835 5.18247 18.3335 5.27086 18.5759 5.37538C19.1254 5.61265 19.6206 6.00048 19.915 6.51435C20.234 7.07022 20.2887 7.73095 20.3209 8.3685C20.3835 9.61434 20.3862 10.3611 20.3291 11.607C20.4392 11.5448 20.5719 11.5162 20.6909 11.5559C20.9463 11.6412 21.0051 11.9652 21.0106 12.2304C21.0239 12.8521 20.9798 13.4749 20.8786 14.0889C20.8499 14.265 20.815 14.4441 20.7292 14.6014C20.6433 14.7587 20.498 14.8941 20.3195 14.9274C20.1598 14.957 19.9779 14.8854 19.9017 14.7483C19.8986 15.1929 19.8346 15.897 19.5334 16.6367C19.3467 17.0961 18.9852 17.6241 18.5533 18.1054C18.6118 19.196 18.7927 19.9252 18.9746 20.3974C20.9186 20.9836 22.8626 21.569 24.8066 22.1548C25.6122 22.3978 26.4606 22.6666 27.0184 23.2874C27.453 23.7717 27.653 24.4069 27.8202 25.035Z" fill="#94A8B2"/>
</svg>
