<svg width="33" height="32" viewBox="0 0 33 32" fill="none" xmlns="http://www.w3.org/2000/svg">
<path fill-rule="evenodd" clip-rule="evenodd" d="M15.42 15.7432C16.7329 17.0142 18.4777 17.7114 20.3365 17.7114C22.1953 17.7114 23.9401 17.0109 25.2531 15.7432C26.5694 14.4756 27.2915 12.7909 27.2915 10.9962C27.2915 9.20482 26.566 7.51685 25.2531 6.2492C23.9401 4.97821 22.1953 4.28101 20.3365 4.28101C18.4811 4.28101 16.7329 4.98155 15.42 6.2492C14.1036 7.51685 13.3815 9.20148 13.3815 10.9962C13.3815 12.7876 14.107 14.4756 15.42 15.7432ZM16.0522 6.85967C17.1993 5.75548 18.7195 5.14834 20.3365 5.14834C21.9535 5.14834 23.4772 5.75548 24.6208 6.85967C25.7644 7.96719 26.3932 9.435 26.3932 10.9962C26.3932 12.5608 25.7644 14.0286 24.6208 15.1327C23.4737 16.2369 21.9535 16.8441 20.3365 16.8441C18.7161 16.8441 17.1959 16.2369 16.0522 15.1327C14.9086 14.0252 14.2798 12.5574 14.2798 10.9962C14.2798 9.43166 14.9086 7.96386 16.0522 6.85967ZM19.6865 22.1782C19.8282 22.2149 19.9733 22.2349 20.1184 22.2349C20.8405 22.2349 21.49 21.7679 21.687 21.104C21.7449 20.9145 21.7654 20.7206 21.7494 20.5298L25.4962 18.0415C25.7518 17.8714 26.0628 17.8113 26.3668 17.8747C26.6709 17.9348 26.93 18.1116 27.0924 18.3684C27.4033 18.8555 27.2686 19.496 26.7849 19.8262L20.1132 24.3864C19.7988 24.5999 19.4083 24.66 19.0421 24.5532L13.4656 22.9253C13.0165 22.7952 12.5328 22.8619 12.1424 23.1121L11.4593 23.5467L8.70248 19.8517L11.4773 18.125C11.923 17.8482 12.4689 17.7714 12.9768 17.9115L20.3326 19.9398C20.533 19.9932 20.6988 20.1199 20.799 20.2967C20.8205 20.3345 20.8384 20.3734 20.8528 20.413C20.858 20.4398 20.8659 20.4663 20.8766 20.4922C20.906 20.6146 20.9026 20.7423 20.8647 20.8672C20.7472 21.2541 20.3222 21.481 19.918 21.3742L15.7374 20.2567C15.5059 20.1966 15.2675 20.3267 15.2053 20.5469C15.1742 20.6537 15.1915 20.7671 15.2468 20.8638C15.302 20.9606 15.3953 21.0306 15.5059 21.0606L19.6865 22.1782ZM8.19655 19.1735L11.0074 17.4245C11.6604 17.0175 12.462 16.9041 13.2117 17.1109L20.5675 19.1392C20.9203 19.2369 21.2247 19.4421 21.4381 19.7235L25.0055 17.3543C25.4582 17.0541 26.0075 16.9473 26.5465 17.0574C27.0855 17.1675 27.5416 17.4778 27.8283 17.9314C28.3742 18.7921 28.1358 19.923 27.2824 20.5068L20.6107 25.0636C20.2548 25.3105 19.8368 25.4373 19.4014 25.4373C19.1941 25.4373 18.9903 25.4072 18.7899 25.3505L13.2134 23.7226C13.0096 23.6625 12.7919 23.6926 12.6157 23.806L11.9639 24.2231L12.0088 24.2833C12.2541 24.6102 12.3508 25.0138 12.2852 25.4108C12.2195 25.8078 11.9984 26.1547 11.6633 26.3916L10.8755 27.0054C10.7995 27.0621 10.7062 27.0954 10.606 27.0954C10.4747 27.0954 10.3504 27.0387 10.2674 26.9387C10.1189 26.7585 10.15 26.495 10.3365 26.3515L11.1312 25.7377C11.1347 25.7361 11.1372 25.7336 11.1398 25.731C11.1424 25.7285 11.145 25.726 11.1485 25.7244C11.3005 25.6176 11.4007 25.4608 11.4318 25.2807C11.4629 25.1006 11.418 24.9204 11.3074 24.7736L7.02659 19.0359C6.80202 18.7356 6.36322 18.6622 6.04881 18.8757L5.26452 19.4829C5.07794 19.6263 4.80499 19.5963 4.65643 19.4162C4.50786 19.236 4.53895 18.9725 4.72553 18.829L5.52019 18.2152C5.52364 18.2136 5.52624 18.2111 5.52883 18.2086C5.53142 18.2061 5.53401 18.2036 5.53747 18.2019C5.87606 17.965 6.29067 17.8716 6.70527 17.935C7.11988 17.9984 7.48266 18.2152 7.72797 18.5455L8.19655 19.1735ZM19.0539 14.1725H19.8313C19.9246 14.1725 20.004 14.0991 20.004 14.0057V11.6605H22.3016C22.3984 11.6605 22.4744 11.5871 22.4744 11.4937V10.8832C22.4744 10.7898 22.3984 10.7165 22.3016 10.7165H20.004V9.10187H22.7024C22.7992 9.10187 22.8752 9.02848 22.8752 8.93507V8.32126C22.8752 8.22786 22.7992 8.15447 22.7024 8.15447H19.0539C18.9571 8.15447 18.8811 8.22786 18.8811 8.32126V14.0057C18.8811 14.0991 18.9571 14.1725 19.0539 14.1725Z" fill="white"/>
</svg>
