<svg width="25" height="25" viewBox="0 0 25 25" fill="none" xmlns="http://www.w3.org/2000/svg">
<path fill-rule="evenodd" clip-rule="evenodd" d="M19.2602 0.895827C21.3718 1.7665 23.0164 3.41111 23.8938 5.51941C24.7711 7.63104 24.7711 9.95618 23.9071 12.0578C23.8604 12.1746 23.747 12.2446 23.6302 12.2446C23.5935 12.2446 23.5535 12.2379 23.5168 12.2213C23.3633 12.1579 23.29 11.9811 23.3533 11.8276C24.164 9.86611 24.1606 7.70443 23.3467 5.74291C22.5327 3.78139 21.0049 2.25354 19.04 1.44292C15.3004 -0.101613 11.0471 1.42624 9.09563 4.85556C9.16073 4.80877 9.20969 4.77067 9.23876 4.74806C9.25735 4.73359 9.2678 4.72546 9.2691 4.72546C9.39586 4.62538 9.58601 4.6454 9.68942 4.7755C9.79284 4.90226 9.77282 5.09241 9.64272 5.19582C9.61937 5.21584 9.04893 5.66285 8.50184 5.91638C8.50184 5.91638 8.4985 5.91972 8.49517 5.91972C8.49183 5.92139 8.48933 5.92222 8.48683 5.92305C8.48432 5.92389 8.48182 5.92472 8.47849 5.92639C8.47682 5.92639 8.47432 5.92722 8.47181 5.92806C8.46931 5.92889 8.46681 5.92973 8.46514 5.92973C8.46181 5.92973 8.45931 5.93056 8.4568 5.93139C8.4543 5.93223 8.4518 5.93306 8.44846 5.93306C8.44513 5.93306 8.44179 5.93389 8.43846 5.93473C8.43512 5.93556 8.43178 5.9364 8.42845 5.9364C8.42511 5.93973 8.41844 5.93973 8.4151 5.93973H8.40176H8.38842H8.37841H8.37507H8.34505H8.33838H8.33171C8.32065 5.93973 8.31189 5.93744 8.30162 5.93476C8.29949 5.93421 8.2973 5.93363 8.29501 5.93306H8.29168C8.27833 5.92973 8.26499 5.92639 8.25498 5.91972H8.25164C8.2383 5.91638 8.22829 5.90971 8.21829 5.90304C8.21726 5.90304 8.21655 5.90272 8.21596 5.90229C8.21463 5.9013 8.21392 5.8997 8.21161 5.8997L8.18159 5.87969L8.17492 5.87301C8.16491 5.86634 8.1549 5.85967 8.14823 5.84966C8.14823 5.848 8.1474 5.84716 8.14656 5.84633C8.14573 5.84549 8.1449 5.84466 8.1449 5.84299C8.13489 5.83298 8.12821 5.82298 8.12154 5.81297C8.11821 5.8063 8.11487 5.80046 8.11154 5.79462C8.1082 5.78878 8.10486 5.78295 8.10153 5.77627V5.77294C8.09986 5.76793 8.09819 5.76376 8.09652 5.75959C8.09486 5.75542 8.09319 5.75125 8.09152 5.74625C8.0896 5.74433 8.08879 5.74352 8.08844 5.74254C8.08818 5.74181 8.08818 5.74099 8.08818 5.73958C8.08485 5.73291 8.08151 5.72623 8.08151 5.71956C8.07818 5.71289 8.07818 5.70956 8.07818 5.70622C8.07484 5.70622 8.07484 5.70288 8.07484 5.69955C7.94808 4.96565 7.94474 4.39187 7.94474 4.36852C7.94474 4.20172 8.07818 4.06828 8.24497 4.06828C8.41177 4.06828 8.5452 4.20172 8.5452 4.36852C8.5452 4.37185 8.5452 4.45191 8.55188 4.58869C9.4826 2.93407 10.9304 1.64307 12.7151 0.902498C14.8234 0.0251522 17.1485 0.0251522 19.2602 0.895827ZM15.9926 15.5172C14.1979 15.5172 12.5133 14.82 11.2456 13.549C9.97798 12.2814 9.27744 10.5934 9.27744 8.80201C9.27744 7.00728 9.97465 5.32265 11.2456 4.055C12.5133 2.78735 14.2013 2.08681 15.9926 2.08681C17.7874 2.08681 19.472 2.78401 20.7397 4.055C22.0073 5.32265 22.7078 7.01062 22.7078 8.80201C22.7078 10.5967 22.0106 12.2814 20.7397 13.549C19.472 14.8167 17.7874 15.5172 15.9926 15.5172ZM15.9926 2.95414C14.4314 2.95414 12.9636 3.56128 11.8561 4.66547C10.7519 5.76966 10.1448 7.23746 10.1448 8.80201C10.1448 10.3632 10.7519 11.831 11.8561 12.9385C12.9603 14.0427 14.4281 14.6499 15.9926 14.6499C17.5538 14.6499 19.0217 14.0427 20.1292 12.9385C21.2334 11.8344 21.8405 10.3666 21.8405 8.80201C21.8405 7.2408 21.2334 5.77299 20.1292 4.66547C19.025 3.56128 17.5538 2.95414 15.9926 2.95414ZM15.7811 20.0406C15.641 20.0406 15.5009 20.0206 15.3641 19.9839L11.3277 18.8664C11.2209 18.8364 11.1308 18.7663 11.0775 18.6696C11.0241 18.5728 11.0074 18.4594 11.0374 18.3527C11.0975 18.1325 11.3277 18.0024 11.5512 18.0624L15.5876 19.18C15.9779 19.2867 16.3882 19.0599 16.5017 18.6729C16.5383 18.5479 16.5415 18.4202 16.5131 18.2977C16.5029 18.2721 16.4953 18.2457 16.4903 18.2192C16.4764 18.1794 16.459 18.1404 16.4383 18.1025C16.3415 17.9257 16.1814 17.7989 15.9879 17.7455L8.88577 15.7173C8.39539 15.5772 7.86832 15.6539 7.43798 15.9308L4.75902 17.6573L7.42084 21.3525L8.0802 20.918C8.45716 20.6678 8.92419 20.6011 9.35786 20.7312L14.742 22.3591C15.0956 22.4658 15.4726 22.4058 15.7762 22.1923L22.2178 17.6321C22.6848 17.3018 22.8149 16.6613 22.5147 16.1743C22.3579 15.9174 22.1077 15.7406 21.8142 15.6806C21.5206 15.6172 21.2204 15.6772 20.9735 15.8474L17.3559 18.3357C17.3713 18.5264 17.3515 18.7203 17.2956 18.9098C17.1055 19.5736 16.4783 20.0406 15.7811 20.0406ZM6.9843 15.2302L4.27054 16.9792L3.81804 16.351C3.58119 16.0208 3.23091 15.8039 2.8306 15.7405C2.43029 15.6772 2.02998 15.7706 1.70306 16.0074C1.69973 16.0091 1.69723 16.0116 1.69472 16.0141C1.69222 16.0166 1.68972 16.0191 1.68638 16.0208L0.919124 16.6346C0.738984 16.778 0.708961 17.0415 0.852405 17.2217C0.99585 17.4018 1.25939 17.4319 1.43953 17.2884L2.19678 16.6813C2.50035 16.4678 2.92401 16.5412 3.14084 16.8414L7.27405 22.5792C7.3808 22.726 7.42416 22.9061 7.39414 23.0862C7.36412 23.2664 7.26737 23.4232 7.12059 23.5299C7.11726 23.5316 7.11476 23.5341 7.11225 23.5366C7.10975 23.5391 7.10725 23.5416 7.10391 23.5433L6.33665 24.1571C6.15651 24.3005 6.12649 24.564 6.26994 24.7442C6.35 24.8443 6.47009 24.901 6.59686 24.901C6.6936 24.901 6.78367 24.8676 6.85706 24.8109L7.61765 24.1971C7.94123 23.9602 8.15473 23.6133 8.21811 23.2163C8.28149 22.8194 8.18809 22.4157 7.95124 22.0888L7.90807 22.0289L8.53722 21.6118C8.70736 21.4984 8.91752 21.4684 9.11434 21.5284L14.4985 23.1564C14.692 23.2131 14.8888 23.2431 15.089 23.2431C15.5093 23.2431 15.9129 23.1163 16.2565 22.8695L22.6982 18.3126C23.5222 17.7288 23.7523 16.598 23.2253 15.7373C22.9484 15.2836 22.508 14.9734 21.9876 14.8633C21.4672 14.7532 20.9368 14.8599 20.4998 15.1602L17.0554 17.5293C16.8493 17.2479 16.5554 17.0426 16.2148 16.9449L9.11261 14.9167C8.38872 14.7098 7.61478 14.8233 6.9843 15.2302ZM15.4972 11.9779H14.7466C14.6532 11.9779 14.5798 11.9045 14.5798 11.8111V6.12669C14.5798 6.03328 14.6532 5.95989 14.7466 5.95989H18.2694C18.3628 5.95989 18.4362 6.03328 18.4362 6.12669V6.7405C18.4362 6.8339 18.3628 6.90729 18.2694 6.90729H15.664V8.52188H17.8824C17.9758 8.52188 18.0492 8.59527 18.0492 8.68867V9.29915C18.0492 9.39255 17.9758 9.46594 17.8824 9.46594H15.664V11.8111C15.664 11.9045 15.5873 11.9779 15.4972 11.9779Z" fill="#023773"/>
</svg>
