<svg preserveAspectRatio="none" width="42" height="37" viewBox="0 0 42 37" fill="none" xmlns="http://www.w3.org/2000/svg">
<path d="M21.0257 36.9709C14.8601 36.9709 8.69322 36.9696 2.52766 36.9737C1.95553 36.9737 1.40898 36.92 0.935122 36.5494C-0.0327889 35.7932 -0.285873 34.5839 0.348183 33.4888C3.39596 28.2285 6.46258 22.9777 9.51305 17.7187C12.266 12.9722 15.0082 8.21731 17.7544 3.46659C18.1758 2.73656 18.581 1.99689 19.0198 1.27649C20.0672 -0.445279 22.0192 -0.421863 23.0355 1.32608C26.6541 7.54237 30.2713 13.7587 33.8777 19.9818C36.4705 24.4543 39.0175 28.9544 41.6439 33.4048C42.6576 35.1238 41.3612 37.0191 39.5896 36.9999C33.4025 36.931 27.2128 36.9737 21.0243 36.9737V36.9709H21.0257ZM23.1863 13.1347C23.1998 12.8317 23.2603 12.2587 23.2428 11.6884C23.2105 10.6429 22.4971 9.79583 21.5278 9.58509C20.0497 9.26277 18.7371 10.3165 18.8058 11.8744C18.9216 14.5052 19.11 17.1333 19.281 19.7615C19.4116 21.7739 19.5637 23.7835 19.7024 25.7946C19.7347 26.2725 19.8599 26.6926 20.2826 26.9681C21.2424 27.5935 22.2722 26.9543 22.3571 25.6775C22.6276 21.5865 22.8969 17.4956 23.185 13.1347H23.1863ZM22.8417 30.9943C22.8376 29.9571 22.0043 29.1265 20.9839 29.1431C19.9931 29.1582 19.2137 29.9723 19.2016 31.004C19.1895 32.0673 19.9837 32.8855 21.023 32.8814C22.0501 32.8772 22.8457 32.0522 22.8417 30.9943Z" fill="#FF0000"/>
<path d="M23.1863 13.1347C22.8982 17.4942 22.6291 21.5853 22.3585 25.6776C22.2737 26.9545 21.2439 27.5922 20.2841 26.9683C19.8614 26.6928 19.7375 26.2727 19.7038 25.7947C19.5652 23.7837 19.4131 21.7726 19.2825 19.7616C19.1115 17.1335 18.9217 14.5054 18.8073 11.8745C18.7386 10.3166 20.0512 9.2643 21.5293 9.58524C22.4985 9.79598 23.212 10.6445 23.2443 11.6886C23.2618 12.2588 23.2013 12.8318 23.1878 13.1348L23.1863 13.1347Z" fill="white"/>
<path d="M22.8418 30.9931C22.8459 32.0509 22.0503 32.876 21.0231 32.8801C19.9839 32.8843 19.1896 32.0661 19.2017 31.0027C19.2138 29.971 19.9933 29.157 20.9841 29.1418C22.0045 29.1267 22.8378 29.9573 22.8418 30.9931Z" fill="white"/>
</svg>
