<svg width="45" height="30" viewBox="0 0 45 24" fill="none" xmlns="http://www.w3.org/2000/svg">
<path d="M30.6593 24C30.5593 24 30.4649 23.9617 30.3926 23.8906C30.3204 23.825 30.2815 23.7265 30.2815 23.6281V14.4831H0.377837C0.172256 14.4831 0 14.3191 0 14.1112V8.82772C0 8.62535 0.1667 8.4558 0.377837 8.4558H30.2815V4.59982C30.2815 4.50137 30.3204 4.4084 30.3926 4.3373C30.4593 4.27166 30.5593 4.2279 30.6593 4.2279H37.7991V0.371936C37.7991 0.169566 37.9658 0 38.1769 0H44.6222C44.8277 0 45 0.164097 45 0.371936V9.35278C45 9.55515 44.8333 9.7247 44.6222 9.7247C44.411 9.7247 44.2443 9.56062 44.2443 9.35278V4.96628H31.0372V8.4558H32.0595C33.7486 8.4558 35.121 9.80675 35.121 11.4695C35.121 13.1322 33.7486 14.4831 32.0595 14.4831H31.0372V23.2562H44.2443V18.8696C44.2443 18.6673 44.411 18.4977 44.6222 18.4977C44.8333 18.4977 45 18.6618 45 18.8696V23.6281C45 23.7211 44.9611 23.8195 44.8889 23.8906C44.8222 23.9617 44.7222 24 44.6222 24H30.6649H30.6593ZM27.4089 13.7448H32.0595C33.3319 13.7448 34.3653 12.7274 34.3653 11.4749C34.3653 10.2224 33.3319 9.20511 32.0595 9.20511H28.798L27.4145 13.7502L27.4089 13.7448ZM23.114 13.7448H26.6255L28.009 9.19964H24.4975L23.114 13.7448ZM18.28 13.7448H22.325L23.7085 9.19964H19.6635L18.28 13.7448ZM13.9851 13.7448H17.4966L18.8801 9.19964H15.3686L13.9851 13.7448ZM9.15113 13.7448H13.1961L14.5796 9.19964H10.5346L9.15113 13.7448ZM4.85617 13.7448H8.3677L9.75121 9.19964H6.23966L4.85617 13.7448ZM0.755657 13.7448H4.07273L5.45623 9.19964H0.755657V13.7448ZM38.5492 4.23337H44.2388V0.743855H38.5492V4.23337Z" fill="#023773"/>
</svg>
