<svg width="27" height="29" viewBox="0 0 31 29" fill="none" xmlns="http://www.w3.org/2000/svg">
<g clip-path="url(#clip0_5431_18335)">
<path d="M2.12027 13.4164C2.42708 10.9619 4.63193 9.10026 7.102 9.17306C7.70521 9.19386 8.29283 9.31867 8.84924 9.55787L10.2689 10.1611C10.6485 10.3223 11.0853 10.1195 11.2049 9.72428L11.5949 8.45024C12.5933 5.17416 15.3442 2.64169 18.7399 2.16848C24.1012 1.41446 28.7138 5.57977 28.7138 10.8007C28.7138 13.2136 27.7257 15.4028 26.1345 16.9837C26.5973 17.5037 27.0133 18.0653 27.3877 18.6581C29.6914 16.4897 31.0538 13.328 30.7522 9.84908C30.2998 4.62814 26.0253 0.410835 20.8044 0.0312249C15.5834 -0.348385 11.0905 2.9745 9.66566 7.64422C8.68284 7.22821 7.58561 7.02541 6.43638 7.10861C2.97309 7.36342 0.165017 10.2443 0.00381255 13.7128C-0.146991 16.9525 1.92786 19.7345 4.82954 20.6602C5.09475 19.9997 5.41195 19.3653 5.78116 18.7621C3.4671 18.1901 1.79266 15.9696 2.11507 13.4164H2.12027Z" fill="#BCC8DB"/>
<path d="M9.25636 19.4537L10.2184 20.2753C10.4472 20.4677 10.78 20.4677 11.0036 20.2649L13.8169 17.7376C14.0925 17.488 14.5345 17.6856 14.5345 18.0548V28.3095H16.859V18.0756C16.859 17.7116 17.2958 17.5296 17.5558 17.7896L19.9582 20.1921C20.2078 20.4417 20.6135 20.4417 20.8631 20.1921L21.5599 19.4953C21.8095 19.2457 21.8095 18.84 21.5599 18.5904L16.4117 13.4423C15.9281 12.9587 15.1533 12.9483 14.6593 13.4215L9.23556 18.5696C8.98076 18.814 8.99115 19.2249 9.25636 19.4537Z" fill="#BCC8DB"/>
</g>
<defs>
<clipPath id="clip0_5431_18335">
<rect width="30.79" height="28.3147" fill="white"/>
</clipPath>
</defs>
</svg>