<svg width="24" height="24" viewBox="0 0 24 24" fill="none" xmlns="http://www.w3.org/2000/svg">
<path fill-rule="evenodd" clip-rule="evenodd" d="M12 23C18.0751 23 23 18.0751 23 12C23 5.92487 18.0751 1 12 1C5.92487 1 1 5.92487 1 12C1 18.0751 5.92487 23 12 23ZM12 24C18.6274 24 24 18.6274 24 12C24 5.37258 18.6274 0 12 0C5.37258 0 0 5.37258 0 12C0 18.6274 5.37258 24 12 24Z" fill="white"/>
<path d="M7.90142 6L12.0062 11.3235L16.0991 6H16.9059L12.3977 11.8447L17.1431 18H16.3483L11.9943 12.366L7.65228 18H6.85742L11.6028 11.8447L7.09469 6H7.90142Z" fill="white"/>
<path fill-rule="evenodd" clip-rule="evenodd" d="M8.14723 5.5L12.0056 10.5039L15.8528 5.5H17.923L13.0291 11.8448L18.1599 18.5H16.1027L11.9949 13.1844L7.89817 18.5H5.84058L10.9714 11.8448L6.07755 5.5H8.14723ZM11.6028 11.8447L6.85739 18H7.65225L11.9943 12.366L16.3483 18H17.1431L12.3977 11.8447L16.9058 6H16.0991L12.0062 11.3235L7.90139 6H7.09467L11.6028 11.8447Z" fill="white"/>
</svg>
