<svg width="92" height="91" viewBox="0 0 92 91" fill="none" xmlns="http://www.w3.org/2000/svg">
<circle cx="45.7966" cy="45.4296" r="45.3562" fill="#023773"/>
<g clip-path="url(#clip0_147_2598)">
<path d="M52.2735 42.5478V32.0818C52.2735 31.4125 51.7293 30.8684 51.0599 30.8684H38.1491C37.4797 30.8684 36.9355 31.4125 36.9355 32.0818V42.5478C36.9355 43.2172 37.4797 43.7612 38.1491 43.7612H51.0599C51.7293 43.7612 52.2735 43.2172 52.2735 42.5478ZM38.11 42.5478V32.0818C38.11 32.0599 38.1272 32.0427 38.1491 32.0427H51.0599C51.0818 32.0427 51.0991 32.0599 51.0991 32.0818V42.5478C51.0991 42.569 51.0818 42.587 51.0599 42.587H38.1491C38.1272 42.587 38.11 42.5697 38.11 42.5478Z" fill="white"/>
<path d="M50.8898 58.8965C49.7561 58.8965 48.833 59.8187 48.833 60.953C48.833 62.0874 49.7553 63.0096 50.8898 63.0096C52.0243 63.0096 52.9466 62.0874 52.9466 60.953C52.9466 59.8187 52.0243 58.8965 50.8898 58.8965ZM50.8898 61.8345C50.4036 61.8345 50.0074 61.4392 50.0074 60.9523C50.0074 60.4653 50.4028 60.07 50.8898 60.07C51.3768 60.07 51.7722 60.4653 51.7722 60.9523C51.7722 61.4392 51.3768 61.8345 50.8898 61.8345Z" fill="white"/>
<path d="M50.8898 53.6099C49.7561 53.6099 48.833 54.5321 48.833 55.6664C48.833 56.8008 49.7553 57.723 50.8898 57.723C52.0243 57.723 52.9466 56.8008 52.9466 55.6664C52.9466 54.5321 52.0243 53.6099 50.8898 53.6099ZM50.8898 56.5479C50.4036 56.5479 50.0074 56.1526 50.0074 55.6656C50.0074 55.1787 50.4028 54.7834 50.8898 54.7834C51.3768 54.7834 51.7722 55.1787 51.7722 55.6656C51.7722 56.1526 51.3768 56.5479 50.8898 56.5479Z" fill="white"/>
<path d="M50.0293 52.0368H51.751C52.2474 52.0368 52.6514 51.6328 52.6514 51.1365V49.6225C52.6514 49.1261 52.2474 48.7222 51.751 48.7222H50.0293C49.5329 48.7222 49.1289 49.1261 49.1289 49.6225V51.1365C49.1289 51.6328 49.5329 52.0368 50.0293 52.0368ZM50.3033 49.8965H51.477V50.8625H50.3033V49.8965Z" fill="white"/>
<path d="M43.1615 61.5942H36.7249C36.4008 61.5942 36.1377 61.8573 36.1377 62.1814C36.1377 62.5055 36.4008 62.7685 36.7249 62.7685H43.1615C43.4857 62.7685 43.7487 62.5055 43.7487 62.1814C43.7487 61.8573 43.4857 61.5942 43.1615 61.5942Z" fill="white"/>
<path d="M36.7249 59.81H38.9641C39.2883 59.81 39.5513 59.547 39.5513 59.2229C39.5513 58.8988 39.2883 58.6357 38.9641 58.6357H36.7249C36.4008 58.6357 36.1377 58.8988 36.1377 59.2229C36.1377 59.547 36.4008 59.81 36.7249 59.81Z" fill="white"/>
<path d="M73.0639 47.8224H55.0851V26.6023C55.0851 25.933 54.541 25.3889 53.8715 25.3889H35.4089C34.7395 25.3889 34.1953 25.933 34.1953 26.6023V64.2577C34.1953 64.927 34.7395 65.4711 35.4089 65.4711H53.8715C54.541 65.4711 55.0851 64.927 55.0851 64.2577V52.9548H73.0639C73.7333 52.9548 74.2775 52.4107 74.2775 51.7414V49.0358C74.2775 48.3665 73.7333 47.8224 73.0639 47.8224ZM66.9342 51.7805L66.1983 48.9967H69.0325L69.7685 51.7805H66.9335H66.9342ZM62.8856 51.7805L62.1489 48.9967H64.9839L65.7199 51.7805H62.8864H62.8856ZM58.8362 51.7805L58.1002 48.9967H60.9345L61.6713 51.7805H58.8362ZM53.9107 64.2577C53.9107 64.2788 53.8935 64.2968 53.8715 64.2968H47.871V55.0701C47.871 54.746 47.608 54.4829 47.2838 54.4829C46.9597 54.4829 46.6966 54.746 46.6966 55.0701V64.2968H35.4089C35.387 64.2968 35.3697 64.2788 35.3697 64.2577V29.109H47.1006C47.4248 29.109 47.6878 28.846 47.6878 28.5219C47.6878 28.1978 47.4248 27.9348 47.1006 27.9348H35.3697V26.6023C35.3697 26.5812 35.387 26.5632 35.4089 26.5632H53.8715C53.8935 26.5632 53.9107 26.5812 53.9107 26.6023V27.9348H49.8409C49.5168 27.9348 49.2537 28.1978 49.2537 28.5219C49.2537 28.846 49.5168 29.109 49.8409 29.109H53.9107V47.258C53.8927 47.24 53.8747 47.2212 53.8567 47.2032C53.0635 46.4117 52.0105 45.9757 50.8909 45.9757C48.578 45.9757 46.6966 47.8569 46.6966 50.1694V52.3309C46.6966 52.655 46.9597 52.918 47.2838 52.918C47.608 52.918 47.871 52.655 47.871 52.3309V50.1694C47.871 48.5043 49.2255 47.1499 50.8909 47.1499C51.6973 47.1499 52.456 47.4639 53.026 48.0338C53.5967 48.6045 53.9107 49.3631 53.9107 50.1694V64.2585V64.2577ZM54.9199 48.9967H56.8851L57.6211 51.7805H55.0851V50.1686C55.0851 49.7662 55.0287 49.3725 54.9199 48.9967ZM73.1031 51.7414C73.1031 51.7625 73.0858 51.7805 73.0639 51.7805H70.9836L70.2477 48.9967H73.0639C73.0851 48.9967 73.1031 49.0147 73.1031 49.0358V51.7414Z" fill="white"/>
</g>
<defs>
<clipPath id="clip0_147_2598">
<rect width="40.0822" height="40.0822" fill="white" transform="translate(34.1953 25.3889)"/>
</clipPath>
</defs>
</svg>
