<?xml version="1.0" encoding="utf-8"?>
<!-- Generator: Adobe Illustrator 16.0.0, SVG Export Plug-In . SVG Version: 6.00 Build 0)  -->
<!DOCTYPE svg PUBLIC "-//W3C//DTD SVG 1.1//EN" "http://www.w3.org/Graphics/SVG/1.1/DTD/svg11.dtd" [
	<!ENTITY ns_extend "http://ns.adobe.com/Extensibility/1.0/">
	<!ENTITY ns_ai "http://ns.adobe.com/AdobeIllustrator/10.0/">
	<!ENTITY ns_graphs "http://ns.adobe.com/Graphs/1.0/">
	<!ENTITY ns_vars "http://ns.adobe.com/Variables/1.0/">
	<!ENTITY ns_imrep "http://ns.adobe.com/ImageReplacement/1.0/">
	<!ENTITY ns_sfw "http://ns.adobe.com/SaveForWeb/1.0/">
	<!ENTITY ns_custom "http://ns.adobe.com/GenericCustomNamespace/1.0/">
	<!ENTITY ns_adobe_xpath "http://ns.adobe.com/XPath/1.0/">
]>
<svg version="1.1" id="Layer_1" xmlns:x="&ns_extend;" xmlns:i="&ns_ai;" xmlns:graph="&ns_graphs;"
	 xmlns="http://www.w3.org/2000/svg" xmlns:xlink="http://www.w3.org/1999/xlink" x="0px" y="0px" width="400px" height="400px"
	 viewBox="0 0 400 400" enable-background="new 0 0 400 400" xml:space="preserve">
<metadata>
	<sfw  xmlns="&ns_sfw;">
		<slices></slices>
		<sliceSourceBounds  width="2531.014" height="2529.718" y="-2548.791" x="18.148" bottomLeftOrigin="true"></sliceSourceBounds>
		<optimizationSettings>
			<targetSettings  targetSettingsID="0" fileFormat="JPEGFormat">
				
					<JPEGFormat  matteColor="#FFFFFF" blurAmount="0.1" embedICCProfile="false" quality="100" noMatteColor="false" optimized="true" progressive="true">
					</JPEGFormat>
			</targetSettings>
		</optimizationSettings>
	</sfw>
</metadata>
<g>
	<path fill="#FFCC51" d="M276.616,151.988c0,0-0.002-20.21,8.394-28.605c0,0,18.738-28.343,46.33-11.815c0,0,11.349,7.93,0,19.279
		s-19.277,35.755-13.06,66.228c6.219,30.472,22.7,80.222-22.386,118.466c-45.085,38.244-90.479,32.027-119.086,6.53
		c-28.606-25.497-99.187-88.616-99.187-88.616s-15.857-14.615-2.8-27.673c11.506-11.505,27.362,1.554,27.362,1.554l44.463,41.666
		c0,0,5.466,5.728,9.018,2.176c3.435-3.435-7.271-12.629-7.271-12.629l-78.048-78.473c0,0-15.142-12.842,0-27.984
		c0,0,13.807-11.504,29.352,4.042c15.547,15.545,63.948,67.37,63.948,67.37s6.322,7.565,9.121,4.767
		c3.386-3.386-6.841-13.871-6.841-13.871l-77.731-85.316c0,0-15.71-18.265-1.245-30.783c16.169-13.992,33.582,7.773,33.582,7.773
		l70.891,84.573c0,0,5.093,6.594,8.578,3.109c3.853-3.853-1.736-10.573-1.736-10.573l-54.413-68.405c0,0-17.256-19.746-4.664-32.337
		c12.593-12.59,26.117,0.311,36.379,13.06l60.01,79.288c0,0,16.21,21.024,29.958,17.223
		C275.855,169.157,276.616,151.988,276.616,151.988z"/>
	<g>
		<path fill="#FFCBA9" d="M276.616,151.988c0,0-0.002-20.21,8.394-28.605c0,0,18.738-28.343,46.33-11.815c0,0,11.349,7.93,0,19.279
			s-19.277,35.755-13.06,66.228c6.219,30.472,22.7,80.222-22.386,118.466c-45.085,38.244-90.479,32.027-119.086,6.53
			c-28.606-25.497-99.187-88.616-99.187-88.616s-15.857-14.615-2.8-27.673c11.506-11.505,27.362,1.554,27.362,1.554l44.463,41.666
			c0,0,5.466,5.728,9.018,2.176c3.435-3.435-7.271-12.629-7.271-12.629l-78.048-78.473c0,0-15.142-12.842,0-27.984
			c0,0,13.807-11.504,29.352,4.042c15.547,15.545,63.948,67.37,63.948,67.37s6.322,7.565,9.121,4.767
			c3.386-3.386-6.841-13.871-6.841-13.871l-77.731-85.316c0,0-15.71-18.265-1.245-30.783c16.169-13.992,33.582,7.773,33.582,7.773
			l70.891,84.573c0,0,5.093,6.594,8.578,3.109c3.853-3.853-1.736-10.573-1.736-10.573l-54.413-68.405
			c0,0-17.256-19.746-4.664-32.337c12.593-12.59,26.117,0.311,36.379,13.06l60.01,79.288c0,0,16.21,21.024,29.958,17.223
			C275.855,169.157,276.616,151.988,276.616,151.988z"/>
		<path fill="#FF996F" d="M230.021,344.707c-19.873,0-39.244-7.509-54.542-21.145c-28.281-25.206-98.483-87.987-99.189-88.618
			c-0.366-0.336-8.426-7.873-8.62-17.395c-0.099-4.84,1.832-9.276,5.739-13.183c3.534-3.534,7.777-5.325,12.612-5.325
			c9.136,0,17.102,6.474,17.436,6.75l0.096,0.084l44.542,41.745c0.677,0.703,3.023,2.718,4.825,2.718
			c0.522,0,0.933-0.178,1.331-0.576c0.046-0.045,0.102-0.102,0.093-0.348c-0.082-2.194-4.377-6.877-7.253-9.351l-0.114-0.106
			l-77.996-78.42c-0.787-0.689-7.007-6.4-7.349-14.75c-0.23-5.615,2.226-11.036,7.301-16.11l0.134-0.123
			c0.224-0.186,5.564-4.56,13.466-4.56c6.54,0,12.791,2.936,18.58,8.725c15.393,15.391,63.512,66.9,63.996,67.418l0.072,0.082
			c1.891,2.256,4.775,4.671,6.057,4.671l0.117-0.035c0.876-0.877-2.177-6.26-6.858-11.061l-77.778-85.365
			c-5.921-6.883-13.709-22.708-1.075-33.642c3.971-3.437,8.365-5.179,13.06-5.179c12.675,0,22.961,12.675,23.393,13.215
			l70.862,84.538c1.131,1.451,3.293,3.411,4.71,3.411c0.242,0,0.541-0.051,0.921-0.431c2.452-2.452-1.816-7.826-1.86-7.879
			l-54.441-68.438c-6.334-7.246-15.519-23.991-4.513-34.996c3.805-3.804,7.998-5.733,12.462-5.733
			c10.311,0,19.786,10.129,26.889,18.954l60.046,79.335c0.119,0.154,13.179,16.888,24.903,16.89c0,0,0.001,0,0.001,0
			c1.012,0,1.996-0.13,2.925-0.388c8.82-2.439,9.611-18.027,9.618-18.184c-0.002-0.767,0.097-20.84,8.838-29.791
			c1.328-1.938,12.696-17.717,30.665-17.717c6.06,0,12.199,1.837,18.247,5.459l0.118,0.076c0.217,0.152,5.319,3.782,5.854,9.854
			c0.37,4.205-1.509,8.403-5.585,12.479c-9.83,9.831-19.006,32.599-12.514,64.414c0.569,2.787,1.223,5.729,1.914,8.843
			c6.727,30.281,16.892,76.042-24.965,111.548C275.87,335.148,252.644,344.707,230.021,344.707z M86.02,203.042
			c-3.735,0-7.027,1.397-9.784,4.153c-3.102,3.102-4.639,6.552-4.569,10.254c0.148,7.806,7.241,14.47,7.312,14.536
			c0.682,0.609,70.882,63.388,99.16,88.591c14.777,13.17,32.717,20.131,51.881,20.131c21.663,0,43.994-9.23,64.58-26.693
			c40.017-33.944,30.557-76.533,23.648-107.63c-0.695-3.132-1.353-6.09-1.928-8.911c-6.809-33.37,3.073-57.51,13.605-68.042
			c3.188-3.189,4.679-6.307,4.431-9.268c-0.331-3.947-3.687-6.599-4.123-6.928c-5.392-3.214-10.813-4.844-16.113-4.844
			c-16.61,0-27.336,15.933-27.443,16.094l-0.254,0.311c-7.707,7.707-7.808,26.998-7.808,27.192
			c-0.036,0.848-0.96,18.746-12.55,21.951c-1.277,0.353-2.62,0.532-3.991,0.532c-0.001,0-0.001,0-0.002,0
			c-13.69-0.001-27.5-17.708-28.082-18.461l-60.021-79.302c-5.997-7.449-15.025-17.415-23.736-17.415
			c-3.412,0-6.563,1.492-9.634,4.562c-11.141,11.14,4.596,29.423,4.756,29.606l54.473,68.476c2.481,2.983,5.645,9.172,1.585,13.232
			c-1.048,1.048-2.345,1.603-3.749,1.603c-3.926,0-7.438-4.402-7.826-4.903l-70.84-84.511c-0.122-0.151-9.559-11.749-20.298-11.749
			c-3.706,0-7.219,1.414-10.442,4.203c-12.773,11.054,0.867,27.283,1.454,27.968l77.692,85.271
			c2.676,2.742,11.214,12.195,6.776,16.632c-0.79,0.79-1.808,1.207-2.945,1.207c-3.777,0-8.153-4.949-9.088-6.062
			c-1.569-1.68-48.699-52.118-63.864-67.282c-5.012-5.012-10.312-7.553-15.751-7.553c-6.064,0-10.303,3.16-10.847,3.586
			c-4.19,4.218-6.229,8.595-6.059,13.009c0.268,6.959,5.959,11.914,6.017,11.963l0.121,0.112l77.993,78.418
			c1.542,1.331,8.407,7.514,8.584,12.181c0.049,1.302-0.387,2.453-1.262,3.328c-1.143,1.143-2.582,1.748-4.16,1.748
			c-3.719,0-7.124-3.344-7.676-3.913l-44.372-41.58C100.274,208.371,93.394,203.042,86.02,203.042z"/>
	</g>
	<g>
		<path fill="#F39A7E" d="M324.105,241.545c-1.647,22.947-11.307,41.617-29.532,57.076c-20.586,17.463-42.918,26.693-64.58,26.693
			c-19.165,0-37.105-6.961-51.881-20.131c-28.278-25.204-98.478-87.982-99.158-88.59c-0.033-0.031-3.374-3.163-5.524-7.637
			l-1.651-3.436l-1.889,3.312c-3.116,5.463-2.97,11.74,0.422,18.15c2.468,4.662,5.787,7.752,5.95,7.903
			c0.706,0.631,70.908,63.412,99.189,88.618c15.299,13.635,34.669,21.145,54.542,21.145c22.623,0,45.849-9.559,67.168-27.643
			c22.868-19.397,32.987-44.077,30.935-75.447L324.105,241.545z"/>
	</g>
	<path fill="#F39A7E" d="M152.753,223.786c-0.989-0.978-1.83-1.728-2.257-2.097l-77.994-78.418l-0.119-0.11
		c-0.025-0.021-2.531-2.197-4.297-5.667l-1.771-3.479l-1.789,3.469c-5.526,10.714,0.946,20.343,5.197,23.998l31.404,31.575
		l0.208,0.182c0.13,0.099,0.223,0.172,0.274,0.213l40.753,38.189l0,0l16.107,16.616
		C166.703,237.154,152.753,223.786,152.753,223.786z"/>
	<path fill="#F39A7E" d="M171.105,181.635c-0.925-1.039-6.147-8.262-6.55-8.657L91.709,89.756l-0.111-0.118
		c-0.024-0.023-2.387-2.354-3.928-5.928l-1.546-3.584l-2.006,3.348c-6.196,10.341-0.351,20.362,3.659,24.279l29.332,33.509
		l0.196,0.195c0.124,0.107,0.212,0.186,0.26,0.23l38.241,40.705l0,0l19.448,24.028C184.177,195.864,171.105,181.635,171.105,181.635
		z"/>
	<path fill="#F39A7E" d="M201.545,153.173c-0.719-0.925-8.767-14.175-9.083-14.529l-49.699-67.129l-0.087-0.105
		c-0.019-0.021-1.875-2.112-2.971-5.203l-1.1-3.099l-1.873,2.702c-5.786,8.346-1.431,17.096,1.72,20.612l22.785,29.803l0.154,0.175
		c0.098,0.097,0.167,0.168,0.206,0.208l20.828,26.666l9.042,9.683l12.027,18.304C208.533,166.224,201.545,153.173,201.545,153.173z"
		/>
	<path fill="#F39A7E" d="M244.866,164.374c-1.015-1.141,23.708,23.832,33.418-8.168
		C278.284,156.205,278.428,202.109,244.866,164.374z"/>
	<path fill="#FCDFC8" d="M306.639,131.754c-8.236,7.225-11.867,17.368-17.001,11.516s-2.619-16.453,5.617-23.678
		c8.236-7.226,19.074-8.339,24.208-2.487S314.875,124.529,306.639,131.754z"/>
	<path fill="#FCDFC8" d="M174.047,83.141c17.293,20.616,29.688,38.689,27.687,40.369c-2.001,1.679-17.643-13.673-34.935-34.288
		c-17.292-20.615-17.224-23.829-15.223-25.509C153.579,62.034,156.755,62.526,174.047,83.141z"/>
	<path fill="#FCDFC8" d="M125.334,98.409c17.293,20.616,29.688,38.689,27.687,40.369c-2.001,1.679-17.643-13.673-34.935-34.288
		c-17.292-20.615-17.224-23.829-15.223-25.509C104.865,77.303,108.042,77.795,125.334,98.409z"/>
	<path fill="#FCDFC8" d="M108.489,151.989c19.164,18.889,33.213,35.71,31.379,37.571c-1.833,1.86-18.856-11.944-38.02-30.833
		c-19.164-18.888-19.399-22.094-17.566-23.955C86.117,132.912,89.325,133.102,108.489,151.989z"/>
	<path fill="#FCDFC8" d="M107.557,218.458c13.638,13.443,23.208,25.849,21.374,27.709c-1.833,1.86-14.377-7.529-28.015-20.971
		s-13.377-16.159-11.543-18.02C91.206,205.317,93.917,205.017,107.557,218.458z"/>
	<path fill="#4BD2E6" d="M113.507,351.942c-0.807,0-1.624-0.217-2.361-0.672c-12.218-7.548-23.701-16.479-34.13-26.545
		c-11.101-10.714-20.947-22.653-29.263-35.486c-1.352-2.085-0.756-4.872,1.329-6.224c2.087-1.352,4.872-0.757,6.224,1.329
		c7.944,12.258,17.351,23.666,27.96,33.905c9.967,9.62,20.938,18.154,32.61,25.365c2.114,1.306,2.77,4.079,1.463,6.193
		C116.489,351.185,115.016,351.942,113.507,351.942z"/>
	<path fill="#4BD2E6" d="M128.106,335.003c-0.796,0-1.602-0.211-2.332-0.654c-11.936-7.25-23.129-15.888-33.268-25.673
		c-9.951-9.605-18.833-20.263-26.399-31.678c-1.373-2.072-0.807-4.864,1.265-6.237c2.072-1.373,4.864-0.807,6.237,1.265
		c7.206,10.871,15.666,21.023,25.147,30.175c9.661,9.324,20.323,17.552,31.69,24.457c2.125,1.291,2.8,4.058,1.51,6.182
		C131.11,334.232,129.626,335.003,128.106,335.003z"/>
	<path fill="#4BD2E6" d="M278.542,100.955c-1.502,0-2.97-0.751-3.823-2.121c-7.726-12.396-16.93-23.968-27.355-34.394
		c-9.793-9.793-20.612-18.521-32.156-25.938c-2.091-1.343-2.697-4.127-1.353-6.218c1.343-2.091,4.128-2.696,6.218-1.353
		c12.084,7.765,23.408,16.898,33.655,27.146c10.909,10.91,20.542,23.021,28.629,35.999c1.314,2.109,0.67,4.884-1.439,6.199
		C280.178,100.735,279.355,100.955,278.542,100.955z"/>
	<path fill="#4BD2E6" d="M260,112.909c-1.486,0-2.94-0.735-3.799-2.081c-7.014-10.999-15.293-21.3-24.609-30.615
		c-9.494-9.494-20.008-17.91-31.252-25.014c-2.101-1.328-2.728-4.107-1.4-6.208s4.107-2.728,6.208-1.4
		c11.806,7.459,22.844,16.293,32.809,26.258c9.777,9.777,18.469,20.591,25.834,32.141c1.336,2.095,0.721,4.877-1.375,6.214
		C261.665,112.681,260.827,112.909,260,112.909z"/>
	<path fill="#1C2530" d="M150.234,55.293c10.311,0,19.786,10.129,26.889,18.954l60.046,79.335
		c0.119,0.154,13.179,16.888,24.903,16.89c0,0,0.001,0,0.001,0c1.012,0,1.996-0.13,2.925-0.388
		c8.82-2.439,9.611-18.027,9.618-18.184c-0.002-0.767,0.097-20.84,8.838-29.791c1.328-1.938,12.696-17.717,30.665-17.717
		c6.06,0,12.199,1.837,18.247,5.459l0.118,0.076c0.217,0.152,5.319,3.782,5.854,9.854c0.37,4.205-1.509,8.403-5.585,12.479
		c-9.83,9.831-19.006,32.599-12.514,64.414c0.569,2.787,1.223,5.729,1.914,8.843c6.727,30.281,16.892,76.042-24.965,111.548
		c-21.319,18.083-44.545,27.642-67.168,27.643c-0.001,0,0,0-0.002,0c-19.872,0-39.243-7.51-54.541-21.145
		c-28.281-25.206-98.483-87.987-99.189-88.618c-0.366-0.336-8.426-7.873-8.62-17.395c-0.099-4.84,1.832-9.276,5.739-13.183
		c3.534-3.534,7.777-5.325,12.612-5.325c9.136,0,17.102,6.474,17.436,6.75l0.096,0.084l44.542,41.745
		c0.677,0.703,3.023,2.718,4.825,2.718c0.522,0,0.933-0.178,1.331-0.576c0.046-0.045,0.102-0.102,0.093-0.348
		c-0.082-2.194-4.377-6.877-7.253-9.351l-0.114-0.106l-77.996-78.42c-0.787-0.689-7.007-6.4-7.349-14.75
		c-0.23-5.615,2.226-11.036,7.301-16.11l0.134-0.123c0.224-0.186,5.564-4.56,13.466-4.56c6.54,0,12.791,2.936,18.58,8.725
		c15.393,15.391,63.512,66.9,63.996,67.418l0.072,0.082c1.891,2.256,4.775,4.671,6.057,4.671l0.117-0.035
		c0.876-0.877-2.177-6.26-6.858-11.061l-77.778-85.365c-5.921-6.883-13.709-22.708-1.075-33.642
		c3.971-3.437,8.365-5.179,13.06-5.179c12.675,0,22.961,12.675,23.393,13.215l70.862,84.538c1.131,1.451,3.293,3.411,4.71,3.411
		c0.242,0,0.541-0.051,0.921-0.431c2.452-2.452-1.816-7.826-1.86-7.879l-54.441-68.438c-6.334-7.246-15.519-23.991-4.513-34.996
		C141.578,57.222,145.771,55.293,150.234,55.293 M150.234,48.293c-6.297,0-12.318,2.691-17.411,7.783
		c-5.901,5.9-8.234,13.872-6.712,22.69c-3.814-4.2-14.247-14.158-27.411-14.158c-6.425,0-12.36,2.316-17.64,6.885
		c-7.362,6.371-10.462,15.203-8.73,24.868c1.145,6.389,4.539,13.354,9.08,18.633l0.065,0.076l0.067,0.074l3.615,3.968
		c-0.869-0.078-1.744-0.118-2.625-0.118c-10.221,0-17.183,5.546-17.943,6.179l-0.128,0.106l-0.123,0.113l-0.134,0.123l-0.114,0.104
		l-0.108,0.109c-6.515,6.515-9.659,13.697-9.345,21.347c0.436,10.638,7.607,17.812,9.527,19.548l25.533,25.671
		c-1.196-0.162-2.424-0.251-3.677-0.251c-6.664,0-12.736,2.55-17.562,7.375c-5.232,5.231-7.925,11.551-7.788,18.275
		c0.25,12.277,9.792,21.404,10.879,22.404l0.036,0.033l0.036,0.032c0.614,0.549,70.796,63.312,99.199,88.627
		c16.582,14.779,37.606,22.919,59.198,22.919c24.306,0,49.098-10.134,71.698-29.304c19.665-16.681,30.815-37.681,33.143-62.416
		c1.954-20.762-2.386-40.294-5.872-55.988l-0.03-0.133c-0.674-3.036-1.311-5.904-1.859-8.592
		c-5.556-27.228,1.324-48.781,10.605-58.064c6.986-6.986,7.994-13.667,7.608-18.042c-0.802-9.117-7.994-14.401-8.811-14.973
		l-0.105-0.074l-0.107-0.07l-0.118-0.076l-0.102-0.066l-0.104-0.062c-7.15-4.283-14.5-6.454-21.844-6.454
		c-20.295,0-33.013,15.933-36.102,20.278c-9.912,10.702-10.389,30.849-10.401,34.039c-0.286,4.789-2.333,11.033-4.484,11.628
		c-0.323,0.089-0.679,0.134-1.06,0.134c-5.714,0-14.748-8.269-19.355-14.157l-60.014-79.292l-0.063-0.083l-0.065-0.082
		c-3.112-3.866-7.879-9.51-13.323-13.864C162.865,50.884,156.465,48.293,150.234,48.293L150.234,48.293z"/>
	<path fill="#FDE7D6" d="M169.61,270.054c1.862-0.84,3.797-1.5,5.737-2.158c1.951-0.612,3.923-1.17,5.912-1.679
		c1.988-0.52,4.003-0.91,6.025-1.295c2.023-0.372,4.06-0.707,6.108-0.969c4.097-0.51,8.237-0.781,12.395-0.816
		c4.155,0.001,8.333,0.19,12.487,0.711c8.316,0.979,16.567,3.094,24.395,6.354c3.903,1.648,7.718,3.543,11.347,5.757
		c1.811,1.11,3.6,2.261,5.329,3.496c1.75,1.206,3.407,2.539,5.057,3.875l-6.097,6.542c-0.844-0.919-1.465-1.67-2.152-2.512
		c-0.667-0.822-1.31-1.652-1.938-2.492c-1.258-1.676-2.424-3.407-3.546-5.163c-2.247-3.511-4.252-7.172-5.971-10.974
		c-1.741-3.79-3.188-7.722-4.311-11.751c-1.137-4.024-1.905-8.159-2.314-12.324c-0.387-4.167-0.396-8.371,0.04-12.516
		c0.223-2.072,0.521-4.131,0.959-6.16c0.448-2.025,0.926-4.038,1.592-5.993c0.645-1.958,1.361-3.885,2.188-5.758
		c0.797-1.883,1.719-3.707,2.717-5.475c1.018-1.759,2.055-3.496,3.22-5.144c1.158-1.651,2.38-3.248,3.671-4.778
		c-0.877,1.805-1.776,3.578-2.54,5.411c-0.81,1.807-1.523,3.648-2.181,5.497c-0.624,1.863-1.233,3.717-1.727,5.598
		c-0.515,1.874-0.913,3.772-1.239,5.671c-0.657,3.799-0.969,7.62-0.956,11.422c0.003,1.901,0.132,3.796,0.292,5.682
		c0.165,1.885,0.44,3.759,0.784,5.617c1.327,7.444,3.938,14.615,7.355,21.373c1.728,3.372,3.653,6.649,5.765,9.796
		c1.053,1.576,2.176,3.102,3.312,4.603c0.57,0.749,1.152,1.487,1.745,2.205c0.574,0.696,1.235,1.467,1.743,2.009l-6.098,6.542
		c-2.999-2.398-6.1-4.665-9.365-6.683c-3.275-1.997-6.635-3.87-10.149-5.445c-1.751-0.796-3.519-1.567-5.322-2.255
		c-1.796-0.709-3.629-1.325-5.469-1.928c-3.684-1.2-7.459-2.155-11.284-2.948c-3.827-0.776-7.711-1.373-11.631-1.776
		c-3.92-0.411-7.877-0.642-11.854-0.709c-1.989-0.04-3.985-0.052-5.982-0.002c-1.999,0.038-3.995,0.164-6.002,0.269
		c-2.005,0.115-4.013,0.28-6.018,0.504C173.627,269.47,171.624,269.737,169.61,270.054z"/>
</g>
</svg>
