<svg width="30" height="35" viewBox="0 0 30 35" fill="none" xmlns="http://www.w3.org/2000/svg">
<path d="M29.3744 8.42476L15.0256 0.0692672C14.9653 0.0363824 14.9078 0.01994 14.8091 0.0117188C14.7872 0.0117188 14.768 0.0117188 14.7187 0.01994L14.6064 0.0583056L0.232936 8.42476C0.090435 8.50971 0 8.66591 0 8.83582V25.5495C0.00548081 25.6181 0.0191838 25.6811 0.0438475 25.7304C0.0657707 25.7825 0.0986545 25.8263 0.156203 25.8839L0.194568 25.9168L14.5735 34.2969C14.6447 34.338 14.7242 34.3599 14.8091 34.3599C14.8941 34.3599 14.9736 34.338 15.0421 34.2969L29.3936 25.9359C29.4429 25.9031 29.484 25.8674 29.5169 25.8208C29.5443 25.7825 29.5635 25.7441 29.5827 25.6975L29.6073 25.5742V8.83308C29.6073 8.66591 29.5196 8.50697 29.3771 8.42202L29.3744 8.42476ZM23.7511 11.3131L20.3722 9.40856L16.6863 7.39711C16.4726 7.27653 16.1793 7.36148 16.0588 7.57797L9.22146 19.5289L6.44543 19.5371V15.8403L9.84353 10.0991L14.9736 1.1298L28.6674 9.10712V23.771L23.9868 15.5937V11.7242C23.9868 11.5543 23.8936 11.3954 23.7456 11.3104L23.7511 11.3131ZM23.055 12.0037V13.9576L21.4053 11.0747L23.055 12.0037ZM8.15545 11.1049L6.44269 13.996V12.0476L8.15545 11.1049ZM14.8037 11.6557L19.2924 19.5042L10.2984 19.5261L14.8009 11.6584L14.8037 11.6557ZM13.1485 26.0044H16.067L14.7845 27.1582L13.1485 26.0044ZM9.09814 9.50996L5.75211 11.3515C5.60139 11.4337 5.50821 11.5954 5.50821 11.7681V20.0084C5.50821 20.1345 5.56028 20.2551 5.64249 20.3428C5.73292 20.4332 5.84802 20.4825 5.97682 20.4825L19.835 20.4497L21.1285 22.716L17.3413 25.0645H0.93722V9.10438L13.5266 1.7738L9.09814 9.50996ZM11.4522 26.0072L14.5598 28.142C14.7078 28.2351 14.8968 28.2406 15.064 28.1337L22.0109 23.275C22.2302 23.1407 22.3014 22.8585 22.1726 22.6365L15.349 10.7103L16.6425 8.44394L19.8131 10.1731L28.5002 25.3577L14.8064 33.335L2.21973 26.0044H11.4549L11.4522 26.0072Z" fill="#303767"/>
</svg>
