<svg width="60" height="55" viewBox="0 0 60 55" fill="none" xmlns="http://www.w3.org/2000/svg">
<path d="M14.1537 54.5518V51.4706H24.0133V46.13L23.4264 46.0273C21.0789 45.6165 19.3183 45.0002 17.9098 44.2813C15.3275 42.9461 14.7406 41.2001 14.7406 40.0704C14.7406 37.9136 16.3839 35.7568 19.9052 35.7568H23.896V30.3134H23.1917C17.4403 30.0053 12.2757 28.6701 8.16754 26.3079C3.23774 23.4322 0.538086 19.4267 0.538086 15.0104V13.4698H50.5403V15.0104C50.5403 19.5294 47.8407 23.5349 42.9109 26.3079C38.9201 28.5674 33.7556 30.0053 27.8867 30.3134H27.1825V35.7568H27.8867C34.3424 35.4487 40.7981 34.0108 45.4932 31.854C52.6531 28.5674 56.2918 23.5349 56.2918 17.0645C56.2918 9.2589 49.2492 3.61012 39.6244 3.61012C37.7463 3.61012 35.8683 3.91824 33.9903 4.43176H33.8729H33.7556C32.9339 4.94529 32.2297 5.56152 31.6428 6.38316C31.2906 6.89668 28.1215 7.82103 25.774 7.82103C24.835 7.82103 24.4828 7.61562 24.3655 7.51291C24.3655 4.94529 29.4126 2.58307 31.2906 1.86414C31.408 1.86414 31.5254 1.76143 31.7602 1.76143C34.2251 0.837089 36.8073 0.42627 39.507 0.42627C51.0098 0.42627 59.6957 7.51291 59.6957 17.0645C59.6957 24.6646 55.3528 30.7242 47.0191 34.627C38.568 38.5298 28.9431 38.9406 25.1871 38.9406H19.4357C18.2619 38.9406 17.7924 39.3515 17.7924 40.0704C17.7924 41.3028 20.1399 42.4326 24.1307 43.0488C27.2999 43.5624 31.408 43.8705 36.69 43.8705V46.9516C33.286 46.9516 30.3516 46.8489 27.652 46.6435L26.8304 46.5408V51.4706H36.69V54.5518H14.1537ZM4.64625 17.2699C5.58526 20.4537 8.28492 22.5078 10.2803 23.7403C14.2711 25.9998 19.7878 27.2323 25.774 27.2323C31.7602 27.2323 37.2768 25.9998 41.2676 23.7403C43.3804 22.5078 46.0801 20.4537 46.9017 17.2699L47.1364 16.5509H4.4115C4.4115 16.4482 4.64625 17.2699 4.64625 17.2699Z" fill="url(#paint0_linear_289_70)"/>
<defs>
<linearGradient id="paint0_linear_289_70" x1="0.764035" y1="27.4834" x2="60.2503" y2="27.4834" gradientUnits="userSpaceOnUse">
<stop stop-color="#009640"/>
<stop offset="0.15" stop-color="#049741"/>
<stop offset="0.32" stop-color="#119B47"/>
<stop offset="0.49" stop-color="#26A150"/>
<stop offset="0.66" stop-color="#44AB5D"/>
<stop offset="0.84" stop-color="#6BB66E"/>
<stop offset="1" stop-color="#96C481"/>
</linearGradient>
</defs>
</svg>
